G04 PROTEUS GERBER X2 FILE*
%TF.GenerationSoftware,Labcenter,Proteus,8.6-SP2-Build23525*%
%TF.CreationDate,2023-01-18T21:31:38+00:00*%
%TF.FileFunction,Paste,Bot*%
%TF.FilePolarity,Positive*%
%TF.Part,Single*%
%FSLAX45Y45*%
%MOMM*%
G01*
%TA.AperFunction,Material*%
%ADD24R,1.016000X1.524000*%
%TA.AperFunction,Profile*%
%ADD16C,0.203200*%
%TD.AperFunction*%
D24*
X-9855252Y+5550000D03*
X-9540292Y+5550000D03*
X-9855252Y+5250000D03*
X-9540292Y+5250000D03*
X-9855252Y+4650000D03*
X-9540292Y+4650000D03*
X-9855252Y+4050000D03*
X-9540292Y+4050000D03*
X-9855252Y+4950000D03*
X-9540292Y+4950000D03*
X-9855252Y+4350000D03*
X-9540292Y+4350000D03*
X-9855252Y+3750000D03*
X-9540292Y+3750000D03*
X-9670212Y+3450000D03*
X-9355252Y+3450000D03*
X-9670212Y+3150000D03*
X-9355252Y+3150000D03*
X-9655252Y+2750000D03*
X-9340292Y+2750000D03*
X-9655252Y+2460000D03*
X-9340292Y+2460000D03*
X-9655252Y+2200000D03*
X-9340292Y+2200000D03*
X-9655252Y+1850000D03*
X-9340292Y+1850000D03*
X-9655252Y+1550000D03*
X-9340292Y+1550000D03*
X-9655252Y+1250000D03*
X-9340292Y+1250000D03*
X-9570212Y+950000D03*
X-9255252Y+950000D03*
X-9570212Y+650000D03*
X-9255252Y+650000D03*
X-9570212Y+350000D03*
X-9255252Y+350000D03*
X-9570212Y+50000D03*
X-9255252Y+50000D03*
X-9570212Y-250000D03*
X-9255252Y-250000D03*
X-9570212Y-550000D03*
X-9255252Y-550000D03*
X-9570212Y-850000D03*
X-9255252Y-850000D03*
X-9570212Y-1150000D03*
X-9255252Y-1150000D03*
X-9570212Y-1450000D03*
X-9255252Y-1450000D03*
X-9570212Y-1750000D03*
X-9255252Y-1750000D03*
X-9570212Y-2050000D03*
X-9255252Y-2050000D03*
X-9570212Y-2350000D03*
X-9255252Y-2350000D03*
X-9570212Y-2650000D03*
X-9255252Y-2650000D03*
X-9570212Y-2950000D03*
X-9255252Y-2950000D03*
X-9570212Y-3550000D03*
X-9255252Y-3550000D03*
X-9570212Y-3250000D03*
X-9255252Y-3250000D03*
X-9570212Y-3850000D03*
X-9255252Y-3850000D03*
X-9570212Y-4150000D03*
X-9255252Y-4150000D03*
X-9570212Y-4450000D03*
X-9255252Y-4450000D03*
X-9570212Y-4750000D03*
X-9255252Y-4750000D03*
X-9570212Y-5050000D03*
X-9255252Y-5050000D03*
D16*
X-11100000Y-7200000D02*
X+12000000Y-7200000D01*
X+12000000Y+6800000D01*
X-11100000Y+6800000D01*
X-11100000Y-7200000D01*
M02*
