G04 PROTEUS GERBER X2 FILE*
%TF.GenerationSoftware,Labcenter,Proteus,8.6-SP2-Build23525*%
%TF.CreationDate,2023-01-18T21:31:38+00:00*%
%TF.FileFunction,Copper,L2,Bot*%
%TF.FilePolarity,Positive*%
%TF.Part,Single*%
%FSLAX45Y45*%
%MOMM*%
G01*
%TA.AperFunction,Conductor*%
%ADD10C,0.508000*%
%ADD17C,0.254000*%
%TA.AperFunction,ViaPad*%
%ADD11C,0.762000*%
%AMPPAD002*
4,1,36,
-0.228600,0.762000,
0.228600,0.762000,
0.290920,0.755940,
0.348560,0.738490,
0.400380,0.710770,
0.445290,0.673890,
0.482160,0.628980,
0.509880,0.577160,
0.527330,0.519520,
0.533400,0.457200,
0.533400,-0.457200,
0.527330,-0.519520,
0.509880,-0.577160,
0.482160,-0.628980,
0.445290,-0.673890,
0.400380,-0.710770,
0.348560,-0.738490,
0.290920,-0.755940,
0.228600,-0.762000,
-0.228600,-0.762000,
-0.290920,-0.755940,
-0.348560,-0.738490,
-0.400380,-0.710770,
-0.445290,-0.673890,
-0.482160,-0.628980,
-0.509880,-0.577160,
-0.527330,-0.519520,
-0.533400,-0.457200,
-0.533400,0.457200,
-0.527330,0.519520,
-0.509880,0.577160,
-0.482160,0.628980,
-0.445290,0.673890,
-0.400380,0.710770,
-0.348560,0.738490,
-0.290920,0.755940,
-0.228600,0.762000,
0*%
%TA.AperFunction,ComponentPad*%
%ADD12PPAD002*%
%TA.AperFunction,ComponentPad*%
%ADD13C,1.651000*%
%TA.AperFunction,ComponentPad*%
%ADD14C,1.524000*%
%TA.AperFunction,SMDPad,CuDef*%
%ADD18R,1.016000X1.524000*%
%TA.AperFunction,OtherPad,Unknown*%
%ADD15C,4.500000*%
%TA.AperFunction,Profile*%
%ADD16C,0.203200*%
%TD.AperFunction*%
D10*
X+3044748Y-4350000D02*
X+3044748Y-6372141D01*
X+3041609Y-6375280D01*
X+3041609Y-6526861D01*
X+3164748Y-6650000D01*
X+3298748Y-4350000D02*
X+3298748Y-5074169D01*
X+3187667Y-5185250D01*
X+3187667Y-6377081D01*
X+3164748Y-6400000D01*
X+3672748Y-6650000D02*
X+3549619Y-6526871D01*
X+3549619Y-5772373D01*
X+3590928Y-5731064D01*
X+3590928Y-4700093D01*
X+3898748Y-4392273D01*
X+3898748Y-4350000D01*
X+3672748Y-6400000D02*
X+3672748Y-4780061D01*
X+3676496Y-4776313D01*
X+3676496Y-4749291D01*
X+4025748Y-4400039D01*
X+4025748Y-4350000D01*
X+3418748Y-6650000D02*
X+3295574Y-6526826D01*
X+3295574Y-5173039D01*
X+3425748Y-5042865D01*
X+3425748Y-4350000D01*
X+3418748Y-6400000D02*
X+3418748Y-5151831D01*
X+3524923Y-5045656D01*
X+3524923Y-4469825D01*
X+3644748Y-4350000D01*
X+7736748Y-6650000D02*
X+7605965Y-6519217D01*
X+7605965Y-6176905D01*
X+8098918Y-5683952D01*
X+8954688Y-5683952D01*
X+10212440Y-4426200D01*
X+10244748Y-4350000D01*
X+7736748Y-6400000D02*
X+7736748Y-6182680D01*
X+8135333Y-5784095D01*
X+9114007Y-5784095D01*
X+10498748Y-4399354D01*
X+10498748Y-4350000D01*
X+7990748Y-6650000D02*
X+7864748Y-6524000D01*
X+7864748Y-6200343D01*
X+8167197Y-5897894D01*
X+9145871Y-5897894D01*
X+10607053Y-4436712D01*
X+10607053Y-4426200D01*
X+10625748Y-4350000D01*
X+8244748Y-6650000D02*
X+8113910Y-6519162D01*
X+8113910Y-6288028D01*
X+8117126Y-6284812D01*
X+8312861Y-6089077D01*
X+9428094Y-6089077D01*
X+9537341Y-5979830D01*
X+11080458Y-4436713D01*
X+11080458Y-4426200D01*
X+11098748Y-4350000D01*
X+8244748Y-6400000D02*
X+8449515Y-6195233D01*
X+8470893Y-6195233D01*
X+9445016Y-6195233D01*
X+11225748Y-4414501D01*
X+11225748Y-4350000D01*
X+6720748Y-6400000D02*
X+6720748Y-6309787D01*
X+6597593Y-6360000D02*
X+6597593Y-6302845D01*
X+6720748Y-6650000D02*
X+6597593Y-6526845D01*
X+6597593Y-6360000D01*
X+7482748Y-6400000D02*
X+7482748Y-6337782D01*
X+7482748Y-6168114D01*
X+7689240Y-5961622D01*
X+7742805Y-5908057D01*
X+8062502Y-5588360D01*
X+8836338Y-5588360D01*
X+10025748Y-4398950D01*
X+10025748Y-4350000D01*
X+7351911Y-6410000D02*
X+7351911Y-6326435D01*
X+7482748Y-6650000D02*
X+7351911Y-6519163D01*
X+7351911Y-6410000D01*
X+7097904Y-6330000D02*
X+7097904Y-6259058D01*
X+7228748Y-6650000D02*
X+7097904Y-6519156D01*
X+7097904Y-6330000D01*
X+6466748Y-6340000D02*
X+6466748Y-6292000D01*
X+6466748Y-6400000D02*
X+6466748Y-6340000D01*
X+6343648Y-6440000D02*
X+6343648Y-6360000D01*
X+6343648Y-6271529D01*
X+6466748Y-6650000D02*
X+6343648Y-6526900D01*
X+6343648Y-6440000D01*
X+6081974Y-6340000D02*
X+6081974Y-6273397D01*
X+6212748Y-6650000D02*
X+6081974Y-6519226D01*
X+6081974Y-6340000D01*
X+5917038Y-6290000D02*
X+5917038Y-6240232D01*
X+5958748Y-6400000D02*
X+5917038Y-6358290D01*
X+5917038Y-6290000D01*
X+5835645Y-6470000D02*
X+5835645Y-6322417D01*
X+5958748Y-6650000D02*
X+5835645Y-6526897D01*
X+5835645Y-6470000D01*
X+5704748Y-6400000D02*
X+5704748Y-6339064D01*
X+5581616Y-6430000D02*
X+5581616Y-6336474D01*
X+5704748Y-6650000D02*
X+5581616Y-6526868D01*
X+5581616Y-6430000D01*
X+6239528Y-4755220D02*
X+5319954Y-5674794D01*
X+5319954Y-5705813D01*
X+5450748Y-6650000D02*
X+5319954Y-6519206D01*
X+5319954Y-5705813D01*
X+6239528Y-4755220D02*
X+6644748Y-4350000D01*
X+6151564Y-4687427D02*
X+5196748Y-5642243D01*
X+5196748Y-5687473D01*
X+5196748Y-6400000D02*
X+5196748Y-5687473D01*
X+6151564Y-4687427D02*
X+6425748Y-4413243D01*
X+6425748Y-4350000D01*
X+6169556Y-4524808D02*
X+6124446Y-4569918D01*
X+5065889Y-5628475D01*
X+5065889Y-5670000D01*
X+5196748Y-6650000D02*
X+5065889Y-6519141D01*
X+5065889Y-5670000D01*
X+6124446Y-4569918D02*
X+6124447Y-4569918D01*
X+6169556Y-4524808D01*
X+6298748Y-4395617D01*
X+6298748Y-4350000D01*
X+5549748Y-4845000D02*
X+5458745Y-4936003D01*
X+4942748Y-5452000D01*
X+4942748Y-5540000D01*
X+4942748Y-6400000D02*
X+4942748Y-5540000D01*
X+5549748Y-4845000D02*
X+6044748Y-4350000D01*
X+5298189Y-4792861D02*
X+4688748Y-5402302D01*
X+4688748Y-5430000D01*
X+4688748Y-6400000D02*
X+4688748Y-5430000D01*
X+5298189Y-4792861D02*
X+5698748Y-4392302D01*
X+5698748Y-4350000D01*
X+5444748Y-4350000D02*
X+5444748Y-4420135D01*
X+4557951Y-5306932D01*
X+4688748Y-6650000D02*
X+4557951Y-6519203D01*
X+4557951Y-5306932D01*
X+4978020Y-4659220D02*
X+4434748Y-5202492D01*
X+4434748Y-5230000D01*
X+4434748Y-6400000D02*
X+4434748Y-5230000D01*
X+4978020Y-4659220D02*
X+5225748Y-4411492D01*
X+5225748Y-4350000D01*
X+4982741Y-4528618D02*
X+4306991Y-5204368D01*
X+4306991Y-5220000D01*
X+4434748Y-6650000D02*
X+4306991Y-6522243D01*
X+4306991Y-5220000D01*
X+4982741Y-4528618D02*
X+5098748Y-4412611D01*
X+5098748Y-4350000D01*
X+4689748Y-4505000D02*
X+4490492Y-4704256D01*
X+4180748Y-5014000D01*
X+4180748Y-5050000D01*
X+4180748Y-6400000D02*
X+4180748Y-5050000D01*
X+4689748Y-4505000D02*
X+4844748Y-4350000D01*
X+7666683Y-5858065D02*
X+7351911Y-6172837D01*
X+7351911Y-6326435D02*
X+7351911Y-6172837D01*
X+7631366Y-5756618D02*
X+7616406Y-5771578D01*
X+7228748Y-6159236D01*
X+7228748Y-6310000D01*
X+7228748Y-6400000D02*
X+7228748Y-6310000D01*
X+7616406Y-5771578D02*
X+7616407Y-5771578D01*
X+7631366Y-5756618D01*
X+8003325Y-5384660D01*
X+8640088Y-5384660D01*
X+9598548Y-4426200D01*
X+9644748Y-4350000D01*
X+7606874Y-5640000D02*
X+7097904Y-6148970D01*
X+7097904Y-6259058D02*
X+7097904Y-6148970D01*
X+7606874Y-5640000D02*
X+7964590Y-5282284D01*
X+8538138Y-5282284D01*
X+9425748Y-4394674D01*
X+9425748Y-4350000D01*
X+6974748Y-6085496D02*
X+6974748Y-6210000D01*
X+6974748Y-6400000D02*
X+6974748Y-6210000D01*
X+7557496Y-5502748D02*
X+7572496Y-5487748D01*
X+7557496Y-5502748D02*
X+6974748Y-6085496D01*
X+6974748Y-6650000D02*
X+6851303Y-6526555D01*
X+6851303Y-6048433D01*
X+7780109Y-5119627D01*
X+8275121Y-5119627D01*
X+9044748Y-4350000D01*
X+7294748Y-5340000D02*
X+7231880Y-5402868D01*
X+6720748Y-5914000D01*
X+6720748Y-6053171D01*
X+6720748Y-6309787D02*
X+6720748Y-6053171D01*
X+7294748Y-5340000D02*
X+7604748Y-5030000D01*
X+8189562Y-5030000D01*
X+8822680Y-4396882D01*
X+8822680Y-4387778D01*
X+8825748Y-4350000D01*
X+7354748Y-5160000D02*
X+7218093Y-5296655D01*
X+6597593Y-5917155D01*
X+6597593Y-6302845D02*
X+6597593Y-5917155D01*
X+7354748Y-5160000D02*
X+7524748Y-4990000D01*
X+7571629Y-4943119D01*
X+8148024Y-4943119D01*
X+8698748Y-4392395D01*
X+8698748Y-4350000D01*
X+7224482Y-5119734D02*
X+7158234Y-5185982D01*
X+6466748Y-5877468D01*
X+6466748Y-6292000D02*
X+6466748Y-5877468D01*
X+7158234Y-5185982D02*
X+7158235Y-5185982D01*
X+7224482Y-5119734D01*
X+7448779Y-4895438D01*
X+7470645Y-4873572D01*
X+7946517Y-4873572D01*
X+8393889Y-4426200D01*
X+8444748Y-4350000D01*
X+7161336Y-5056588D02*
X+7097924Y-5120000D01*
X+6343648Y-5874276D01*
X+6343648Y-6271529D02*
X+6343648Y-5874276D01*
X+7097924Y-5120000D02*
X+7097925Y-5120000D01*
X+7161336Y-5056588D01*
X+7410386Y-4807539D01*
X+7810563Y-4807539D01*
X+8209567Y-4408535D01*
X+8209567Y-4395319D01*
X+8225748Y-4350000D01*
X+6212748Y-5886384D02*
X+6212748Y-6095820D01*
X+6212748Y-6400000D02*
X+6212748Y-6095820D01*
X+7056940Y-5042192D02*
X+7161940Y-4937192D01*
X+7373127Y-4726005D01*
X+7774091Y-4726005D01*
X+8098748Y-4401348D01*
X+8098748Y-4350000D01*
X+7056940Y-5042192D02*
X+6212748Y-5886384D01*
X+7083782Y-4879034D02*
X+7026197Y-4936619D01*
X+6081974Y-5880842D01*
X+6081974Y-6095820D01*
X+6081974Y-6273397D02*
X+6081974Y-6095820D01*
X+7083782Y-4879034D02*
X+7267019Y-4695797D01*
X+7302816Y-4660000D01*
X+7534748Y-4660000D01*
X+7791408Y-4403340D01*
X+7844748Y-4350000D01*
X+7111984Y-4737236D02*
X+7008021Y-4841199D01*
X+5917038Y-5932182D01*
X+5917038Y-6240232D02*
X+5917038Y-5932182D01*
X+7111984Y-4737236D02*
X+7267019Y-4582201D01*
X+7439685Y-4582201D01*
X+7621438Y-4400448D01*
X+7621438Y-4382272D01*
X+7625748Y-4350000D01*
X+7044748Y-4680000D02*
X+6974425Y-4750323D01*
X+5835645Y-5889103D01*
X+5835645Y-5990000D01*
X+5835645Y-6322417D02*
X+5835645Y-5990000D01*
X+7044748Y-4680000D02*
X+7228880Y-4495868D01*
X+7416966Y-4495868D01*
X+7498748Y-4414086D01*
X+7498748Y-4350000D01*
X+7037029Y-4562281D02*
X+6953496Y-4645814D01*
X+5704748Y-5894562D01*
X+5704748Y-6050000D01*
X+5704748Y-6339064D02*
X+5704748Y-6050000D01*
X+7037029Y-4562281D02*
X+7191408Y-4407902D01*
X+7244748Y-4350000D01*
X+6907968Y-4523220D02*
X+6876250Y-4554938D01*
X+5581616Y-5849572D01*
X+5581616Y-5996306D01*
X+5581616Y-6336474D02*
X+5581616Y-5996306D01*
X+6907968Y-4523220D02*
X+7004988Y-4426200D01*
X+7025748Y-4350000D01*
X+6854810Y-4440062D02*
X+6824950Y-4469922D01*
X+5450748Y-5844124D01*
X+5450748Y-5944180D01*
X+5450748Y-6400000D02*
X+5450748Y-5944180D01*
X+6824950Y-4469922D02*
X+6824951Y-4469922D01*
X+6854810Y-4440062D01*
X+6898748Y-4396125D01*
X+6898748Y-4350000D01*
X+4462501Y-4557753D02*
X+4419580Y-4600674D01*
X+4057543Y-4962711D01*
X+4180748Y-6650000D02*
X+4057543Y-6526795D01*
X+4057543Y-4962711D01*
X+4462501Y-4557753D02*
X+4625748Y-4394506D01*
X+4625748Y-4350000D01*
X+4394452Y-4499704D02*
X+3926748Y-4967408D01*
X+3926748Y-6400000D02*
X+3926748Y-4967408D01*
X+4394452Y-4499704D02*
X+4498748Y-4395407D01*
X+4498748Y-4350000D01*
X+2825748Y-4350000D02*
X+2825748Y-4380999D01*
X+2902521Y-4457772D01*
X+2902521Y-6391773D01*
X+2910748Y-6400000D01*
X+2698748Y-4350000D02*
X+2698748Y-4444000D01*
X+2787568Y-4532820D01*
X+2787568Y-6526820D01*
X+2910748Y-6650000D01*
X+2444748Y-4350000D02*
X+2444748Y-4420001D01*
X+2656748Y-4632001D01*
X+2656748Y-6400000D01*
X+2656748Y-6650000D02*
X+2656748Y-6574285D01*
X+2533569Y-6451106D01*
X+2533569Y-4668821D01*
X+2244748Y-4380000D01*
X+2244748Y-4369000D01*
X+2225748Y-4350000D01*
X+2402748Y-6400000D02*
X+2402748Y-4696559D01*
X+2111325Y-4405136D01*
X+2111325Y-4370811D01*
X+2098748Y-4350000D01*
X+2402748Y-6650000D02*
X+2279586Y-6526838D01*
X+2279586Y-4827165D01*
X+1844748Y-4392327D01*
X+1844748Y-4350000D01*
X+2148748Y-6400000D02*
X+2148748Y-4873000D01*
X+1625748Y-4350000D01*
X+2148748Y-6650000D02*
X+2025612Y-6526864D01*
X+2025612Y-4920864D01*
X+1494748Y-4390000D01*
X+1494748Y-4380000D01*
X+1498748Y-4350000D01*
X+1894748Y-6650000D02*
X+1768272Y-6523524D01*
X+1768272Y-5123524D01*
X+1070948Y-4426200D01*
X+1025748Y-4350000D01*
X+1386748Y-6400000D02*
X+1386748Y-5311000D01*
X+425748Y-4350000D01*
X+1386748Y-6650000D02*
X+1255954Y-6519206D01*
X+1255954Y-5349528D01*
X+327890Y-4421464D01*
X+327890Y-4389617D01*
X+298748Y-4350000D01*
X+1132748Y-6400000D02*
X+1132748Y-5481563D01*
X+44748Y-4393563D01*
X+44748Y-4350000D01*
X+1132748Y-6650000D02*
X+1009648Y-6526900D01*
X+1009648Y-5557965D01*
X-122117Y-4426200D01*
X-174252Y-4350000D01*
X+878748Y-6400000D02*
X+878748Y-5574000D01*
X-269052Y-4426200D01*
X-301252Y-4350000D01*
X+878748Y-6650000D02*
X+754748Y-6526000D01*
X+754748Y-5702435D01*
X-547972Y-4399715D01*
X-547972Y-4379886D01*
X-555252Y-4350000D01*
X+624748Y-6400000D02*
X+624748Y-5749000D01*
X-774252Y-4350000D01*
X+624748Y-6650000D02*
X+493855Y-6519107D01*
X+493855Y-5790741D01*
X-893572Y-4403314D01*
X-893572Y-4376112D01*
X-901252Y-4350000D01*
X+370748Y-6400000D02*
X+370748Y-5918412D01*
X-1155252Y-4392412D01*
X-1155252Y-4350000D01*
X+370748Y-6650000D02*
X+247538Y-6526790D01*
X+247538Y-5971790D01*
X-1374252Y-4350000D01*
X+116748Y-6400000D02*
X+116748Y-6018898D01*
X-1501252Y-4400898D01*
X-1501252Y-4350000D01*
X+116748Y-6650000D02*
X-6464Y-6526788D01*
X-6464Y-6141492D01*
X-1721756Y-4426200D01*
X-1755252Y-4350000D01*
X-137252Y-6400000D02*
X-137252Y-6187000D01*
X-1974252Y-4350000D01*
X-137252Y-6650000D02*
X-262474Y-6524778D01*
X-262474Y-6232778D01*
X-2106021Y-4389231D01*
X-2106021Y-4385040D01*
X-2101252Y-4350000D01*
X+1640748Y-6650000D02*
X+1517574Y-6526826D01*
X+1517574Y-5267423D01*
X+644748Y-4394597D01*
X+644748Y-4350000D01*
X-1661252Y-6650000D02*
X-2247392Y-6650000D01*
X-4511507Y-4385885D01*
X-4511507Y-4375433D01*
X-4501252Y-4350000D01*
X-1661252Y-6400000D02*
X-2324252Y-6400000D01*
X-4374252Y-4350000D01*
X-1407252Y-6650000D02*
X-1530409Y-6526843D01*
X-1530409Y-6354843D01*
X-1725252Y-6160000D01*
X-2392454Y-6160000D01*
X-4155252Y-4397202D01*
X-4155252Y-4350000D01*
X-1407252Y-6400000D02*
X-1407252Y-6371703D01*
X-1736322Y-6042633D01*
X-2358256Y-6042633D01*
X-3901252Y-4499637D01*
X-3901252Y-4350000D01*
X-1153252Y-6650000D02*
X-1281631Y-6521621D01*
X-1281631Y-6335307D01*
X-1689284Y-5927654D01*
X-2196598Y-5927654D01*
X-3774252Y-4350000D01*
X-1153252Y-6400000D02*
X-1153252Y-6369612D01*
X-1736321Y-5786543D01*
X-1746774Y-5786543D01*
X-2164882Y-5786543D01*
X-3555252Y-4396173D01*
X-3555252Y-4350000D01*
X-899252Y-6650000D02*
X-1022396Y-6526856D01*
X-1022396Y-6348905D01*
X-1725869Y-5645432D01*
X-1757227Y-5614074D01*
X-2170107Y-5614074D01*
X-3301252Y-4482929D01*
X-3301252Y-4350000D01*
X-645252Y-6650000D02*
X-776024Y-6519228D01*
X-776024Y-6339228D01*
X-1799079Y-5316173D01*
X-2034223Y-5316173D01*
X-2955252Y-4395144D01*
X-2955252Y-4350000D01*
X-645252Y-6400000D02*
X-645252Y-6323620D01*
X-1765936Y-5202936D01*
X-1892316Y-5202936D01*
X-2701252Y-4394000D01*
X-2701252Y-4350000D01*
X-391252Y-6400000D02*
X-391252Y-6252876D01*
X-421947Y-6222181D01*
X-2069985Y-4574143D01*
X-2226774Y-4574143D01*
X-2355252Y-4445665D01*
X-2355252Y-4350000D01*
X-514480Y-6430000D02*
X-514480Y-6353350D01*
X-514480Y-6280772D01*
X-1775252Y-5020000D01*
X-1904252Y-5020000D01*
X-2574252Y-4350000D01*
X-391252Y-6650000D02*
X-514480Y-6526772D01*
X-514480Y-6430000D01*
X-899252Y-6400000D02*
X-899252Y-6353441D01*
X-1769183Y-5483510D01*
X-2076192Y-5483510D01*
X-3133502Y-4426200D01*
X-3174252Y-4350000D01*
X-7755252Y+5850000D02*
X-7755252Y+5250000D01*
X-7755252Y+4650000D01*
X-7755252Y+4050000D01*
X-7755252Y+3450000D01*
X-7755252Y+2850000D01*
X-7755252Y+2250000D01*
X-7755252Y+1650000D01*
X-7755252Y+1050000D01*
X-7755252Y+450000D01*
X-7755252Y-150000D01*
X-7755252Y-750000D01*
X-7755252Y-1350000D01*
X-7755252Y-1950000D01*
X-7755252Y-2550000D01*
X-7755252Y-3150000D01*
X-7755252Y-3750000D01*
X-7755252Y-4350000D01*
X-7501252Y-4350000D02*
X-7501252Y-3750000D01*
X-7501252Y-3150000D01*
X-7501252Y-2550000D01*
X-7501252Y-1950000D01*
X-7501252Y-1350000D01*
X-7374252Y-4350000D02*
X-7374252Y-3750000D01*
X-7374252Y-3150000D01*
X-7374252Y-2550000D01*
X-7374252Y-1950000D01*
X-7374252Y-1350000D01*
X-7374252Y-750000D01*
X-7374252Y-150000D01*
X-7374252Y+450000D01*
X-7374252Y+1050000D01*
X-7374252Y+1650000D01*
X-7374252Y+2250000D01*
X-7374252Y+2850000D01*
X-7374252Y+3450000D01*
X-7374252Y+4050000D01*
X-7374252Y+4650000D01*
X-7374252Y+5250000D01*
X-7374252Y+5850000D01*
X-7501252Y+5850000D02*
X-7501252Y+5250000D01*
X-7501252Y+4650000D01*
X-7501252Y+4050000D01*
X-7501252Y+3450000D01*
X-7501252Y+2850000D01*
X-7501252Y+2250000D01*
X-7501252Y+1650000D01*
X-7501252Y+1050000D01*
X-7501252Y+450000D01*
X-7501252Y-150000D01*
X-7501252Y-750000D01*
X-7501252Y-1350000D01*
X-7155252Y-4350000D02*
X-7155252Y-3750000D01*
X-7155252Y-3150000D01*
X-7155252Y-2550000D01*
X-7155252Y-1950000D01*
X-7155252Y-1350000D01*
X-7155252Y-750000D01*
X-7155252Y-150000D01*
X-7155252Y+450000D01*
X-7155252Y+1050000D01*
X-7155252Y+1650000D01*
X-7155252Y+2250000D01*
X-7155252Y+2850000D01*
X-7155252Y+3450000D01*
X-7155252Y+4050000D01*
X-7155252Y+4650000D01*
X-7155252Y+5250000D01*
X-7155252Y+5850000D01*
X-6901252Y+5850000D02*
X-6901252Y+5250000D01*
X-6901252Y+4650000D01*
X-6901252Y+4050000D01*
X-6901252Y+3450000D01*
X-6901252Y+2850000D01*
X-6901252Y+2250000D01*
X-6901252Y+1650000D01*
X-6901252Y+1050000D01*
X-6901252Y+450000D01*
X-6901252Y-150000D01*
X-6901252Y-750000D01*
X-6901252Y-1350000D01*
X-6901252Y-1950000D01*
X-6901252Y-2550000D01*
X-6901252Y-3150000D01*
X-6901252Y-3750000D01*
X-6901252Y-4350000D01*
X-6774252Y+5850000D02*
X-6774252Y+5250000D01*
X-6774252Y+4650000D01*
X-6774252Y+4050000D01*
X-6774252Y+3450000D01*
X-6774252Y+2850000D01*
X-6774252Y+2250000D01*
X-6774252Y+1650000D01*
X-6774252Y+1050000D01*
X-6774252Y+450000D01*
X-6774252Y-150000D01*
X-6774252Y-750000D01*
X-6774252Y-1350000D01*
X-6774252Y-1950000D01*
X-6774252Y-2550000D01*
X-6774252Y-3150000D01*
X-6774252Y-3750000D01*
X-6774252Y-4350000D01*
X-6555252Y-4350000D02*
X-6555252Y-3750000D01*
X-6555252Y-3150000D01*
X-6555252Y-2550000D01*
X-6555252Y-1950000D01*
X-6555252Y-1350000D01*
X-6555252Y-750000D01*
X-6555252Y-150000D01*
X-6555252Y+450000D01*
X-6555252Y+1050000D01*
X-6555252Y+1650000D01*
X-6555252Y+2250000D01*
X-6555252Y+2850000D01*
X-6555252Y+3450000D01*
X-6555252Y+4050000D01*
X-6555252Y+4650000D01*
X-6555252Y+5250000D01*
X-6555252Y+5850000D01*
X-6301252Y+5850000D02*
X-6301252Y+5250000D01*
X-6301252Y+4650000D01*
X-6301252Y+4050000D01*
X-6301252Y+3450000D01*
X-6301252Y+2850000D01*
X-6301252Y+2250000D01*
X-6301252Y+1650000D01*
X-6301252Y+1050000D01*
X-6301252Y+450000D01*
X-6301252Y-150000D01*
X-6301252Y-750000D01*
X-6301252Y-1350000D01*
X-6301252Y-1950000D01*
X-6301252Y-2550000D01*
X-6301252Y-3150000D01*
X-6301252Y-3750000D01*
X-6301252Y-4350000D01*
X-6174252Y-4350000D02*
X-6174252Y-3750000D01*
X-6174252Y-3150000D01*
X-6174252Y-2550000D01*
X-6174252Y-1950000D01*
X-6174252Y-1350000D01*
X-6174252Y-750000D01*
X-6174252Y-150000D01*
X-6174252Y+450000D01*
X-6174252Y+1050000D01*
X-6174252Y+1650000D01*
X-6174252Y+2250000D01*
X-6174252Y+2850000D01*
X-6174252Y+3450000D01*
X-6174252Y+4050000D01*
X-6174252Y+4650000D01*
X-6174252Y+5250000D01*
X-6174252Y+5850000D01*
X-5955252Y+5850000D02*
X-5955252Y+5250000D01*
X-5955252Y+4650000D01*
X-5955252Y+4050000D01*
X-5955252Y+3450000D01*
X-5955252Y+2850000D01*
X-5955252Y+2250000D01*
X-5955252Y+1650000D01*
X-5955252Y+1050000D01*
X-5955252Y+450000D01*
X-5955252Y-150000D01*
X-5955252Y-750000D01*
X-5955252Y-1350000D01*
X-5955252Y-1950000D01*
X-5955252Y-2550000D01*
X-5955252Y-3150000D01*
X-5955252Y-3750000D01*
X-5955252Y-4350000D01*
X-5701252Y-4350000D02*
X-5701252Y-3750000D01*
X-5701252Y-3150000D01*
X-5701252Y-2550000D01*
X-5701252Y-1950000D01*
X-5701252Y-1350000D01*
X-5701252Y-750000D01*
X-5701252Y-150000D01*
X-5701252Y+450000D01*
X-5701252Y+1050000D01*
X-5701252Y+1650000D01*
X-5701252Y+2250000D01*
X-5701252Y+2850000D01*
X-5701252Y+3450000D01*
X-5701252Y+4050000D01*
X-5701252Y+4650000D01*
X-5701252Y+5250000D01*
X-5701252Y+5850000D01*
X-5574252Y+5850000D02*
X-5574252Y+5250000D01*
X-5574252Y+4650000D01*
X-5574252Y+4050000D01*
X-5574252Y+3450000D01*
X-5574252Y+2850000D01*
X-5574252Y+2250000D01*
X-5574252Y+1650000D01*
X-5574252Y+1050000D01*
X-5574252Y+450000D01*
X-5574252Y-150000D01*
X-5574252Y-750000D01*
X-5574252Y-1350000D01*
X-5574252Y-1950000D01*
X-5574252Y-2550000D01*
X-5574252Y-3150000D01*
X-5574252Y-3750000D01*
X-5574252Y-4350000D01*
X-5355252Y-4350000D02*
X-5355252Y-3750000D01*
X-5355252Y-3150000D01*
X-5355252Y-2550000D01*
X-5355252Y-1950000D01*
X-5355252Y-1350000D01*
X-5355252Y-750000D01*
X-5355252Y-150000D01*
X-5355252Y+450000D01*
X-5355252Y+1050000D01*
X-5355252Y+1650000D01*
X-5355252Y+2250000D01*
X-5355252Y+2850000D01*
X-5355252Y+3450000D01*
X-5355252Y+4050000D01*
X-5355252Y+4650000D01*
X-5355252Y+5250000D01*
X-5355252Y+5850000D01*
X-5101252Y+5850000D02*
X-5101252Y+5250000D01*
X-5101252Y+4650000D01*
X-5101252Y+4050000D01*
X-5101252Y+3450000D01*
X-5101252Y+2850000D01*
X-5101252Y+2250000D01*
X-5101252Y+1650000D01*
X-5101252Y+1050000D01*
X-5101252Y+450000D01*
X-5101252Y-150000D01*
X-5101252Y-750000D01*
X-5101252Y-1350000D01*
X-5101252Y-1950000D01*
X-5101252Y-2550000D01*
X-5101252Y-3150000D01*
X-5101252Y-3750000D01*
X-5101252Y-4350000D01*
X-4974252Y-4350000D02*
X-4974252Y-3750000D01*
X-4974252Y-3150000D01*
X-4974252Y-2550000D01*
X-4974252Y-1950000D01*
X-4974252Y-1350000D01*
X-4974252Y-750000D01*
X-4974252Y-150000D01*
X-4974252Y+450000D01*
X-4974252Y+1050000D01*
X-4974252Y+1650000D01*
X-4974252Y+2250000D01*
X-4974252Y+2850000D01*
X-4974252Y+3450000D01*
X-4974252Y+4050000D01*
X-4974252Y+4650000D01*
X-4974252Y+5250000D01*
X-4974252Y+5850000D01*
X-4755252Y+5850000D02*
X-4755252Y+5250000D01*
X-4755252Y+4650000D01*
X-4755252Y+4050000D01*
X-4755252Y+3450000D01*
X-4755252Y+2850000D01*
X-4755252Y+2250000D01*
X-4755252Y+1650000D01*
X-4755252Y+1050000D01*
X-4755252Y+450000D01*
X-4755252Y-150000D01*
X-4755252Y-750000D01*
X-4755252Y-1350000D01*
X-4755252Y-1950000D01*
X-4755252Y-2550000D01*
X-4755252Y-3150000D01*
X-4755252Y-3750000D01*
X-4755252Y-4350000D01*
X-4501252Y+5850000D02*
X-4501252Y+5250000D01*
X-4501252Y+4650000D01*
X-4501252Y+4050000D01*
X-4501252Y+3450000D01*
X-4501252Y+2850000D01*
X-4501252Y+2250000D01*
X-4501252Y+1650000D01*
X-4501252Y+1050000D01*
X-4501252Y+450000D01*
X-4501252Y-150000D01*
X-4501252Y-750000D01*
X-4501252Y-1350000D01*
X-4501252Y-1950000D01*
X-4501252Y-2550000D01*
X-4501252Y-3150000D01*
X-4501252Y-3750000D01*
X-4501252Y-4350000D01*
X-4374252Y+5850000D02*
X-4374252Y+5250000D01*
X-4374252Y+4650000D01*
X-4374252Y+4050000D01*
X-4374252Y+3450000D01*
X-4374252Y+2850000D01*
X-4374252Y+2250000D01*
X-4374252Y+1650000D01*
X-4374252Y+1050000D01*
X-4374252Y+450000D01*
X-4374252Y-150000D01*
X-4374252Y-750000D01*
X-4374252Y-1350000D01*
X-4374252Y-1950000D01*
X-4374252Y-2550000D01*
X-4374252Y-3150000D01*
X-4374252Y-3750000D01*
X-4374252Y-4350000D01*
X-4155252Y+5850000D02*
X-4155252Y+5250000D01*
X-4155252Y+4650000D01*
X-4155252Y+4050000D01*
X-4155252Y+3450000D01*
X-4155252Y+2850000D01*
X-4155252Y+2250000D01*
X-4155252Y+1650000D01*
X-4155252Y+1050000D01*
X-4155252Y+450000D01*
X-4155252Y-150000D01*
X-4155252Y-750000D01*
X-4155252Y-1350000D01*
X-4155252Y-1950000D01*
X-4155252Y-2550000D01*
X-4155252Y-3150000D01*
X-4155252Y-3750000D01*
X-4155252Y-4350000D01*
X-3901252Y+5850000D02*
X-3901252Y+5250000D01*
X-3901252Y+4650000D01*
X-3901252Y+4050000D01*
X-3901252Y+3450000D01*
X-3901252Y+2850000D01*
X-3901252Y+2250000D01*
X-3901252Y+1650000D01*
X-3901252Y+1050000D01*
X-3901252Y+450000D01*
X-3901252Y-150000D01*
X-3901252Y-750000D01*
X-3901252Y-1350000D01*
X-3901252Y-1950000D01*
X-3901252Y-2550000D01*
X-3901252Y-3150000D01*
X-3901252Y-3750000D01*
X-3901252Y-4350000D01*
X-3774252Y+5850000D02*
X-3774252Y+5250000D01*
X-3774252Y+4650000D01*
X-3774252Y+4050000D01*
X-3774252Y+3450000D01*
X-3774252Y+2850000D01*
X-3774252Y+2250000D01*
X-3774252Y+1650000D01*
X-3774252Y+1050000D01*
X-3774252Y+450000D01*
X-3774252Y-150000D01*
X-3774252Y-750000D01*
X-3774252Y-1350000D01*
X-3774252Y-1950000D01*
X-3774252Y-2550000D01*
X-3774252Y-3150000D01*
X-3774252Y-3750000D01*
X-3774252Y-4350000D01*
X-3555252Y+5850000D02*
X-3555252Y+5250000D01*
X-3555252Y+4650000D01*
X-3555252Y+4050000D01*
X-3555252Y+3450000D01*
X-3555252Y+2850000D01*
X-3555252Y+2250000D01*
X-3555252Y+1650000D01*
X-3555252Y+1050000D01*
X-3555252Y+450000D01*
X-3555252Y-150000D01*
X-3555252Y-750000D01*
X-3555252Y-1350000D01*
X-3555252Y-1950000D01*
X-3555252Y-2550000D01*
X-3555252Y-3150000D01*
X-3555252Y-3750000D01*
X-3555252Y-4350000D01*
X-3301252Y+5850000D02*
X-3301252Y+5250000D01*
X-3301252Y+4650000D01*
X-3301252Y+4050000D01*
X-3301252Y+3450000D01*
X-3301252Y+2850000D01*
X-3301252Y+2250000D01*
X-3301252Y+1650000D01*
X-3301252Y+1050000D01*
X-3301252Y+450000D01*
X-3301252Y-150000D01*
X-3301252Y-750000D01*
X-3301252Y-1350000D01*
X-3301252Y-1950000D01*
X-3301252Y-2550000D01*
X-3301252Y-3150000D01*
X-3301252Y-3750000D01*
X-3301252Y-4350000D01*
X-3174252Y-4350000D02*
X-3174252Y-3750000D01*
X-3174252Y-3150000D01*
X-3174252Y-2550000D01*
X-3174252Y-1950000D01*
X-3174252Y-1350000D01*
X-3174252Y-750000D01*
X-3174252Y-150000D01*
X-3174252Y+450000D01*
X-3174252Y+1050000D01*
X-3174252Y+1650000D01*
X-3174252Y+2250000D01*
X-3174252Y+2850000D01*
X-3174252Y+3450000D01*
X-3174252Y+4050000D01*
X-3174252Y+4650000D01*
X-3174252Y+5250000D01*
X-3174252Y+5850000D01*
X-2955252Y+5850000D02*
X-2955252Y+5250000D01*
X-2955252Y+4650000D01*
X-2955252Y+4050000D01*
X-2955252Y+3450000D01*
X-2955252Y+2850000D01*
X-2955252Y+2250000D01*
X-2955252Y+1650000D01*
X-2955252Y+1050000D01*
X-2955252Y+450000D01*
X-2955252Y-150000D01*
X-2955252Y-750000D01*
X-2955252Y-1350000D01*
X-2955252Y-1950000D01*
X-2955252Y-2550000D01*
X-2955252Y-3150000D01*
X-2955252Y-3750000D01*
X-2955252Y-4273800D01*
X-2955252Y-4350000D01*
X-2701252Y-4350000D02*
X-2701252Y-3750000D01*
X-2701252Y-3150000D01*
X-2701252Y-2550000D01*
X-2701252Y-1950000D01*
X-2701252Y-1350000D01*
X-2701252Y-750000D01*
X-2701252Y-150000D01*
X-2701252Y+450000D01*
X-2701252Y+1050000D01*
X-2701252Y+1650000D01*
X-2701252Y+2250000D01*
X-2701252Y+2850000D01*
X-2701252Y+3450000D01*
X-2701252Y+4050000D01*
X-2701252Y+4650000D01*
X-2701252Y+5250000D01*
X-2701252Y+5850000D01*
X-2574252Y+5850000D02*
X-2574252Y+5250000D01*
X-2574252Y+4650000D01*
X-2574252Y+4050000D01*
X-2574252Y+3450000D01*
X-2574252Y+2850000D01*
X-2574252Y+2250000D01*
X-2574252Y+1650000D01*
X-2574252Y+1050000D01*
X-2574252Y+450000D01*
X-2574252Y-150000D01*
X-2574252Y-750000D01*
X-2574252Y-1350000D01*
X-2574252Y-1950000D01*
X-2574252Y-2550000D01*
X-2574252Y-3150000D01*
X-2574252Y-3750000D01*
X-2574252Y-4350000D01*
X-2355252Y-4350000D02*
X-2355252Y-3750000D01*
X-2355252Y-3150000D01*
X-2355252Y-2550000D01*
X-2355252Y-1950000D01*
X-2355252Y-1350000D01*
X-2355252Y-750000D01*
X-2355252Y-150000D01*
X-2355252Y+450000D01*
X-2355252Y+1050000D01*
X-2355252Y+1650000D01*
X-2355252Y+2250000D01*
X-2355252Y+2850000D01*
X-2355252Y+3450000D01*
X-2355252Y+4050000D01*
X-2355252Y+4650000D01*
X-2355252Y+5250000D01*
X-2355252Y+5850000D01*
X-2101252Y+5850000D02*
X-2101252Y+5250000D01*
X-2101252Y+4650000D01*
X-2101252Y+4050000D01*
X-2101252Y+3450000D01*
X-2101252Y+2850000D01*
X-2101252Y+2250000D01*
X-2101252Y+1650000D01*
X-2101252Y+1050000D01*
X-2101252Y+450000D01*
X-2101252Y-150000D01*
X-2101252Y-750000D01*
X-2101252Y-1350000D01*
X-2101252Y-1950000D01*
X-2101252Y-2550000D01*
X-2101252Y-3150000D01*
X-2101252Y-3750000D01*
X-2101252Y-4350000D01*
X-1974252Y-4350000D02*
X-1974252Y-3750000D01*
X-1974252Y-3150000D01*
X-1974252Y-2550000D01*
X-1974252Y-1950000D01*
X-1974252Y-1350000D01*
X-1974252Y-750000D01*
X-1974252Y-150000D01*
X-1974252Y+450000D01*
X-1974252Y+1050000D01*
X-1974252Y+1650000D01*
X-1974252Y+2250000D01*
X-1974252Y+2850000D01*
X-1974252Y+3450000D01*
X-1974252Y+4050000D01*
X-1974252Y+4650000D01*
X-1974252Y+5250000D01*
X-1974252Y+5850000D01*
X-1755252Y+5850000D02*
X-1755252Y+5250000D01*
X-1755252Y+4650000D01*
X-1755252Y+4050000D01*
X-1755252Y+3450000D01*
X-1755252Y+2850000D01*
X-1755252Y+2250000D01*
X-1755252Y+1650000D01*
X-1755252Y+1050000D01*
X-1755252Y+450000D01*
X-1755252Y-150000D01*
X-1755252Y-750000D01*
X-1755252Y-1350000D01*
X-1755252Y-1950000D01*
X-1755252Y-2550000D01*
X-1755252Y-3150000D01*
X-1755252Y-3750000D01*
X-1755252Y-4350000D01*
X-1501252Y+5850000D02*
X-1501252Y+5250000D01*
X-1501252Y+4650000D01*
X-1501252Y+4050000D01*
X-1501252Y+3450000D01*
X-1501252Y+2850000D01*
X-1501252Y+2250000D01*
X-1501252Y+1650000D01*
X-1501252Y+1050000D01*
X-1501252Y+450000D01*
X-1501252Y-150000D01*
X-1501252Y-750000D01*
X-1501252Y-1350000D01*
X-1501252Y-1950000D01*
X-1501252Y-2550000D01*
X-1501252Y-3150000D01*
X-1501252Y-3750000D01*
X-1501252Y-4350000D01*
X-1374252Y+5850000D02*
X-1374252Y+5250000D01*
X-1374252Y+4650000D01*
X-1374252Y+4050000D01*
X-1374252Y+3450000D01*
X-1374252Y+2850000D01*
X-1374252Y+2250000D01*
X-1374252Y+1650000D01*
X-1374252Y+1050000D01*
X-1374252Y+450000D01*
X-1374252Y-150000D01*
X-1374252Y-750000D01*
X-1374252Y-1350000D01*
X-1374252Y-1950000D01*
X-1374252Y-2550000D01*
X-1374252Y-3150000D01*
X-1374252Y-3750000D01*
X-1374252Y-4351000D01*
X-1372188Y-4353064D01*
X-1374252Y-4350000D01*
X-1374252Y-4351000D02*
X-1374252Y-4350000D01*
X-1155252Y+5850000D02*
X-1155252Y+5250000D01*
X-1155252Y+4650000D01*
X-1155252Y+4050000D01*
X-1155252Y+3450000D01*
X-1155252Y+2850000D01*
X-1155252Y+2250000D01*
X-1155252Y+1650000D01*
X-1155252Y+1050000D01*
X-1155252Y+450000D01*
X-1155252Y-150000D01*
X-1155252Y-750000D01*
X-1155252Y-1350000D01*
X-1155252Y-1950000D01*
X-1155252Y-2550000D01*
X-1155252Y-3150000D01*
X-1155252Y-3750000D01*
X-1155252Y-4350000D01*
X-901252Y+5850000D02*
X-901252Y+5250000D01*
X-901252Y+4650000D01*
X-901252Y+4050000D01*
X-901252Y+3450000D01*
X-901252Y+2850000D01*
X-901252Y+2250000D01*
X-901252Y+1650000D01*
X-901252Y+1050000D01*
X-901252Y+450000D01*
X-901252Y-150000D01*
X-901252Y-750000D01*
X-901252Y-1350000D01*
X-901252Y-1950000D01*
X-901252Y-2550000D01*
X-901252Y-3150000D01*
X-901252Y-3750000D01*
X-901252Y-4350000D01*
X-774252Y+5850000D02*
X-774252Y+5250000D01*
X-774252Y+4650000D01*
X-774252Y+4050000D01*
X-774252Y+3450000D01*
X-774252Y+2850000D01*
X-774252Y+2250000D01*
X-774252Y+1650000D01*
X-774252Y+1050000D01*
X-774252Y+450000D01*
X-774252Y-150000D01*
X-774252Y-750000D01*
X-774252Y-1350000D01*
X-774252Y-1950000D01*
X-774252Y-2550000D01*
X-774252Y-3150000D01*
X-774252Y-3750000D01*
X-774252Y-4350000D01*
X-555252Y+5850000D02*
X-555252Y+5250000D01*
X-555252Y+4650000D01*
X-555252Y+4050000D01*
X-555252Y+3450000D01*
X-555252Y+2850000D01*
X-555252Y+2250000D01*
X-555252Y+1650000D01*
X-555252Y+1050000D01*
X-555252Y+450000D01*
X-555252Y-150000D01*
X-555252Y-750000D01*
X-555252Y-1350000D01*
X-555252Y-1950000D01*
X-555252Y-2550000D01*
X-555252Y-3150000D01*
X-555252Y-3750000D01*
X-555252Y-4350000D01*
X-301252Y+5850000D02*
X-301252Y+5250000D01*
X-301252Y+4650000D01*
X-301252Y+4050000D01*
X-301252Y+3450000D01*
X-301252Y+2850000D01*
X-301252Y+2250000D01*
X-301252Y+1650000D01*
X-301252Y+1050000D01*
X-301252Y+450000D01*
X-301252Y-150000D01*
X-301252Y-750000D01*
X-301252Y-1350000D01*
X-301252Y-1950000D01*
X-301252Y-2550000D01*
X-301252Y-3150000D01*
X-301252Y-3750000D01*
X-301252Y-4350000D01*
X-174252Y+5850000D02*
X-174252Y+5250000D01*
X-174252Y+4650000D01*
X-174252Y+4050000D01*
X-174252Y+3450000D01*
X-174252Y+2850000D01*
X-174252Y+2250000D01*
X-174252Y+1650000D01*
X-174252Y+1050000D01*
X-174252Y+450000D01*
X-174252Y-150000D01*
X-174252Y-750000D01*
X-174252Y-1350000D01*
X-174252Y-1950000D01*
X-174252Y-2550000D01*
X-174252Y-3150000D01*
X-174252Y-3750000D01*
X-174252Y-4350000D01*
X+44748Y+5850000D02*
X+44748Y+5250000D01*
X+44748Y+4650000D01*
X+44748Y+4050000D01*
X+44748Y+3450000D01*
X+44748Y+2850000D01*
X+44748Y+2250000D01*
X+44748Y+1650000D01*
X+44748Y+1050000D01*
X+44748Y+450000D01*
X+44748Y-150000D01*
X+44748Y-750000D01*
X+44748Y-1350000D01*
X+44748Y-1950000D01*
X+44748Y-2550000D01*
X+44748Y-3150000D01*
X+44748Y-3750000D01*
X+44748Y-4350000D01*
X+298748Y+5850000D02*
X+298748Y+5250000D01*
X+298748Y+4650000D01*
X+298748Y+4050000D01*
X+298748Y+3450000D01*
X+298748Y+2850000D01*
X+298748Y+2250000D01*
X+298748Y+1650000D01*
X+298748Y+1050000D01*
X+298748Y+450000D01*
X+298748Y-150000D01*
X+298748Y-750000D01*
X+298748Y-1350000D01*
X+298748Y-1950000D01*
X+298748Y-2550000D01*
X+298748Y-3150000D01*
X+298748Y-3750000D01*
X+298748Y-4350000D01*
X+425748Y+5850000D02*
X+425748Y+5250000D01*
X+425748Y+4650000D01*
X+425748Y+4050000D01*
X+425748Y+3450000D01*
X+425748Y+2850000D01*
X+425748Y+2250000D01*
X+425748Y+1650000D01*
X+425748Y+1050000D01*
X+425748Y+450000D01*
X+425748Y-150000D01*
X+425748Y-750000D01*
X+425748Y-1350000D01*
X+425748Y-1950000D01*
X+425748Y-2550000D01*
X+425748Y-3150000D01*
X+425748Y-3750000D01*
X+425748Y-4350000D01*
X+644748Y+5850000D02*
X+644748Y+5250000D01*
X+644748Y+4650000D01*
X+644748Y+4050000D01*
X+644748Y+3450000D01*
X+644748Y+2850000D01*
X+644748Y+2250000D01*
X+644748Y+1650000D01*
X+644748Y+1050000D01*
X+644748Y+450000D01*
X+644748Y-150000D01*
X+644748Y-750000D01*
X+644748Y-1350000D01*
X+644748Y-1950000D01*
X+644748Y-2550000D01*
X+644748Y-3150000D01*
X+644748Y-3750000D01*
X+644748Y-4350000D01*
X+898748Y+5850000D02*
X+898748Y+5250000D01*
X+898748Y+4650000D01*
X+898748Y+4050000D01*
X+898748Y+3450000D01*
X+898748Y+2850000D01*
X+898748Y+2250000D01*
X+898748Y+1650000D01*
X+898748Y+1050000D01*
X+898748Y+450000D01*
X+898748Y-150000D01*
X+898748Y-750000D01*
X+898748Y-1350000D01*
X+898748Y-1950000D01*
X+898748Y-2550000D01*
X+898748Y-3150000D01*
X+898748Y-3750000D01*
X+898748Y-4378031D01*
X+892411Y-4384368D01*
X+898748Y-4350000D01*
X+1640748Y-6400000D02*
X+1640748Y-5136000D01*
X+892411Y-4387663D01*
X+892411Y-4384368D01*
X+1025748Y+5850000D02*
X+1025748Y+5250000D01*
X+1025748Y+4650000D01*
X+1025748Y+4050000D01*
X+1025748Y+3450000D01*
X+1025748Y+2850000D01*
X+1025748Y+2250000D01*
X+1025748Y+1650000D01*
X+1025748Y+1050000D01*
X+1025748Y+450000D01*
X+1025748Y-150000D01*
X+1025748Y-750000D01*
X+1025748Y-1350000D01*
X+1025748Y-1950000D01*
X+1025748Y-2550000D01*
X+1025748Y-3150000D01*
X+1025748Y-3750000D01*
X+1025748Y-4350000D01*
X+1244748Y+5850000D02*
X+1244748Y+5250000D01*
X+1244748Y+4650000D01*
X+1244748Y+4050000D01*
X+1244748Y+3450000D01*
X+1244748Y+2850000D01*
X+1244748Y+2250000D01*
X+1244748Y+1650000D01*
X+1244748Y+1050000D01*
X+1244748Y+450000D01*
X+1244748Y-150000D01*
X+1244748Y-750000D01*
X+1244748Y-1350000D01*
X+1244748Y-1950000D01*
X+1244748Y-2550000D01*
X+1244748Y-3150000D01*
X+1244748Y-3750000D01*
X+1244748Y-4396092D01*
X+1267086Y-4418430D01*
X+1244748Y-4350000D01*
X+1894748Y-6400000D02*
X+1894748Y-5046092D01*
X+1267086Y-4418430D01*
X+1267086Y-4394100D01*
X+1244748Y-4350000D01*
X+1498748Y+5850000D02*
X+1498748Y+5250000D01*
X+1498748Y+4650000D01*
X+1498748Y+4050000D01*
X+1498748Y+3450000D01*
X+1498748Y+2850000D01*
X+1498748Y+2250000D01*
X+1498748Y+1650000D01*
X+1498748Y+1050000D01*
X+1498748Y+450000D01*
X+1498748Y-150000D01*
X+1498748Y-750000D01*
X+1498748Y-1350000D01*
X+1498748Y-1950000D01*
X+1498748Y-2550000D01*
X+1498748Y-3150000D01*
X+1498748Y-3750000D01*
X+1498748Y-3792402D01*
X+1498748Y-4350000D01*
X+1625748Y+5850000D02*
X+1625748Y+5250000D01*
X+1625748Y+4650000D01*
X+1625748Y+4050000D01*
X+1625748Y+3450000D01*
X+1625748Y+2850000D01*
X+1625748Y+2250000D01*
X+1625748Y+1650000D01*
X+1625748Y+1050000D01*
X+1625748Y+450000D01*
X+1625748Y-150000D01*
X+1625748Y-750000D01*
X+1625748Y-1350000D01*
X+1625748Y-1950000D01*
X+1625748Y-2550000D01*
X+1625748Y-3150000D01*
X+1625748Y-3750000D01*
X+1625748Y-4350000D01*
X+1844748Y+5850000D02*
X+1844748Y+5250000D01*
X+1844748Y+4650000D01*
X+1844748Y+4050000D01*
X+1844748Y+3450000D01*
X+1844748Y+2850000D01*
X+1844748Y+2250000D01*
X+1844748Y+1650000D01*
X+1844748Y+1050000D01*
X+1844748Y+450000D01*
X+1844748Y-150000D01*
X+1844748Y-750000D01*
X+1844748Y-1350000D01*
X+1844748Y-1950000D01*
X+1844748Y-2550000D01*
X+1844748Y-3150000D01*
X+1844748Y-3750000D01*
X+1844748Y-4350000D01*
X+2098748Y+5850000D02*
X+2098748Y+5250000D01*
X+2098748Y+4650000D01*
X+2098748Y+4050000D01*
X+2098748Y+3450000D01*
X+2098748Y+2850000D01*
X+2098748Y+2250000D01*
X+2098748Y+1650000D01*
X+2098748Y+1050000D01*
X+2098748Y+450000D01*
X+2098748Y-150000D01*
X+2098748Y-750000D01*
X+2098748Y-1350000D01*
X+2098748Y-1950000D01*
X+2098748Y-2550000D01*
X+2098748Y-3150000D01*
X+2098748Y-3750000D01*
X+2098748Y-4350000D01*
X+2225748Y+5850000D02*
X+2225748Y+5250000D01*
X+2225748Y+4650000D01*
X+2225748Y+4050000D01*
X+2225748Y+3450000D01*
X+2225748Y+2850000D01*
X+2225748Y+2250000D01*
X+2225748Y+1650000D01*
X+2225748Y+1050000D01*
X+2225748Y+450000D01*
X+2225748Y-150000D01*
X+2225748Y-750000D01*
X+2225748Y-1350000D01*
X+2225748Y-1950000D01*
X+2225748Y-2550000D01*
X+2225748Y-3150000D01*
X+2225748Y-3750000D01*
X+2225748Y-4350000D01*
X+2444748Y+5850000D02*
X+2444748Y+5250000D01*
X+2444748Y+4650000D01*
X+2444748Y+4050000D01*
X+2444748Y+3450000D01*
X+2444748Y+2850000D01*
X+2444748Y+2250000D01*
X+2444748Y+1650000D01*
X+2444748Y+1050000D01*
X+2444748Y+450000D01*
X+2444748Y-150000D01*
X+2444748Y-750000D01*
X+2444748Y-1318996D01*
X+2444748Y-1350000D01*
X+2444748Y-1950000D01*
X+2444748Y-2550000D01*
X+2444748Y-3150000D01*
X+2444748Y-3750000D01*
X+2444748Y-4350000D01*
X+2698748Y+5850000D02*
X+2698748Y+5250000D01*
X+2698748Y+5207684D01*
X+2698748Y+4650000D01*
X+2698748Y+4050000D01*
X+2698748Y+3450000D01*
X+2698748Y+2850000D01*
X+2698748Y+2250000D01*
X+2698748Y+1650000D01*
X+2698748Y+1050000D01*
X+2698748Y+450000D01*
X+2698748Y-150000D01*
X+2698748Y-750000D01*
X+2698748Y-1350000D01*
X+2698748Y-1950000D01*
X+2698748Y-2550000D01*
X+2698748Y-3150000D01*
X+2698748Y-3750000D01*
X+2698748Y-4350000D01*
X+2825748Y+5850000D02*
X+2825748Y+5250000D01*
X+2825748Y+4650000D01*
X+2825748Y+4050000D01*
X+2825748Y+3450000D01*
X+2825748Y+2850000D01*
X+2825748Y+2250000D01*
X+2825748Y+1650000D01*
X+2825748Y+1050000D01*
X+2825748Y+450000D01*
X+2825748Y-150000D01*
X+2825748Y-750000D01*
X+2825748Y-1350000D01*
X+2825748Y-1950000D01*
X+2825748Y-2550000D01*
X+2825748Y-3150000D01*
X+2825748Y-3750000D01*
X+2825748Y-4350000D01*
X+3044748Y+5850000D02*
X+3044748Y+5250000D01*
X+3044748Y+4650000D01*
X+3044748Y+4050000D01*
X+3044748Y+3450000D01*
X+3044748Y+2850000D01*
X+3044748Y+2250000D01*
X+3044748Y+1650000D01*
X+3044748Y+1050000D01*
X+3044748Y+450000D01*
X+3044748Y-150000D01*
X+3044748Y-750000D01*
X+3044748Y-1350000D01*
X+3044748Y-1950000D01*
X+3044748Y-2550000D01*
X+3044748Y-3150000D01*
X+3044748Y-3750000D01*
X+3044748Y-4350000D01*
X+3298748Y+5850000D02*
X+3298748Y+5250000D01*
X+3298748Y+4650000D01*
X+3298748Y+4050000D01*
X+3298748Y+3450000D01*
X+3298748Y+2850000D01*
X+3298748Y+2250000D01*
X+3298748Y+1650000D01*
X+3298748Y+1050000D01*
X+3298748Y+450000D01*
X+3298748Y-150000D01*
X+3298748Y-750000D01*
X+3298748Y-1350000D01*
X+3298748Y-1950000D01*
X+3298748Y-2550000D01*
X+3298748Y-3150000D01*
X+3298748Y-3750000D01*
X+3298748Y-4350000D01*
X+3425748Y+5850000D02*
X+3425748Y+5250000D01*
X+3425748Y+4650000D01*
X+3425748Y+4050000D01*
X+3425748Y+3450000D01*
X+3425748Y+2850000D01*
X+3425748Y+2250000D01*
X+3425748Y+1650000D01*
X+3425748Y+1050000D01*
X+3425748Y+450000D01*
X+3425748Y-150000D01*
X+3425748Y-750000D01*
X+3425748Y-1350000D01*
X+3425748Y-1950000D01*
X+3425748Y-2550000D01*
X+3425748Y-3150000D01*
X+3425748Y-3750000D01*
X+3425748Y-4350000D01*
X+3644748Y+5850000D02*
X+3644748Y+5250000D01*
X+3644748Y+4650000D01*
X+3644748Y+4050000D01*
X+3644748Y+3450000D01*
X+3644748Y+2850000D01*
X+3644748Y+2250000D01*
X+3644748Y+1650000D01*
X+3644748Y+1050000D01*
X+3644748Y+450000D01*
X+3644748Y-150000D01*
X+3644748Y-750000D01*
X+3644748Y-1350000D01*
X+3644748Y-1950000D01*
X+3644748Y-2550000D01*
X+3644748Y-3150000D01*
X+3644748Y-3750000D01*
X+3644748Y-4350000D01*
X+3898748Y+5850000D02*
X+3898748Y+5250000D01*
X+3898748Y+4650000D01*
X+3898748Y+4050000D01*
X+3898748Y+3450000D01*
X+3898748Y+2850000D01*
X+3898748Y+2250000D01*
X+3898748Y+1650000D01*
X+3898748Y+1050000D01*
X+3898748Y+450000D01*
X+3898748Y-150000D01*
X+3898748Y-750000D01*
X+3898748Y-1350000D01*
X+3898748Y-1950000D01*
X+3898748Y-2550000D01*
X+3898748Y-3150000D01*
X+3898748Y-3750000D01*
X+3898748Y-4350000D01*
X+4025748Y+5850000D02*
X+4025748Y+5250000D01*
X+4025748Y+4650000D01*
X+4025748Y+4050000D01*
X+4025748Y+3450000D01*
X+4025748Y+2850000D01*
X+4025748Y+2250000D01*
X+4025748Y+1650000D01*
X+4025748Y+1050000D01*
X+4025748Y+450000D01*
X+4025748Y-150000D01*
X+4025748Y-750000D01*
X+4025748Y-1350000D01*
X+4025748Y-1950000D01*
X+4025748Y-2550000D01*
X+4025748Y-3150000D01*
X+4025748Y-3750000D01*
X+4025748Y-4350000D01*
X+4244748Y+5850000D02*
X+4244748Y+5250000D01*
X+4244748Y+4650000D01*
X+4244748Y+4050000D01*
X+4244748Y+3450000D01*
X+4244748Y+2850000D01*
X+4244748Y+2250000D01*
X+4244748Y+1650000D01*
X+4244748Y+1050000D01*
X+4244748Y+450000D01*
X+4244748Y-150000D01*
X+4244748Y-750000D01*
X+4244748Y-1350000D01*
X+4244748Y-1950000D01*
X+4244748Y-2550000D01*
X+4244748Y-3150000D01*
X+4244748Y-3750000D01*
X+4244748Y-4320649D01*
X+4215397Y-4350000D01*
X+4244748Y-4350000D01*
X+3926748Y-6650000D02*
X+3803564Y-6526816D01*
X+3803564Y-4761833D01*
X+4215397Y-4350000D01*
X+4498748Y+5850000D02*
X+4498748Y+5250000D01*
X+4498748Y+4650000D01*
X+4498748Y+4050000D01*
X+4498748Y+3450000D01*
X+4498748Y+2850000D01*
X+4498748Y+2250000D01*
X+4498748Y+1650000D01*
X+4498748Y+1050000D01*
X+4498748Y+450000D01*
X+4498748Y-150000D01*
X+4498748Y-750000D01*
X+4498748Y-1350000D01*
X+4498748Y-1950000D01*
X+4498748Y-2550000D01*
X+4498748Y-3150000D01*
X+4498748Y-3750000D01*
X+4498748Y-4350000D01*
X+4625748Y+5850000D02*
X+4625748Y+5250000D01*
X+4625748Y+4650000D01*
X+4625748Y+4050000D01*
X+4625748Y+3450000D01*
X+4625748Y+2850000D01*
X+4625748Y+2250000D01*
X+4625748Y+1650000D01*
X+4625748Y+1050000D01*
X+4625748Y+450000D01*
X+4625748Y-150000D01*
X+4625748Y-750000D01*
X+4625748Y-1350000D01*
X+4625748Y-1950000D01*
X+4625748Y-2550000D01*
X+4625748Y-3150000D01*
X+4625748Y-3750000D01*
X+4625748Y-4350000D01*
X+4844748Y+5850000D02*
X+4844748Y+5250000D01*
X+4844748Y+4650000D01*
X+4844748Y+4050000D01*
X+4844748Y+3450000D01*
X+4844748Y+2850000D01*
X+4844748Y+2250000D01*
X+4844748Y+1650000D01*
X+4844748Y+1050000D01*
X+4844748Y+450000D01*
X+4844748Y-150000D01*
X+4844748Y-750000D01*
X+4844748Y-1350000D01*
X+4844748Y-1950000D01*
X+4844748Y-2550000D01*
X+4844748Y-3150000D01*
X+4844748Y-3750000D01*
X+4844748Y-4350000D01*
X+5098748Y+5850000D02*
X+5098748Y+5250000D01*
X+5098748Y+4650000D01*
X+5098748Y+4050000D01*
X+5098748Y+3450000D01*
X+5098748Y+2850000D01*
X+5098748Y+2250000D01*
X+5098748Y+1650000D01*
X+5098748Y+1050000D01*
X+5098748Y+450000D01*
X+5098748Y-150000D01*
X+5098748Y-750000D01*
X+5098748Y-1350000D01*
X+5098748Y-1950000D01*
X+5098748Y-2550000D01*
X+5098748Y-3150000D01*
X+5098748Y-3750000D01*
X+5098748Y-4350000D01*
X+5225748Y+5850000D02*
X+5225748Y+5250000D01*
X+5225748Y+4650000D01*
X+5225748Y+4050000D01*
X+5225748Y+3450000D01*
X+5225748Y+2850000D01*
X+5225748Y+2250000D01*
X+5225748Y+1650000D01*
X+5225748Y+1050000D01*
X+5225748Y+450000D01*
X+5225748Y-150000D01*
X+5225748Y-750000D01*
X+5225748Y-1350000D01*
X+5225748Y-1950000D01*
X+5225748Y-2550000D01*
X+5225748Y-3150000D01*
X+5225748Y-3750000D01*
X+5225748Y-4350000D01*
X+5444748Y+5850000D02*
X+5444748Y+5250000D01*
X+5444748Y+4650000D01*
X+5444748Y+4050000D01*
X+5444748Y+3450000D01*
X+5444748Y+2850000D01*
X+5444748Y+2250000D01*
X+5444748Y+1650000D01*
X+5444748Y+1050000D01*
X+5444748Y+450000D01*
X+5444748Y-150000D01*
X+5444748Y-750000D01*
X+5444748Y-1350000D01*
X+5444748Y-1950000D01*
X+5444748Y-2550000D01*
X+5444748Y-3150000D01*
X+5444748Y-3750000D01*
X+5444748Y-4273800D01*
X+5444748Y-4350000D01*
X+5698748Y+5850000D02*
X+5698748Y+5250000D01*
X+5698748Y+4650000D01*
X+5698748Y+4050000D01*
X+5698748Y+3450000D01*
X+5698748Y+2850000D01*
X+5698748Y+2250000D01*
X+5698748Y+1650000D01*
X+5698748Y+1050000D01*
X+5698748Y+450000D01*
X+5698748Y-150000D01*
X+5698748Y-750000D01*
X+5698748Y-1350000D01*
X+5698748Y-1950000D01*
X+5698748Y-2550000D01*
X+5698748Y-3150000D01*
X+5698748Y-3750000D01*
X+5698748Y-4350000D01*
X+5825748Y+5850000D02*
X+5825748Y+5250000D01*
X+5825748Y+4650000D01*
X+5825748Y+4050000D01*
X+5825748Y+3450000D01*
X+5825748Y+2850000D01*
X+5825748Y+2250000D01*
X+5825748Y+1650000D01*
X+5825748Y+1050000D01*
X+5825748Y+450000D01*
X+5825748Y-150000D01*
X+5825748Y-750000D01*
X+5825748Y-1350000D01*
X+5825748Y-1950000D01*
X+5825748Y-2550000D01*
X+5825748Y-4393415D02*
X+5825748Y-4350000D01*
X+5825748Y-4393415D02*
X+4811940Y-5407223D01*
X+4811940Y-6519192D01*
X+4942748Y-6650000D01*
X+6044748Y+5850000D02*
X+6044748Y+5250000D01*
X+6044748Y+4650000D01*
X+6044748Y+4050000D01*
X+6044748Y+3450000D01*
X+6044748Y+2850000D01*
X+6044748Y+2250000D01*
X+6044748Y+1650000D01*
X+6044748Y+1050000D01*
X+6044748Y+450000D01*
X+6044748Y-150000D01*
X+6044748Y-750000D01*
X+6044748Y-1350000D01*
X+6044748Y-1950000D01*
X+6044748Y-2550000D01*
X+6044748Y-3150000D01*
X+6044748Y-3750000D01*
X+6044748Y-4350000D01*
X+6298748Y+5850000D02*
X+6298748Y+5250000D01*
X+6298748Y+4650000D01*
X+6298748Y+4050000D01*
X+6298748Y+3450000D01*
X+6298748Y+2850000D01*
X+6298748Y+2250000D01*
X+6298748Y+1650000D01*
X+6298748Y+1050000D01*
X+6298748Y+450000D01*
X+6298748Y-150000D01*
X+6298748Y-750000D01*
X+6298748Y-1350000D01*
X+6298748Y-1950000D01*
X+6298748Y-2550000D01*
X+6298748Y-3150000D01*
X+6298748Y-3750000D01*
X+6298748Y-4350000D01*
X+6425748Y+5850000D02*
X+6425748Y+5250000D01*
X+6425748Y+4650000D01*
X+6425748Y+4050000D01*
X+6425748Y+3450000D01*
X+6425748Y+2850000D01*
X+6425748Y+2250000D01*
X+6425748Y+1650000D01*
X+6425748Y+1050000D01*
X+6425748Y+450000D01*
X+6425748Y-150000D01*
X+6425748Y-750000D01*
X+6425748Y-1350000D01*
X+6425748Y-1950000D01*
X+6425748Y-2550000D01*
X+6425748Y-3150000D01*
X+6425748Y-3750000D01*
X+6425748Y-4350000D01*
X+6644748Y+5850000D02*
X+6644748Y+5250000D01*
X+6644748Y+4650000D01*
X+6644748Y+4050000D01*
X+6644748Y+3450000D01*
X+6644748Y+2850000D01*
X+6644748Y+2250000D01*
X+6644748Y+1650000D01*
X+6644748Y+1050000D01*
X+6644748Y+450000D01*
X+6644748Y-150000D01*
X+6644748Y-750000D01*
X+6644748Y-1350000D01*
X+6644748Y-1950000D01*
X+6644748Y-2550000D01*
X+6644748Y-3150000D01*
X+6644748Y-3750000D01*
X+6644748Y-4350000D01*
X+6898748Y+5850000D02*
X+6898748Y+5250000D01*
X+6898748Y+4650000D01*
X+6898748Y+4050000D01*
X+6898748Y+3450000D01*
X+6898748Y+2850000D01*
X+6898748Y+2250000D01*
X+6898748Y+1650000D01*
X+6898748Y+1050000D01*
X+6898748Y+450000D01*
X+6898748Y-150000D01*
X+6898748Y-750000D01*
X+6898748Y-1350000D01*
X+6898748Y-1950000D01*
X+6898748Y-2550000D01*
X+6898748Y-3150000D01*
X+6898748Y-3750000D01*
X+6898748Y-4350000D01*
X+7025748Y+5850000D02*
X+7025748Y+5250000D01*
X+7025748Y+4650000D01*
X+7025748Y+4050000D01*
X+7025748Y+3450000D01*
X+7025748Y+2850000D01*
X+7025748Y+2250000D01*
X+7025748Y+1650000D01*
X+7025748Y+1050000D01*
X+7025748Y+450000D01*
X+7025748Y-150000D01*
X+7025748Y-750000D01*
X+7025748Y-1350000D01*
X+7025748Y-1950000D01*
X+7025748Y-2550000D01*
X+7025748Y-3150000D01*
X+7025748Y-3750000D01*
X+7025748Y-4350000D01*
X+7244748Y+5850000D02*
X+7244748Y+5250000D01*
X+7244748Y+4650000D01*
X+7244748Y+4050000D01*
X+7244748Y+3450000D01*
X+7244748Y+2850000D01*
X+7244748Y+2250000D01*
X+7244748Y+1650000D01*
X+7244748Y+1050000D01*
X+7244748Y+450000D01*
X+7244748Y-150000D01*
X+7244748Y-750000D01*
X+7244748Y-1350000D01*
X+7244748Y-1950000D01*
X+7244748Y-2550000D01*
X+7244748Y-3150000D01*
X+7244748Y-3750000D01*
X+7244748Y-4350000D01*
X+7498748Y+5850000D02*
X+7498748Y+5250000D01*
X+7498748Y+4650000D01*
X+7498748Y+4050000D01*
X+7498748Y+3450000D01*
X+7498748Y+2850000D01*
X+7498748Y+2250000D01*
X+7498748Y+1650000D01*
X+7498748Y+1050000D01*
X+7498748Y+450000D01*
X+7498748Y-150000D01*
X+7498748Y-750000D01*
X+7498748Y-1350000D01*
X+7498748Y-1950000D01*
X+7498748Y-2550000D01*
X+7498748Y-3150000D01*
X+7498748Y-3750000D01*
X+7498748Y-4350000D01*
X+7625748Y+5850000D02*
X+7625748Y+5250000D01*
X+7625748Y+4650000D01*
X+7625748Y+4050000D01*
X+7625748Y+3450000D01*
X+7625748Y+2850000D01*
X+7625748Y+2250000D01*
X+7625748Y+1650000D01*
X+7625748Y+1050000D01*
X+7625748Y+450000D01*
X+7625748Y-150000D01*
X+7625748Y-750000D01*
X+7625748Y-1350000D01*
X+7625748Y-1950000D01*
X+7625748Y-2550000D01*
X+7625748Y-3150000D01*
X+7625748Y-3750000D01*
X+7625748Y-4350000D01*
X+7844748Y+5850000D02*
X+7844748Y+5250000D01*
X+7844748Y+4650000D01*
X+7844748Y+4050000D01*
X+7844748Y+3450000D01*
X+7844748Y+2850000D01*
X+7844748Y+2250000D01*
X+7844748Y+1650000D01*
X+7844748Y+1050000D01*
X+7844748Y+450000D01*
X+7844748Y-150000D01*
X+7844748Y-750000D01*
X+7844748Y-1350000D01*
X+7844748Y-1950000D01*
X+7844748Y-2550000D01*
X+7844748Y-3150000D01*
X+7844748Y-3750000D01*
X+7844748Y-4350000D01*
X+8098748Y+5850000D02*
X+8098748Y+5250000D01*
X+8098748Y+4650000D01*
X+8098748Y+4050000D01*
X+8098748Y+3450000D01*
X+8098748Y+2850000D01*
X+8098748Y+2250000D01*
X+8098748Y+1650000D01*
X+8098748Y+1050000D01*
X+8098748Y+450000D01*
X+8098748Y-150000D01*
X+8098748Y-750000D01*
X+8098748Y-1350000D01*
X+8098748Y-1950000D01*
X+8098748Y-2550000D01*
X+8098748Y-3150000D01*
X+8098748Y-3750000D01*
X+8098748Y-4273800D01*
X+8098748Y-4350000D01*
X+8225748Y+5850000D02*
X+8225748Y+5250000D01*
X+8225748Y+4650000D01*
X+8225748Y+4050000D01*
X+8225748Y+3450000D01*
X+8225748Y+2850000D01*
X+8225748Y+2250000D01*
X+8225748Y+1650000D01*
X+8225748Y+1050000D01*
X+8225748Y+450000D01*
X+8225748Y-150000D01*
X+8225748Y-750000D01*
X+8225748Y-1350000D01*
X+8225748Y-1950000D01*
X+8225748Y-2550000D01*
X+8225748Y-3150000D01*
X+8225748Y-3750000D01*
X+8225748Y-4350000D01*
X+8444748Y+5850000D02*
X+8444748Y+5250000D01*
X+8444748Y+4650000D01*
X+8444748Y+4050000D01*
X+8444748Y+3450000D01*
X+8444748Y+2850000D01*
X+8444748Y+2250000D01*
X+8444748Y+1650000D01*
X+8444748Y+1050000D01*
X+8444748Y+450000D01*
X+8444748Y-150000D01*
X+8444748Y-750000D01*
X+8444748Y-1350000D01*
X+8444748Y-1950000D01*
X+8444748Y-2550000D01*
X+8444748Y-3150000D01*
X+8444748Y-3750000D01*
X+8444748Y-4350000D01*
X+8698748Y+5850000D02*
X+8698748Y+5250000D01*
X+8698748Y+4650000D01*
X+8698748Y+4050000D01*
X+8698748Y+3450000D01*
X+8698748Y+2850000D01*
X+8698748Y+2250000D01*
X+8698748Y+1650000D01*
X+8698748Y+1050000D01*
X+8698748Y+450000D01*
X+8698748Y-150000D01*
X+8698748Y-750000D01*
X+8698748Y-1350000D01*
X+8698748Y-1950000D01*
X+8698748Y-2550000D01*
X+8698748Y-3150000D01*
X+8698748Y-3750000D01*
X+8698748Y-4350000D01*
X+8825748Y+5850000D02*
X+8825748Y+5250000D01*
X+8825748Y+4650000D01*
X+8825748Y+4050000D01*
X+8825748Y+3450000D01*
X+8825748Y+2850000D01*
X+8825748Y+2250000D01*
X+8825748Y+1650000D01*
X+8825748Y+1050000D01*
X+8825748Y+450000D01*
X+8825748Y-150000D01*
X+8825748Y-750000D01*
X+8825748Y-1350000D01*
X+8825748Y-1950000D01*
X+8825748Y-2550000D01*
X+8825748Y-3150000D01*
X+8825748Y-3750000D01*
X+8825748Y-4350000D01*
X+9044748Y+5850000D02*
X+9044748Y+5250000D01*
X+9044748Y+4650000D01*
X+9044748Y+4050000D01*
X+9044748Y+3450000D01*
X+9044748Y+2850000D01*
X+9044748Y+2250000D01*
X+9044748Y+1650000D01*
X+9044748Y+1050000D01*
X+9044748Y+450000D01*
X+9044748Y-150000D01*
X+9044748Y-750000D01*
X+9044748Y-1350000D01*
X+9044748Y-1950000D01*
X+9044748Y-2550000D01*
X+9044748Y-3150000D01*
X+9044748Y-3700322D01*
X+9044748Y-3750000D01*
X+9044748Y-4350000D01*
X+9298748Y+5850000D02*
X+9298748Y+5250000D01*
X+9298748Y+4650000D01*
X+9298748Y+4050000D01*
X+9298748Y+3450000D01*
X+9298748Y+2850000D01*
X+9298748Y+2250000D01*
X+9298748Y+1650000D01*
X+9298748Y+1050000D01*
X+9298748Y+450000D01*
X+9298748Y-150000D01*
X+9298748Y-750000D01*
X+9298748Y-1350000D01*
X+9298748Y-1950000D01*
X+9298748Y-2550000D01*
X+9298748Y-3150000D01*
X+9298748Y-3750000D01*
X+9298748Y-4386000D01*
X+9294748Y-4390000D01*
X+9298748Y-4350000D01*
X+7572496Y-5487748D02*
X+7870662Y-5189582D01*
X+8501495Y-5189582D01*
X+9294748Y-4396329D01*
X+9294748Y-4390000D01*
X+9425748Y+5850000D02*
X+9425748Y+5250000D01*
X+9425748Y+4650000D01*
X+9425748Y+4050000D01*
X+9425748Y+3450000D01*
X+9425748Y+2850000D01*
X+9425748Y+2250000D01*
X+9425748Y+1650000D01*
X+9425748Y+1050000D01*
X+9425748Y+450000D01*
X+9425748Y-150000D01*
X+9425748Y-750000D01*
X+9425748Y-1350000D01*
X+9425748Y-1950000D01*
X+9425748Y-2550000D01*
X+9425748Y-3150000D01*
X+9425748Y-3750000D01*
X+9425748Y-4273800D01*
X+9425748Y-4350000D01*
X+9644748Y+5850000D02*
X+9644748Y+5250000D01*
X+9644748Y+4650000D01*
X+9644748Y+4050000D01*
X+9644748Y+3450000D01*
X+9644748Y+2850000D01*
X+9644748Y+2250000D01*
X+9644748Y+1650000D01*
X+9644748Y+1050000D01*
X+9644748Y+450000D01*
X+9644748Y-150000D01*
X+9644748Y-750000D01*
X+9644748Y-1350000D01*
X+9644748Y-1950000D01*
X+9644748Y-2550000D01*
X+9644748Y-3150000D01*
X+9644748Y-3750000D01*
X+9644748Y-4350000D01*
X+9898748Y+5850000D02*
X+9898748Y+5250000D01*
X+9898748Y+4650000D01*
X+9898748Y+4050000D01*
X+9898748Y+3450000D01*
X+9898748Y+2850000D01*
X+9898748Y+2250000D01*
X+9898748Y+1650000D01*
X+9898748Y+1050000D01*
X+9898748Y+450000D01*
X+9898748Y-150000D01*
X+9898748Y-750000D01*
X+9898748Y-1350000D01*
X+9898748Y-1950000D01*
X+9898748Y-2550000D01*
X+9898748Y-3150000D01*
X+9898748Y-3750000D01*
X+9898748Y-4383892D01*
X+9901497Y-4386641D01*
X+9898748Y-4350000D01*
X+7666683Y-5858065D02*
X+8054748Y-5470000D01*
X+8824748Y-5470000D01*
X+9901497Y-4393251D01*
X+9901497Y-4386641D01*
X+10025748Y+5850000D02*
X+10025748Y+5250000D01*
X+10025748Y+4650000D01*
X+10025748Y+4050000D01*
X+10025748Y+3450000D01*
X+10025748Y+2850000D01*
X+10025748Y+2250000D01*
X+10025748Y+1650000D01*
X+10025748Y+1050000D01*
X+10025748Y+450000D01*
X+10025748Y-150000D01*
X+10025748Y-750000D01*
X+10025748Y-1350000D01*
X+10025748Y-1950000D01*
X+10025748Y-2550000D01*
X+10025748Y-3150000D01*
X+10025748Y-3750000D01*
X+10025748Y-4350000D01*
X+10244748Y+5850000D02*
X+10244748Y+5250000D01*
X+10244748Y+4650000D01*
X+10244748Y+4050000D01*
X+10244748Y+3450000D01*
X+10244748Y+2850000D01*
X+10244748Y+2250000D01*
X+10244748Y+1650000D01*
X+10244748Y+1050000D01*
X+10244748Y+450000D01*
X+10244748Y-150000D01*
X+10244748Y-750000D01*
X+10244748Y-1350000D01*
X+10244748Y-1950000D01*
X+10244748Y-2550000D01*
X+10244748Y-3150000D01*
X+10244748Y-3750000D01*
X+10244748Y-4350000D01*
X+10498748Y+5850000D02*
X+10498748Y+5250000D01*
X+10498748Y+4650000D01*
X+10498748Y+4050000D01*
X+10498748Y+3450000D01*
X+10498748Y+2850000D01*
X+10498748Y+2250000D01*
X+10498748Y+1650000D01*
X+10498748Y+1050000D01*
X+10498748Y+450000D01*
X+10498748Y-150000D01*
X+10498748Y-750000D01*
X+10498748Y-1350000D01*
X+10498748Y-1950000D01*
X+10498748Y-2550000D01*
X+10498748Y-3150000D01*
X+10498748Y-3750000D01*
X+10498748Y-4350000D01*
X+10625748Y+5850000D02*
X+10625748Y+5250000D01*
X+10625748Y+4650000D01*
X+10625748Y+4050000D01*
X+10625748Y+3450000D01*
X+10625748Y+2850000D01*
X+10625748Y+2250000D01*
X+10625748Y+1650000D01*
X+10625748Y+1050000D01*
X+10625748Y+450000D01*
X+10625748Y-150000D01*
X+10625748Y-750000D01*
X+10625748Y-1350000D01*
X+10625748Y-1950000D01*
X+10625748Y-2550000D01*
X+10625748Y-3150000D01*
X+10625748Y-3750000D01*
X+10625748Y-4350000D01*
X+10844748Y+5850000D02*
X+10844748Y+5250000D01*
X+10844748Y+4650000D01*
X+10844748Y+4050000D01*
X+10844748Y+3450000D01*
X+10844748Y+2850000D01*
X+10844748Y+2250000D01*
X+10844748Y+1650000D01*
X+10844748Y+1050000D01*
X+10844748Y+450000D01*
X+10844748Y-150000D01*
X+10844748Y-750000D01*
X+10844748Y-1350000D01*
X+10844748Y-1950000D01*
X+10844748Y-2550000D01*
X+10844748Y-3150000D01*
X+10844748Y-3750000D01*
X+10844748Y-4403856D01*
X+10822404Y-4426200D01*
X+10844748Y-4350000D01*
X+7990748Y-6400000D02*
X+7990748Y-6229110D01*
X+8199061Y-6020797D01*
X+9227807Y-6020797D01*
X+10822404Y-4426200D01*
X+11098748Y+5850000D02*
X+11098748Y+5250000D01*
X+11098748Y+4650000D01*
X+11098748Y+4050000D01*
X+11098748Y+3450000D01*
X+11098748Y+2850000D01*
X+11098748Y+2250000D01*
X+11098748Y+1650000D01*
X+11098748Y+1050000D01*
X+11098748Y+450000D01*
X+11098748Y-150000D01*
X+11098748Y-750000D01*
X+11098748Y-1350000D01*
X+11098748Y-1950000D01*
X+11098748Y-2550000D01*
X+11098748Y-3150000D01*
X+11098748Y-3750000D01*
X+11098748Y-3796392D01*
X+11098748Y-4350000D01*
X+11225748Y+5850000D02*
X+11225748Y+5250000D01*
X+11225748Y+4650000D01*
X+11225748Y+4050000D01*
X+11225748Y+3450000D01*
X+11225748Y+2850000D01*
X+11225748Y+2250000D01*
X+11225748Y+1650000D01*
X+11225748Y+1050000D01*
X+11225748Y+450000D01*
X+11225748Y-150000D01*
X+11225748Y-750000D01*
X+11225748Y-1350000D01*
X+11225748Y-1950000D01*
X+11225748Y-2550000D01*
X+11225748Y-3150000D01*
X+11225748Y-3750000D01*
X+11225748Y-4350000D01*
X+5825748Y-2550000D02*
X+5825748Y-3150000D01*
X+5825748Y-3750000D01*
X+5825748Y-4350000D01*
X-8305252Y+6146800D02*
X-8157186Y+5998734D01*
X-8157186Y+5573209D01*
X-8283595Y+5446800D01*
X-8305252Y+5446800D01*
X-8161521Y+5303069D01*
X-8161521Y+4901366D01*
X-8174524Y+4901366D01*
X-8305252Y+4770638D01*
X-8305252Y+4746800D01*
X-10005252Y-6650000D02*
X-9755252Y-6900000D01*
X-5761426Y-6900000D01*
X-4755252Y-5893826D01*
X-4755252Y-4350000D01*
X-10255252Y-6650000D02*
X-10132088Y-6526836D01*
X-9947816Y-6526836D01*
X-9644652Y-6830000D01*
X-5793729Y-6830000D01*
X-4974252Y-6010523D01*
X-4974252Y-4350000D01*
X-10005252Y-6396000D02*
X-9974942Y-6396000D01*
X-9610942Y-6760000D01*
X-5819515Y-6760000D01*
X-5101252Y-6041737D01*
X-5101252Y-4350000D01*
X-10255252Y-6396000D02*
X-10132068Y-6272816D01*
X-9952563Y-6272816D01*
X-9871448Y-6353931D01*
X-9871448Y-6406094D01*
X-9587542Y-6690000D01*
X-5842924Y-6690000D01*
X-5355252Y-6202328D01*
X-5355252Y-4350000D01*
X-10005252Y-6142000D02*
X-9986818Y-6142000D01*
X-9508818Y-6620000D01*
X-6059716Y-6620000D01*
X-5571436Y-6131720D01*
X-5571436Y-4352816D01*
X-5574252Y-4350000D01*
X-10255252Y-6142000D02*
X-10132083Y-6018831D01*
X-9954237Y-6018831D01*
X-9423068Y-6550000D01*
X-6290753Y-6550000D01*
X-5712547Y-5971794D01*
X-5712547Y-4361295D01*
X-5701252Y-4350000D01*
X-10005252Y-5888000D02*
X-9963822Y-5888000D01*
X-9371822Y-6480000D01*
X-6485252Y-6480000D01*
X-5955252Y-5950000D01*
X-5955252Y-4350000D01*
X-10255252Y-5888000D02*
X-10127380Y-5760128D01*
X-9945124Y-5760128D01*
X-9828287Y-5876965D01*
X-9828287Y-5924757D01*
X-9343044Y-6410000D01*
X-6569384Y-6410000D01*
X-6174252Y-6014868D01*
X-6174252Y-4350000D01*
X-10005252Y-5634000D02*
X-9971252Y-5634000D01*
X-9732450Y-5872802D01*
X-9732450Y-5927198D01*
X-9319648Y-6340000D01*
X-6706346Y-6340000D01*
X-6309918Y-5943572D01*
X-6309918Y-4358666D01*
X-6301252Y-4350000D01*
X-9296212Y-6270000D02*
X-9290583Y-6270000D01*
X-10255252Y-5634000D02*
X-10124422Y-5503170D01*
X-9958244Y-5503170D01*
X-9846423Y-5614991D01*
X-9846423Y-5665374D01*
X-9662224Y-5849573D01*
X-9662224Y-5903987D01*
X-9370732Y-6195480D01*
X-9290583Y-6270000D02*
X-6897139Y-6270000D01*
X-6557908Y-5930769D01*
X-6557908Y-4352656D01*
X-6555252Y-4350000D01*
X-9370732Y-6195480D02*
X-9329873Y-6236339D01*
X-9296212Y-6270000D01*
X-10005252Y-5380000D02*
X-9970973Y-5380000D01*
X-9777735Y-5573238D01*
X-9777735Y-5640679D01*
X-9589144Y-5829270D01*
X-9589144Y-5871301D01*
X-9260445Y-6200000D01*
X-7105252Y-6200000D01*
X-6755252Y-5850000D01*
X-6755252Y-4369000D01*
X-6774252Y-4350000D01*
X-10255252Y-5380000D02*
X-10125252Y-5250000D01*
X-9958018Y-5250000D01*
X-9860152Y-5347866D01*
X-9860152Y-5397422D01*
X-9695967Y-5561607D01*
X-9695967Y-5629080D01*
X-9195047Y-6130000D01*
X-7212687Y-6130000D01*
X-6901252Y-5818565D01*
X-6901252Y-4350000D01*
X-10005252Y-5126000D02*
X-9987770Y-5126000D01*
X-9782848Y-5330922D01*
X-9782848Y-5381380D01*
X-9609203Y-5555025D01*
X-9609203Y-5622427D01*
X-9171630Y-6060000D01*
X-7255848Y-6060000D01*
X-7155252Y-5959404D01*
X-7155252Y-4350000D01*
X-10255252Y-5126000D02*
X-10132142Y-5002890D01*
X-9954096Y-5002890D01*
X-9882076Y-5074910D01*
X-9882076Y-5138308D01*
X-9710213Y-5310171D01*
X-9710213Y-5360637D01*
X-9532946Y-5537904D01*
X-9532946Y-5605306D01*
X-9148252Y-5990000D01*
X-7619694Y-5990000D01*
X-7297788Y-5668094D01*
X-7297788Y-4426464D01*
X-7374252Y-4350000D01*
X-10005252Y-4872000D02*
X-9986232Y-4872000D01*
X-9811112Y-5047120D01*
X-9811112Y-5115860D01*
X-9643759Y-5283213D01*
X-9643759Y-5333647D01*
X-9458652Y-5518754D01*
X-9458652Y-5586181D01*
X-9120893Y-5923940D01*
X-9105252Y-5923940D01*
X-7813921Y-5923940D01*
X-7494914Y-5604933D01*
X-7494914Y-4356338D01*
X-7501252Y-4350000D01*
X-10255252Y-4872000D02*
X-10131473Y-4748221D01*
X-9953116Y-4748221D01*
X-9863231Y-4838106D01*
X-9863231Y-4901574D01*
X-9738215Y-5026590D01*
X-9738215Y-5095372D01*
X-9567803Y-5265784D01*
X-9567803Y-5316245D01*
X-9358778Y-5525270D01*
X-9358778Y-5592663D01*
X-9093496Y-5857945D01*
X-9031072Y-5857945D01*
X-8949709Y-5857945D01*
D17*
X-8260795Y-5857945D01*
D10*
X-8030906Y-5857945D01*
X-7755252Y-5582291D01*
X-7755252Y-4350000D01*
X-9540292Y+5550000D02*
X-9540292Y+6218100D01*
X-9088401Y+6669991D01*
X-8422043Y+6669991D01*
X-8305252Y+6553200D01*
X-9540292Y+5250000D02*
X-9448853Y+5341439D01*
X-9448853Y+6009599D01*
X-8905252Y+6553200D01*
X-9540292Y+4950000D02*
X-9382797Y+5107495D01*
X-9382797Y+5743027D01*
X-9149938Y+5975886D01*
X-8427938Y+5975886D01*
X-8305252Y+5853200D01*
X-9540292Y+4650000D02*
X-9316764Y+4873528D01*
X-9316764Y+5534681D01*
X-8998245Y+5853200D01*
X-8905252Y+5853200D01*
X-9540292Y+4350000D02*
X-9250703Y+4639589D01*
X-9250703Y+5067826D01*
X-9048240Y+5270289D01*
X-8422341Y+5270289D01*
X-8305252Y+5153200D01*
X-9540292Y+4050000D02*
X-9184620Y+4405672D01*
X-9184620Y+4911376D01*
X-8942796Y+5153200D01*
X-8905252Y+5153200D01*
X-9540292Y+3750000D02*
X-9118628Y+4171664D01*
X-9118628Y+4429758D01*
X-8977517Y+4570869D01*
X-8422921Y+4570869D01*
X-8305252Y+4453200D01*
X-9355252Y+3450000D02*
X-9355252Y+3823351D01*
X-9024930Y+4153673D01*
X-9024930Y+4333522D01*
X-8905252Y+4453200D01*
X-9355252Y+3150000D02*
X-9355252Y+3250000D01*
X-9263900Y+3341352D01*
X-9263900Y+3715612D01*
X-9085885Y+3893627D01*
X-8445679Y+3893627D01*
X-8305252Y+3753200D01*
X-9340292Y+2750000D02*
X-9263788Y+2826504D01*
X-9263788Y+3192295D01*
X-9263887Y+3192394D01*
X-9263887Y+3247992D01*
X-9136672Y+3375207D01*
X-9136672Y+3595543D01*
X-8979015Y+3753200D01*
X-8905252Y+3753200D01*
X-9340292Y+2200000D02*
X-9131721Y+2408571D01*
X-9131721Y+2875135D01*
X-8953656Y+3053200D01*
X-8905252Y+3053200D01*
X-9340292Y+1850000D02*
X-9246911Y+1943381D01*
X-9246911Y+2200052D01*
X-8959710Y+2487253D01*
X-8950460Y+2487253D01*
X-8439305Y+2487253D01*
X-8305252Y+2353200D01*
X-9340292Y+1550000D02*
X-9180843Y+1709449D01*
X-9180843Y+2150000D01*
X-8977643Y+2353200D01*
X-8905252Y+2353200D01*
X-9340292Y+1250000D02*
X-9340292Y+1364097D01*
X-9230941Y+1473448D01*
X-9230941Y+1565977D01*
X-9025504Y+1771414D01*
X-8423466Y+1771414D01*
X-8305252Y+1653200D01*
X-9255252Y+950000D02*
X-9255252Y+1150436D01*
X-9070835Y+1334853D01*
X-9070835Y+1550000D01*
X-8967635Y+1653200D01*
X-8905252Y+1653200D01*
X-9255252Y+650000D02*
X-9144454Y+760798D01*
X-9144454Y+988493D01*
X-9060832Y+1072115D01*
X-8424167Y+1072115D01*
X-8305252Y+953200D01*
X-9255252Y+350000D02*
X-9255252Y+461680D01*
X-9052471Y+664461D01*
X-9052471Y+674914D01*
X-9052471Y+844246D01*
X-8981452Y+915265D01*
X-8905252Y+953200D01*
X-9255252Y+50000D02*
X-9255252Y+164142D01*
X-9037172Y+382222D01*
X-8470589Y+382222D01*
X-8341567Y+253200D01*
X-8305252Y+253200D01*
X-9255252Y-250000D02*
X-9105252Y-100000D01*
X-9105252Y+100000D01*
X-8952052Y+253200D01*
X-8905252Y+253200D01*
X-9255252Y-550000D02*
X-9255252Y-449971D01*
X-9087761Y-282480D01*
X-8469572Y-282480D01*
X-8305252Y-446800D01*
X-9255252Y-850000D02*
X-9097598Y-692346D01*
X-9097598Y-557616D01*
X-8986782Y-446800D01*
X-8905252Y-446800D01*
X-9255252Y-1150000D02*
X-9089302Y-984050D01*
X-9083369Y-984050D01*
X-8468002Y-984050D01*
X-8305252Y-1146800D01*
X-9255252Y-1450000D02*
X-8952052Y-1146800D01*
X-8905252Y-1146800D01*
X-9255252Y-1750000D02*
X-9232956Y-1727704D01*
X-8424348Y-1727704D01*
X-8305252Y-1846800D01*
X-9255252Y-2050000D02*
X-9052052Y-1846800D01*
X-8905252Y-1846800D01*
X-9255252Y-2350000D02*
X-8978315Y-2350000D01*
X-8899534Y-2428781D01*
X-8423271Y-2428781D01*
X-8305252Y-2546800D01*
X-9255252Y-2650000D02*
X-9008452Y-2650000D01*
X-8905252Y-2546800D01*
X-9255252Y-2950000D02*
X-9077004Y-3128248D01*
X-8423804Y-3128248D01*
X-8305252Y-3246800D01*
X-9255252Y-3250000D02*
X-8908452Y-3250000D01*
X-8905252Y-3246800D01*
X-9255252Y-3550000D02*
X-9002155Y-3803097D01*
X-8488140Y-3803097D01*
X-8318159Y-3973078D01*
X-8293876Y-3973078D01*
X-8305252Y-3943600D01*
X-9255252Y-3850000D02*
X-9053167Y-3850000D01*
X-8959567Y-3943600D01*
X-8905252Y-3943600D01*
X-9255252Y-4150000D02*
X-9148356Y-4150000D01*
X-9139658Y-4158698D01*
X-9032608Y-4265748D01*
X-9032608Y-4401993D01*
X-8910961Y-4523640D01*
X-8425212Y-4523640D01*
X-8305252Y-4643600D01*
X-9255252Y-4450000D02*
X-9098852Y-4450000D01*
X-8905252Y-4643600D01*
X-9255252Y-4750000D02*
X-9022876Y-4982376D01*
X-9022876Y-5107548D01*
X-9018010Y-5112414D01*
X-8910961Y-5219463D01*
X-8429389Y-5219463D01*
X-8305252Y-5343600D01*
X-9255252Y-5050000D02*
X-8961652Y-5343600D01*
X-8905252Y-5343600D01*
X-9570212Y-5050000D02*
X-9739310Y-4880902D01*
X-9739310Y-4776136D01*
X-9897446Y-4618000D01*
X-10005252Y-4618000D01*
X-9570212Y-4750000D02*
X-9825322Y-4494890D01*
X-10124362Y-4494890D01*
X-10255252Y-4364000D01*
X-9570212Y-4450000D02*
X-9656212Y-4364000D01*
X-10005252Y-4364000D01*
X-9670212Y+3450000D02*
X-9734861Y+3385351D01*
X-10053246Y+3385351D01*
X-10132087Y+3306510D01*
X-10132087Y+3125165D01*
X-10255252Y+3002000D01*
X-9855252Y+3750000D02*
X-10226103Y+3379149D01*
X-10306194Y+3379149D01*
X-10378381Y+3306962D01*
X-10378381Y+2871129D01*
X-10255252Y+2748000D01*
X-9855252Y+4050000D02*
X-10455252Y+3450000D01*
X-10455252Y+2694000D01*
X-10255252Y+2494000D01*
X-9855252Y+4350000D02*
X-10521333Y+3683919D01*
X-10521333Y+2503946D01*
X-10337802Y+2320415D01*
X-10255252Y+2240000D01*
X-9855252Y+4650000D02*
X-10589168Y+3916084D01*
X-10589168Y+2283916D01*
X-10337802Y+2032550D01*
X-10255252Y+1986000D01*
X-9855252Y+4950000D02*
X-9855252Y+4850000D01*
X-10655240Y+4050012D01*
X-10655240Y+2131988D01*
X-10255252Y+1732000D01*
X-9855252Y+5250000D02*
X-10721306Y+4383946D01*
X-10721306Y+1944054D01*
X-10255252Y+1478000D01*
X-9855252Y+5550000D02*
X-9855252Y+5434419D01*
X-10790636Y+4499035D01*
X-10790636Y+1759384D01*
X-10255252Y+1224000D01*
X-9670212Y+3150000D02*
X-9857252Y+3150000D01*
X-10005252Y+3002000D01*
X-9655252Y+2750000D02*
X-10003252Y+2750000D01*
X-10005252Y+2748000D01*
X-9655252Y+2460000D02*
X-9971252Y+2460000D01*
X-10005252Y+2494000D01*
X-9655252Y+2200000D02*
X-9965252Y+2200000D01*
X-10005252Y+2240000D01*
X-9655252Y+1850000D02*
X-9787988Y+1982736D01*
X-9922702Y+1982736D01*
X-10005252Y+1986000D01*
X-9655252Y+1550000D02*
X-9837252Y+1732000D01*
X-10005252Y+1732000D01*
X-9655252Y+1250000D02*
X-9883252Y+1478000D01*
X-10005252Y+1478000D01*
X-9570212Y+950000D02*
X-9844212Y+1224000D01*
X-10005252Y+1224000D01*
X-9570212Y+650000D02*
X-9890212Y+970000D01*
X-10005252Y+970000D01*
X-9570212Y+350000D02*
X-9936212Y+716000D01*
X-10005252Y+716000D01*
X-9570212Y+50000D02*
X-9982212Y+462000D01*
X-10005252Y+462000D01*
X-9570212Y-250000D02*
X-10005252Y+185040D01*
X-10005252Y+208000D01*
X-9570212Y-550000D02*
X-9570212Y-458034D01*
X-9584025Y-444221D01*
X-9982246Y-46000D01*
X-10005252Y-46000D01*
X-9570212Y-850000D02*
X-9570212Y-734879D01*
X-10005091Y-300000D01*
X-10005252Y-300000D01*
X-9570212Y-1150000D02*
X-9737231Y-982981D01*
X-9737231Y-782888D01*
X-9966119Y-554000D01*
X-10005252Y-554000D01*
X-9570212Y-1450000D02*
X-9958212Y-1062000D01*
X-10005252Y-1062000D01*
X-9570212Y-1750000D02*
X-10004212Y-1316000D01*
X-10005252Y-1316000D01*
X-9570212Y-2050000D02*
X-10005252Y-1614960D01*
X-10005252Y-1570000D01*
X-9570212Y-2350000D02*
X-9842212Y-2078000D01*
X-10005252Y-2078000D01*
X-9570212Y-2650000D02*
X-9888212Y-2332000D01*
X-10005252Y-2332000D01*
X-9570212Y-2950000D02*
X-9934212Y-2586000D01*
X-10005252Y-2586000D01*
X-9570212Y-3250000D02*
X-9994172Y-2826040D01*
X-10027894Y-2826040D01*
X-10005252Y-2840000D01*
X-9570212Y-3550000D02*
X-9772212Y-3348000D01*
X-10005252Y-3348000D01*
X-9570212Y-3850000D02*
X-9999252Y-3850000D01*
X-10005252Y-3856000D01*
X-9570212Y-4150000D02*
X-9965252Y-4150000D01*
X-10005252Y-4110000D01*
X-9170000Y+3172982D02*
X-9170000Y+3182007D01*
X-9122009Y+3229998D01*
X-8856851Y+3229998D01*
X-8741069Y+3345780D01*
X-8306065Y+3345780D01*
X-9182923Y+3172982D02*
X-9170000Y+3172982D01*
X-8306065Y+3345780D02*
X-8305252Y+3346800D01*
X-9340292Y+2460000D02*
X-9197729Y+2602563D01*
X-9197729Y+2932271D01*
X-9022977Y+3107023D01*
X-8305252Y+4746800D02*
X-8157186Y+4598734D01*
X-8157186Y+4173209D01*
X-8283595Y+4046800D01*
X-8305252Y+4046800D01*
X-8157186Y+3898734D01*
X-8157186Y+3473209D01*
X-8283595Y+3346800D01*
X-8305252Y+3346800D01*
X-8304232Y+3345780D01*
X-8157186Y+3198734D01*
X-8157186Y+2773209D01*
X-8157999Y+2772396D01*
X-8283595Y+2646800D01*
X-8305252Y+2646800D01*
X-8306065Y+3345780D02*
X-8304232Y+3345780D01*
X-8290816Y+3345780D01*
X-8306065Y+3345780D02*
X-8157999Y+3197714D01*
X-8157999Y+2772396D01*
X-8157999Y+2772189D01*
X-8284408Y+2645780D01*
X-8306065Y+2645780D01*
X-8158812Y+2071376D02*
X-8284408Y+1945780D01*
X-8306065Y+1945780D01*
X-8307085Y+2646800D02*
X-8306065Y+2645780D01*
X-8305045Y+2644760D01*
X-8159019Y+2498734D01*
X-8159019Y+2073209D01*
X-8159832Y+2072396D01*
X-8285428Y+1946800D01*
X-8305252Y+1946800D01*
X-8307085Y+1946800D01*
X-8159019Y+2498734D02*
X-8157999Y+2497714D01*
X-8157999Y+2072189D01*
X-8158812Y+2071376D01*
X-8307085Y+1946800D02*
X-8306065Y+1945780D01*
X-8305045Y+1944760D01*
X-8159019Y+1798734D01*
X-8159019Y+1373209D01*
X-8159832Y+1372396D01*
X-8285428Y+1246800D01*
X-8305252Y+1246800D01*
X-8307085Y+1246800D01*
X-8305252Y+1246800D02*
X-8304232Y+1245780D01*
X-8303212Y+1244760D01*
X-8157186Y+1098734D01*
X-8157186Y+673209D01*
X-8157999Y+672396D01*
X-8283595Y+546800D01*
X-8303419Y+546800D01*
X-8305252Y+546800D01*
X-8304232Y+545780D01*
X-8303212Y+544760D01*
X-8157186Y+398734D01*
X-8157186Y-26791D01*
X-8157999Y-27604D01*
X-8283595Y-153200D01*
X-8303419Y-153200D01*
X-8305252Y-153200D01*
X-8304232Y-154220D01*
X-8303212Y-155240D01*
X-8157186Y-301266D01*
X-8157186Y-726791D01*
X-8157999Y-727604D01*
X-8283595Y-853200D01*
X-8303419Y-853200D01*
X-8305252Y-853200D01*
X-8159226Y-999226D02*
X-8159226Y-1424751D01*
X-8160039Y-1425564D01*
X-8285635Y-1551160D01*
X-8305459Y-1551160D01*
X-8307292Y-1551160D01*
X-8161266Y-997186D02*
X-8159226Y-999226D01*
X-8157186Y-1001266D01*
X-8155146Y-1003306D01*
X-8155146Y-1428831D01*
X-8155959Y-1429644D01*
X-8281555Y-1555240D01*
X-8301379Y-1555240D01*
X-8303212Y-1555240D01*
X-8309332Y-849120D02*
X-8308312Y-850140D01*
X-8307292Y-851160D01*
X-8306272Y-852180D01*
X-8305252Y-853200D01*
X-8304232Y-854220D01*
X-8303212Y-855240D01*
X-8302192Y-856260D01*
X-8301172Y-857280D01*
X-8300152Y-858300D01*
X-8299132Y-859320D01*
X-8167386Y-991066D01*
X-8165346Y-993106D01*
X-8163306Y-995146D01*
X-8161266Y-997186D01*
X-8161266Y-1422711D01*
X-8162079Y-1423524D01*
X-8287675Y-1549120D01*
X-8307499Y-1549120D01*
X-8309332Y-1549120D01*
X-8307292Y-1551160D02*
X-8306272Y-1552180D01*
X-8305252Y-1553200D01*
X-8304232Y-1554220D01*
X-8303212Y-1555240D01*
X-8302192Y-1556260D01*
X-8301172Y-1557280D01*
X-8300152Y-1558300D01*
X-8299132Y-1559320D01*
X-8298112Y-1560340D01*
X-8297092Y-1561360D01*
X-8165346Y-1693106D01*
X-8163306Y-1695146D01*
X-8161266Y-1697186D01*
X-8159226Y-1699226D01*
X-8159226Y-2124751D01*
X-8160039Y-2125564D01*
X-8285635Y-2251160D01*
X-8305459Y-2251160D01*
X-8307292Y-2251160D01*
X-8312392Y-2246060D02*
X-8311372Y-2247080D01*
X-8310352Y-2248100D01*
X-8309332Y-2249120D01*
X-8308312Y-2250140D01*
X-8307292Y-2251160D01*
X-8306272Y-2252180D01*
X-8305252Y-2253200D01*
X-8304232Y-2254220D01*
X-8303212Y-2255240D01*
X-8302192Y-2256260D01*
X-8170446Y-2388006D01*
X-8168406Y-2390046D01*
X-8166366Y-2392086D01*
X-8164326Y-2394126D01*
X-8164326Y-2819651D01*
X-8165139Y-2820464D01*
X-8290735Y-2946060D01*
X-8310559Y-2946060D01*
X-8312392Y-2946060D01*
X-8315452Y-2943000D02*
X-8314432Y-2944020D01*
X-8313412Y-2945040D01*
X-8312392Y-2946060D01*
X-8311372Y-2947080D01*
X-8310352Y-2948100D01*
X-8309332Y-2949120D01*
X-8308312Y-2950140D01*
X-8307292Y-2951160D01*
X-8306272Y-2952180D01*
X-8305252Y-2953200D01*
X-8173506Y-3084946D01*
X-8171466Y-3086986D01*
X-8169426Y-3089026D01*
X-8167386Y-3091066D01*
X-8167386Y-3516591D01*
X-8168199Y-3517404D01*
X-8293795Y-3643000D01*
X-8313619Y-3643000D01*
X-8315452Y-3643000D01*
X-8314432Y-3644020D01*
X-8313412Y-3645040D01*
X-8312392Y-3646060D01*
X-8311372Y-3647080D01*
X-8310352Y-3648100D01*
X-8309332Y-3649120D01*
X-8308312Y-3650140D01*
X-8307292Y-3651160D01*
X-8306272Y-3652180D01*
X-8305252Y-3653200D01*
X-8293795Y-4343000D02*
X-8313619Y-4343000D01*
X-8315452Y-4343000D01*
X-8303995Y-4332800D02*
X-8302975Y-4333820D01*
X-8301955Y-4334840D01*
X-8300935Y-4335860D01*
X-8299915Y-4336880D01*
X-8298895Y-4337900D01*
X-8297875Y-4338920D01*
X-8296855Y-4339940D01*
X-8295835Y-4340960D01*
X-8294815Y-4341980D01*
X-8293795Y-4343000D01*
X-8282338Y-5032800D02*
X-8302162Y-5032800D01*
X-8303995Y-5032800D01*
X-8315452Y-5039800D02*
X-8314432Y-5040820D01*
X-8313412Y-5041840D01*
X-8312392Y-5042860D01*
X-8311372Y-5043880D01*
X-8310352Y-5044900D01*
X-8309332Y-5045920D01*
X-8308312Y-5046940D01*
X-8307292Y-5047960D01*
X-8293795Y-5739800D02*
X-8313619Y-5739800D01*
X-8315452Y-5739800D01*
X-8305252Y-3653200D02*
X-8173506Y-3784946D01*
X-8171466Y-3786986D01*
X-8169426Y-3789026D01*
X-8167386Y-3791066D01*
X-8167386Y-4216591D01*
X-8168199Y-4217404D01*
X-8293795Y-4343000D01*
X-8305252Y-4350000D02*
X-8300795Y-4350000D01*
X-8286795Y-4350000D01*
X-8162049Y-4474746D01*
X-8160009Y-4476786D01*
X-8157969Y-4478826D01*
X-8155929Y-4480866D01*
X-8155929Y-4906391D01*
X-8156742Y-4907204D01*
X-8282338Y-5032800D01*
X-8297498Y-5047960D01*
X-8307292Y-5047960D01*
X-8306272Y-5048980D01*
X-8305252Y-5050000D01*
X-8293795Y-4343000D02*
X-8286795Y-4350000D01*
X-8293795Y-4343000D02*
X-8300795Y-4350000D01*
X-8305252Y-5050000D02*
X-8173506Y-5181746D01*
X-8171466Y-5183786D01*
X-8169426Y-5185826D01*
X-8167386Y-5187866D01*
X-8167386Y-5613391D01*
X-8168199Y-5614204D01*
X-8293795Y-5739800D01*
X-8303995Y-5750000D01*
X-8305252Y-5750000D01*
D11*
X-9182923Y+3172982D03*
X-9022977Y+3107023D03*
D12*
X-7755252Y+5850000D03*
X-7628252Y+5850000D03*
X-7501252Y+5850000D03*
X-7374252Y+5850000D03*
X-7155252Y+5850000D03*
X-7028252Y+5850000D03*
X-6901252Y+5850000D03*
X-6774252Y+5850000D03*
X-6555252Y+5850000D03*
X-6428252Y+5850000D03*
X-6301252Y+5850000D03*
X-6174252Y+5850000D03*
X-5955252Y+5850000D03*
X-5828252Y+5850000D03*
X-5701252Y+5850000D03*
X-5574252Y+5850000D03*
X-5355252Y+5850000D03*
X-5228252Y+5850000D03*
X-5101252Y+5850000D03*
X-4974252Y+5850000D03*
X-4755252Y+5850000D03*
X-4628252Y+5850000D03*
X-4501252Y+5850000D03*
X-4374252Y+5850000D03*
X-4155252Y+5850000D03*
X-4028252Y+5850000D03*
X-3901252Y+5850000D03*
X-3774252Y+5850000D03*
X-3555252Y+5850000D03*
X-3428252Y+5850000D03*
X-3301252Y+5850000D03*
X-3174252Y+5850000D03*
X-2955252Y+5850000D03*
X-2828252Y+5850000D03*
X-2701252Y+5850000D03*
X-2574252Y+5850000D03*
X-2355252Y+5850000D03*
X-2228252Y+5850000D03*
X-2101252Y+5850000D03*
X-1974252Y+5850000D03*
X-1755252Y+5850000D03*
X-1628252Y+5850000D03*
X-1501252Y+5850000D03*
X-1374252Y+5850000D03*
X-1155252Y+5850000D03*
X-1028252Y+5850000D03*
X-901252Y+5850000D03*
X-774252Y+5850000D03*
X-555252Y+5850000D03*
X-428252Y+5850000D03*
X-301252Y+5850000D03*
X-174252Y+5850000D03*
X+44748Y+5850000D03*
X+171748Y+5850000D03*
X+298748Y+5850000D03*
X+425748Y+5850000D03*
X+644748Y+5850000D03*
X+771748Y+5850000D03*
X+898748Y+5850000D03*
X+1025748Y+5850000D03*
X+1244748Y+5850000D03*
X+1371748Y+5850000D03*
X+1498748Y+5850000D03*
X+1625748Y+5850000D03*
X+1844748Y+5850000D03*
X+1971748Y+5850000D03*
X+2098748Y+5850000D03*
X+2225748Y+5850000D03*
X+2444748Y+5850000D03*
X+2571748Y+5850000D03*
X+2698748Y+5850000D03*
X+2825748Y+5850000D03*
X+3044748Y+5850000D03*
X+3171748Y+5850000D03*
X+3298748Y+5850000D03*
X+3425748Y+5850000D03*
X+3644748Y+5850000D03*
X+3771748Y+5850000D03*
X+3898748Y+5850000D03*
X+4025748Y+5850000D03*
X+4244748Y+5850000D03*
X+4371748Y+5850000D03*
X+4498748Y+5850000D03*
X+4625748Y+5850000D03*
X+4844748Y+5850000D03*
X+4971748Y+5850000D03*
X+5098748Y+5850000D03*
X+5225748Y+5850000D03*
X+5444748Y+5850000D03*
X+5571748Y+5850000D03*
X+5698748Y+5850000D03*
X+5825748Y+5850000D03*
X+6044748Y+5850000D03*
X+6171748Y+5850000D03*
X+6298748Y+5850000D03*
X+6425748Y+5850000D03*
X+6644748Y+5850000D03*
X+6771748Y+5850000D03*
X+6898748Y+5850000D03*
X+7025748Y+5850000D03*
X+7244748Y+5850000D03*
X+7371748Y+5850000D03*
X+7498748Y+5850000D03*
X+7625748Y+5850000D03*
X+7844748Y+5850000D03*
X+7971748Y+5850000D03*
X+8098748Y+5850000D03*
X+8225748Y+5850000D03*
X+8444748Y+5850000D03*
X+8571748Y+5850000D03*
X+8698748Y+5850000D03*
X+8825748Y+5850000D03*
X+9044748Y+5850000D03*
X+9171748Y+5850000D03*
X+9298748Y+5850000D03*
X+9425748Y+5850000D03*
X+9644748Y+5850000D03*
X+9771748Y+5850000D03*
X+9898748Y+5850000D03*
X+10025748Y+5850000D03*
X+10244748Y+5850000D03*
X+10371748Y+5850000D03*
X+10498748Y+5850000D03*
X+10625748Y+5850000D03*
X+10844748Y+5850000D03*
X+10971748Y+5850000D03*
X+11098748Y+5850000D03*
X+11225748Y+5850000D03*
X-7755252Y+5250000D03*
X-7628252Y+5250000D03*
X-7501252Y+5250000D03*
X-7374252Y+5250000D03*
X-7155252Y+5250000D03*
X-7028252Y+5250000D03*
X-6901252Y+5250000D03*
X-6774252Y+5250000D03*
X-6555252Y+5250000D03*
X-6428252Y+5250000D03*
X-6301252Y+5250000D03*
X-6174252Y+5250000D03*
X-5955252Y+5250000D03*
X-5828252Y+5250000D03*
X-5701252Y+5250000D03*
X-5574252Y+5250000D03*
X-5355252Y+5250000D03*
X-5228252Y+5250000D03*
X-5101252Y+5250000D03*
X-4974252Y+5250000D03*
X-4755252Y+5250000D03*
X-4628252Y+5250000D03*
X-4501252Y+5250000D03*
X-4374252Y+5250000D03*
X-4155252Y+5250000D03*
X-4028252Y+5250000D03*
X-3901252Y+5250000D03*
X-3774252Y+5250000D03*
X-3555252Y+5250000D03*
X-3428252Y+5250000D03*
X-3301252Y+5250000D03*
X-3174252Y+5250000D03*
X-2955252Y+5250000D03*
X-2828252Y+5250000D03*
X-2701252Y+5250000D03*
X-2574252Y+5250000D03*
X-2355252Y+5250000D03*
X-2228252Y+5250000D03*
X-2101252Y+5250000D03*
X-1974252Y+5250000D03*
X-1755252Y+5250000D03*
X-1628252Y+5250000D03*
X-1501252Y+5250000D03*
X-1374252Y+5250000D03*
X-1155252Y+5250000D03*
X-1028252Y+5250000D03*
X-901252Y+5250000D03*
X-774252Y+5250000D03*
X-555252Y+5250000D03*
X-428252Y+5250000D03*
X-301252Y+5250000D03*
X-174252Y+5250000D03*
X+44748Y+5250000D03*
X+171748Y+5250000D03*
X+298748Y+5250000D03*
X+425748Y+5250000D03*
X+644748Y+5250000D03*
X+771748Y+5250000D03*
X+898748Y+5250000D03*
X+1025748Y+5250000D03*
X+1244748Y+5250000D03*
X+1371748Y+5250000D03*
X+1498748Y+5250000D03*
X+1625748Y+5250000D03*
X+1844748Y+5250000D03*
X+1971748Y+5250000D03*
X+2098748Y+5250000D03*
X+2225748Y+5250000D03*
X+2444748Y+5250000D03*
X+2571748Y+5250000D03*
X+2698748Y+5250000D03*
X+2825748Y+5250000D03*
X+3044748Y+5250000D03*
X+3171748Y+5250000D03*
X+3298748Y+5250000D03*
X+3425748Y+5250000D03*
X+3644748Y+5250000D03*
X+3771748Y+5250000D03*
X+3898748Y+5250000D03*
X+4025748Y+5250000D03*
X+4244748Y+5250000D03*
X+4371748Y+5250000D03*
X+4498748Y+5250000D03*
X+4625748Y+5250000D03*
X+4844748Y+5250000D03*
X+4971748Y+5250000D03*
X+5098748Y+5250000D03*
X+5225748Y+5250000D03*
X+5444748Y+5250000D03*
X+5571748Y+5250000D03*
X+5698748Y+5250000D03*
X+5825748Y+5250000D03*
X+6044748Y+5250000D03*
X+6171748Y+5250000D03*
X+6298748Y+5250000D03*
X+6425748Y+5250000D03*
X+6644748Y+5250000D03*
X+6771748Y+5250000D03*
X+6898748Y+5250000D03*
X+7025748Y+5250000D03*
X+7244748Y+5250000D03*
X+7371748Y+5250000D03*
X+7498748Y+5250000D03*
X+7625748Y+5250000D03*
X+7844748Y+5250000D03*
X+7971748Y+5250000D03*
X+8098748Y+5250000D03*
X+8225748Y+5250000D03*
X+8444748Y+5250000D03*
X+8571748Y+5250000D03*
X+8698748Y+5250000D03*
X+8825748Y+5250000D03*
X+9044748Y+5250000D03*
X+9171748Y+5250000D03*
X+9298748Y+5250000D03*
X+9425748Y+5250000D03*
X+9644748Y+5250000D03*
X+9771748Y+5250000D03*
X+9898748Y+5250000D03*
X+10025748Y+5250000D03*
X+10244748Y+5250000D03*
X+10371748Y+5250000D03*
X+10498748Y+5250000D03*
X+10625748Y+5250000D03*
X+10844748Y+5250000D03*
X+10971748Y+5250000D03*
X+11098748Y+5250000D03*
X+11225748Y+5250000D03*
X-7755252Y+4650000D03*
X-7628252Y+4650000D03*
X-7501252Y+4650000D03*
X-7374252Y+4650000D03*
X-7155252Y+4650000D03*
X-7028252Y+4650000D03*
X-6901252Y+4650000D03*
X-6774252Y+4650000D03*
X-6555252Y+4650000D03*
X-6428252Y+4650000D03*
X-6301252Y+4650000D03*
X-6174252Y+4650000D03*
X-5955252Y+4650000D03*
X-5828252Y+4650000D03*
X-5701252Y+4650000D03*
X-5574252Y+4650000D03*
X-5355252Y+4650000D03*
X-5228252Y+4650000D03*
X-5101252Y+4650000D03*
X-4974252Y+4650000D03*
X-4755252Y+4650000D03*
X-4628252Y+4650000D03*
X-4501252Y+4650000D03*
X-4374252Y+4650000D03*
X-4155252Y+4650000D03*
X-4028252Y+4650000D03*
X-3901252Y+4650000D03*
X-3774252Y+4650000D03*
X-3555252Y+4650000D03*
X-3428252Y+4650000D03*
X-3301252Y+4650000D03*
X-3174252Y+4650000D03*
X-2955252Y+4650000D03*
X-2828252Y+4650000D03*
X-2701252Y+4650000D03*
X-2574252Y+4650000D03*
X-2355252Y+4650000D03*
X-2228252Y+4650000D03*
X-2101252Y+4650000D03*
X-1974252Y+4650000D03*
X-1755252Y+4650000D03*
X-1628252Y+4650000D03*
X-1501252Y+4650000D03*
X-1374252Y+4650000D03*
X-1155252Y+4650000D03*
X-1028252Y+4650000D03*
X-901252Y+4650000D03*
X-774252Y+4650000D03*
X-555252Y+4650000D03*
X-428252Y+4650000D03*
X-301252Y+4650000D03*
X-174252Y+4650000D03*
X+44748Y+4650000D03*
X+171748Y+4650000D03*
X+298748Y+4650000D03*
X+425748Y+4650000D03*
X+644748Y+4650000D03*
X+771748Y+4650000D03*
X+898748Y+4650000D03*
X+1025748Y+4650000D03*
X+1244748Y+4650000D03*
X+1371748Y+4650000D03*
X+1498748Y+4650000D03*
X+1625748Y+4650000D03*
X+1844748Y+4650000D03*
X+1971748Y+4650000D03*
X+2098748Y+4650000D03*
X+2225748Y+4650000D03*
X+2444748Y+4650000D03*
X+2571748Y+4650000D03*
X+2698748Y+4650000D03*
X+2825748Y+4650000D03*
X+3044748Y+4650000D03*
X+3171748Y+4650000D03*
X+3298748Y+4650000D03*
X+3425748Y+4650000D03*
X+3644748Y+4650000D03*
X+3771748Y+4650000D03*
X+3898748Y+4650000D03*
X+4025748Y+4650000D03*
X+4244748Y+4650000D03*
X+4371748Y+4650000D03*
X+4498748Y+4650000D03*
X+4625748Y+4650000D03*
X+4844748Y+4650000D03*
X+4971748Y+4650000D03*
X+5098748Y+4650000D03*
X+5225748Y+4650000D03*
X+5444748Y+4650000D03*
X+5571748Y+4650000D03*
X+5698748Y+4650000D03*
X+5825748Y+4650000D03*
X+6044748Y+4650000D03*
X+6171748Y+4650000D03*
X+6298748Y+4650000D03*
X+6425748Y+4650000D03*
X+6644748Y+4650000D03*
X+6771748Y+4650000D03*
X+6898748Y+4650000D03*
X+7025748Y+4650000D03*
X+7244748Y+4650000D03*
X+7371748Y+4650000D03*
X+7498748Y+4650000D03*
X+7625748Y+4650000D03*
X+7844748Y+4650000D03*
X+7971748Y+4650000D03*
X+8098748Y+4650000D03*
X+8225748Y+4650000D03*
X+8444748Y+4650000D03*
X+8571748Y+4650000D03*
X+8698748Y+4650000D03*
X+8825748Y+4650000D03*
X+9044748Y+4650000D03*
X+9171748Y+4650000D03*
X+9298748Y+4650000D03*
X+9425748Y+4650000D03*
X+9644748Y+4650000D03*
X+9771748Y+4650000D03*
X+9898748Y+4650000D03*
X+10025748Y+4650000D03*
X+10244748Y+4650000D03*
X+10371748Y+4650000D03*
X+10498748Y+4650000D03*
X+10625748Y+4650000D03*
X+10844748Y+4650000D03*
X+10971748Y+4650000D03*
X+11098748Y+4650000D03*
X+11225748Y+4650000D03*
X-7755252Y+4050000D03*
X-7628252Y+4050000D03*
X-7501252Y+4050000D03*
X-7374252Y+4050000D03*
X-7155252Y+4050000D03*
X-7028252Y+4050000D03*
X-6901252Y+4050000D03*
X-6774252Y+4050000D03*
X-6555252Y+4050000D03*
X-6428252Y+4050000D03*
X-6301252Y+4050000D03*
X-6174252Y+4050000D03*
X-5955252Y+4050000D03*
X-5828252Y+4050000D03*
X-5701252Y+4050000D03*
X-5574252Y+4050000D03*
X-5355252Y+4050000D03*
X-5228252Y+4050000D03*
X-5101252Y+4050000D03*
X-4974252Y+4050000D03*
X-4755252Y+4050000D03*
X-4628252Y+4050000D03*
X-4501252Y+4050000D03*
X-4374252Y+4050000D03*
X-4155252Y+4050000D03*
X-4028252Y+4050000D03*
X-3901252Y+4050000D03*
X-3774252Y+4050000D03*
X-3555252Y+4050000D03*
X-3428252Y+4050000D03*
X-3301252Y+4050000D03*
X-3174252Y+4050000D03*
X-2955252Y+4050000D03*
X-2828252Y+4050000D03*
X-2701252Y+4050000D03*
X-2574252Y+4050000D03*
X-2355252Y+4050000D03*
X-2228252Y+4050000D03*
X-2101252Y+4050000D03*
X-1974252Y+4050000D03*
X-1755252Y+4050000D03*
X-1628252Y+4050000D03*
X-1501252Y+4050000D03*
X-1374252Y+4050000D03*
X-1155252Y+4050000D03*
X-1028252Y+4050000D03*
X-901252Y+4050000D03*
X-774252Y+4050000D03*
X-555252Y+4050000D03*
X-428252Y+4050000D03*
X-301252Y+4050000D03*
X-174252Y+4050000D03*
X+44748Y+4050000D03*
X+171748Y+4050000D03*
X+298748Y+4050000D03*
X+425748Y+4050000D03*
X+644748Y+4050000D03*
X+771748Y+4050000D03*
X+898748Y+4050000D03*
X+1025748Y+4050000D03*
X+1244748Y+4050000D03*
X+1371748Y+4050000D03*
X+1498748Y+4050000D03*
X+1625748Y+4050000D03*
X+1844748Y+4050000D03*
X+1971748Y+4050000D03*
X+2098748Y+4050000D03*
X+2225748Y+4050000D03*
X+2444748Y+4050000D03*
X+2571748Y+4050000D03*
X+2698748Y+4050000D03*
X+2825748Y+4050000D03*
X+3044748Y+4050000D03*
X+3171748Y+4050000D03*
X+3298748Y+4050000D03*
X+3425748Y+4050000D03*
X+3644748Y+4050000D03*
X+3771748Y+4050000D03*
X+3898748Y+4050000D03*
X+4025748Y+4050000D03*
X+4244748Y+4050000D03*
X+4371748Y+4050000D03*
X+4498748Y+4050000D03*
X+4625748Y+4050000D03*
X+4844748Y+4050000D03*
X+4971748Y+4050000D03*
X+5098748Y+4050000D03*
X+5225748Y+4050000D03*
X+5444748Y+4050000D03*
X+5571748Y+4050000D03*
X+5698748Y+4050000D03*
X+5825748Y+4050000D03*
X+6044748Y+4050000D03*
X+6171748Y+4050000D03*
X+6298748Y+4050000D03*
X+6425748Y+4050000D03*
X+6644748Y+4050000D03*
X+6771748Y+4050000D03*
X+6898748Y+4050000D03*
X+7025748Y+4050000D03*
X+7244748Y+4050000D03*
X+7371748Y+4050000D03*
X+7498748Y+4050000D03*
X+7625748Y+4050000D03*
X+7844748Y+4050000D03*
X+7971748Y+4050000D03*
X+8098748Y+4050000D03*
X+8225748Y+4050000D03*
X+8444748Y+4050000D03*
X+8571748Y+4050000D03*
X+8698748Y+4050000D03*
X+8825748Y+4050000D03*
X+9044748Y+4050000D03*
X+9171748Y+4050000D03*
X+9298748Y+4050000D03*
X+9425748Y+4050000D03*
X+9644748Y+4050000D03*
X+9771748Y+4050000D03*
X+9898748Y+4050000D03*
X+10025748Y+4050000D03*
X+10244748Y+4050000D03*
X+10371748Y+4050000D03*
X+10498748Y+4050000D03*
X+10625748Y+4050000D03*
X+10844748Y+4050000D03*
X+10971748Y+4050000D03*
X+11098748Y+4050000D03*
X+11225748Y+4050000D03*
X-7755252Y+3450000D03*
X-7628252Y+3450000D03*
X-7501252Y+3450000D03*
X-7374252Y+3450000D03*
X-7155252Y+3450000D03*
X-7028252Y+3450000D03*
X-6901252Y+3450000D03*
X-6774252Y+3450000D03*
X-6555252Y+3450000D03*
X-6428252Y+3450000D03*
X-6301252Y+3450000D03*
X-6174252Y+3450000D03*
X-5955252Y+3450000D03*
X-5828252Y+3450000D03*
X-5701252Y+3450000D03*
X-5574252Y+3450000D03*
X-5355252Y+3450000D03*
X-5228252Y+3450000D03*
X-5101252Y+3450000D03*
X-4974252Y+3450000D03*
X-4755252Y+3450000D03*
X-4628252Y+3450000D03*
X-4501252Y+3450000D03*
X-4374252Y+3450000D03*
X-4155252Y+3450000D03*
X-4028252Y+3450000D03*
X-3901252Y+3450000D03*
X-3774252Y+3450000D03*
X-3555252Y+3450000D03*
X-3428252Y+3450000D03*
X-3301252Y+3450000D03*
X-3174252Y+3450000D03*
X-2955252Y+3450000D03*
X-2828252Y+3450000D03*
X-2701252Y+3450000D03*
X-2574252Y+3450000D03*
X-2355252Y+3450000D03*
X-2228252Y+3450000D03*
X-2101252Y+3450000D03*
X-1974252Y+3450000D03*
X-1755252Y+3450000D03*
X-1628252Y+3450000D03*
X-1501252Y+3450000D03*
X-1374252Y+3450000D03*
X-1155252Y+3450000D03*
X-1028252Y+3450000D03*
X-901252Y+3450000D03*
X-774252Y+3450000D03*
X-555252Y+3450000D03*
X-428252Y+3450000D03*
X-301252Y+3450000D03*
X-174252Y+3450000D03*
X+44748Y+3450000D03*
X+171748Y+3450000D03*
X+298748Y+3450000D03*
X+425748Y+3450000D03*
X+644748Y+3450000D03*
X+771748Y+3450000D03*
X+898748Y+3450000D03*
X+1025748Y+3450000D03*
X+1244748Y+3450000D03*
X+1371748Y+3450000D03*
X+1498748Y+3450000D03*
X+1625748Y+3450000D03*
X+1844748Y+3450000D03*
X+1971748Y+3450000D03*
X+2098748Y+3450000D03*
X+2225748Y+3450000D03*
X+2444748Y+3450000D03*
X+2571748Y+3450000D03*
X+2698748Y+3450000D03*
X+2825748Y+3450000D03*
X+3044748Y+3450000D03*
X+3171748Y+3450000D03*
X+3298748Y+3450000D03*
X+3425748Y+3450000D03*
X+3644748Y+3450000D03*
X+3771748Y+3450000D03*
X+3898748Y+3450000D03*
X+4025748Y+3450000D03*
X+4244748Y+3450000D03*
X+4371748Y+3450000D03*
X+4498748Y+3450000D03*
X+4625748Y+3450000D03*
X+4844748Y+3450000D03*
X+4971748Y+3450000D03*
X+5098748Y+3450000D03*
X+5225748Y+3450000D03*
X+5444748Y+3450000D03*
X+5571748Y+3450000D03*
X+5698748Y+3450000D03*
X+5825748Y+3450000D03*
X+6044748Y+3450000D03*
X+6171748Y+3450000D03*
X+6298748Y+3450000D03*
X+6425748Y+3450000D03*
X+6644748Y+3450000D03*
X+6771748Y+3450000D03*
X+6898748Y+3450000D03*
X+7025748Y+3450000D03*
X+7244748Y+3450000D03*
X+7371748Y+3450000D03*
X+7498748Y+3450000D03*
X+7625748Y+3450000D03*
X+7844748Y+3450000D03*
X+7971748Y+3450000D03*
X+8098748Y+3450000D03*
X+8225748Y+3450000D03*
X+8444748Y+3450000D03*
X+8571748Y+3450000D03*
X+8698748Y+3450000D03*
X+8825748Y+3450000D03*
X+9044748Y+3450000D03*
X+9171748Y+3450000D03*
X+9298748Y+3450000D03*
X+9425748Y+3450000D03*
X+9644748Y+3450000D03*
X+9771748Y+3450000D03*
X+9898748Y+3450000D03*
X+10025748Y+3450000D03*
X+10244748Y+3450000D03*
X+10371748Y+3450000D03*
X+10498748Y+3450000D03*
X+10625748Y+3450000D03*
X+10844748Y+3450000D03*
X+10971748Y+3450000D03*
X+11098748Y+3450000D03*
X+11225748Y+3450000D03*
X-7755252Y+2850000D03*
X-7628252Y+2850000D03*
X-7501252Y+2850000D03*
X-7374252Y+2850000D03*
X-7155252Y+2850000D03*
X-7028252Y+2850000D03*
X-6901252Y+2850000D03*
X-6774252Y+2850000D03*
X-6555252Y+2850000D03*
X-6428252Y+2850000D03*
X-6301252Y+2850000D03*
X-6174252Y+2850000D03*
X-5955252Y+2850000D03*
X-5828252Y+2850000D03*
X-5701252Y+2850000D03*
X-5574252Y+2850000D03*
X-5355252Y+2850000D03*
X-5228252Y+2850000D03*
X-5101252Y+2850000D03*
X-4974252Y+2850000D03*
X-4755252Y+2850000D03*
X-4628252Y+2850000D03*
X-4501252Y+2850000D03*
X-4374252Y+2850000D03*
X-4155252Y+2850000D03*
X-4028252Y+2850000D03*
X-3901252Y+2850000D03*
X-3774252Y+2850000D03*
X-3555252Y+2850000D03*
X-3428252Y+2850000D03*
X-3301252Y+2850000D03*
X-3174252Y+2850000D03*
X-2955252Y+2850000D03*
X-2828252Y+2850000D03*
X-2701252Y+2850000D03*
X-2574252Y+2850000D03*
X-2355252Y+2850000D03*
X-2228252Y+2850000D03*
X-2101252Y+2850000D03*
X-1974252Y+2850000D03*
X-1755252Y+2850000D03*
X-1628252Y+2850000D03*
X-1501252Y+2850000D03*
X-1374252Y+2850000D03*
X-1155252Y+2850000D03*
X-1028252Y+2850000D03*
X-901252Y+2850000D03*
X-774252Y+2850000D03*
X-555252Y+2850000D03*
X-428252Y+2850000D03*
X-301252Y+2850000D03*
X-174252Y+2850000D03*
X+44748Y+2850000D03*
X+171748Y+2850000D03*
X+298748Y+2850000D03*
X+425748Y+2850000D03*
X+644748Y+2850000D03*
X+771748Y+2850000D03*
X+898748Y+2850000D03*
X+1025748Y+2850000D03*
X+1244748Y+2850000D03*
X+1371748Y+2850000D03*
X+1498748Y+2850000D03*
X+1625748Y+2850000D03*
X+1844748Y+2850000D03*
X+1971748Y+2850000D03*
X+2098748Y+2850000D03*
X+2225748Y+2850000D03*
X+2444748Y+2850000D03*
X+2571748Y+2850000D03*
X+2698748Y+2850000D03*
X+2825748Y+2850000D03*
X+3044748Y+2850000D03*
X+3171748Y+2850000D03*
X+3298748Y+2850000D03*
X+3425748Y+2850000D03*
X+3644748Y+2850000D03*
X+3771748Y+2850000D03*
X+3898748Y+2850000D03*
X+4025748Y+2850000D03*
X+4244748Y+2850000D03*
X+4371748Y+2850000D03*
X+4498748Y+2850000D03*
X+4625748Y+2850000D03*
X+4844748Y+2850000D03*
X+4971748Y+2850000D03*
X+5098748Y+2850000D03*
X+5225748Y+2850000D03*
X+5444748Y+2850000D03*
X+5571748Y+2850000D03*
X+5698748Y+2850000D03*
X+5825748Y+2850000D03*
X+6044748Y+2850000D03*
X+6171748Y+2850000D03*
X+6298748Y+2850000D03*
X+6425748Y+2850000D03*
X+6644748Y+2850000D03*
X+6771748Y+2850000D03*
X+6898748Y+2850000D03*
X+7025748Y+2850000D03*
X+7244748Y+2850000D03*
X+7371748Y+2850000D03*
X+7498748Y+2850000D03*
X+7625748Y+2850000D03*
X+7844748Y+2850000D03*
X+7971748Y+2850000D03*
X+8098748Y+2850000D03*
X+8225748Y+2850000D03*
X+8444748Y+2850000D03*
X+8571748Y+2850000D03*
X+8698748Y+2850000D03*
X+8825748Y+2850000D03*
X+9044748Y+2850000D03*
X+9171748Y+2850000D03*
X+9298748Y+2850000D03*
X+9425748Y+2850000D03*
X+9644748Y+2850000D03*
X+9771748Y+2850000D03*
X+9898748Y+2850000D03*
X+10025748Y+2850000D03*
X+10244748Y+2850000D03*
X+10371748Y+2850000D03*
X+10498748Y+2850000D03*
X+10625748Y+2850000D03*
X+10844748Y+2850000D03*
X+10971748Y+2850000D03*
X+11098748Y+2850000D03*
X+11225748Y+2850000D03*
X-7755252Y+2250000D03*
X-7628252Y+2250000D03*
X-7501252Y+2250000D03*
X-7374252Y+2250000D03*
X-7155252Y+2250000D03*
X-7028252Y+2250000D03*
X-6901252Y+2250000D03*
X-6774252Y+2250000D03*
X-6555252Y+2250000D03*
X-6428252Y+2250000D03*
X-6301252Y+2250000D03*
X-6174252Y+2250000D03*
X-5955252Y+2250000D03*
X-5828252Y+2250000D03*
X-5701252Y+2250000D03*
X-5574252Y+2250000D03*
X-5355252Y+2250000D03*
X-5228252Y+2250000D03*
X-5101252Y+2250000D03*
X-4974252Y+2250000D03*
X-4755252Y+2250000D03*
X-4628252Y+2250000D03*
X-4501252Y+2250000D03*
X-4374252Y+2250000D03*
X-4155252Y+2250000D03*
X-4028252Y+2250000D03*
X-3901252Y+2250000D03*
X-3774252Y+2250000D03*
X-3555252Y+2250000D03*
X-3428252Y+2250000D03*
X-3301252Y+2250000D03*
X-3174252Y+2250000D03*
X-2955252Y+2250000D03*
X-2828252Y+2250000D03*
X-2701252Y+2250000D03*
X-2574252Y+2250000D03*
X-2355252Y+2250000D03*
X-2228252Y+2250000D03*
X-2101252Y+2250000D03*
X-1974252Y+2250000D03*
X-1755252Y+2250000D03*
X-1628252Y+2250000D03*
X-1501252Y+2250000D03*
X-1374252Y+2250000D03*
X-1155252Y+2250000D03*
X-1028252Y+2250000D03*
X-901252Y+2250000D03*
X-774252Y+2250000D03*
X-555252Y+2250000D03*
X-428252Y+2250000D03*
X-301252Y+2250000D03*
X-174252Y+2250000D03*
X+44748Y+2250000D03*
X+171748Y+2250000D03*
X+298748Y+2250000D03*
X+425748Y+2250000D03*
X+644748Y+2250000D03*
X+771748Y+2250000D03*
X+898748Y+2250000D03*
X+1025748Y+2250000D03*
X+1244748Y+2250000D03*
X+1371748Y+2250000D03*
X+1498748Y+2250000D03*
X+1625748Y+2250000D03*
X+1844748Y+2250000D03*
X+1971748Y+2250000D03*
X+2098748Y+2250000D03*
X+2225748Y+2250000D03*
X+2444748Y+2250000D03*
X+2571748Y+2250000D03*
X+2698748Y+2250000D03*
X+2825748Y+2250000D03*
X+3044748Y+2250000D03*
X+3171748Y+2250000D03*
X+3298748Y+2250000D03*
X+3425748Y+2250000D03*
X+3644748Y+2250000D03*
X+3771748Y+2250000D03*
X+3898748Y+2250000D03*
X+4025748Y+2250000D03*
X+4244748Y+2250000D03*
X+4371748Y+2250000D03*
X+4498748Y+2250000D03*
X+4625748Y+2250000D03*
X+4844748Y+2250000D03*
X+4971748Y+2250000D03*
X+5098748Y+2250000D03*
X+5225748Y+2250000D03*
X+5444748Y+2250000D03*
X+5571748Y+2250000D03*
X+5698748Y+2250000D03*
X+5825748Y+2250000D03*
X+6044748Y+2250000D03*
X+6171748Y+2250000D03*
X+6298748Y+2250000D03*
X+6425748Y+2250000D03*
X+6644748Y+2250000D03*
X+6771748Y+2250000D03*
X+6898748Y+2250000D03*
X+7025748Y+2250000D03*
X+7244748Y+2250000D03*
X+7371748Y+2250000D03*
X+7498748Y+2250000D03*
X+7625748Y+2250000D03*
X+7844748Y+2250000D03*
X+7971748Y+2250000D03*
X+8098748Y+2250000D03*
X+8225748Y+2250000D03*
X+8444748Y+2250000D03*
X+8571748Y+2250000D03*
X+8698748Y+2250000D03*
X+8825748Y+2250000D03*
X+9044748Y+2250000D03*
X+9171748Y+2250000D03*
X+9298748Y+2250000D03*
X+9425748Y+2250000D03*
X+9644748Y+2250000D03*
X+9771748Y+2250000D03*
X+9898748Y+2250000D03*
X+10025748Y+2250000D03*
X+10244748Y+2250000D03*
X+10371748Y+2250000D03*
X+10498748Y+2250000D03*
X+10625748Y+2250000D03*
X+10844748Y+2250000D03*
X+10971748Y+2250000D03*
X+11098748Y+2250000D03*
X+11225748Y+2250000D03*
X-7755252Y+1650000D03*
X-7628252Y+1650000D03*
X-7501252Y+1650000D03*
X-7374252Y+1650000D03*
X-7155252Y+1650000D03*
X-7028252Y+1650000D03*
X-6901252Y+1650000D03*
X-6774252Y+1650000D03*
X-6555252Y+1650000D03*
X-6428252Y+1650000D03*
X-6301252Y+1650000D03*
X-6174252Y+1650000D03*
X-5955252Y+1650000D03*
X-5828252Y+1650000D03*
X-5701252Y+1650000D03*
X-5574252Y+1650000D03*
X-5355252Y+1650000D03*
X-5228252Y+1650000D03*
X-5101252Y+1650000D03*
X-4974252Y+1650000D03*
X-4755252Y+1650000D03*
X-4628252Y+1650000D03*
X-4501252Y+1650000D03*
X-4374252Y+1650000D03*
X-4155252Y+1650000D03*
X-4028252Y+1650000D03*
X-3901252Y+1650000D03*
X-3774252Y+1650000D03*
X-3555252Y+1650000D03*
X-3428252Y+1650000D03*
X-3301252Y+1650000D03*
X-3174252Y+1650000D03*
X-2955252Y+1650000D03*
X-2828252Y+1650000D03*
X-2701252Y+1650000D03*
X-2574252Y+1650000D03*
X-2355252Y+1650000D03*
X-2228252Y+1650000D03*
X-2101252Y+1650000D03*
X-1974252Y+1650000D03*
X-1755252Y+1650000D03*
X-1628252Y+1650000D03*
X-1501252Y+1650000D03*
X-1374252Y+1650000D03*
X-1155252Y+1650000D03*
X-1028252Y+1650000D03*
X-901252Y+1650000D03*
X-774252Y+1650000D03*
X-555252Y+1650000D03*
X-428252Y+1650000D03*
X-301252Y+1650000D03*
X-174252Y+1650000D03*
X+44748Y+1650000D03*
X+171748Y+1650000D03*
X+298748Y+1650000D03*
X+425748Y+1650000D03*
X+644748Y+1650000D03*
X+771748Y+1650000D03*
X+898748Y+1650000D03*
X+1025748Y+1650000D03*
X+1244748Y+1650000D03*
X+1371748Y+1650000D03*
X+1498748Y+1650000D03*
X+1625748Y+1650000D03*
X+1844748Y+1650000D03*
X+1971748Y+1650000D03*
X+2098748Y+1650000D03*
X+2225748Y+1650000D03*
X+2444748Y+1650000D03*
X+2571748Y+1650000D03*
X+2698748Y+1650000D03*
X+2825748Y+1650000D03*
X+3044748Y+1650000D03*
X+3171748Y+1650000D03*
X+3298748Y+1650000D03*
X+3425748Y+1650000D03*
X+3644748Y+1650000D03*
X+3771748Y+1650000D03*
X+3898748Y+1650000D03*
X+4025748Y+1650000D03*
X+4244748Y+1650000D03*
X+4371748Y+1650000D03*
X+4498748Y+1650000D03*
X+4625748Y+1650000D03*
X+4844748Y+1650000D03*
X+4971748Y+1650000D03*
X+5098748Y+1650000D03*
X+5225748Y+1650000D03*
X+5444748Y+1650000D03*
X+5571748Y+1650000D03*
X+5698748Y+1650000D03*
X+5825748Y+1650000D03*
X+6044748Y+1650000D03*
X+6171748Y+1650000D03*
X+6298748Y+1650000D03*
X+6425748Y+1650000D03*
X+6644748Y+1650000D03*
X+6771748Y+1650000D03*
X+6898748Y+1650000D03*
X+7025748Y+1650000D03*
X+7244748Y+1650000D03*
X+7371748Y+1650000D03*
X+7498748Y+1650000D03*
X+7625748Y+1650000D03*
X+7844748Y+1650000D03*
X+7971748Y+1650000D03*
X+8098748Y+1650000D03*
X+8225748Y+1650000D03*
X+8444748Y+1650000D03*
X+8571748Y+1650000D03*
X+8698748Y+1650000D03*
X+8825748Y+1650000D03*
X+9044748Y+1650000D03*
X+9171748Y+1650000D03*
X+9298748Y+1650000D03*
X+9425748Y+1650000D03*
X+9644748Y+1650000D03*
X+9771748Y+1650000D03*
X+9898748Y+1650000D03*
X+10025748Y+1650000D03*
X+10244748Y+1650000D03*
X+10371748Y+1650000D03*
X+10498748Y+1650000D03*
X+10625748Y+1650000D03*
X+10844748Y+1650000D03*
X+10971748Y+1650000D03*
X+11098748Y+1650000D03*
X+11225748Y+1650000D03*
X-7755252Y+1050000D03*
X-7628252Y+1050000D03*
X-7501252Y+1050000D03*
X-7374252Y+1050000D03*
X-7155252Y+1050000D03*
X-7028252Y+1050000D03*
X-6901252Y+1050000D03*
X-6774252Y+1050000D03*
X-6555252Y+1050000D03*
X-6428252Y+1050000D03*
X-6301252Y+1050000D03*
X-6174252Y+1050000D03*
X-5955252Y+1050000D03*
X-5828252Y+1050000D03*
X-5701252Y+1050000D03*
X-5574252Y+1050000D03*
X-5355252Y+1050000D03*
X-5228252Y+1050000D03*
X-5101252Y+1050000D03*
X-4974252Y+1050000D03*
X-4755252Y+1050000D03*
X-4628252Y+1050000D03*
X-4501252Y+1050000D03*
X-4374252Y+1050000D03*
X-4155252Y+1050000D03*
X-4028252Y+1050000D03*
X-3901252Y+1050000D03*
X-3774252Y+1050000D03*
X-3555252Y+1050000D03*
X-3428252Y+1050000D03*
X-3301252Y+1050000D03*
X-3174252Y+1050000D03*
X-2955252Y+1050000D03*
X-2828252Y+1050000D03*
X-2701252Y+1050000D03*
X-2574252Y+1050000D03*
X-2355252Y+1050000D03*
X-2228252Y+1050000D03*
X-2101252Y+1050000D03*
X-1974252Y+1050000D03*
X-1755252Y+1050000D03*
X-1628252Y+1050000D03*
X-1501252Y+1050000D03*
X-1374252Y+1050000D03*
X-1155252Y+1050000D03*
X-1028252Y+1050000D03*
X-901252Y+1050000D03*
X-774252Y+1050000D03*
X-555252Y+1050000D03*
X-428252Y+1050000D03*
X-301252Y+1050000D03*
X-174252Y+1050000D03*
X+44748Y+1050000D03*
X+171748Y+1050000D03*
X+298748Y+1050000D03*
X+425748Y+1050000D03*
X+644748Y+1050000D03*
X+771748Y+1050000D03*
X+898748Y+1050000D03*
X+1025748Y+1050000D03*
X+1244748Y+1050000D03*
X+1371748Y+1050000D03*
X+1498748Y+1050000D03*
X+1625748Y+1050000D03*
X+1844748Y+1050000D03*
X+1971748Y+1050000D03*
X+2098748Y+1050000D03*
X+2225748Y+1050000D03*
X+2444748Y+1050000D03*
X+2571748Y+1050000D03*
X+2698748Y+1050000D03*
X+2825748Y+1050000D03*
X+3044748Y+1050000D03*
X+3171748Y+1050000D03*
X+3298748Y+1050000D03*
X+3425748Y+1050000D03*
X+3644748Y+1050000D03*
X+3771748Y+1050000D03*
X+3898748Y+1050000D03*
X+4025748Y+1050000D03*
X+4244748Y+1050000D03*
X+4371748Y+1050000D03*
X+4498748Y+1050000D03*
X+4625748Y+1050000D03*
X+4844748Y+1050000D03*
X+4971748Y+1050000D03*
X+5098748Y+1050000D03*
X+5225748Y+1050000D03*
X+5444748Y+1050000D03*
X+5571748Y+1050000D03*
X+5698748Y+1050000D03*
X+5825748Y+1050000D03*
X+6044748Y+1050000D03*
X+6171748Y+1050000D03*
X+6298748Y+1050000D03*
X+6425748Y+1050000D03*
X+6644748Y+1050000D03*
X+6771748Y+1050000D03*
X+6898748Y+1050000D03*
X+7025748Y+1050000D03*
X+7244748Y+1050000D03*
X+7371748Y+1050000D03*
X+7498748Y+1050000D03*
X+7625748Y+1050000D03*
X+7844748Y+1050000D03*
X+7971748Y+1050000D03*
X+8098748Y+1050000D03*
X+8225748Y+1050000D03*
X+8444748Y+1050000D03*
X+8571748Y+1050000D03*
X+8698748Y+1050000D03*
X+8825748Y+1050000D03*
X+9044748Y+1050000D03*
X+9171748Y+1050000D03*
X+9298748Y+1050000D03*
X+9425748Y+1050000D03*
X+9644748Y+1050000D03*
X+9771748Y+1050000D03*
X+9898748Y+1050000D03*
X+10025748Y+1050000D03*
X+10244748Y+1050000D03*
X+10371748Y+1050000D03*
X+10498748Y+1050000D03*
X+10625748Y+1050000D03*
X+10844748Y+1050000D03*
X+10971748Y+1050000D03*
X+11098748Y+1050000D03*
X+11225748Y+1050000D03*
X-7755252Y+450000D03*
X-7628252Y+450000D03*
X-7501252Y+450000D03*
X-7374252Y+450000D03*
X-7155252Y+450000D03*
X-7028252Y+450000D03*
X-6901252Y+450000D03*
X-6774252Y+450000D03*
X-6555252Y+450000D03*
X-6428252Y+450000D03*
X-6301252Y+450000D03*
X-6174252Y+450000D03*
X-5955252Y+450000D03*
X-5828252Y+450000D03*
X-5701252Y+450000D03*
X-5574252Y+450000D03*
X-5355252Y+450000D03*
X-5228252Y+450000D03*
X-5101252Y+450000D03*
X-4974252Y+450000D03*
X-4755252Y+450000D03*
X-4628252Y+450000D03*
X-4501252Y+450000D03*
X-4374252Y+450000D03*
X-4155252Y+450000D03*
X-4028252Y+450000D03*
X-3901252Y+450000D03*
X-3774252Y+450000D03*
X-3555252Y+450000D03*
X-3428252Y+450000D03*
X-3301252Y+450000D03*
X-3174252Y+450000D03*
X-2955252Y+450000D03*
X-2828252Y+450000D03*
X-2701252Y+450000D03*
X-2574252Y+450000D03*
X-2355252Y+450000D03*
X-2228252Y+450000D03*
X-2101252Y+450000D03*
X-1974252Y+450000D03*
X-1755252Y+450000D03*
X-1628252Y+450000D03*
X-1501252Y+450000D03*
X-1374252Y+450000D03*
X-1155252Y+450000D03*
X-1028252Y+450000D03*
X-901252Y+450000D03*
X-774252Y+450000D03*
X-555252Y+450000D03*
X-428252Y+450000D03*
X-301252Y+450000D03*
X-174252Y+450000D03*
X+44748Y+450000D03*
X+171748Y+450000D03*
X+298748Y+450000D03*
X+425748Y+450000D03*
X+644748Y+450000D03*
X+771748Y+450000D03*
X+898748Y+450000D03*
X+1025748Y+450000D03*
X+1244748Y+450000D03*
X+1371748Y+450000D03*
X+1498748Y+450000D03*
X+1625748Y+450000D03*
X+1844748Y+450000D03*
X+1971748Y+450000D03*
X+2098748Y+450000D03*
X+2225748Y+450000D03*
X+2444748Y+450000D03*
X+2571748Y+450000D03*
X+2698748Y+450000D03*
X+2825748Y+450000D03*
X+3044748Y+450000D03*
X+3171748Y+450000D03*
X+3298748Y+450000D03*
X+3425748Y+450000D03*
X+3644748Y+450000D03*
X+3771748Y+450000D03*
X+3898748Y+450000D03*
X+4025748Y+450000D03*
X+4244748Y+450000D03*
X+4371748Y+450000D03*
X+4498748Y+450000D03*
X+4625748Y+450000D03*
X+4844748Y+450000D03*
X+4971748Y+450000D03*
X+5098748Y+450000D03*
X+5225748Y+450000D03*
X+5444748Y+450000D03*
X+5571748Y+450000D03*
X+5698748Y+450000D03*
X+5825748Y+450000D03*
X+6044748Y+450000D03*
X+6171748Y+450000D03*
X+6298748Y+450000D03*
X+6425748Y+450000D03*
X+6644748Y+450000D03*
X+6771748Y+450000D03*
X+6898748Y+450000D03*
X+7025748Y+450000D03*
X+7244748Y+450000D03*
X+7371748Y+450000D03*
X+7498748Y+450000D03*
X+7625748Y+450000D03*
X+7844748Y+450000D03*
X+7971748Y+450000D03*
X+8098748Y+450000D03*
X+8225748Y+450000D03*
X+8444748Y+450000D03*
X+8571748Y+450000D03*
X+8698748Y+450000D03*
X+8825748Y+450000D03*
X+9044748Y+450000D03*
X+9171748Y+450000D03*
X+9298748Y+450000D03*
X+9425748Y+450000D03*
X+9644748Y+450000D03*
X+9771748Y+450000D03*
X+9898748Y+450000D03*
X+10025748Y+450000D03*
X+10244748Y+450000D03*
X+10371748Y+450000D03*
X+10498748Y+450000D03*
X+10625748Y+450000D03*
X+10844748Y+450000D03*
X+10971748Y+450000D03*
X+11098748Y+450000D03*
X+11225748Y+450000D03*
X-7755252Y-150000D03*
X-7628252Y-150000D03*
X-7501252Y-150000D03*
X-7374252Y-150000D03*
X-7155252Y-150000D03*
X-7028252Y-150000D03*
X-6901252Y-150000D03*
X-6774252Y-150000D03*
X-6555252Y-150000D03*
X-6428252Y-150000D03*
X-6301252Y-150000D03*
X-6174252Y-150000D03*
X-5955252Y-150000D03*
X-5828252Y-150000D03*
X-5701252Y-150000D03*
X-5574252Y-150000D03*
X-5355252Y-150000D03*
X-5228252Y-150000D03*
X-5101252Y-150000D03*
X-4974252Y-150000D03*
X-4755252Y-150000D03*
X-4628252Y-150000D03*
X-4501252Y-150000D03*
X-4374252Y-150000D03*
X-4155252Y-150000D03*
X-4028252Y-150000D03*
X-3901252Y-150000D03*
X-3774252Y-150000D03*
X-3555252Y-150000D03*
X-3428252Y-150000D03*
X-3301252Y-150000D03*
X-3174252Y-150000D03*
X-2955252Y-150000D03*
X-2828252Y-150000D03*
X-2701252Y-150000D03*
X-2574252Y-150000D03*
X-2355252Y-150000D03*
X-2228252Y-150000D03*
X-2101252Y-150000D03*
X-1974252Y-150000D03*
X-1755252Y-150000D03*
X-1628252Y-150000D03*
X-1501252Y-150000D03*
X-1374252Y-150000D03*
X-1155252Y-150000D03*
X-1028252Y-150000D03*
X-901252Y-150000D03*
X-774252Y-150000D03*
X-555252Y-150000D03*
X-428252Y-150000D03*
X-301252Y-150000D03*
X-174252Y-150000D03*
X+44748Y-150000D03*
X+171748Y-150000D03*
X+298748Y-150000D03*
X+425748Y-150000D03*
X+644748Y-150000D03*
X+771748Y-150000D03*
X+898748Y-150000D03*
X+1025748Y-150000D03*
X+1244748Y-150000D03*
X+1371748Y-150000D03*
X+1498748Y-150000D03*
X+1625748Y-150000D03*
X+1844748Y-150000D03*
X+1971748Y-150000D03*
X+2098748Y-150000D03*
X+2225748Y-150000D03*
X+2444748Y-150000D03*
X+2571748Y-150000D03*
X+2698748Y-150000D03*
X+2825748Y-150000D03*
X+3044748Y-150000D03*
X+3171748Y-150000D03*
X+3298748Y-150000D03*
X+3425748Y-150000D03*
X+3644748Y-150000D03*
X+3771748Y-150000D03*
X+3898748Y-150000D03*
X+4025748Y-150000D03*
X+4244748Y-150000D03*
X+4371748Y-150000D03*
X+4498748Y-150000D03*
X+4625748Y-150000D03*
X+4844748Y-150000D03*
X+4971748Y-150000D03*
X+5098748Y-150000D03*
X+5225748Y-150000D03*
X+5444748Y-150000D03*
X+5571748Y-150000D03*
X+5698748Y-150000D03*
X+5825748Y-150000D03*
X+6044748Y-150000D03*
X+6171748Y-150000D03*
X+6298748Y-150000D03*
X+6425748Y-150000D03*
X+6644748Y-150000D03*
X+6771748Y-150000D03*
X+6898748Y-150000D03*
X+7025748Y-150000D03*
X+7244748Y-150000D03*
X+7371748Y-150000D03*
X+7498748Y-150000D03*
X+7625748Y-150000D03*
X+7844748Y-150000D03*
X+7971748Y-150000D03*
X+8098748Y-150000D03*
X+8225748Y-150000D03*
X+8444748Y-150000D03*
X+8571748Y-150000D03*
X+8698748Y-150000D03*
X+8825748Y-150000D03*
X+9044748Y-150000D03*
X+9171748Y-150000D03*
X+9298748Y-150000D03*
X+9425748Y-150000D03*
X+9644748Y-150000D03*
X+9771748Y-150000D03*
X+9898748Y-150000D03*
X+10025748Y-150000D03*
X+10244748Y-150000D03*
X+10371748Y-150000D03*
X+10498748Y-150000D03*
X+10625748Y-150000D03*
X+10844748Y-150000D03*
X+10971748Y-150000D03*
X+11098748Y-150000D03*
X+11225748Y-150000D03*
X-7755252Y-750000D03*
X-7628252Y-750000D03*
X-7501252Y-750000D03*
X-7374252Y-750000D03*
X-7155252Y-750000D03*
X-7028252Y-750000D03*
X-6901252Y-750000D03*
X-6774252Y-750000D03*
X-6555252Y-750000D03*
X-6428252Y-750000D03*
X-6301252Y-750000D03*
X-6174252Y-750000D03*
X-5955252Y-750000D03*
X-5828252Y-750000D03*
X-5701252Y-750000D03*
X-5574252Y-750000D03*
X-5355252Y-750000D03*
X-5228252Y-750000D03*
X-5101252Y-750000D03*
X-4974252Y-750000D03*
X-4755252Y-750000D03*
X-4628252Y-750000D03*
X-4501252Y-750000D03*
X-4374252Y-750000D03*
X-4155252Y-750000D03*
X-4028252Y-750000D03*
X-3901252Y-750000D03*
X-3774252Y-750000D03*
X-3555252Y-750000D03*
X-3428252Y-750000D03*
X-3301252Y-750000D03*
X-3174252Y-750000D03*
X-2955252Y-750000D03*
X-2828252Y-750000D03*
X-2701252Y-750000D03*
X-2574252Y-750000D03*
X-2355252Y-750000D03*
X-2228252Y-750000D03*
X-2101252Y-750000D03*
X-1974252Y-750000D03*
X-1755252Y-750000D03*
X-1628252Y-750000D03*
X-1501252Y-750000D03*
X-1374252Y-750000D03*
X-1155252Y-750000D03*
X-1028252Y-750000D03*
X-901252Y-750000D03*
X-774252Y-750000D03*
X-555252Y-750000D03*
X-428252Y-750000D03*
X-301252Y-750000D03*
X-174252Y-750000D03*
X+44748Y-750000D03*
X+171748Y-750000D03*
X+298748Y-750000D03*
X+425748Y-750000D03*
X+644748Y-750000D03*
X+771748Y-750000D03*
X+898748Y-750000D03*
X+1025748Y-750000D03*
X+1244748Y-750000D03*
X+1371748Y-750000D03*
X+1498748Y-750000D03*
X+1625748Y-750000D03*
X+1844748Y-750000D03*
X+1971748Y-750000D03*
X+2098748Y-750000D03*
X+2225748Y-750000D03*
X+2444748Y-750000D03*
X+2571748Y-750000D03*
X+2698748Y-750000D03*
X+2825748Y-750000D03*
X+3044748Y-750000D03*
X+3171748Y-750000D03*
X+3298748Y-750000D03*
X+3425748Y-750000D03*
X+3644748Y-750000D03*
X+3771748Y-750000D03*
X+3898748Y-750000D03*
X+4025748Y-750000D03*
X+4244748Y-750000D03*
X+4371748Y-750000D03*
X+4498748Y-750000D03*
X+4625748Y-750000D03*
X+4844748Y-750000D03*
X+4971748Y-750000D03*
X+5098748Y-750000D03*
X+5225748Y-750000D03*
X+5444748Y-750000D03*
X+5571748Y-750000D03*
X+5698748Y-750000D03*
X+5825748Y-750000D03*
X+6044748Y-750000D03*
X+6171748Y-750000D03*
X+6298748Y-750000D03*
X+6425748Y-750000D03*
X+6644748Y-750000D03*
X+6771748Y-750000D03*
X+6898748Y-750000D03*
X+7025748Y-750000D03*
X+7244748Y-750000D03*
X+7371748Y-750000D03*
X+7498748Y-750000D03*
X+7625748Y-750000D03*
X+7844748Y-750000D03*
X+7971748Y-750000D03*
X+8098748Y-750000D03*
X+8225748Y-750000D03*
X+8444748Y-750000D03*
X+8571748Y-750000D03*
X+8698748Y-750000D03*
X+8825748Y-750000D03*
X+9044748Y-750000D03*
X+9171748Y-750000D03*
X+9298748Y-750000D03*
X+9425748Y-750000D03*
X+9644748Y-750000D03*
X+9771748Y-750000D03*
X+9898748Y-750000D03*
X+10025748Y-750000D03*
X+10244748Y-750000D03*
X+10371748Y-750000D03*
X+10498748Y-750000D03*
X+10625748Y-750000D03*
X+10844748Y-750000D03*
X+10971748Y-750000D03*
X+11098748Y-750000D03*
X+11225748Y-750000D03*
X-7755252Y-1350000D03*
X-7628252Y-1350000D03*
X-7501252Y-1350000D03*
X-7374252Y-1350000D03*
X-7155252Y-1350000D03*
X-7028252Y-1350000D03*
X-6901252Y-1350000D03*
X-6774252Y-1350000D03*
X-6555252Y-1350000D03*
X-6428252Y-1350000D03*
X-6301252Y-1350000D03*
X-6174252Y-1350000D03*
X-5955252Y-1350000D03*
X-5828252Y-1350000D03*
X-5701252Y-1350000D03*
X-5574252Y-1350000D03*
X-5355252Y-1350000D03*
X-5228252Y-1350000D03*
X-5101252Y-1350000D03*
X-4974252Y-1350000D03*
X-4755252Y-1350000D03*
X-4628252Y-1350000D03*
X-4501252Y-1350000D03*
X-4374252Y-1350000D03*
X-4155252Y-1350000D03*
X-4028252Y-1350000D03*
X-3901252Y-1350000D03*
X-3774252Y-1350000D03*
X-3555252Y-1350000D03*
X-3428252Y-1350000D03*
X-3301252Y-1350000D03*
X-3174252Y-1350000D03*
X-2955252Y-1350000D03*
X-2828252Y-1350000D03*
X-2701252Y-1350000D03*
X-2574252Y-1350000D03*
X-2355252Y-1350000D03*
X-2228252Y-1350000D03*
X-2101252Y-1350000D03*
X-1974252Y-1350000D03*
X-1755252Y-1350000D03*
X-1628252Y-1350000D03*
X-1501252Y-1350000D03*
X-1374252Y-1350000D03*
X-1155252Y-1350000D03*
X-1028252Y-1350000D03*
X-901252Y-1350000D03*
X-774252Y-1350000D03*
X-555252Y-1350000D03*
X-428252Y-1350000D03*
X-301252Y-1350000D03*
X-174252Y-1350000D03*
X+44748Y-1350000D03*
X+171748Y-1350000D03*
X+298748Y-1350000D03*
X+425748Y-1350000D03*
X+644748Y-1350000D03*
X+771748Y-1350000D03*
X+898748Y-1350000D03*
X+1025748Y-1350000D03*
X+1244748Y-1350000D03*
X+1371748Y-1350000D03*
X+1498748Y-1350000D03*
X+1625748Y-1350000D03*
X+1844748Y-1350000D03*
X+1971748Y-1350000D03*
X+2098748Y-1350000D03*
X+2225748Y-1350000D03*
X+2444748Y-1350000D03*
X+2571748Y-1350000D03*
X+2698748Y-1350000D03*
X+2825748Y-1350000D03*
X+3044748Y-1350000D03*
X+3171748Y-1350000D03*
X+3298748Y-1350000D03*
X+3425748Y-1350000D03*
X+3644748Y-1350000D03*
X+3771748Y-1350000D03*
X+3898748Y-1350000D03*
X+4025748Y-1350000D03*
X+4244748Y-1350000D03*
X+4371748Y-1350000D03*
X+4498748Y-1350000D03*
X+4625748Y-1350000D03*
X+4844748Y-1350000D03*
X+4971748Y-1350000D03*
X+5098748Y-1350000D03*
X+5225748Y-1350000D03*
X+5444748Y-1350000D03*
X+5571748Y-1350000D03*
X+5698748Y-1350000D03*
X+5825748Y-1350000D03*
X+6044748Y-1350000D03*
X+6171748Y-1350000D03*
X+6298748Y-1350000D03*
X+6425748Y-1350000D03*
X+6644748Y-1350000D03*
X+6771748Y-1350000D03*
X+6898748Y-1350000D03*
X+7025748Y-1350000D03*
X+7244748Y-1350000D03*
X+7371748Y-1350000D03*
X+7498748Y-1350000D03*
X+7625748Y-1350000D03*
X+7844748Y-1350000D03*
X+7971748Y-1350000D03*
X+8098748Y-1350000D03*
X+8225748Y-1350000D03*
X+8444748Y-1350000D03*
X+8571748Y-1350000D03*
X+8698748Y-1350000D03*
X+8825748Y-1350000D03*
X+9044748Y-1350000D03*
X+9171748Y-1350000D03*
X+9298748Y-1350000D03*
X+9425748Y-1350000D03*
X+9644748Y-1350000D03*
X+9771748Y-1350000D03*
X+9898748Y-1350000D03*
X+10025748Y-1350000D03*
X+10244748Y-1350000D03*
X+10371748Y-1350000D03*
X+10498748Y-1350000D03*
X+10625748Y-1350000D03*
X+10844748Y-1350000D03*
X+10971748Y-1350000D03*
X+11098748Y-1350000D03*
X+11225748Y-1350000D03*
X-7755252Y-1950000D03*
X-7628252Y-1950000D03*
X-7501252Y-1950000D03*
X-7374252Y-1950000D03*
X-7155252Y-1950000D03*
X-7028252Y-1950000D03*
X-6901252Y-1950000D03*
X-6774252Y-1950000D03*
X-6555252Y-1950000D03*
X-6428252Y-1950000D03*
X-6301252Y-1950000D03*
X-6174252Y-1950000D03*
X-5955252Y-1950000D03*
X-5828252Y-1950000D03*
X-5701252Y-1950000D03*
X-5574252Y-1950000D03*
X-5355252Y-1950000D03*
X-5228252Y-1950000D03*
X-5101252Y-1950000D03*
X-4974252Y-1950000D03*
X-4755252Y-1950000D03*
X-4628252Y-1950000D03*
X-4501252Y-1950000D03*
X-4374252Y-1950000D03*
X-4155252Y-1950000D03*
X-4028252Y-1950000D03*
X-3901252Y-1950000D03*
X-3774252Y-1950000D03*
X-3555252Y-1950000D03*
X-3428252Y-1950000D03*
X-3301252Y-1950000D03*
X-3174252Y-1950000D03*
X-2955252Y-1950000D03*
X-2828252Y-1950000D03*
X-2701252Y-1950000D03*
X-2574252Y-1950000D03*
X-2355252Y-1950000D03*
X-2228252Y-1950000D03*
X-2101252Y-1950000D03*
X-1974252Y-1950000D03*
X-1755252Y-1950000D03*
X-1628252Y-1950000D03*
X-1501252Y-1950000D03*
X-1374252Y-1950000D03*
X-1155252Y-1950000D03*
X-1028252Y-1950000D03*
X-901252Y-1950000D03*
X-774252Y-1950000D03*
X-555252Y-1950000D03*
X-428252Y-1950000D03*
X-301252Y-1950000D03*
X-174252Y-1950000D03*
X+44748Y-1950000D03*
X+171748Y-1950000D03*
X+298748Y-1950000D03*
X+425748Y-1950000D03*
X+644748Y-1950000D03*
X+771748Y-1950000D03*
X+898748Y-1950000D03*
X+1025748Y-1950000D03*
X+1244748Y-1950000D03*
X+1371748Y-1950000D03*
X+1498748Y-1950000D03*
X+1625748Y-1950000D03*
X+1844748Y-1950000D03*
X+1971748Y-1950000D03*
X+2098748Y-1950000D03*
X+2225748Y-1950000D03*
X+2444748Y-1950000D03*
X+2571748Y-1950000D03*
X+2698748Y-1950000D03*
X+2825748Y-1950000D03*
X+3044748Y-1950000D03*
X+3171748Y-1950000D03*
X+3298748Y-1950000D03*
X+3425748Y-1950000D03*
X+3644748Y-1950000D03*
X+3771748Y-1950000D03*
X+3898748Y-1950000D03*
X+4025748Y-1950000D03*
X+4244748Y-1950000D03*
X+4371748Y-1950000D03*
X+4498748Y-1950000D03*
X+4625748Y-1950000D03*
X+4844748Y-1950000D03*
X+4971748Y-1950000D03*
X+5098748Y-1950000D03*
X+5225748Y-1950000D03*
X+5444748Y-1950000D03*
X+5571748Y-1950000D03*
X+5698748Y-1950000D03*
X+5825748Y-1950000D03*
X+6044748Y-1950000D03*
X+6171748Y-1950000D03*
X+6298748Y-1950000D03*
X+6425748Y-1950000D03*
X+6644748Y-1950000D03*
X+6771748Y-1950000D03*
X+6898748Y-1950000D03*
X+7025748Y-1950000D03*
X+7244748Y-1950000D03*
X+7371748Y-1950000D03*
X+7498748Y-1950000D03*
X+7625748Y-1950000D03*
X+7844748Y-1950000D03*
X+7971748Y-1950000D03*
X+8098748Y-1950000D03*
X+8225748Y-1950000D03*
X+8444748Y-1950000D03*
X+8571748Y-1950000D03*
X+8698748Y-1950000D03*
X+8825748Y-1950000D03*
X+9044748Y-1950000D03*
X+9171748Y-1950000D03*
X+9298748Y-1950000D03*
X+9425748Y-1950000D03*
X+9644748Y-1950000D03*
X+9771748Y-1950000D03*
X+9898748Y-1950000D03*
X+10025748Y-1950000D03*
X+10244748Y-1950000D03*
X+10371748Y-1950000D03*
X+10498748Y-1950000D03*
X+10625748Y-1950000D03*
X+10844748Y-1950000D03*
X+10971748Y-1950000D03*
X+11098748Y-1950000D03*
X+11225748Y-1950000D03*
X-7755252Y-2550000D03*
X-7628252Y-2550000D03*
X-7501252Y-2550000D03*
X-7374252Y-2550000D03*
X-7155252Y-2550000D03*
X-7028252Y-2550000D03*
X-6901252Y-2550000D03*
X-6774252Y-2550000D03*
X-6555252Y-2550000D03*
X-6428252Y-2550000D03*
X-6301252Y-2550000D03*
X-6174252Y-2550000D03*
X-5955252Y-2550000D03*
X-5828252Y-2550000D03*
X-5701252Y-2550000D03*
X-5574252Y-2550000D03*
X-5355252Y-2550000D03*
X-5228252Y-2550000D03*
X-5101252Y-2550000D03*
X-4974252Y-2550000D03*
X-4755252Y-2550000D03*
X-4628252Y-2550000D03*
X-4501252Y-2550000D03*
X-4374252Y-2550000D03*
X-4155252Y-2550000D03*
X-4028252Y-2550000D03*
X-3901252Y-2550000D03*
X-3774252Y-2550000D03*
X-3555252Y-2550000D03*
X-3428252Y-2550000D03*
X-3301252Y-2550000D03*
X-3174252Y-2550000D03*
X-2955252Y-2550000D03*
X-2828252Y-2550000D03*
X-2701252Y-2550000D03*
X-2574252Y-2550000D03*
X-2355252Y-2550000D03*
X-2228252Y-2550000D03*
X-2101252Y-2550000D03*
X-1974252Y-2550000D03*
X-1755252Y-2550000D03*
X-1628252Y-2550000D03*
X-1501252Y-2550000D03*
X-1374252Y-2550000D03*
X-1155252Y-2550000D03*
X-1028252Y-2550000D03*
X-901252Y-2550000D03*
X-774252Y-2550000D03*
X-555252Y-2550000D03*
X-428252Y-2550000D03*
X-301252Y-2550000D03*
X-174252Y-2550000D03*
X+44748Y-2550000D03*
X+171748Y-2550000D03*
X+298748Y-2550000D03*
X+425748Y-2550000D03*
X+644748Y-2550000D03*
X+771748Y-2550000D03*
X+898748Y-2550000D03*
X+1025748Y-2550000D03*
X+1244748Y-2550000D03*
X+1371748Y-2550000D03*
X+1498748Y-2550000D03*
X+1625748Y-2550000D03*
X+1844748Y-2550000D03*
X+1971748Y-2550000D03*
X+2098748Y-2550000D03*
X+2225748Y-2550000D03*
X+2444748Y-2550000D03*
X+2571748Y-2550000D03*
X+2698748Y-2550000D03*
X+2825748Y-2550000D03*
X+3044748Y-2550000D03*
X+3171748Y-2550000D03*
X+3298748Y-2550000D03*
X+3425748Y-2550000D03*
X+3644748Y-2550000D03*
X+3771748Y-2550000D03*
X+3898748Y-2550000D03*
X+4025748Y-2550000D03*
X+4244748Y-2550000D03*
X+4371748Y-2550000D03*
X+4498748Y-2550000D03*
X+4625748Y-2550000D03*
X+4844748Y-2550000D03*
X+4971748Y-2550000D03*
X+5098748Y-2550000D03*
X+5225748Y-2550000D03*
X+5444748Y-2550000D03*
X+5571748Y-2550000D03*
X+5698748Y-2550000D03*
X+5825748Y-2550000D03*
X+6044748Y-2550000D03*
X+6171748Y-2550000D03*
X+6298748Y-2550000D03*
X+6425748Y-2550000D03*
X+6644748Y-2550000D03*
X+6771748Y-2550000D03*
X+6898748Y-2550000D03*
X+7025748Y-2550000D03*
X+7244748Y-2550000D03*
X+7371748Y-2550000D03*
X+7498748Y-2550000D03*
X+7625748Y-2550000D03*
X+7844748Y-2550000D03*
X+7971748Y-2550000D03*
X+8098748Y-2550000D03*
X+8225748Y-2550000D03*
X+8444748Y-2550000D03*
X+8571748Y-2550000D03*
X+8698748Y-2550000D03*
X+8825748Y-2550000D03*
X+9044748Y-2550000D03*
X+9171748Y-2550000D03*
X+9298748Y-2550000D03*
X+9425748Y-2550000D03*
X+9644748Y-2550000D03*
X+9771748Y-2550000D03*
X+9898748Y-2550000D03*
X+10025748Y-2550000D03*
X+10244748Y-2550000D03*
X+10371748Y-2550000D03*
X+10498748Y-2550000D03*
X+10625748Y-2550000D03*
X+10844748Y-2550000D03*
X+10971748Y-2550000D03*
X+11098748Y-2550000D03*
X+11225748Y-2550000D03*
X-7755252Y-3150000D03*
X-7628252Y-3150000D03*
X-7501252Y-3150000D03*
X-7374252Y-3150000D03*
X-7155252Y-3150000D03*
X-7028252Y-3150000D03*
X-6901252Y-3150000D03*
X-6774252Y-3150000D03*
X-6555252Y-3150000D03*
X-6428252Y-3150000D03*
X-6301252Y-3150000D03*
X-6174252Y-3150000D03*
X-5955252Y-3150000D03*
X-5828252Y-3150000D03*
X-5701252Y-3150000D03*
X-5574252Y-3150000D03*
X-5355252Y-3150000D03*
X-5228252Y-3150000D03*
X-5101252Y-3150000D03*
X-4974252Y-3150000D03*
X-4755252Y-3150000D03*
X-4628252Y-3150000D03*
X-4501252Y-3150000D03*
X-4374252Y-3150000D03*
X-4155252Y-3150000D03*
X-4028252Y-3150000D03*
X-3901252Y-3150000D03*
X-3774252Y-3150000D03*
X-3555252Y-3150000D03*
X-3428252Y-3150000D03*
X-3301252Y-3150000D03*
X-3174252Y-3150000D03*
X-2955252Y-3150000D03*
X-2828252Y-3150000D03*
X-2701252Y-3150000D03*
X-2574252Y-3150000D03*
X-2355252Y-3150000D03*
X-2228252Y-3150000D03*
X-2101252Y-3150000D03*
X-1974252Y-3150000D03*
X-1755252Y-3150000D03*
X-1628252Y-3150000D03*
X-1501252Y-3150000D03*
X-1374252Y-3150000D03*
X-1155252Y-3150000D03*
X-1028252Y-3150000D03*
X-901252Y-3150000D03*
X-774252Y-3150000D03*
X-555252Y-3150000D03*
X-428252Y-3150000D03*
X-301252Y-3150000D03*
X-174252Y-3150000D03*
X+44748Y-3150000D03*
X+171748Y-3150000D03*
X+298748Y-3150000D03*
X+425748Y-3150000D03*
X+644748Y-3150000D03*
X+771748Y-3150000D03*
X+898748Y-3150000D03*
X+1025748Y-3150000D03*
X+1244748Y-3150000D03*
X+1371748Y-3150000D03*
X+1498748Y-3150000D03*
X+1625748Y-3150000D03*
X+1844748Y-3150000D03*
X+1971748Y-3150000D03*
X+2098748Y-3150000D03*
X+2225748Y-3150000D03*
X+2444748Y-3150000D03*
X+2571748Y-3150000D03*
X+2698748Y-3150000D03*
X+2825748Y-3150000D03*
X+3044748Y-3150000D03*
X+3171748Y-3150000D03*
X+3298748Y-3150000D03*
X+3425748Y-3150000D03*
X+3644748Y-3150000D03*
X+3771748Y-3150000D03*
X+3898748Y-3150000D03*
X+4025748Y-3150000D03*
X+4244748Y-3150000D03*
X+4371748Y-3150000D03*
X+4498748Y-3150000D03*
X+4625748Y-3150000D03*
X+4844748Y-3150000D03*
X+4971748Y-3150000D03*
X+5098748Y-3150000D03*
X+5225748Y-3150000D03*
X+5444748Y-3150000D03*
X+5571748Y-3150000D03*
X+5698748Y-3150000D03*
X+5825748Y-3150000D03*
X+6044748Y-3150000D03*
X+6171748Y-3150000D03*
X+6298748Y-3150000D03*
X+6425748Y-3150000D03*
X+6644748Y-3150000D03*
X+6771748Y-3150000D03*
X+6898748Y-3150000D03*
X+7025748Y-3150000D03*
X+7244748Y-3150000D03*
X+7371748Y-3150000D03*
X+7498748Y-3150000D03*
X+7625748Y-3150000D03*
X+7844748Y-3150000D03*
X+7971748Y-3150000D03*
X+8098748Y-3150000D03*
X+8225748Y-3150000D03*
X+8444748Y-3150000D03*
X+8571748Y-3150000D03*
X+8698748Y-3150000D03*
X+8825748Y-3150000D03*
X+9044748Y-3150000D03*
X+9171748Y-3150000D03*
X+9298748Y-3150000D03*
X+9425748Y-3150000D03*
X+9644748Y-3150000D03*
X+9771748Y-3150000D03*
X+9898748Y-3150000D03*
X+10025748Y-3150000D03*
X+10244748Y-3150000D03*
X+10371748Y-3150000D03*
X+10498748Y-3150000D03*
X+10625748Y-3150000D03*
X+10844748Y-3150000D03*
X+10971748Y-3150000D03*
X+11098748Y-3150000D03*
X+11225748Y-3150000D03*
X-7755252Y-3750000D03*
X-7628252Y-3750000D03*
X-7501252Y-3750000D03*
X-7374252Y-3750000D03*
X-7155252Y-3750000D03*
X-7028252Y-3750000D03*
X-6901252Y-3750000D03*
X-6774252Y-3750000D03*
X-6555252Y-3750000D03*
X-6428252Y-3750000D03*
X-6301252Y-3750000D03*
X-6174252Y-3750000D03*
X-5955252Y-3750000D03*
X-5828252Y-3750000D03*
X-5701252Y-3750000D03*
X-5574252Y-3750000D03*
X-5355252Y-3750000D03*
X-5228252Y-3750000D03*
X-5101252Y-3750000D03*
X-4974252Y-3750000D03*
X-4755252Y-3750000D03*
X-4628252Y-3750000D03*
X-4501252Y-3750000D03*
X-4374252Y-3750000D03*
X-4155252Y-3750000D03*
X-4028252Y-3750000D03*
X-3901252Y-3750000D03*
X-3774252Y-3750000D03*
X-3555252Y-3750000D03*
X-3428252Y-3750000D03*
X-3301252Y-3750000D03*
X-3174252Y-3750000D03*
X-2955252Y-3750000D03*
X-2828252Y-3750000D03*
X-2701252Y-3750000D03*
X-2574252Y-3750000D03*
X-2355252Y-3750000D03*
X-2228252Y-3750000D03*
X-2101252Y-3750000D03*
X-1974252Y-3750000D03*
X-1755252Y-3750000D03*
X-1628252Y-3750000D03*
X-1501252Y-3750000D03*
X-1374252Y-3750000D03*
X-1155252Y-3750000D03*
X-1028252Y-3750000D03*
X-901252Y-3750000D03*
X-774252Y-3750000D03*
X-555252Y-3750000D03*
X-428252Y-3750000D03*
X-301252Y-3750000D03*
X-174252Y-3750000D03*
X+44748Y-3750000D03*
X+171748Y-3750000D03*
X+298748Y-3750000D03*
X+425748Y-3750000D03*
X+644748Y-3750000D03*
X+771748Y-3750000D03*
X+898748Y-3750000D03*
X+1025748Y-3750000D03*
X+1244748Y-3750000D03*
X+1371748Y-3750000D03*
X+1498748Y-3750000D03*
X+1625748Y-3750000D03*
X+1844748Y-3750000D03*
X+1971748Y-3750000D03*
X+2098748Y-3750000D03*
X+2225748Y-3750000D03*
X+2444748Y-3750000D03*
X+2571748Y-3750000D03*
X+2698748Y-3750000D03*
X+2825748Y-3750000D03*
X+3044748Y-3750000D03*
X+3171748Y-3750000D03*
X+3298748Y-3750000D03*
X+3425748Y-3750000D03*
X+3644748Y-3750000D03*
X+3771748Y-3750000D03*
X+3898748Y-3750000D03*
X+4025748Y-3750000D03*
X+4244748Y-3750000D03*
X+4371748Y-3750000D03*
X+4498748Y-3750000D03*
X+4625748Y-3750000D03*
X+4844748Y-3750000D03*
X+4971748Y-3750000D03*
X+5098748Y-3750000D03*
X+5225748Y-3750000D03*
X+5444748Y-3750000D03*
X+5571748Y-3750000D03*
X+5698748Y-3750000D03*
X+5825748Y-3750000D03*
X+6044748Y-3750000D03*
X+6171748Y-3750000D03*
X+6298748Y-3750000D03*
X+6425748Y-3750000D03*
X+6644748Y-3750000D03*
X+6771748Y-3750000D03*
X+6898748Y-3750000D03*
X+7025748Y-3750000D03*
X+7244748Y-3750000D03*
X+7371748Y-3750000D03*
X+7498748Y-3750000D03*
X+7625748Y-3750000D03*
X+7844748Y-3750000D03*
X+7971748Y-3750000D03*
X+8098748Y-3750000D03*
X+8225748Y-3750000D03*
X+8444748Y-3750000D03*
X+8571748Y-3750000D03*
X+8698748Y-3750000D03*
X+8825748Y-3750000D03*
X+9044748Y-3750000D03*
X+9171748Y-3750000D03*
X+9298748Y-3750000D03*
X+9425748Y-3750000D03*
X+9644748Y-3750000D03*
X+9771748Y-3750000D03*
X+9898748Y-3750000D03*
X+10025748Y-3750000D03*
X+10244748Y-3750000D03*
X+10371748Y-3750000D03*
X+10498748Y-3750000D03*
X+10625748Y-3750000D03*
X+10844748Y-3750000D03*
X+10971748Y-3750000D03*
X+11098748Y-3750000D03*
X+11225748Y-3750000D03*
X-7755252Y-4350000D03*
X-7628252Y-4350000D03*
X-7501252Y-4350000D03*
X-7374252Y-4350000D03*
X-7155252Y-4350000D03*
X-7028252Y-4350000D03*
X-6901252Y-4350000D03*
X-6774252Y-4350000D03*
X-6555252Y-4350000D03*
X-6428252Y-4350000D03*
X-6301252Y-4350000D03*
X-6174252Y-4350000D03*
X-5955252Y-4350000D03*
X-5828252Y-4350000D03*
X-5701252Y-4350000D03*
X-5574252Y-4350000D03*
X-5355252Y-4350000D03*
X-5228252Y-4350000D03*
X-5101252Y-4350000D03*
X-4974252Y-4350000D03*
X-4755252Y-4350000D03*
X-4628252Y-4350000D03*
X-4501252Y-4350000D03*
X-4374252Y-4350000D03*
X-4155252Y-4350000D03*
X-4028252Y-4350000D03*
X-3901252Y-4350000D03*
X-3774252Y-4350000D03*
X-3555252Y-4350000D03*
X-3428252Y-4350000D03*
X-3301252Y-4350000D03*
X-3174252Y-4350000D03*
X-2955252Y-4350000D03*
X-2828252Y-4350000D03*
X-2701252Y-4350000D03*
X-2574252Y-4350000D03*
X-2355252Y-4350000D03*
X-2228252Y-4350000D03*
X-2101252Y-4350000D03*
X-1974252Y-4350000D03*
X-1755252Y-4350000D03*
X-1628252Y-4350000D03*
X-1501252Y-4350000D03*
X-1374252Y-4350000D03*
X-1155252Y-4350000D03*
X-1028252Y-4350000D03*
X-901252Y-4350000D03*
X-774252Y-4350000D03*
X-555252Y-4350000D03*
X-428252Y-4350000D03*
X-301252Y-4350000D03*
X-174252Y-4350000D03*
X+44748Y-4350000D03*
X+171748Y-4350000D03*
X+298748Y-4350000D03*
X+425748Y-4350000D03*
X+644748Y-4350000D03*
X+771748Y-4350000D03*
X+898748Y-4350000D03*
X+1025748Y-4350000D03*
X+1244748Y-4350000D03*
X+1371748Y-4350000D03*
X+1498748Y-4350000D03*
X+1625748Y-4350000D03*
X+1844748Y-4350000D03*
X+1971748Y-4350000D03*
X+2098748Y-4350000D03*
X+2225748Y-4350000D03*
X+2444748Y-4350000D03*
X+2571748Y-4350000D03*
X+2698748Y-4350000D03*
X+2825748Y-4350000D03*
X+3044748Y-4350000D03*
X+3171748Y-4350000D03*
X+3298748Y-4350000D03*
X+3425748Y-4350000D03*
X+3644748Y-4350000D03*
X+3771748Y-4350000D03*
X+3898748Y-4350000D03*
X+4025748Y-4350000D03*
X+4244748Y-4350000D03*
X+4371748Y-4350000D03*
X+4498748Y-4350000D03*
X+4625748Y-4350000D03*
X+4844748Y-4350000D03*
X+4971748Y-4350000D03*
X+5098748Y-4350000D03*
X+5225748Y-4350000D03*
X+5444748Y-4350000D03*
X+5571748Y-4350000D03*
X+5698748Y-4350000D03*
X+5825748Y-4350000D03*
X+6044748Y-4350000D03*
X+6171748Y-4350000D03*
X+6298748Y-4350000D03*
X+6425748Y-4350000D03*
X+6644748Y-4350000D03*
X+6771748Y-4350000D03*
X+6898748Y-4350000D03*
X+7025748Y-4350000D03*
X+7244748Y-4350000D03*
X+7371748Y-4350000D03*
X+7498748Y-4350000D03*
X+7625748Y-4350000D03*
X+7844748Y-4350000D03*
X+7971748Y-4350000D03*
X+8098748Y-4350000D03*
X+8225748Y-4350000D03*
X+8444748Y-4350000D03*
X+8571748Y-4350000D03*
X+8698748Y-4350000D03*
X+8825748Y-4350000D03*
X+9044748Y-4350000D03*
X+9171748Y-4350000D03*
X+9298748Y-4350000D03*
X+9425748Y-4350000D03*
X+9644748Y-4350000D03*
X+9771748Y-4350000D03*
X+9898748Y-4350000D03*
X+10025748Y-4350000D03*
X+10244748Y-4350000D03*
X+10371748Y-4350000D03*
X+10498748Y-4350000D03*
X+10625748Y-4350000D03*
X+10844748Y-4350000D03*
X+10971748Y-4350000D03*
X+11098748Y-4350000D03*
X+11225748Y-4350000D03*
D13*
X-1661252Y-6400000D03*
X-1407252Y-6400000D03*
X-1153252Y-6400000D03*
X-899252Y-6400000D03*
X-645252Y-6400000D03*
X-391252Y-6400000D03*
X-137252Y-6400000D03*
X+116748Y-6400000D03*
X+370748Y-6400000D03*
X+624748Y-6400000D03*
X+878748Y-6400000D03*
X+1132748Y-6400000D03*
X+1386748Y-6400000D03*
X+1640748Y-6400000D03*
X+1894748Y-6400000D03*
X+2148748Y-6400000D03*
X+2402748Y-6400000D03*
X+2656748Y-6400000D03*
X+2910748Y-6400000D03*
X+3164748Y-6400000D03*
X+3418748Y-6400000D03*
X+3672748Y-6400000D03*
X+3926748Y-6400000D03*
X+4180748Y-6400000D03*
X+4434748Y-6400000D03*
X+4688748Y-6400000D03*
X+4942748Y-6400000D03*
X+5196748Y-6400000D03*
X+5450748Y-6400000D03*
X+5704748Y-6400000D03*
X+5958748Y-6400000D03*
X+6212748Y-6400000D03*
X+6466748Y-6400000D03*
X+6720748Y-6400000D03*
X+6974748Y-6400000D03*
X+7228748Y-6400000D03*
X+7482748Y-6400000D03*
X+7736748Y-6400000D03*
X+7990748Y-6400000D03*
X+8244748Y-6400000D03*
X+8244748Y-6650000D03*
X+7990748Y-6650000D03*
X+7736748Y-6650000D03*
X+7482748Y-6650000D03*
X+7228748Y-6650000D03*
X+6974748Y-6650000D03*
X+6720748Y-6650000D03*
X+6466748Y-6650000D03*
X+6212748Y-6650000D03*
X+5958748Y-6650000D03*
X+5704748Y-6650000D03*
X+5450748Y-6650000D03*
X+5196748Y-6650000D03*
X+4942748Y-6650000D03*
X+4688748Y-6650000D03*
X+4434748Y-6650000D03*
X+4180748Y-6650000D03*
X+3926748Y-6650000D03*
X+3672748Y-6650000D03*
X+3418748Y-6650000D03*
X+3164748Y-6650000D03*
X+2910748Y-6650000D03*
X+2656748Y-6650000D03*
X+2402748Y-6650000D03*
X+2148748Y-6650000D03*
X+1894748Y-6650000D03*
X+1640748Y-6650000D03*
X+1386748Y-6650000D03*
X+1132748Y-6650000D03*
X+878748Y-6650000D03*
X+624748Y-6650000D03*
X+370748Y-6650000D03*
X+116748Y-6650000D03*
X-137252Y-6650000D03*
X-391252Y-6650000D03*
X-645252Y-6650000D03*
X-899252Y-6650000D03*
X-1153252Y-6650000D03*
X-1407252Y-6650000D03*
X-1661252Y-6650000D03*
X-10005252Y+3256000D03*
X-10005252Y+3002000D03*
X-10005252Y+2748000D03*
X-10005252Y+2494000D03*
X-10005252Y+2240000D03*
X-10005252Y+1986000D03*
X-10005252Y+1732000D03*
X-10005252Y+1478000D03*
X-10005252Y+1224000D03*
X-10005252Y+970000D03*
X-10005252Y+716000D03*
X-10005252Y+462000D03*
X-10005252Y+208000D03*
X-10005252Y-46000D03*
X-10005252Y-300000D03*
X-10005252Y-554000D03*
X-10005252Y-808000D03*
X-10005252Y-1062000D03*
X-10005252Y-1316000D03*
X-10005252Y-1570000D03*
X-10005252Y-1824000D03*
X-10005252Y-2078000D03*
X-10005252Y-2332000D03*
X-10005252Y-2586000D03*
X-10005252Y-2840000D03*
X-10005252Y-3094000D03*
X-10005252Y-3348000D03*
X-10005252Y-3602000D03*
X-10005252Y-3856000D03*
X-10005252Y-4110000D03*
X-10005252Y-4364000D03*
X-10005252Y-4618000D03*
X-10005252Y-4872000D03*
X-10005252Y-5126000D03*
X-10005252Y-5380000D03*
X-10005252Y-5634000D03*
X-10005252Y-5888000D03*
X-10005252Y-6142000D03*
X-10005252Y-6396000D03*
X-10005252Y-6650000D03*
X-10255252Y-6650000D03*
X-10255252Y-6396000D03*
X-10255252Y-6142000D03*
X-10255252Y-5888000D03*
X-10255252Y-5634000D03*
X-10255252Y-5380000D03*
X-10255252Y-5126000D03*
X-10255252Y-4872000D03*
X-10255252Y-4618000D03*
X-10255252Y-4364000D03*
X-10255252Y-4110000D03*
X-10255252Y-3856000D03*
X-10255252Y-3602000D03*
X-10255252Y-3348000D03*
X-10255252Y-3094000D03*
X-10255252Y-2840000D03*
X-10255252Y-2586000D03*
X-10255252Y-2332000D03*
X-10255252Y-2078000D03*
X-10255252Y-1824000D03*
X-10255252Y-1570000D03*
X-10255252Y-1316000D03*
X-10255252Y-1062000D03*
X-10255252Y-808000D03*
X-10255252Y-554000D03*
X-10255252Y-300000D03*
X-10255252Y-46000D03*
X-10255252Y+208000D03*
X-10255252Y+462000D03*
X-10255252Y+716000D03*
X-10255252Y+970000D03*
X-10255252Y+1224000D03*
X-10255252Y+1478000D03*
X-10255252Y+1732000D03*
X-10255252Y+1986000D03*
X-10255252Y+2240000D03*
X-10255252Y+2494000D03*
X-10255252Y+2748000D03*
X-10255252Y+3002000D03*
X-10255252Y+3256000D03*
D14*
X-8905252Y+6146800D03*
X-8905252Y+6350000D03*
X-8905252Y+6553200D03*
X-8305252Y+6146800D03*
X-8305252Y+6350000D03*
X-8305252Y+6553200D03*
X-8905252Y+5446800D03*
X-8905252Y+5650000D03*
X-8905252Y+5853200D03*
X-8905252Y+4746800D03*
X-8905252Y+4950000D03*
X-8905252Y+5153200D03*
X-8905252Y+4046800D03*
X-8905252Y+4250000D03*
X-8905252Y+4453200D03*
X-8905252Y+3346800D03*
X-8905252Y+3550000D03*
X-8905252Y+3753200D03*
X-8905252Y+2646800D03*
X-8905252Y+2850000D03*
X-8905252Y+3053200D03*
X-8905252Y+1946800D03*
X-8905252Y+2150000D03*
X-8905252Y+2353200D03*
X-8905252Y+1246800D03*
X-8905252Y+1450000D03*
X-8905252Y+1653200D03*
X-8905252Y+546800D03*
X-8905252Y+750000D03*
X-8905252Y+953200D03*
X-8905252Y-153200D03*
X-8905252Y+50000D03*
X-8905252Y+253200D03*
X-8905252Y-853200D03*
X-8905252Y-650000D03*
X-8905252Y-446800D03*
X-8905252Y-1553200D03*
X-8905252Y-1350000D03*
X-8905252Y-1146800D03*
X-8905252Y-2253200D03*
X-8905252Y-2050000D03*
X-8905252Y-1846800D03*
X-8905252Y-2953200D03*
X-8905252Y-2750000D03*
X-8905252Y-2546800D03*
X-8905252Y-3653200D03*
X-8905252Y-3450000D03*
X-8905252Y-3246800D03*
X-8905252Y-4350000D03*
X-8905252Y-4146800D03*
X-8905252Y-3943600D03*
X-8905252Y-5050000D03*
X-8905252Y-4846800D03*
X-8905252Y-4643600D03*
X-8905252Y-5750000D03*
X-8905252Y-5546800D03*
X-8905252Y-5343600D03*
X-8305252Y+5446800D03*
X-8305252Y+5650000D03*
X-8305252Y+5853200D03*
X-8305252Y+4746800D03*
X-8305252Y+4950000D03*
X-8305252Y+5153200D03*
X-8305252Y+4046800D03*
X-8305252Y+4250000D03*
X-8305252Y+4453200D03*
X-8305252Y+3346800D03*
X-8305252Y+3550000D03*
X-8305252Y+3753200D03*
X-8305252Y+2646800D03*
X-8305252Y+2850000D03*
X-8305252Y+3053200D03*
X-8305252Y+1946800D03*
X-8305252Y+2150000D03*
X-8305252Y+2353200D03*
X-8305252Y+1246800D03*
X-8305252Y+1450000D03*
X-8305252Y+1653200D03*
X-8305252Y+546800D03*
X-8305252Y+750000D03*
X-8305252Y+953200D03*
X-8305252Y-153200D03*
X-8305252Y+50000D03*
X-8305252Y+253200D03*
X-8305252Y-853200D03*
X-8305252Y-650000D03*
X-8305252Y-446800D03*
X-8305252Y-1553200D03*
X-8305252Y-1350000D03*
X-8305252Y-1146800D03*
X-8305252Y-2253200D03*
X-8305252Y-2050000D03*
X-8305252Y-1846800D03*
X-8305252Y-2953200D03*
X-8305252Y-2750000D03*
X-8305252Y-2546800D03*
X-8305252Y-3653200D03*
X-8305252Y-3450000D03*
X-8305252Y-3246800D03*
X-8305252Y-4350000D03*
X-8305252Y-4146800D03*
X-8305252Y-3943600D03*
X-8305252Y-5050000D03*
X-8305252Y-4846800D03*
X-8305252Y-4643600D03*
X-8305252Y-5750000D03*
X-8305252Y-5546800D03*
X-8305252Y-5343600D03*
D18*
X-9855252Y+5550000D03*
X-9540292Y+5550000D03*
X-9855252Y+5250000D03*
X-9540292Y+5250000D03*
X-9855252Y+4650000D03*
X-9540292Y+4650000D03*
X-9855252Y+4050000D03*
X-9540292Y+4050000D03*
X-9855252Y+4950000D03*
X-9540292Y+4950000D03*
X-9855252Y+4350000D03*
X-9540292Y+4350000D03*
X-9855252Y+3750000D03*
X-9540292Y+3750000D03*
X-9670212Y+3450000D03*
X-9355252Y+3450000D03*
X-9670212Y+3150000D03*
X-9355252Y+3150000D03*
X-9655252Y+2750000D03*
X-9340292Y+2750000D03*
X-9655252Y+2460000D03*
X-9340292Y+2460000D03*
X-9655252Y+2200000D03*
X-9340292Y+2200000D03*
X-9655252Y+1850000D03*
X-9340292Y+1850000D03*
X-9655252Y+1550000D03*
X-9340292Y+1550000D03*
X-9655252Y+1250000D03*
X-9340292Y+1250000D03*
X-9570212Y+950000D03*
X-9255252Y+950000D03*
X-9570212Y+650000D03*
X-9255252Y+650000D03*
X-9570212Y+350000D03*
X-9255252Y+350000D03*
X-9570212Y+50000D03*
X-9255252Y+50000D03*
X-9570212Y-250000D03*
X-9255252Y-250000D03*
X-9570212Y-550000D03*
X-9255252Y-550000D03*
X-9570212Y-850000D03*
X-9255252Y-850000D03*
X-9570212Y-1150000D03*
X-9255252Y-1150000D03*
X-9570212Y-1450000D03*
X-9255252Y-1450000D03*
X-9570212Y-1750000D03*
X-9255252Y-1750000D03*
X-9570212Y-2050000D03*
X-9255252Y-2050000D03*
X-9570212Y-2350000D03*
X-9255252Y-2350000D03*
X-9570212Y-2650000D03*
X-9255252Y-2650000D03*
X-9570212Y-2950000D03*
X-9255252Y-2950000D03*
X-9570212Y-3550000D03*
X-9255252Y-3550000D03*
X-9570212Y-3250000D03*
X-9255252Y-3250000D03*
X-9570212Y-3850000D03*
X-9255252Y-3850000D03*
X-9570212Y-4150000D03*
X-9255252Y-4150000D03*
X-9570212Y-4450000D03*
X-9255252Y-4450000D03*
X-9570212Y-4750000D03*
X-9255252Y-4750000D03*
X-9570212Y-5050000D03*
X-9255252Y-5050000D03*
D15*
X-10700000Y-6800000D03*
X+11600000Y-6800000D03*
X+11600000Y+6400000D03*
X-10700000Y+6400000D03*
D16*
X-11100000Y-7200000D02*
X+12000000Y-7200000D01*
X+12000000Y+6800000D01*
X-11100000Y+6800000D01*
X-11100000Y-7200000D01*
M02*
