G04 PROTEUS GERBER X2 FILE*
%TF.GenerationSoftware,Labcenter,Proteus,8.6-SP2-Build23525*%
%TF.CreationDate,2023-01-29T17:34:11+00:00*%
%TF.FileFunction,Soldermask,Bot*%
%TF.FilePolarity,Negative*%
%TF.Part,Single*%
%FSLAX45Y45*%
%MOMM*%
G01*
%TA.AperFunction,Material*%
%ADD73C,1.016000*%
%TA.AperFunction,Material*%
%ADD30C,2.032000*%
%AMPPAD025*
4,1,36,
0.762000,0.838200,
0.762000,-0.838200,
0.755940,-0.900520,
0.738490,-0.958160,
0.710770,-1.009980,
0.673890,-1.054890,
0.628980,-1.091760,
0.577160,-1.119480,
0.519520,-1.136930,
0.457200,-1.143000,
-0.457200,-1.143000,
-0.519520,-1.136930,
-0.577160,-1.119480,
-0.628980,-1.091760,
-0.673890,-1.054890,
-0.710770,-1.009980,
-0.738490,-0.958160,
-0.755940,-0.900520,
-0.762000,-0.838200,
-0.762000,0.838200,
-0.755940,0.900520,
-0.738490,0.958160,
-0.710770,1.009980,
-0.673890,1.054890,
-0.628980,1.091760,
-0.577160,1.119480,
-0.519520,1.136930,
-0.457200,1.143000,
0.457200,1.143000,
0.519520,1.136930,
0.577160,1.119480,
0.628980,1.091760,
0.673890,1.054890,
0.710770,1.009980,
0.738490,0.958160,
0.755940,0.900520,
0.762000,0.838200,
0*%
%TA.AperFunction,Material*%
%ADD31PPAD025*%
%AMPPAD030*
4,1,36,
-1.016000,1.143000,
1.016000,1.143000,
1.041970,1.140470,
1.065980,1.133200,
1.087580,1.121650,
1.106290,1.106290,
1.121650,1.087570,
1.133200,1.065980,
1.140470,1.041970,
1.143000,1.016000,
1.143000,-1.016000,
1.140470,-1.041970,
1.133200,-1.065980,
1.121650,-1.087570,
1.106290,-1.106290,
1.087580,-1.121650,
1.065980,-1.133200,
1.041970,-1.140470,
1.016000,-1.143000,
-1.016000,-1.143000,
-1.041970,-1.140470,
-1.065980,-1.133200,
-1.087580,-1.121650,
-1.106290,-1.106290,
-1.121650,-1.087570,
-1.133200,-1.065980,
-1.140470,-1.041970,
-1.143000,-1.016000,
-1.143000,1.016000,
-1.140470,1.041970,
-1.133200,1.065980,
-1.121650,1.087570,
-1.106290,1.106290,
-1.087580,1.121650,
-1.065980,1.133200,
-1.041970,1.140470,
-1.016000,1.143000,
0*%
%TA.AperFunction,Material*%
%ADD36PPAD030*%
%TA.AperFunction,Material*%
%ADD37C,2.540000*%
%TA.AperFunction,Material*%
%ADD38C,1.778000*%
%TA.AperFunction,Material*%
%ADD39C,2.794000*%
%TA.AperFunction,Material*%
%ADD40C,2.286000*%
%TA.AperFunction,Profile*%
%ADD25C,0.203200*%
%TD.AperFunction*%
D73*
X-8000000Y-5600000D03*
X-9200000Y-5600000D03*
X+334051Y-5374918D03*
X+2350000Y-5300000D03*
X+4502224Y-5232752D03*
X+7090000Y-3970000D03*
X+8010000Y-4220000D03*
X+6289287Y-5165746D03*
X+6586585Y-5164222D03*
X+6000000Y-4210000D03*
X+4468614Y-3964455D03*
X+4336349Y-3825198D03*
X+3933258Y-4210711D03*
X+2411447Y-3962708D03*
X+2274468Y-3826024D03*
X-2201233Y-5504834D03*
X+1845451Y-4209125D03*
X-1606369Y-5187061D03*
X-1610000Y-5030000D03*
X-1762096Y-5246236D03*
X-1767421Y-5041227D03*
X-1766719Y-3825321D03*
X+697161Y-3038265D03*
X+0Y-4210000D03*
X-1608035Y-3963997D03*
X-3201490Y-3042567D03*
X-7932415Y-3960705D03*
X-2998651Y-3964088D03*
X-2901481Y-4210373D03*
X-2799066Y-3827069D03*
X-8400000Y+100000D03*
X-8300158Y-3984869D03*
X+7750000Y-3830000D03*
X+6436682Y-5464077D03*
X+6483839Y-4083882D03*
X+4608378Y-4078798D03*
X+2540000Y-4080000D03*
X-3131825Y-4086829D03*
X+2400000Y-3700000D03*
X+5679679Y-3702008D03*
X+1479095Y-3701045D03*
X-4890903Y+285445D03*
X-5959645Y+283375D03*
X-3650000Y-3420000D03*
X-453291Y-3688191D03*
X-6400000Y-3700000D03*
X-7500000Y-6000000D03*
X-8000000Y-6000000D03*
X+7850695Y-3698774D03*
X+3700000Y-3700000D03*
X-7291831Y-1353165D03*
X-4408167Y-1352577D03*
X-4704503Y-625636D03*
X-2105843Y-613904D03*
X-2239292Y-1086541D03*
X-6445023Y-1083311D03*
X-1850000Y-1740000D03*
X-6953789Y-1738863D03*
X-1956907Y-1485201D03*
X-6698474Y-1485396D03*
X-6952416Y-1588546D03*
X-1600000Y-1590000D03*
X+1503296Y-1991979D03*
X+2570000Y-1990000D03*
X+1227405Y+610000D03*
X-6103790Y+610000D03*
X-3645663Y-3688291D03*
X-6995972Y-3417083D03*
X-9121140Y-3417083D03*
X-7223176Y-1263100D03*
X-4664763Y-1267950D03*
X-7145887Y-1156873D03*
X-4920339Y-1155785D03*
X-7650000Y-4210000D03*
X-8430872Y-3036405D03*
X-7460468Y+106759D03*
X+978935Y+414852D03*
X+1733390Y+423235D03*
X-1515637Y-4089760D03*
X+237864Y-3826128D03*
X+414834Y-3967701D03*
X+507307Y-4084578D03*
D30*
X-1661252Y-6400000D03*
X-1407252Y-6400000D03*
X-1153252Y-6400000D03*
X-899252Y-6400000D03*
X-645252Y-6400000D03*
X-391252Y-6400000D03*
X-137252Y-6400000D03*
X+116748Y-6400000D03*
X+370748Y-6400000D03*
X+624748Y-6400000D03*
X+878748Y-6400000D03*
X+1132748Y-6400000D03*
X+1386748Y-6400000D03*
X+1640748Y-6400000D03*
X+1894748Y-6400000D03*
X+2148748Y-6400000D03*
X+2402748Y-6400000D03*
X+2656748Y-6400000D03*
X+2910748Y-6400000D03*
X+3164748Y-6400000D03*
X+3418748Y-6400000D03*
X+3672748Y-6400000D03*
X+3926748Y-6400000D03*
X+4180748Y-6400000D03*
X+4434748Y-6400000D03*
X+4688748Y-6400000D03*
X+4942748Y-6400000D03*
X+5196748Y-6400000D03*
X+5450748Y-6400000D03*
X+5704748Y-6400000D03*
X+5958748Y-6400000D03*
X+6212748Y-6400000D03*
X+6466748Y-6400000D03*
X+6720748Y-6400000D03*
X+6974748Y-6400000D03*
X+7228748Y-6400000D03*
X+7482748Y-6400000D03*
X+7736748Y-6400000D03*
X+7990748Y-6400000D03*
X+8244748Y-6400000D03*
X+8244748Y-6650000D03*
X+7990748Y-6650000D03*
X+7736748Y-6650000D03*
X+7482748Y-6650000D03*
X+7228748Y-6650000D03*
X+6974748Y-6650000D03*
X+6720748Y-6650000D03*
X+6466748Y-6650000D03*
X+6212748Y-6650000D03*
X+5958748Y-6650000D03*
X+5704748Y-6650000D03*
X+5450748Y-6650000D03*
X+5196748Y-6650000D03*
X+4942748Y-6650000D03*
X+4688748Y-6650000D03*
X+4434748Y-6650000D03*
X+4180748Y-6650000D03*
X+3926748Y-6650000D03*
X+3672748Y-6650000D03*
X+3418748Y-6650000D03*
X+3164748Y-6650000D03*
X+2910748Y-6650000D03*
X+2656748Y-6650000D03*
X+2402748Y-6650000D03*
X+2148748Y-6650000D03*
X+1894748Y-6650000D03*
X+1640748Y-6650000D03*
X+1386748Y-6650000D03*
X+1132748Y-6650000D03*
X+878748Y-6650000D03*
X+624748Y-6650000D03*
X+370748Y-6650000D03*
X+116748Y-6650000D03*
X-137252Y-6650000D03*
X-391252Y-6650000D03*
X-645252Y-6650000D03*
X-899252Y-6650000D03*
X-1153252Y-6650000D03*
X-1407252Y-6650000D03*
X-1661252Y-6650000D03*
X-10005252Y+3256000D03*
X-10005252Y+3002000D03*
X-10005252Y+2748000D03*
X-10005252Y+2494000D03*
X-10005252Y+2240000D03*
X-10005252Y+1986000D03*
X-10005252Y+1732000D03*
X-10005252Y+1478000D03*
X-10005252Y+1224000D03*
X-10005252Y+970000D03*
X-10005252Y+716000D03*
X-10005252Y+462000D03*
X-10005252Y+208000D03*
X-10005252Y-46000D03*
X-10005252Y-300000D03*
X-10005252Y-554000D03*
X-10005252Y-808000D03*
X-10005252Y-1062000D03*
X-10005252Y-1316000D03*
X-10005252Y-1570000D03*
X-10005252Y-1824000D03*
X-10005252Y-2078000D03*
X-10005252Y-2332000D03*
X-10005252Y-2586000D03*
X-10005252Y-2840000D03*
X-10005252Y-3094000D03*
X-10005252Y-3348000D03*
X-10005252Y-3602000D03*
X-10005252Y-3856000D03*
X-10005252Y-4110000D03*
X-10005252Y-4364000D03*
X-10005252Y-4618000D03*
X-10005252Y-4872000D03*
X-10005252Y-5126000D03*
X-10005252Y-5380000D03*
X-10005252Y-5634000D03*
X-10005252Y-5888000D03*
X-10005252Y-6142000D03*
X-10005252Y-6396000D03*
X-10005252Y-6650000D03*
X-10255252Y-6650000D03*
X-10255252Y-6396000D03*
X-10255252Y-6142000D03*
X-10255252Y-5888000D03*
X-10255252Y-5634000D03*
X-10255252Y-5380000D03*
X-10255252Y-5126000D03*
X-10255252Y-4872000D03*
X-10255252Y-4618000D03*
X-10255252Y-4364000D03*
X-10255252Y-4110000D03*
X-10255252Y-3856000D03*
X-10255252Y-3602000D03*
X-10255252Y-3348000D03*
X-10255252Y-3094000D03*
X-10255252Y-2840000D03*
X-10255252Y-2586000D03*
X-10255252Y-2332000D03*
X-10255252Y-2078000D03*
X-10255252Y-1824000D03*
X-10255252Y-1570000D03*
X-10255252Y-1316000D03*
X-10255252Y-1062000D03*
X-10255252Y-808000D03*
X-10255252Y-554000D03*
X-10255252Y-300000D03*
X-10255252Y-46000D03*
X-10255252Y+208000D03*
X-10255252Y+462000D03*
X-10255252Y+716000D03*
X-10255252Y+970000D03*
X-10255252Y+1224000D03*
X-10255252Y+1478000D03*
X-10255252Y+1732000D03*
X-10255252Y+1986000D03*
X-10255252Y+2240000D03*
X-10255252Y+2494000D03*
X-10255252Y+2748000D03*
X-10255252Y+3002000D03*
X-10255252Y+3256000D03*
D31*
X-3650000Y-870000D03*
X-3904000Y-870000D03*
X-4158000Y-870000D03*
X-4412000Y-870000D03*
X-4666000Y-870000D03*
X-4920000Y-870000D03*
X-5174000Y-870000D03*
X-5428000Y-870000D03*
X-5682000Y-870000D03*
X-5936000Y-870000D03*
X-6190000Y-870000D03*
X-6444000Y-870000D03*
X-6698000Y-870000D03*
X-6952000Y-870000D03*
X-6952000Y-2394000D03*
X-6698000Y-2394000D03*
X-6444000Y-2394000D03*
X-6190000Y-2394000D03*
X-5936000Y-2394000D03*
X-5682000Y-2394000D03*
X-5428000Y-2394000D03*
X-5174000Y-2394000D03*
X-4920000Y-2394000D03*
X-4666000Y-2394000D03*
X-4412000Y-2394000D03*
X-4158000Y-2394000D03*
X-3904000Y-2394000D03*
X-3650000Y-2394000D03*
D30*
X-9130000Y-4130000D03*
X-8114000Y-4130000D03*
X-7830000Y-5298384D03*
X-7830000Y-6314384D03*
X-1200000Y-4600000D03*
X-184000Y-4600000D03*
X+700000Y-4600000D03*
X+1716000Y-4600000D03*
X+2800000Y-4600000D03*
X+3816000Y-4600000D03*
X+4800000Y-4600000D03*
X+5816000Y-4600000D03*
X+6800000Y-4600000D03*
X+7816000Y-4600000D03*
D36*
X-694000Y-30000D03*
X-440000Y-30000D03*
X-186000Y-30000D03*
X+975346Y-93346D03*
X+1229346Y-93346D03*
X+1483346Y-93346D03*
D30*
X-810654Y-2723346D03*
X-810654Y-1707346D03*
D36*
X+8300000Y-2400000D03*
X+8300000Y-2938265D03*
D37*
X+7240000Y-1400000D03*
X+7240000Y-3420000D03*
X+2680000Y-1400000D03*
X+2680000Y-2420000D03*
D38*
X-1600000Y+200000D03*
X-1850000Y+200000D03*
X-2100000Y+200000D03*
X-2350000Y+200000D03*
X-2100000Y+450000D03*
X-1850000Y+450000D03*
X-1600000Y+450000D03*
X-2350000Y+450000D03*
D39*
X-590000Y+1252000D03*
X-590000Y+1700000D03*
X+422000Y+1476000D03*
D30*
X+3030000Y+40000D03*
X+3538000Y+40000D03*
X-220000Y-670000D03*
X-220000Y-1178000D03*
X+1756000Y-880000D03*
X+740000Y-880000D03*
D40*
X-200000Y-2160000D03*
X-200000Y-1906000D03*
X+844000Y-1560000D03*
X+590000Y-1560000D03*
D39*
X+1400000Y+1252000D03*
X+1400000Y+1700000D03*
X+2412000Y+1476000D03*
D25*
X-10500000Y-7200000D02*
X-10551117Y-7195026D01*
X-10598389Y-7180713D01*
X-10640900Y-7157977D01*
X-10677734Y-7127734D01*
X-10707977Y-7090900D01*
X-10730713Y-7048389D01*
X-10745026Y-7001117D01*
X-10750000Y-6950000D01*
X-10750000Y+3550000D02*
X-10745026Y+3601117D01*
X-10730713Y+3648389D01*
X-10707977Y+3690900D01*
X-10677734Y+3727734D01*
X-10640900Y+3757977D01*
X-10598389Y+3780713D01*
X-10551117Y+3795026D01*
X-10500000Y+3800000D01*
X-5250000Y+800000D02*
X-8200000Y+3800000D01*
X+3800000Y+100000D02*
X+3050000Y+850000D01*
X-1300000Y+800000D02*
X-1248883Y+804974D01*
X-1201611Y+819287D01*
X-1159100Y+842023D01*
X-1122266Y+872266D01*
X-1092023Y+909100D01*
X-1069287Y+951611D01*
X-1054974Y+998883D01*
X-1050000Y+1050000D01*
X-1050000Y+2000000D02*
X-1045026Y+2051117D01*
X-1030713Y+2098389D01*
X-1007977Y+2140900D01*
X-977734Y+2177734D01*
X-940900Y+2207977D01*
X-898389Y+2230713D01*
X-851117Y+2245026D01*
X-800000Y+2250000D01*
X+2800000Y+2250000D02*
X+2851117Y+2245026D01*
X+2898389Y+2230713D01*
X+2940900Y+2207977D01*
X+2977734Y+2177734D01*
X+3007977Y+2140900D01*
X+3030713Y+2098389D01*
X+3045026Y+2051117D01*
X+3050000Y+2000000D01*
X+4050000Y-750000D02*
X+3998883Y-745026D01*
X+3951611Y-730713D01*
X+3909100Y-707977D01*
X+3872266Y-677734D01*
X+3842023Y-640900D01*
X+3819287Y-598389D01*
X+3804974Y-551117D01*
X+3800000Y-500000D01*
X+8600000Y-750000D02*
X+8651117Y-754974D01*
X+8698389Y-769287D01*
X+8740900Y-792023D01*
X+8777734Y-822266D01*
X+8807977Y-859100D01*
X+8830713Y-901611D01*
X+8845026Y-948883D01*
X+8850000Y-1000000D01*
X+8600000Y-7200000D02*
X+8651117Y-7195026D01*
X+8698389Y-7180713D01*
X+8740900Y-7157977D01*
X+8777734Y-7127734D01*
X+8807977Y-7090900D01*
X+8830713Y-7048389D01*
X+8845026Y-7001117D01*
X+8850000Y-6950000D01*
X-800000Y+2250000D02*
X+2800000Y+2250000D01*
X-1050000Y+2000000D02*
X-1050000Y+1050000D01*
X-1300000Y+800000D02*
X-5250000Y+800000D01*
X+3050000Y+850000D02*
X+3050000Y+2000000D01*
X+3800000Y-500000D02*
X+3800000Y+100000D01*
X+4050000Y-750000D02*
X+8600000Y-750000D01*
X+8850000Y-6950000D02*
X+8850000Y-1000000D01*
X+8600000Y-7200000D02*
X-10500000Y-7200000D01*
X-10750000Y-6950000D02*
X-10750000Y+3550000D01*
X-10500000Y+3800000D02*
X-8200000Y+3800000D01*
M02*
