G04 PROTEUS GERBER X2 FILE*
%TF.GenerationSoftware,Labcenter,Proteus,8.6-SP2-Build23525*%
%TF.CreationDate,2023-01-29T17:34:11+00:00*%
%TF.FileFunction,Copper,L1,Top*%
%TF.FilePolarity,Positive*%
%TF.Part,Single*%
%FSLAX45Y45*%
%MOMM*%
G01*
%TA.AperFunction,Conductor*%
%ADD10C,0.254000*%
%ADD11C,0.508000*%
%ADD12C,0.304800*%
%ADD13C,0.381000*%
%ADD14C,0.762000*%
%TA.AperFunction,ViaPad*%
%ADD15C,0.762000*%
%TA.AperFunction,ComponentPad*%
%ADD16C,1.778000*%
%AMPPAD007*
4,1,36,
0.762000,0.838200,
0.762000,-0.838200,
0.755940,-0.900520,
0.738490,-0.958160,
0.710770,-1.009980,
0.673890,-1.054890,
0.628980,-1.091760,
0.577160,-1.119480,
0.519520,-1.136930,
0.457200,-1.143000,
-0.457200,-1.143000,
-0.519520,-1.136930,
-0.577160,-1.119480,
-0.628980,-1.091760,
-0.673890,-1.054890,
-0.710770,-1.009980,
-0.738490,-0.958160,
-0.755940,-0.900520,
-0.762000,-0.838200,
-0.762000,0.838200,
-0.755940,0.900520,
-0.738490,0.958160,
-0.710770,1.009980,
-0.673890,1.054890,
-0.628980,1.091760,
-0.577160,1.119480,
-0.519520,1.136930,
-0.457200,1.143000,
0.457200,1.143000,
0.519520,1.136930,
0.577160,1.119480,
0.628980,1.091760,
0.673890,1.054890,
0.710770,1.009980,
0.738490,0.958160,
0.755940,0.900520,
0.762000,0.838200,
0*%
%TA.AperFunction,ComponentPad*%
%ADD17PPAD007*%
%TA.AperFunction,SMDPad,CuDef*%
%ADD18R,1.549400X0.304800*%
%ADD19R,0.304800X1.549400*%
%TA.AperFunction,SMDPad,CuDef*%
%ADD70R,0.254000X1.016000*%
%ADD71R,1.016000X0.254000*%
%TA.AperFunction,ComponentPad*%
%ADD20R,2.032000X2.032000*%
%TA.AperFunction,ComponentPad*%
%ADD21C,2.286000*%
%TA.AperFunction,ComponentPad*%
%ADD22C,1.524000*%
%TA.AperFunction,ComponentPad*%
%ADD23C,2.540000*%
%TA.AperFunction,ComponentPad*%
%ADD24C,2.032000*%
%TA.AperFunction,Profile*%
%ADD25C,0.203200*%
%TD.AperFunction*%
D10*
X-9265000Y+1840000D02*
X-9959823Y+1840000D01*
X-9989010Y+1869187D01*
X-10118065Y+1869187D01*
X-10255252Y+1732000D01*
X-9265000Y+1790000D02*
X-9947252Y+1790000D01*
X-10005252Y+1732000D01*
X-9265000Y+1740000D02*
X-9831471Y+1740000D01*
X-9976619Y+1594852D01*
X-10138400Y+1594852D01*
X-10255252Y+1478000D01*
X-9265000Y+1690000D02*
X-9793252Y+1690000D01*
X-10005252Y+1478000D01*
X-9265000Y+1640000D02*
X-9678083Y+1640000D01*
X-9956842Y+1361241D01*
X-10118011Y+1361241D01*
X-10255252Y+1224000D01*
X-9265000Y+1590000D02*
X-9639252Y+1590000D01*
X-10005252Y+1224000D01*
X-8670000Y+2185000D02*
X-8670000Y+3048491D01*
X-8758598Y+3137089D01*
X-10114273Y+3137089D01*
X-10166352Y+3085010D01*
X-10255252Y+3002000D01*
X-8720000Y+2185000D02*
X-8720000Y+2918742D01*
X-8803956Y+3002698D01*
X-10004554Y+3002698D01*
X-10005252Y+3002000D01*
X-8970000Y+2185000D02*
X-8970000Y+2820000D01*
X-9030000Y+2880000D01*
X-10123252Y+2880000D01*
X-10255252Y+2748000D01*
X-9020000Y+2185000D02*
X-9020000Y+2683043D01*
X-9084497Y+2747540D01*
X-10004792Y+2747540D01*
X-10005252Y+2748000D01*
X-9070000Y+2185000D02*
X-9070000Y+2550000D01*
X-9140000Y+2620000D01*
X-10129252Y+2620000D01*
X-10255252Y+2494000D01*
X-9120000Y+2185000D02*
X-9120000Y+2409986D01*
X-9202884Y+2492870D01*
X-10004122Y+2492870D01*
X-10005252Y+2494000D01*
X-9267700Y-2137140D02*
X-9541680Y-2137140D01*
X-9601740Y-2077080D01*
X-9999340Y-2077080D01*
X-9999980Y-2077720D01*
X-10005252Y-2078000D01*
X-9267700Y-2187140D02*
X-9860392Y-2187140D01*
X-10005252Y-2332000D01*
X-9267700Y-2237140D02*
X-9656392Y-2237140D01*
X-10005252Y-2586000D01*
X-8980000Y-6050000D02*
X-8980000Y-6007464D01*
X-8590000Y-5470000D02*
X-8590000Y-4803574D01*
X-8754393Y-4639181D01*
X-9859919Y-4639181D01*
X-9975940Y-4755202D01*
X-10138454Y-4755202D01*
X-10255252Y-4872000D01*
X-8655000Y-5470000D02*
X-8655000Y-4807000D01*
X-8763000Y-4699000D01*
X-9832252Y-4699000D01*
X-10005252Y-4872000D01*
X-8720000Y-5470000D02*
X-8720000Y-4869000D01*
X-8826500Y-4762500D01*
X-9730621Y-4762500D01*
X-9976940Y-5008819D01*
X-10138071Y-5008819D01*
X-10255252Y-5126000D01*
X-8785000Y-5470000D02*
X-8785000Y-4931000D01*
X-8890000Y-4826000D01*
X-9705252Y-4826000D01*
X-10005252Y-5126000D01*
X-8850000Y-5470000D02*
X-8850000Y-4993000D01*
X-8953500Y-4889500D01*
X-9603550Y-4889500D01*
X-9977208Y-5263158D01*
X-10053532Y-5263158D01*
X-10170374Y-5380000D01*
X-10255252Y-5380000D01*
X-8915000Y-5470000D02*
X-8915000Y-5055000D01*
X-9017000Y-4953000D01*
X-9578252Y-4953000D01*
X-10005252Y-5380000D01*
X-8980000Y-5470000D02*
X-8980000Y-5117000D01*
X-9080500Y-5016500D01*
X-9476498Y-5016500D01*
X-9974693Y-5514695D01*
X-10135947Y-5514695D01*
X-10255252Y-5634000D01*
X-9045000Y-5470000D02*
X-9045000Y-5204277D01*
X-9044958Y-5204235D01*
X-9162850Y-5086343D01*
X-9462875Y-5086343D01*
X-10005252Y-5628720D01*
X-10005252Y-5634000D01*
X-1030000Y-5770000D02*
X-1249145Y-5770000D01*
X-1251969Y-5767176D01*
X-1346043Y-5861250D01*
X-1346043Y-6164378D01*
X-1153252Y-6357169D01*
X-1153252Y-6400000D01*
X-1030000Y-5835000D02*
X-1199500Y-5835000D01*
X-1270000Y-5905500D01*
X-1270000Y-6118106D01*
X-1016000Y-6372106D01*
X-1016000Y-6533252D01*
X-899252Y-6650000D01*
X-450000Y-5445000D02*
X-34011Y-5445000D01*
X+110248Y-5589259D01*
X+110248Y-6393500D01*
X+116748Y-6400000D01*
X-450000Y-5575000D02*
X-125000Y-5575000D01*
X-50000Y-5650000D01*
X-50000Y-6312748D01*
X-137252Y-6400000D01*
X-450000Y-5640000D02*
X-410096Y-5640000D01*
X-408846Y-5640000D01*
X-187191Y-5640000D01*
X-112359Y-5714832D01*
X-112359Y-6188584D01*
X-249348Y-6325573D01*
X-255056Y-6331281D01*
X-255056Y-6532196D01*
X-137252Y-6650000D01*
X-450000Y-5705000D02*
X-410426Y-5705000D01*
X-404821Y-5705000D01*
X-224932Y-5705000D01*
X-186561Y-5743371D01*
X-186561Y-6165752D01*
X-331909Y-6311100D01*
X-391252Y-6400000D01*
X-450000Y-5770000D02*
X-280000Y-5770000D01*
X-250000Y-5800000D01*
X-250000Y-6092203D01*
X-511909Y-6354112D01*
X-517617Y-6354112D01*
X-517617Y-6523635D01*
X-391252Y-6650000D01*
X-450000Y-5835000D02*
X-334663Y-5835000D01*
X-300719Y-5868944D01*
X-300719Y-6055467D01*
X-645252Y-6400000D01*
X+3030000Y-5750000D02*
X+2917774Y-5750000D01*
X+2819947Y-5847827D01*
X+2819947Y-6019947D01*
X+2950000Y-6150000D01*
X+3047915Y-6247915D01*
X+3047915Y-6533167D01*
X+3164748Y-6650000D01*
X+3030000Y-5685000D02*
X+2890745Y-5685000D01*
X+2752459Y-5823286D01*
X+2752459Y-6056426D01*
X+2911976Y-6215943D01*
X+2911976Y-6398772D01*
X+2910748Y-6400000D01*
X+3030000Y-5620000D02*
X+2857580Y-5620000D01*
X+2684971Y-5792609D01*
X+2684971Y-6179132D01*
X+2770864Y-6265025D01*
X+2789270Y-6283431D01*
X+2789270Y-6553381D01*
X+2821848Y-6585959D01*
X+2910748Y-6650000D01*
X+3030000Y-5555000D02*
X+2806010Y-5555000D01*
X+2617483Y-5743527D01*
X+2617483Y-6360735D01*
X+2656748Y-6400000D01*
X+3030000Y-5490000D02*
X+2785116Y-5490000D01*
X+2525454Y-5749662D01*
X+2525454Y-6518706D01*
X+2656748Y-6650000D01*
X+3030000Y-5425000D02*
X+2725000Y-5425000D01*
X+2400000Y-5750000D01*
X+2400000Y-6397252D01*
X+2402748Y-6400000D01*
X+3030000Y-5360000D02*
X+2559271Y-5360000D01*
X+2280043Y-5639228D01*
X+2280043Y-6527295D01*
X+2402748Y-6650000D01*
X+3610000Y-5750000D02*
X+3765116Y-5750000D01*
X+3881348Y-5866232D01*
X+3881348Y-5937400D01*
X+3418748Y-6400000D01*
X+3610000Y-5685000D02*
X+3798279Y-5685000D01*
X+3950000Y-5836721D01*
X+3950000Y-6000000D01*
X+3678840Y-6271160D01*
X+3628840Y-6271160D01*
X+3550000Y-6350000D01*
X+3550000Y-6527252D01*
X+3672748Y-6650000D01*
X+3610000Y-5620000D02*
X+3819173Y-5620000D01*
X+4022459Y-5823286D01*
X+4022459Y-6050289D01*
X+3672748Y-6400000D01*
X+3610000Y-5555000D02*
X+3864608Y-5555000D01*
X+4096082Y-5786474D01*
X+4096082Y-6065390D01*
X+3800000Y-6361472D01*
X+3800000Y-6523252D01*
X+3926748Y-6650000D01*
X+3610000Y-5490000D02*
X+3885502Y-5490000D01*
X+4169705Y-5774203D01*
X+4169705Y-6157043D01*
X+3926748Y-6400000D01*
X+3610000Y-5425000D02*
X+3925000Y-5425000D01*
X+4250000Y-5750000D01*
X+4250000Y-6164973D01*
X+4043593Y-6371380D01*
X+4043593Y-6512845D01*
X+4180748Y-6650000D01*
X+4980000Y-5300000D02*
X+4600962Y-5300000D01*
X+4366034Y-5534928D01*
X+4366034Y-6303589D01*
X+4317952Y-6351671D01*
X+4317952Y-6533204D01*
X+4434748Y-6650000D01*
X+4980000Y-5365000D02*
X+4621855Y-5365000D01*
X+4433521Y-5553334D01*
X+4433521Y-6398773D01*
X+4434748Y-6400000D01*
X+4980000Y-5430000D02*
X+4648884Y-5430000D01*
X+4501009Y-5577875D01*
X+4501009Y-6295701D01*
X+4571953Y-6366645D01*
X+4571953Y-6533205D01*
X+4688748Y-6650000D01*
X+4980000Y-5495000D02*
X+4682049Y-5495000D01*
X+4556227Y-5620822D01*
X+4556227Y-6267479D01*
X+4688748Y-6400000D01*
X+4980000Y-5560000D02*
X+4709078Y-5560000D01*
X+4623715Y-5645363D01*
X+4623715Y-6160726D01*
X+4805557Y-6342568D01*
X+4805557Y-6512809D01*
X+4942748Y-6650000D01*
X+4980000Y-5625000D02*
X+4742242Y-5625000D01*
X+4703473Y-5663769D01*
X+4703473Y-6160725D01*
X+4942748Y-6400000D01*
X+4980000Y-5690000D02*
X+4830623Y-5690000D01*
X+4770961Y-5749662D01*
X+4770961Y-6050291D01*
X+5059625Y-6338955D01*
X+5059625Y-6512877D01*
X+5196748Y-6650000D01*
X+5560000Y-5690000D02*
X+5664493Y-5690000D01*
X+5763803Y-5789310D01*
X+5763803Y-5909121D01*
X+5476256Y-6196668D01*
X+5476256Y-6374492D01*
X+5450748Y-6400000D01*
X+5560000Y-5625000D02*
X+5675001Y-5625000D01*
X+5826812Y-5776811D01*
X+5826812Y-5923188D01*
X+5600000Y-6150000D01*
X+5586812Y-6163188D01*
X+5586812Y-6532064D01*
X+5704748Y-6650000D01*
X+5560000Y-5560000D02*
X+5686001Y-5560000D01*
X+5886812Y-5760811D01*
X+5886812Y-5988811D01*
X+5702812Y-6172811D01*
X+5702812Y-6398064D01*
X+5704748Y-6400000D01*
X+5560000Y-5495000D02*
X+5695000Y-5495000D01*
X+5950000Y-5750000D01*
X+5950000Y-6077623D01*
X+5830812Y-6196811D01*
X+5830812Y-6522064D01*
X+5958748Y-6650000D01*
X+5560000Y-5430000D02*
X+5724001Y-5430000D01*
X+6030812Y-5736811D01*
X+6030812Y-6119188D01*
X+5950000Y-6200000D01*
X+5950000Y-6391252D01*
X+5958748Y-6400000D01*
X+5560000Y-5365000D02*
X+5755001Y-5365000D01*
X+6082812Y-5692811D01*
X+6082812Y-6096811D01*
X+6082812Y-6520064D01*
X+6212748Y-6650000D01*
X+5560000Y-5300000D02*
X+5770001Y-5300000D01*
X+6162812Y-5692811D01*
X+6162812Y-6350064D01*
X+6212748Y-6400000D01*
X+900000Y-5450000D02*
X+367956Y-5450000D01*
X+173034Y-5644922D01*
X+173034Y-6211415D01*
X+230113Y-6268494D01*
X+230113Y-6365528D01*
X+252944Y-6388359D01*
X+252944Y-6532196D01*
X+370748Y-6650000D01*
X+900000Y-5515000D02*
X+395000Y-5515000D01*
X+250000Y-5660000D01*
X+250000Y-6191347D01*
X+367102Y-6308449D01*
X+367102Y-6311100D01*
X+370748Y-6400000D01*
X+900000Y-5710000D02*
X+518923Y-5710000D01*
X+486967Y-5741956D01*
X+486967Y-6086967D01*
X+750000Y-6350000D01*
X+750000Y-6521252D01*
X+878748Y-6650000D01*
X+900000Y-5775000D02*
X+602327Y-5775000D01*
X+566877Y-5810450D01*
X+566877Y-6088129D01*
X+878748Y-6400000D01*
X+900000Y-5840000D02*
X+674315Y-5840000D01*
X+641079Y-5873236D01*
X+641079Y-6051595D01*
X+812315Y-6222831D01*
X+922831Y-6222831D01*
X+1000000Y-6300000D01*
X+1000000Y-6440406D01*
X+1132748Y-6573154D01*
X+1132748Y-6650000D01*
X+900000Y-5580000D02*
X+454855Y-5580000D01*
X+338562Y-5696293D01*
X+338562Y-6202619D01*
X+504090Y-6368147D01*
X+504090Y-6529342D01*
X+624748Y-6650000D01*
X+900000Y-5645000D02*
X+509720Y-5645000D01*
X+407057Y-5747663D01*
X+407057Y-6182309D01*
X+624748Y-6400000D01*
X+1480000Y-5450000D02*
X+1890000Y-5450000D01*
X+2148748Y-5708748D01*
X+2148748Y-6400000D01*
X+1480000Y-5515000D02*
X+1852504Y-5515000D01*
X+2016674Y-5679170D01*
X+2016674Y-6517926D01*
X+2148748Y-6650000D01*
X+1480000Y-5580000D02*
X+1797640Y-5580000D01*
X+1931056Y-5713416D01*
X+1931056Y-6363692D01*
X+1894748Y-6400000D01*
X+1480000Y-5645000D02*
X+1765606Y-5645000D01*
X+1868269Y-5747663D01*
X+1868269Y-6199999D01*
X+1771235Y-6297033D01*
X+1771235Y-6526487D01*
X+1894748Y-6650000D01*
X+1480000Y-5710000D02*
X+1716449Y-5710000D01*
X+1794067Y-5787618D01*
X+1794067Y-6160045D01*
X+1643012Y-6311100D01*
X+1640748Y-6400000D01*
X+1480000Y-5775000D02*
X+1678707Y-5775000D01*
X+1725573Y-5821866D01*
X+1725573Y-6148629D01*
X+1520090Y-6354112D01*
X+1520090Y-6529342D01*
X+1640748Y-6650000D01*
X+1480000Y-5840000D02*
X+1612426Y-5840000D01*
X+1651370Y-5878944D01*
X+1651370Y-6135378D01*
X+1386748Y-6400000D01*
X+7090000Y-5530000D02*
X+6548802Y-5530000D01*
X+6350004Y-5728798D01*
X+6350004Y-6533256D01*
X+6466748Y-6650000D01*
X+7090000Y-5595000D02*
X+6602864Y-5595000D01*
X+6453853Y-5744011D01*
X+6453853Y-6387105D01*
X+6466748Y-6400000D01*
X+7090000Y-5660000D02*
X+6663541Y-5660000D01*
X+6546457Y-5777084D01*
X+6546457Y-6240103D01*
X+6586145Y-6279791D01*
X+6586145Y-6515397D01*
X+6720748Y-6650000D01*
X+7090000Y-5725000D02*
X+6697760Y-5725000D01*
X+6619218Y-5803542D01*
X+6619218Y-6213646D01*
X+6672134Y-6266562D01*
X+6672134Y-6351386D01*
X+6720748Y-6400000D01*
X+7090000Y-5790000D02*
X+6731978Y-5790000D01*
X+6685364Y-5836614D01*
X+6685364Y-6154114D01*
X+6844114Y-6312864D01*
X+6844114Y-6519366D01*
X+6974748Y-6650000D01*
X+7090000Y-5920000D02*
X+6879790Y-5920000D01*
X+6837499Y-5962291D01*
X+6837499Y-6047499D01*
X+7108697Y-6318697D01*
X+7108697Y-6529949D01*
X+7228748Y-6650000D01*
X+7670000Y-5530000D02*
X+8290000Y-5530000D01*
X+8690000Y-5930000D01*
X+8690000Y-6162939D01*
X+8455555Y-6397384D01*
X+8247364Y-6397384D01*
X+8244748Y-6400000D01*
X+7670000Y-5595000D02*
X+8265000Y-5595000D01*
X+8610000Y-5940000D01*
X+8610000Y-6087129D01*
X+8452616Y-6244513D01*
X+8255648Y-6244513D01*
X+8215487Y-6244513D01*
X+8120000Y-6340000D01*
X+8120000Y-6525252D01*
X+8244748Y-6650000D01*
X+7670000Y-5660000D02*
X+8217940Y-5660000D01*
X+8511412Y-5953472D01*
X+8511412Y-6059304D01*
X+8434976Y-6135740D01*
X+8400716Y-6170000D01*
X+8110000Y-6170000D01*
X+7990748Y-6289252D01*
X+7990748Y-6400000D01*
X+7670000Y-5790000D02*
X+8136273Y-5790000D01*
X+8188032Y-5841759D01*
X+8188032Y-5976990D01*
X+8129235Y-6035787D01*
X+8032221Y-6035787D01*
X+8026342Y-6041666D01*
X+7736748Y-6331260D01*
X+7736748Y-6400000D01*
X+7670000Y-5725000D02*
X+8168287Y-5725000D01*
X+8287986Y-5844699D01*
X+8287986Y-6021087D01*
X+8214490Y-6094583D01*
X+8082199Y-6094583D01*
X+7870532Y-6306250D01*
X+7870532Y-6529784D01*
X+7990748Y-6650000D01*
X+7670000Y-5855000D02*
X+7927870Y-5855000D01*
X+7976365Y-5903495D01*
X+7976365Y-5976992D01*
X+7617709Y-6335648D01*
X+7617709Y-6530961D01*
X+7736748Y-6650000D01*
X+7670000Y-5920000D02*
X+7830000Y-5920000D01*
X+7870000Y-5960000D01*
X+7870000Y-6012748D01*
X+7482748Y-6400000D01*
X-8265000Y-6007041D02*
X-8265000Y-6003478D01*
X-8395000Y-5508021D02*
X-8395000Y-5509610D01*
D11*
X-8200000Y-5470000D02*
X-8200000Y-5550000D01*
X-8150000Y-5600000D01*
X-8000000Y-5600000D01*
X-9200000Y-5600000D02*
X-8546303Y-5600000D01*
X-8524184Y-5577881D01*
X-8524184Y-5470816D01*
X-8525000Y-5470000D01*
X+4800000Y-4600000D02*
X+4800000Y-4730000D01*
X+4980000Y-4910000D01*
X+6800000Y-4600000D02*
X+6800000Y-4850000D01*
X+7090000Y-5140000D01*
D10*
X+7816000Y-4600000D02*
X+7816000Y-5097429D01*
X+7708429Y-5205000D01*
X+7670000Y-5205000D01*
X+5816000Y-4600000D02*
X+5816000Y-4757578D01*
X+5598578Y-4975000D01*
X+5560000Y-4975000D01*
X+3816000Y-4600000D02*
X+3816000Y-4868622D01*
X+3649622Y-5035000D01*
X+3610000Y-5035000D01*
X+1716000Y-4600000D02*
X+1716000Y-4927954D01*
X+1518954Y-5125000D01*
X+1480000Y-5125000D01*
X-184000Y-4600000D02*
X-184000Y-4894000D01*
X-410000Y-5120000D01*
X-450000Y-5120000D01*
D11*
X+334051Y-5374918D02*
X+889918Y-5374918D01*
X+900000Y-5385000D01*
X+2350000Y-5300000D02*
X+3025000Y-5300000D01*
X+3030000Y-5295000D01*
X+4502224Y-5232752D02*
X+4977752Y-5232752D01*
X+4980000Y-5235000D01*
X+6436682Y-5464077D02*
X+7089077Y-5464077D01*
X+7090000Y-5465000D01*
D10*
X-8265000Y-6050000D02*
X-8265000Y-6008001D01*
X-8265000Y-6007041D01*
X-450000Y-5510000D02*
X-94584Y-5510000D01*
X+24630Y-5629214D01*
X+24630Y-6222831D01*
X+0Y-6247461D01*
X+0Y-6533252D01*
X+116748Y-6650000D01*
X+7090000Y-3970000D02*
X+7168722Y-4048722D01*
X+7168722Y-5229202D01*
X+7127924Y-5270000D01*
X+7090000Y-5270000D01*
D11*
X-8200000Y-5470000D02*
X-8028384Y-5298384D01*
X-7830000Y-5298384D01*
D10*
X+8010000Y-4220000D02*
X+7967549Y-5269208D01*
X+7899109Y-5337648D01*
X+7672648Y-5337648D01*
X+7670000Y-5335000D01*
X+5560000Y-5170000D02*
X+6285033Y-5170000D01*
X+6289287Y-5165746D01*
X+6586585Y-5164222D02*
X+6828998Y-5406635D01*
X+7039200Y-5406635D01*
X+7090000Y-5400000D01*
X+5560000Y-5105000D02*
X+5599470Y-5105000D01*
X+6000000Y-4704470D01*
X+6000000Y-4210000D01*
X+4980000Y-5040000D02*
X+4910000Y-5040000D01*
X+4470000Y-4600000D01*
X+4470000Y-3965841D01*
X+4468614Y-3964455D01*
X+4980000Y-5105000D02*
X+4839500Y-5105000D01*
X+4336969Y-4602469D01*
X+4336969Y-3825818D01*
X+4336349Y-3825198D01*
X+4980000Y-5170000D02*
X+4530000Y-5170000D01*
X+4525511Y-5165511D01*
X+4051049Y-5165511D01*
X+3987270Y-5229290D01*
X+3610710Y-5229290D01*
X+3610000Y-5230000D01*
X+3610000Y-5165000D02*
X+3648694Y-5165000D01*
X+3657872Y-5165000D01*
X+3932800Y-4890072D01*
X+3932800Y-4211169D01*
X+3933258Y-4210711D01*
D11*
X+3030000Y-4970000D02*
X+2800000Y-4740000D01*
X+2800000Y-4600000D01*
D10*
X+3030000Y-5035000D02*
X+2989789Y-5035000D01*
X+2540000Y-4585211D01*
X+2540000Y-4080000D01*
X+3030000Y-5100000D02*
X+2910000Y-5100000D01*
X+2410000Y-4600000D01*
X+2410000Y-3964155D01*
X+2411447Y-3962708D01*
X+3030000Y-5165000D02*
X+2821156Y-5165000D01*
X+2276102Y-4619946D01*
X+2276102Y-3827658D01*
X+2274468Y-3826024D01*
X+3030000Y-5230000D02*
X+1860000Y-5230000D01*
X+1770000Y-5320000D01*
X+1480000Y-5320000D01*
D11*
X-2201233Y-5504834D02*
X-2076399Y-5380000D01*
X-1030000Y-5380000D01*
D10*
X+1480000Y-5255000D02*
X+1518803Y-5255000D01*
X+1845451Y-4928352D01*
X+1845451Y-4209125D01*
X-450000Y-5250000D02*
X-409263Y-5250000D01*
X+0Y-4840737D01*
X+0Y-4210000D01*
X-1030000Y-5185000D02*
X-1604308Y-5185000D01*
X-1606369Y-5187061D01*
X-1610000Y-5030000D02*
X-1610000Y-3965962D01*
X-1608035Y-3963997D01*
X-1030000Y-5250000D02*
X-1584811Y-5250000D01*
X-1589035Y-5254224D01*
X-1754108Y-5254224D01*
X-1762096Y-5246236D01*
X-1767421Y-5041227D02*
X-1767421Y-3826023D01*
X-1766719Y-3825321D01*
D11*
X+697161Y-3038265D02*
X+698896Y-3040000D01*
X+700000Y-3040000D01*
X+700000Y-4600000D01*
D10*
X-6698000Y-2394000D02*
X-6698000Y-3213429D01*
X-6968872Y-3484301D01*
X-8077919Y-3484301D01*
X-8672700Y-2889520D01*
X-8672700Y-2732140D01*
X-6190000Y-2394000D02*
X-6190000Y-2775478D01*
X-6952261Y-3537739D01*
X-8185795Y-3537739D01*
X-8823168Y-2900366D01*
X-8823168Y-2732608D01*
X-8822700Y-2732140D01*
X-5936000Y-2394000D02*
X-5936000Y-2590154D01*
X-6941637Y-3595791D01*
X-8223123Y-3595791D01*
X-8872890Y-2946024D01*
X-8872890Y-2732330D01*
X-8872700Y-2732140D01*
X-5682000Y-2394000D02*
X-5682000Y-2402880D01*
X-6921947Y-3642827D01*
X-8263324Y-3642827D01*
X-8922935Y-2983216D01*
X-8922935Y-2732375D01*
X-8922700Y-2732140D01*
X-5428000Y-2394000D02*
X-5603317Y-2569317D01*
X-5764481Y-2569317D01*
X-6888775Y-3693611D01*
X-8310346Y-3693611D01*
X-8974378Y-3029579D01*
X-8974378Y-2733818D01*
X-8972700Y-2732140D01*
D11*
X-3650000Y-870000D02*
X-3201490Y-1318510D01*
X-3201490Y-3042567D01*
X-3650000Y-2394000D02*
X-3650000Y-2769339D01*
X-3650000Y-3420000D01*
D10*
X-8395000Y-5508021D02*
X-8395000Y-5470000D01*
X-7932415Y-3960705D02*
X-8112201Y-3960705D01*
X-8330000Y-4178504D01*
X-8330000Y-5470000D01*
X-4666000Y-870000D02*
X-4396000Y-600000D01*
X-3400000Y-600000D01*
X-2998651Y-1001349D01*
X-2998651Y-3964088D01*
X-5174000Y-870000D02*
X-4804000Y-500000D01*
X-3300000Y-500000D01*
X-2901481Y-898519D01*
X-2901481Y-4210373D01*
X-5682000Y-870000D02*
X-5212000Y-400000D01*
X-3200000Y-400000D01*
X-2799066Y-800934D01*
X-2799066Y-3827069D01*
D11*
X-8430872Y-3032534D02*
X-8430872Y-3036405D01*
D10*
X-8300158Y-3984869D02*
X-8400000Y-4084711D01*
X-8400000Y-5503021D01*
X-8395000Y-5508021D01*
X-8460000Y-4000000D02*
X-8460000Y-4006946D01*
X-8460000Y-5470000D02*
X-8460000Y-4006946D01*
X-8460000Y-4000000D02*
X-8460000Y-3940000D01*
X-8320000Y-3800000D01*
X-6825066Y-3800000D01*
X-5737830Y-2712764D01*
X-5238415Y-2712764D01*
X-5060888Y-2535237D01*
X-5060888Y-1513979D01*
X-5426941Y-1147926D01*
X-5426941Y-871059D01*
X-5428000Y-870000D01*
X+7750000Y-3830000D02*
X+7742586Y-3850917D01*
X+7230000Y-4363503D01*
X+7230000Y-5230000D01*
X+7173098Y-5291902D01*
X+7130000Y-5335000D01*
X+7090000Y-5335000D01*
X+6483839Y-4083882D02*
X+6680443Y-4280486D01*
X+6680443Y-4848102D01*
X+7037341Y-5205000D01*
X+7090000Y-5205000D01*
X+4980000Y-4975000D02*
X+4940849Y-4975000D01*
X+4608378Y-4642529D01*
X+4608378Y-4078798D01*
X-4412000Y-870000D02*
X-4242000Y-700000D01*
X-3500000Y-700000D01*
X-3132345Y-1067655D01*
X-3132345Y-4086309D01*
X-3131825Y-4086829D01*
D11*
X+5560000Y-4910000D02*
X+5681626Y-4788374D01*
X+5681626Y-3703955D01*
X+5679679Y-3702008D01*
X+1480000Y-5060000D02*
X+1480000Y-3701950D01*
X+1479095Y-3701045D01*
X-8330000Y-6050000D02*
X-8330000Y-5889698D01*
X-8297737Y-5857435D01*
X-8242565Y-5857435D01*
X-8210000Y-5890000D01*
X-8210000Y-6040000D01*
X-8200000Y-6050000D01*
X-6400000Y-3700000D02*
X-6400000Y-4900000D01*
X-7500000Y-6000000D01*
X-8000000Y-6000000D02*
X-8150000Y-6000000D01*
X-8200000Y-6050000D01*
X+7670000Y-5140000D02*
X+7603912Y-5073912D01*
X+7603912Y-4440671D01*
X+7850695Y-4193888D01*
X+7850695Y-3698774D01*
X+7670000Y-5140000D02*
X+7552573Y-5140000D01*
X+7509650Y-5182923D01*
X+7509650Y-5212518D01*
X+7566909Y-5269777D01*
X+7669777Y-5269777D01*
X+7670000Y-5270000D01*
X+5560000Y-5040000D02*
X+5503258Y-5040000D01*
X+5468088Y-5004830D01*
X+5468088Y-4943556D01*
X+5501644Y-4910000D01*
X+5560000Y-4910000D01*
X+3610000Y-4970000D02*
X+3610000Y-4106537D01*
X+3696537Y-4020000D01*
X+3696537Y-3703463D01*
X+3700000Y-3700000D01*
X+3610000Y-5100000D02*
X+3454130Y-5100000D01*
X+3423299Y-5069169D01*
X+3423299Y-5008866D01*
X+3462746Y-4969419D01*
X+3609419Y-4969419D01*
X+3610000Y-4970000D01*
X+1480000Y-5060000D02*
X+1359732Y-5060000D01*
X+1324232Y-5095500D01*
X+1324232Y-5154232D01*
X+1360000Y-5190000D01*
X+1480000Y-5190000D01*
X-450000Y-5185000D02*
X-568606Y-5185000D01*
X-596362Y-5157244D01*
X-596362Y-5082568D01*
X-565248Y-5051454D01*
X-453546Y-5051454D01*
X-453291Y-5051709D01*
X-450000Y-5055000D01*
X-453291Y-3688191D02*
X-453291Y-5051709D01*
D10*
X-4408167Y-1352577D02*
X-4408167Y-2390167D01*
X-4412000Y-2394000D01*
X-4920000Y-870000D02*
X-4920000Y-841133D01*
X-4704503Y-625636D01*
X-2105843Y-613904D02*
X-2105843Y+194157D01*
X-2100000Y+200000D01*
X-2100000Y+450000D02*
X-2245283Y+304717D01*
X-2245283Y-1080550D01*
X-2239292Y-1086541D01*
X-6445023Y-1083311D02*
X-6445023Y-871023D01*
X-6444000Y-870000D01*
X-1850000Y+200000D02*
X-1850000Y-1740000D01*
X-6953789Y-1738863D02*
X-6953789Y-2392211D01*
X-6952000Y-2394000D01*
X-1850000Y+450000D02*
X-1957177Y+342823D01*
X-1957177Y-1484931D01*
X-1956907Y-1485201D01*
X-6698474Y-1485396D02*
X-6698474Y-870474D01*
X-6698000Y-870000D01*
X-6952000Y-870000D02*
X-6952000Y-1588130D01*
X-6952416Y-1588546D01*
X-1600000Y-1590000D02*
X-1600000Y+200000D01*
D11*
X-220000Y-1178000D02*
X-220000Y-1886000D01*
X-200000Y-1906000D01*
X-3650000Y-3420000D02*
X-3650000Y-3683954D01*
X-3645663Y-3688291D01*
X+1402000Y+1252000D02*
X+1450000Y+1300000D01*
X+1400000Y+1252000D01*
X-9121140Y-3417083D02*
X-9122700Y-2968533D01*
X-9122700Y-2732140D01*
D10*
X-9267700Y-2587140D02*
X-9338460Y-2587140D01*
X-9405620Y-2654300D01*
X-9405620Y-4018368D01*
X-10005252Y-4618000D01*
X-9267700Y-2537140D02*
X-9374731Y-2537140D01*
X-9457298Y-2619707D01*
X-9457298Y-3816046D01*
X-10005252Y-4364000D01*
X-9267700Y-2487140D02*
X-9413720Y-2487140D01*
X-9519920Y-2593340D01*
X-9519920Y-3794760D01*
X-9969678Y-4244518D01*
X-10138144Y-4244518D01*
X-10168726Y-4275100D01*
X-10255252Y-4364000D01*
X-9267700Y-2437140D02*
X-9457446Y-2437140D01*
X-9587353Y-2567047D01*
X-9587353Y-3692101D01*
X-10005252Y-4110000D01*
X-9267700Y-2387140D02*
X-9482360Y-2387140D01*
X-9668688Y-2573468D01*
X-9668688Y-3517987D01*
X-9917801Y-3767100D01*
X-10005252Y-3856000D01*
D12*
X-9267700Y-2337140D02*
X-9339017Y-2337140D01*
X-9339018Y-2337140D01*
D10*
X-9515180Y-2337140D01*
X-9745980Y-2567940D01*
X-9745980Y-3090528D01*
X-9916352Y-3260900D01*
X-10005252Y-3348000D01*
X-9267700Y-2337140D02*
X-9339018Y-2337140D01*
X-9267700Y-2287140D02*
X-9569301Y-2287140D01*
X-9822774Y-2540613D01*
X-9822774Y-2657522D01*
X-10005252Y-2840000D01*
X-9267700Y-2087140D02*
X-9488112Y-2087140D01*
X-10005252Y-1570000D01*
X-9267700Y-2037140D02*
X-9415720Y-2037140D01*
X-9809480Y-1643380D01*
X-9809480Y-1511772D01*
X-10005252Y-1316000D01*
X-9265000Y+1890000D02*
X-9909252Y+1890000D01*
X-10005252Y+1986000D01*
X-9265000Y+1940000D02*
X-9702847Y+1940000D01*
X-9884654Y+2121807D01*
X-10112603Y+2121807D01*
X-10166352Y+2068058D01*
X-10255252Y+1986000D01*
X-9265000Y+2040000D02*
X-9471004Y+2040000D01*
X-9787816Y+2356812D01*
X-10148965Y+2356812D01*
X-10176877Y+2328900D01*
X-10255252Y+2240000D01*
X-9265000Y+1990000D02*
X-9592571Y+1990000D01*
X-9842571Y+2240000D01*
X-10005252Y+2240000D01*
X-9265000Y+1540000D02*
X-9549640Y+1540000D01*
X-9804400Y+1285240D01*
X-9804400Y+1170852D01*
X-10005252Y+970000D01*
X-9265000Y+1490000D02*
X-9400866Y+1490000D01*
X-9401023Y+1489843D01*
X-9684512Y+1206354D01*
X-9684512Y+1136629D01*
X-9684512Y+1036740D01*
X-10005252Y+716000D01*
X-9122700Y-1892140D02*
X-9122700Y-1591020D01*
X-9652389Y-1061331D01*
X-10004583Y-1061331D01*
X-10005252Y-1062000D01*
X-9072700Y-1892140D02*
X-9072700Y-1277800D01*
X-9796780Y-553720D01*
X-10004972Y-553720D01*
X-10005252Y-554000D01*
X-9022700Y-1892140D02*
X-9022700Y-992520D01*
X-9714369Y-300851D01*
X-10004401Y-300851D01*
X-10005252Y-300000D01*
X-8972700Y-1892140D02*
X-8972700Y-717400D01*
X-9644380Y-45720D01*
X-10004972Y-45720D01*
X-10005252Y-46000D01*
X-8722700Y-1892140D02*
X-8722700Y-649900D01*
X-9579903Y+207303D01*
X-10004555Y+207303D01*
X-10005252Y+208000D01*
X-8672700Y-1892140D02*
X-8672700Y-321440D01*
X-9456420Y+462280D01*
X-10004972Y+462280D01*
X-10005252Y+462000D01*
D11*
X-9055000Y+955000D02*
X-9080000Y+980000D01*
X-9100000Y+1000000D01*
X-9120000Y+1020000D01*
X-9120000Y+1345000D01*
X-6995972Y-3417083D02*
X-7400000Y-3013055D01*
X-7400000Y-700000D01*
X-9055000Y+955000D01*
X-9120000Y+1345000D02*
X-9100000Y+1345000D01*
X-9080000Y+1345000D01*
D10*
X-9070000Y+1345000D01*
X-7290655Y-760000D02*
X-7290655Y-694145D01*
X-7290655Y-760000D02*
X-7290655Y-1351989D01*
X-7291831Y-1353165D01*
X-9019131Y+1034331D02*
X-9019131Y+1125551D01*
X-9019131Y+1282635D01*
X-9020000Y+1283504D01*
X-9020000Y+1345000D01*
X-7290655Y-694145D02*
X-9019131Y+1034331D01*
X-9020000Y+1283504D02*
X-9020000Y+1165710D01*
X-8970000Y+1345000D02*
X-8970000Y+1080000D01*
X-7223122Y-666878D01*
X-7223122Y-1263046D01*
X-7223176Y-1263100D01*
X-4664763Y-1267950D02*
X-4664763Y-2392763D01*
X-4666000Y-2394000D01*
X-8920000Y+1345000D02*
X-8920000Y+1110000D01*
X-7147339Y-662661D01*
X-7147339Y-1155421D01*
X-7145887Y-1156873D01*
X-4920339Y-1155785D02*
X-4920339Y-2393661D01*
X-4920000Y-2394000D01*
X-6190000Y-870000D02*
X-6726168Y-333832D01*
X-7396167Y-333832D01*
X-8870000Y+1140001D01*
X-8870000Y+1345000D01*
X-5936000Y-870000D02*
X-6683257Y-122743D01*
X-7527257Y-122743D01*
X-8820000Y+1170000D01*
X-8820000Y+1345000D01*
X-8265000Y-5470000D02*
X-8265000Y-4281000D01*
X-8114000Y-4130000D01*
X-9045000Y-6050000D02*
X-9045000Y-6109710D01*
X-9129731Y-6194441D01*
X-9315812Y-6194441D01*
X-9318138Y-6192115D01*
X-9743797Y-5766456D01*
X-9753101Y-5766456D01*
X-10133708Y-5766456D01*
X-10255252Y-5888000D01*
X-8980000Y-6050000D02*
X-8980000Y-6156358D01*
X-9094841Y-6271199D01*
X-9397222Y-6271199D01*
X-9783339Y-5885082D01*
X-10002334Y-5885082D01*
X-10005252Y-5888000D01*
X-8915000Y-6050000D02*
X-8915000Y-6233245D01*
X-9034365Y-6352610D01*
X-9480958Y-6352610D01*
X-9804273Y-6029295D01*
X-9818229Y-6015339D01*
X-10169455Y-6015339D01*
X-10255252Y-6101136D01*
X-10255252Y-6142000D01*
X-8850000Y-6050000D02*
X-8850000Y-6263611D01*
X-9015757Y-6429368D01*
X-9580632Y-6429368D01*
X-9870000Y-6140000D01*
X-10003252Y-6140000D01*
X-10005252Y-6142000D01*
X-8785000Y-6050000D02*
X-8785000Y-6305001D01*
X-8999999Y-6520000D01*
X-9716098Y-6520000D01*
X-9956901Y-6279197D01*
X-10053630Y-6279197D01*
X-10170433Y-6396000D01*
X-10255252Y-6396000D01*
X-8655000Y-6050000D02*
X-8655000Y-6492074D01*
X-8862926Y-6700000D01*
X-9779422Y-6700000D01*
X-9955463Y-6523959D01*
X-10129211Y-6523959D01*
X-10255252Y-6650000D01*
X-8590000Y-6050000D02*
X-8590000Y-6535233D01*
X-8844767Y-6790000D01*
X-9865252Y-6790000D01*
X-10005252Y-6650000D01*
X-8720000Y-6050000D02*
X-8720000Y-6380167D01*
X-8939833Y-6600000D01*
X-9750000Y-6600000D01*
X-9954000Y-6396000D01*
X-10005252Y-6396000D01*
X-8460000Y-6050000D02*
X-8460000Y-6190000D01*
X-8120000Y-6530000D01*
X-7609999Y-6530000D01*
X-6394999Y-5315000D01*
X-1030000Y-5315000D01*
X-7650000Y-5350000D02*
X-7650000Y-5311305D01*
X-7650000Y-4210000D01*
X-8395000Y-6050000D02*
X-8395000Y-6094944D01*
X-8058782Y-6431162D01*
X-7731162Y-6431162D01*
X-7650000Y-6350000D01*
X-7650000Y-5350000D01*
X-7558152Y-8152D02*
X-8670000Y+1103695D01*
X-8670000Y+1345000D01*
X-5808980Y-868680D02*
X-5808980Y-794558D01*
X-5808980Y-529004D01*
X-5810246Y-527738D01*
X-6329832Y-8152D01*
X-6595386Y-8152D01*
X-6791960Y-8152D01*
X-6444000Y-2394000D02*
X-6444000Y-1683385D01*
X-5808980Y-1048365D01*
X-5808980Y-868680D01*
X-6791960Y-8152D02*
X-7558152Y-8152D01*
X-8622700Y-2732140D02*
X-8622700Y-2844577D01*
X-8430872Y-3036405D01*
X-5174000Y-2394000D02*
X-5422585Y-2642585D01*
X-5757360Y-2642585D01*
X-6869213Y-3754438D01*
X-8327309Y-3754438D01*
X-8758674Y-3323074D01*
X-9022700Y-2732140D02*
X-9022700Y-3059048D01*
X-9017032Y-3064716D01*
X-8846634Y-3235114D01*
X-8798044Y-3283704D01*
X-8758674Y-3323074D02*
X-8798044Y-3283704D01*
X-9017032Y-3064716D02*
X-9017032Y-3064715D01*
X-8722700Y-2732140D02*
X-8742680Y-2732140D01*
D11*
X-9100820Y-2732140D02*
X-9100820Y-2684780D01*
X-9095740Y-2679700D01*
X-9122700Y-2732140D02*
X-9100820Y-2732140D01*
X-9096640Y-2732140D01*
X-9094470Y-2732140D02*
X-9094470Y-2734310D01*
X-9094470Y-2780030D01*
X-9090660Y-2783840D01*
X-9096640Y-2732140D02*
X-9094470Y-2734310D01*
X-9093200Y-2735580D01*
D10*
X-9096640Y-2732140D02*
X-9094470Y-2732140D01*
X-9072700Y-2732140D01*
D13*
X-8620000Y+1325880D02*
X-8620000Y+1345000D01*
X-8770000Y+1457768D02*
X-8770000Y+1422470D01*
X-8770000Y+1345000D01*
X-8620000Y+1325880D02*
X-8620000Y+1187960D01*
X-7538799Y+106759D01*
X-7460468Y+106759D01*
X-8770000Y+1457768D02*
X-8770000Y+1422470D01*
X-8770000Y+1345000D01*
X-8720000Y+1345000D02*
X-8720000Y+1478978D01*
X-8691880Y+1507098D01*
X-8745220Y+1345000D02*
X-8745220Y+1482548D01*
X-8745220Y+1509416D01*
X-8745681Y+1509877D01*
X-8770000Y+1345000D02*
X-8745220Y+1345000D01*
X-8720000Y+1345000D01*
X-8745220Y+1482548D02*
X-8770000Y+1457768D01*
X-8669020Y+1507098D02*
X-8691880Y+1507098D01*
X-8702607Y+1507098D01*
X-8762355Y+1566846D01*
X-8702607Y+1507098D02*
X-8720670Y+1507098D01*
X-8745220Y+1482548D01*
X-8772700Y-2443940D02*
X-8773160Y-2443480D01*
X-8797290Y-2419350D01*
X-8772700Y-2732140D02*
X-8772700Y-2443940D01*
X-8797290Y-2419350D02*
X-8872700Y-2343940D01*
X-8872700Y-1892140D01*
X-8686800Y-2529840D02*
X-8772700Y-2443940D01*
X-8710930Y-2553970D02*
X-8662670Y-2553970D01*
X-8710930Y-2553970D02*
X-8686800Y-2529840D01*
X-8662670Y-2553970D02*
X-8686800Y-2529840D01*
D10*
X-8742680Y-2732140D02*
X-8747760Y-2732140D01*
X-8772700Y-2732140D01*
D13*
X-8747760Y-2608580D02*
X-8747760Y-2553686D01*
X-8714987Y-2520913D01*
X-8747760Y-2732140D02*
X-8747760Y-2608580D01*
X-8747760Y-2553686D02*
X-8747760Y-2499360D01*
X-8740140Y-2491740D01*
X-8722700Y-2595880D02*
X-8697670Y-2595880D01*
X-8627110Y-2589530D02*
X-8662670Y-2553970D01*
X-8697670Y-2595880D02*
X-8678366Y-2576576D01*
X-8622700Y-2641600D02*
X-8630011Y-2634285D01*
D10*
X-8637076Y-2627220D01*
D13*
X-8668420Y-2595880D02*
X-8672202Y-2595880D01*
X-8697670Y-2595880D02*
X-8672202Y-2595880D01*
X-8668420Y-2595880D02*
X-8633460Y-2595880D01*
X-8627110Y-2589530D01*
X-8622700Y-2732140D02*
X-8622700Y-2641600D01*
X-8622700Y-2593940D01*
X-8627110Y-2589530D01*
X-8737600Y-2613660D02*
X-8722700Y-2613660D01*
X-8715450Y-2613660D01*
X-8650638Y-2613660D02*
X-8637087Y-2613660D01*
X-8633020Y-2609593D01*
X-8722700Y-2620910D02*
X-8715450Y-2613660D01*
X-8697670Y-2595880D01*
X-8722700Y-2620910D02*
X-8722700Y-2613660D01*
X-8722700Y-2595880D01*
X-8637076Y-2627220D02*
X-8650638Y-2613660D01*
X-8722700Y-2651760D02*
X-8722700Y-2640960D01*
X-8695400Y-2613660D01*
X-8678590Y-2596850D01*
X-8667450Y-2596850D01*
X-8715450Y-2613660D02*
X-8695400Y-2613660D01*
X-8650638Y-2613660D01*
X-8667450Y-2596850D01*
X-8668420Y-2595880D01*
X-8722700Y-2732140D02*
X-8722700Y-2651760D01*
X-8722700Y-2640960D02*
X-8722700Y-2620910D01*
D14*
X+8300000Y-2938265D02*
X+8663268Y-2574997D01*
X+8663268Y-2102617D01*
X+7960651Y-1400000D01*
X+7240000Y-1400000D01*
X+8300000Y-2400000D02*
X+7826867Y-2400000D01*
X+7232206Y-2994661D01*
X+7232206Y-3412206D01*
X+7240000Y-3420000D01*
X+2680000Y-2420000D02*
X+2800000Y-2540000D01*
X+2800000Y-4600000D01*
X+2680000Y-2420000D02*
X+3538000Y-1562000D01*
X+3538000Y+40000D01*
X+2680000Y-1400000D02*
X+3030000Y-1050000D01*
X+3030000Y+40000D01*
X+2680000Y-1400000D02*
X+2680000Y-700000D01*
X+2073346Y-93346D01*
X+1483346Y-93346D01*
X+2680000Y-1400000D02*
X+2400000Y-1680000D01*
X+2400000Y-3700000D01*
X+2680000Y-2420000D02*
X+2680000Y-2100000D01*
X+2570000Y-1990000D01*
X+1503296Y-1991979D02*
X+1021979Y-1991979D01*
X+796451Y-1991979D01*
X+556565Y-1752093D01*
X+556565Y-1593435D01*
X+590000Y-1560000D01*
X+844000Y-1560000D02*
X+1076000Y-1560000D01*
X+1756000Y-880000D01*
X+1229346Y-353346D01*
X+1229346Y-93346D01*
X+740000Y-880000D02*
X+975346Y-644654D01*
X+975346Y-93346D01*
X+2412000Y+1476000D02*
X+2188000Y+1700000D01*
X+1400000Y+1700000D01*
X-590000Y+1252000D02*
X+1273000Y+1252000D01*
X+1400000Y+1252000D01*
X+1402000Y+1252000D01*
X+422000Y+1476000D02*
X+198000Y+1700000D01*
X-590000Y+1700000D01*
X-694000Y-30000D02*
X-894618Y+170618D01*
X-894618Y+1395382D01*
X-590000Y+1700000D01*
X-810654Y-1707346D02*
X-810654Y-146654D01*
X-694000Y-30000D01*
X-200000Y-1906000D02*
X-200000Y-1198000D01*
X-220000Y-1178000D01*
X-200000Y-1906000D02*
X+146000Y-1560000D01*
X+590000Y-1560000D01*
X+1229346Y-93346D02*
X+1229346Y+608059D01*
D11*
X+1227405Y+610000D01*
D14*
X+975346Y-93346D02*
X+975346Y+411263D01*
X+978935Y+414852D01*
X+1733390Y+423235D02*
X+1733390Y+1366610D01*
X+1400000Y+1700000D01*
X+1483346Y-93346D02*
X+1483346Y+587728D01*
X+1247186Y+823888D01*
X+61384Y+823888D01*
X-186000Y+576504D01*
X-186000Y-30000D01*
D11*
X+1247186Y+823888D02*
X+1270092Y+823888D01*
X+1461091Y+632889D01*
X+1495300Y+598680D01*
X+1495300Y+8254D01*
X+1483346Y-93346D01*
D14*
X-220000Y-670000D02*
X-220000Y-77308D01*
X-179346Y-36654D01*
X-185372Y-30628D01*
X-186000Y-30000D01*
X-7460468Y+106759D02*
X-6136261Y+106759D01*
X-5959645Y+283375D01*
X-4890903Y+285445D02*
X-3403617Y+285445D01*
D11*
X-3404176Y+286004D01*
X-4890344Y+286004D01*
X-4890903Y+285445D01*
D14*
X-2350000Y+200000D02*
X-3318172Y+200000D01*
X-3403617Y+285445D01*
X-8400000Y+100000D02*
X-7529437Y-770563D01*
X-7529437Y-2311405D01*
X-8250566Y-3032534D01*
X-8430872Y-3032534D01*
X-6103790Y+610000D02*
X-8749790Y+3256000D01*
X-10005252Y+3256000D01*
X-810654Y-2723346D02*
X-1566654Y-2723346D01*
X-2470000Y-1820000D01*
X-2470000Y-799014D01*
X-3095299Y-173715D01*
X-4828005Y-173715D01*
X-5907609Y+905889D01*
X-8513971Y+3512251D01*
X-10091631Y+3512251D01*
X-10255252Y+3348630D01*
X-10255252Y+3256000D01*
X-8722700Y-2565740D02*
X-8714405Y-2574035D01*
D13*
X-8722700Y-2595880D02*
X-8722700Y-2565740D01*
X-8710930Y-2553970D01*
X-8620000Y+1420000D02*
X-8620000Y+1480070D01*
X-8620000Y+1562352D01*
X-8770000Y+1712352D01*
X-8808824Y+1751176D01*
X-8870000Y+2185000D02*
X-8870000Y+1812353D01*
X-8867066Y+1809419D01*
X-8808824Y+1751176D01*
X-8770000Y+1712352D02*
X-8770000Y+1712353D01*
X-8770000Y+1457768D01*
X-8620000Y+1345000D02*
X-8620000Y+1420000D01*
X-8634965Y+1495035D02*
X-8634965Y+1534965D01*
X-8760000Y+1660000D01*
X-8620000Y+1480070D02*
X-8624796Y+1484866D01*
X-8634965Y+1495035D01*
X-8647028Y+1507098D02*
X-8653327Y+1507098D01*
X-8758748Y+1612519D01*
X-8634965Y+1495035D02*
X-8647028Y+1507098D01*
X-8653327Y+1507098D02*
X-8669020Y+1507098D01*
D10*
X-8265000Y-6050000D02*
X-8265000Y-6115001D01*
X-8065617Y-6314384D01*
X-7830000Y-6314384D01*
X-1030000Y-5120000D02*
X-1280000Y-5120000D01*
X-1515637Y-4884363D01*
X-1515637Y-4089760D01*
D11*
X-1200000Y-4600000D02*
X-1200000Y-4930000D01*
X-1075000Y-5055000D01*
X-1030000Y-5055000D01*
D10*
X+900000Y-5255000D02*
X+575000Y-5255000D01*
X+237428Y-4917428D01*
X+237428Y-3826564D01*
X+237864Y-3826128D01*
X+900000Y-5190000D02*
X+669999Y-5190000D01*
X+415702Y-4935703D01*
X+415702Y-3968569D01*
X+414834Y-3967701D01*
X+900000Y-5125000D02*
X+724999Y-5125000D01*
X+507307Y-4907308D01*
X+507307Y-4084578D01*
D11*
X+900000Y-5060000D02*
X+840000Y-5060000D01*
X+700000Y-4920000D01*
X+700000Y-4600000D01*
D10*
X-1360994Y-6280994D02*
X-1432267Y-6209721D01*
X-1432267Y-5824875D01*
X-1312392Y-5705000D01*
X-1226718Y-5705000D01*
X-1030000Y-5705000D02*
X-1226718Y-5705000D01*
X-1360994Y-6280994D02*
X-1290471Y-6351517D01*
X-1290471Y-6512781D01*
X-1153252Y-6650000D01*
X-1418626Y-6388626D02*
X-1532594Y-6274658D01*
X-1532594Y-5790617D01*
X-1381977Y-5640000D01*
X-1290000Y-5640000D01*
X-1030000Y-5640000D02*
X-1290000Y-5640000D01*
X-1418626Y-6388626D02*
X-1407252Y-6400000D01*
X-1633060Y-6263060D02*
X-1642710Y-6253410D01*
X-1642710Y-5744124D01*
X-1473586Y-5575000D01*
X-1030000Y-5575000D02*
X-1473586Y-5575000D01*
X-1633060Y-6263060D02*
X-1544500Y-6351621D01*
X-1544500Y-6512752D01*
X-1407252Y-6650000D01*
X-1695626Y-6365626D02*
X-1745484Y-6315768D01*
X-1745484Y-5714760D01*
X-1540724Y-5510000D01*
X-1464078Y-5510000D01*
X-1030000Y-5510000D02*
X-1464078Y-5510000D01*
X-1695626Y-6365626D02*
X-1661252Y-6400000D01*
X-1735626Y-6575626D02*
X-1853153Y-6458099D01*
X-1853153Y-5678054D01*
X-1620099Y-5445000D01*
X-1530000Y-5445000D01*
X-1030000Y-5445000D02*
X-1530000Y-5445000D01*
X-1735626Y-6575626D02*
X-1661252Y-6650000D01*
X-450000Y-5315000D02*
X-29415Y-5315000D01*
X+8825Y-5276760D01*
X+426760Y-5276760D01*
X+470000Y-5320000D01*
X+900000Y-5320000D01*
X+1132748Y-6400000D02*
X+1132748Y-6016668D01*
X+1021080Y-5905000D01*
X+900000Y-5905000D01*
X+1480000Y-5905000D02*
X+1395000Y-5905000D01*
X+1310000Y-5990000D01*
X+1268944Y-6031056D01*
X+1268944Y-6331056D01*
X+1268944Y-6366149D01*
X+1268944Y-6532196D01*
X+1386748Y-6650000D01*
X-762106Y-6370000D02*
X-762106Y-6312106D01*
X-762106Y-6057933D01*
X-632636Y-5928463D01*
X-604173Y-5900000D01*
X-450000Y-5900000D01*
X-762106Y-6370000D02*
X-762106Y-6533146D01*
X-645252Y-6650000D01*
X-899252Y-6400000D02*
X-899252Y-6353524D01*
X-899252Y-5950748D01*
X-950000Y-5900000D01*
X-1030000Y-5900000D01*
X-1049003Y-5900000D01*
X-1050000Y-5900997D01*
X-1030997Y-5900997D01*
X-1030000Y-5900000D01*
X+3286227Y-6330000D02*
X+3286227Y-6271160D01*
X+3286227Y-5991397D01*
X+3410866Y-5866758D01*
X+3462624Y-5815000D01*
X+3610000Y-5815000D01*
X+3286227Y-6330000D02*
X+3286227Y-6517479D01*
X+3418748Y-6650000D01*
X+3162131Y-6310000D02*
X+3162131Y-6216989D01*
X+3162131Y-5994163D01*
X+3160911Y-5992943D01*
X+3160911Y-5884086D01*
X+3125725Y-5848900D01*
X+3091825Y-5815000D01*
X+3030000Y-5815000D01*
X+3162131Y-6310000D02*
X+3162131Y-6397383D01*
X+3164748Y-6400000D01*
X+3610000Y-5360000D02*
X+3957966Y-5360000D01*
X+4310000Y-5712034D01*
X+4310000Y-6270748D01*
X+4180748Y-6400000D01*
X+5320501Y-6290000D02*
X+5320501Y-6196668D01*
X+5320501Y-5888968D01*
X+5353407Y-5856062D01*
X+5454469Y-5755000D01*
X+5560000Y-5755000D01*
X+5320501Y-6290000D02*
X+5320501Y-6519753D01*
X+5450748Y-6650000D01*
X+5196748Y-6400000D02*
X+5196748Y-5867745D01*
X+5163609Y-5834606D01*
X+5084003Y-5755000D01*
X+4980000Y-5755000D01*
X+7365936Y-6350000D02*
X+7365936Y-6305417D01*
X+7365936Y-6130185D01*
X+7449220Y-6046901D01*
X+7511121Y-5985000D01*
X+7670000Y-5985000D01*
X+7365936Y-6350000D02*
X+7365936Y-6533188D01*
X+7482748Y-6650000D01*
X+7228748Y-6400000D02*
X+7228748Y-6328748D01*
X+7228748Y-6058748D01*
X+7190000Y-6020000D01*
X+7155000Y-5985000D01*
X+7090000Y-5985000D01*
X+7090000Y-5855000D02*
X+6825728Y-5855000D01*
X+6764739Y-5915989D01*
X+6764739Y-6124740D01*
X+6974748Y-6334749D01*
X+6974748Y-6400000D01*
D15*
X-8000000Y-5600000D03*
X-9200000Y-5600000D03*
X+334051Y-5374918D03*
X+2350000Y-5300000D03*
X+4502224Y-5232752D03*
X+7090000Y-3970000D03*
X+8010000Y-4220000D03*
X+6289287Y-5165746D03*
X+6586585Y-5164222D03*
X+6000000Y-4210000D03*
X+4468614Y-3964455D03*
X+4336349Y-3825198D03*
X+3933258Y-4210711D03*
X+2411447Y-3962708D03*
X+2274468Y-3826024D03*
X-2201233Y-5504834D03*
X+1845451Y-4209125D03*
X-1606369Y-5187061D03*
X-1610000Y-5030000D03*
X-1762096Y-5246236D03*
X-1767421Y-5041227D03*
X-1766719Y-3825321D03*
X+697161Y-3038265D03*
X+0Y-4210000D03*
X-1608035Y-3963997D03*
X-3201490Y-3042567D03*
X-7932415Y-3960705D03*
X-2998651Y-3964088D03*
X-2901481Y-4210373D03*
X-2799066Y-3827069D03*
X-8400000Y+100000D03*
X-8300158Y-3984869D03*
X+7750000Y-3830000D03*
X+6436682Y-5464077D03*
X+6483839Y-4083882D03*
X+4608378Y-4078798D03*
X+2540000Y-4080000D03*
X-3131825Y-4086829D03*
X+2400000Y-3700000D03*
X+5679679Y-3702008D03*
X+1479095Y-3701045D03*
X-4890903Y+285445D03*
X-5959645Y+283375D03*
X-3650000Y-3420000D03*
X-453291Y-3688191D03*
X-6400000Y-3700000D03*
X-7500000Y-6000000D03*
X-8000000Y-6000000D03*
X+7850695Y-3698774D03*
X+3700000Y-3700000D03*
X-7291831Y-1353165D03*
X-4408167Y-1352577D03*
X-4704503Y-625636D03*
X-2105843Y-613904D03*
X-2239292Y-1086541D03*
X-6445023Y-1083311D03*
X-1850000Y-1740000D03*
X-6953789Y-1738863D03*
X-1956907Y-1485201D03*
X-6698474Y-1485396D03*
X-6952416Y-1588546D03*
X-1600000Y-1590000D03*
X+1503296Y-1991979D03*
X+2570000Y-1990000D03*
X+1227405Y+610000D03*
X-6103790Y+610000D03*
X-3645663Y-3688291D03*
X-6995972Y-3417083D03*
X-9121140Y-3417083D03*
X-7223176Y-1263100D03*
X-4664763Y-1267950D03*
X-7145887Y-1156873D03*
X-4920339Y-1155785D03*
X-7650000Y-4210000D03*
X-8430872Y-3036405D03*
X-7460468Y+106759D03*
X+978935Y+414852D03*
X+1733390Y+423235D03*
X-1515637Y-4089760D03*
X+237864Y-3826128D03*
X+414834Y-3967701D03*
X+507307Y-4084578D03*
D16*
X-1661252Y-6400000D03*
X-1407252Y-6400000D03*
X-1153252Y-6400000D03*
X-899252Y-6400000D03*
X-645252Y-6400000D03*
X-391252Y-6400000D03*
X-137252Y-6400000D03*
X+116748Y-6400000D03*
X+370748Y-6400000D03*
X+624748Y-6400000D03*
X+878748Y-6400000D03*
X+1132748Y-6400000D03*
X+1386748Y-6400000D03*
X+1640748Y-6400000D03*
X+1894748Y-6400000D03*
X+2148748Y-6400000D03*
X+2402748Y-6400000D03*
X+2656748Y-6400000D03*
X+2910748Y-6400000D03*
X+3164748Y-6400000D03*
X+3418748Y-6400000D03*
X+3672748Y-6400000D03*
X+3926748Y-6400000D03*
X+4180748Y-6400000D03*
X+4434748Y-6400000D03*
X+4688748Y-6400000D03*
X+4942748Y-6400000D03*
X+5196748Y-6400000D03*
X+5450748Y-6400000D03*
X+5704748Y-6400000D03*
X+5958748Y-6400000D03*
X+6212748Y-6400000D03*
X+6466748Y-6400000D03*
X+6720748Y-6400000D03*
X+6974748Y-6400000D03*
X+7228748Y-6400000D03*
X+7482748Y-6400000D03*
X+7736748Y-6400000D03*
X+7990748Y-6400000D03*
X+8244748Y-6400000D03*
X+8244748Y-6650000D03*
X+7990748Y-6650000D03*
X+7736748Y-6650000D03*
X+7482748Y-6650000D03*
X+7228748Y-6650000D03*
X+6974748Y-6650000D03*
X+6720748Y-6650000D03*
X+6466748Y-6650000D03*
X+6212748Y-6650000D03*
X+5958748Y-6650000D03*
X+5704748Y-6650000D03*
X+5450748Y-6650000D03*
X+5196748Y-6650000D03*
X+4942748Y-6650000D03*
X+4688748Y-6650000D03*
X+4434748Y-6650000D03*
X+4180748Y-6650000D03*
X+3926748Y-6650000D03*
X+3672748Y-6650000D03*
X+3418748Y-6650000D03*
X+3164748Y-6650000D03*
X+2910748Y-6650000D03*
X+2656748Y-6650000D03*
X+2402748Y-6650000D03*
X+2148748Y-6650000D03*
X+1894748Y-6650000D03*
X+1640748Y-6650000D03*
X+1386748Y-6650000D03*
X+1132748Y-6650000D03*
X+878748Y-6650000D03*
X+624748Y-6650000D03*
X+370748Y-6650000D03*
X+116748Y-6650000D03*
X-137252Y-6650000D03*
X-391252Y-6650000D03*
X-645252Y-6650000D03*
X-899252Y-6650000D03*
X-1153252Y-6650000D03*
X-1407252Y-6650000D03*
X-1661252Y-6650000D03*
X-10005252Y+3256000D03*
X-10005252Y+3002000D03*
X-10005252Y+2748000D03*
X-10005252Y+2494000D03*
X-10005252Y+2240000D03*
X-10005252Y+1986000D03*
X-10005252Y+1732000D03*
X-10005252Y+1478000D03*
X-10005252Y+1224000D03*
X-10005252Y+970000D03*
X-10005252Y+716000D03*
X-10005252Y+462000D03*
X-10005252Y+208000D03*
X-10005252Y-46000D03*
X-10005252Y-300000D03*
X-10005252Y-554000D03*
X-10005252Y-808000D03*
X-10005252Y-1062000D03*
X-10005252Y-1316000D03*
X-10005252Y-1570000D03*
X-10005252Y-1824000D03*
X-10005252Y-2078000D03*
X-10005252Y-2332000D03*
X-10005252Y-2586000D03*
X-10005252Y-2840000D03*
X-10005252Y-3094000D03*
X-10005252Y-3348000D03*
X-10005252Y-3602000D03*
X-10005252Y-3856000D03*
X-10005252Y-4110000D03*
X-10005252Y-4364000D03*
X-10005252Y-4618000D03*
X-10005252Y-4872000D03*
X-10005252Y-5126000D03*
X-10005252Y-5380000D03*
X-10005252Y-5634000D03*
X-10005252Y-5888000D03*
X-10005252Y-6142000D03*
X-10005252Y-6396000D03*
X-10005252Y-6650000D03*
X-10255252Y-6650000D03*
X-10255252Y-6396000D03*
X-10255252Y-6142000D03*
X-10255252Y-5888000D03*
X-10255252Y-5634000D03*
X-10255252Y-5380000D03*
X-10255252Y-5126000D03*
X-10255252Y-4872000D03*
X-10255252Y-4618000D03*
X-10255252Y-4364000D03*
X-10255252Y-4110000D03*
X-10255252Y-3856000D03*
X-10255252Y-3602000D03*
X-10255252Y-3348000D03*
X-10255252Y-3094000D03*
X-10255252Y-2840000D03*
X-10255252Y-2586000D03*
X-10255252Y-2332000D03*
X-10255252Y-2078000D03*
X-10255252Y-1824000D03*
X-10255252Y-1570000D03*
X-10255252Y-1316000D03*
X-10255252Y-1062000D03*
X-10255252Y-808000D03*
X-10255252Y-554000D03*
X-10255252Y-300000D03*
X-10255252Y-46000D03*
X-10255252Y+208000D03*
X-10255252Y+462000D03*
X-10255252Y+716000D03*
X-10255252Y+970000D03*
X-10255252Y+1224000D03*
X-10255252Y+1478000D03*
X-10255252Y+1732000D03*
X-10255252Y+1986000D03*
X-10255252Y+2240000D03*
X-10255252Y+2494000D03*
X-10255252Y+2748000D03*
X-10255252Y+3002000D03*
X-10255252Y+3256000D03*
D17*
X-3650000Y-870000D03*
X-3904000Y-870000D03*
X-4158000Y-870000D03*
X-4412000Y-870000D03*
X-4666000Y-870000D03*
X-4920000Y-870000D03*
X-5174000Y-870000D03*
X-5428000Y-870000D03*
X-5682000Y-870000D03*
X-5936000Y-870000D03*
X-6190000Y-870000D03*
X-6444000Y-870000D03*
X-6698000Y-870000D03*
X-6952000Y-870000D03*
X-6952000Y-2394000D03*
X-6698000Y-2394000D03*
X-6444000Y-2394000D03*
X-6190000Y-2394000D03*
X-5936000Y-2394000D03*
X-5682000Y-2394000D03*
X-5428000Y-2394000D03*
X-5174000Y-2394000D03*
X-4920000Y-2394000D03*
X-4666000Y-2394000D03*
X-4412000Y-2394000D03*
X-4158000Y-2394000D03*
X-3904000Y-2394000D03*
X-3650000Y-2394000D03*
D18*
X-9267700Y-2037140D03*
X-9267700Y-2087140D03*
X-9267700Y-2137140D03*
X-9267700Y-2187140D03*
X-9267700Y-2237140D03*
X-9267700Y-2287140D03*
X-9267700Y-2337140D03*
X-9267700Y-2387140D03*
X-9267700Y-2437140D03*
X-9267700Y-2487140D03*
X-9267700Y-2537140D03*
X-9267700Y-2587140D03*
D19*
X-9122700Y-2732140D03*
X-9072700Y-2732140D03*
X-9022700Y-2732140D03*
X-8972700Y-2732140D03*
X-8922700Y-2732140D03*
X-8872700Y-2732140D03*
X-8822700Y-2732140D03*
X-8772700Y-2732140D03*
X-8722700Y-2732140D03*
X-8672700Y-2732140D03*
X-8622700Y-2732140D03*
X-8572700Y-2732140D03*
D18*
X-8427700Y-2587140D03*
X-8427700Y-2537140D03*
X-8427700Y-2487140D03*
X-8427700Y-2437140D03*
X-8427700Y-2387140D03*
X-8427700Y-2337140D03*
X-8427700Y-2287140D03*
X-8427700Y-2237140D03*
X-8427700Y-2187140D03*
X-8427700Y-2137140D03*
X-8427700Y-2087140D03*
X-8427700Y-2037140D03*
D19*
X-8572700Y-1892140D03*
X-8622700Y-1892140D03*
X-8672700Y-1892140D03*
X-8722700Y-1892140D03*
X-8772700Y-1892140D03*
X-8822700Y-1892140D03*
X-8872700Y-1892140D03*
X-8922700Y-1892140D03*
X-8972700Y-1892140D03*
X-9022700Y-1892140D03*
X-9072700Y-1892140D03*
X-9122700Y-1892140D03*
D18*
X-9265000Y+2040000D03*
X-9265000Y+1990000D03*
X-9265000Y+1940000D03*
X-9265000Y+1890000D03*
X-9265000Y+1840000D03*
X-9265000Y+1790000D03*
X-9265000Y+1740000D03*
X-9265000Y+1690000D03*
X-9265000Y+1640000D03*
X-9265000Y+1590000D03*
X-9265000Y+1540000D03*
X-9265000Y+1490000D03*
D19*
X-9120000Y+1345000D03*
X-9070000Y+1345000D03*
X-9020000Y+1345000D03*
X-8970000Y+1345000D03*
X-8920000Y+1345000D03*
X-8870000Y+1345000D03*
X-8820000Y+1345000D03*
X-8770000Y+1345000D03*
X-8720000Y+1345000D03*
X-8670000Y+1345000D03*
X-8620000Y+1345000D03*
X-8570000Y+1345000D03*
D18*
X-8425000Y+1490000D03*
X-8425000Y+1540000D03*
X-8425000Y+1590000D03*
X-8425000Y+1640000D03*
X-8425000Y+1690000D03*
X-8425000Y+1740000D03*
X-8425000Y+1790000D03*
X-8425000Y+1840000D03*
X-8425000Y+1890000D03*
X-8425000Y+1940000D03*
X-8425000Y+1990000D03*
X-8425000Y+2040000D03*
D19*
X-8570000Y+2185000D03*
X-8620000Y+2185000D03*
X-8670000Y+2185000D03*
X-8720000Y+2185000D03*
X-8770000Y+2185000D03*
X-8820000Y+2185000D03*
X-8870000Y+2185000D03*
X-8920000Y+2185000D03*
X-8970000Y+2185000D03*
X-9020000Y+2185000D03*
X-9070000Y+2185000D03*
X-9120000Y+2185000D03*
D70*
X-8200000Y-5470000D03*
X-8265000Y-5470000D03*
X-8330000Y-5470000D03*
X-8395000Y-5470000D03*
X-8460000Y-5470000D03*
X-8525000Y-5470000D03*
X-8590000Y-5470000D03*
X-8655000Y-5470000D03*
X-8720000Y-5470000D03*
X-8785000Y-5470000D03*
X-8850000Y-5470000D03*
X-8915000Y-5470000D03*
X-8980000Y-5470000D03*
X-9045000Y-5470000D03*
X-9045000Y-6050000D03*
X-8980000Y-6050000D03*
X-8915000Y-6050000D03*
X-8850000Y-6050000D03*
X-8785000Y-6050000D03*
X-8720000Y-6050000D03*
X-8655000Y-6050000D03*
X-8590000Y-6050000D03*
X-8525000Y-6050000D03*
X-8460000Y-6050000D03*
X-8395000Y-6050000D03*
X-8330000Y-6050000D03*
X-8265000Y-6050000D03*
X-8200000Y-6050000D03*
D71*
X-1030000Y-5055000D03*
X-1030000Y-5120000D03*
X-1030000Y-5185000D03*
X-1030000Y-5250000D03*
X-1030000Y-5315000D03*
X-1030000Y-5380000D03*
X-1030000Y-5445000D03*
X-1030000Y-5510000D03*
X-1030000Y-5575000D03*
X-1030000Y-5640000D03*
X-1030000Y-5705000D03*
X-1030000Y-5770000D03*
X-1030000Y-5835000D03*
X-1030000Y-5900000D03*
X-450000Y-5900000D03*
X-450000Y-5835000D03*
X-450000Y-5770000D03*
X-450000Y-5705000D03*
X-450000Y-5640000D03*
X-450000Y-5575000D03*
X-450000Y-5510000D03*
X-450000Y-5445000D03*
X-450000Y-5380000D03*
X-450000Y-5315000D03*
X-450000Y-5250000D03*
X-450000Y-5185000D03*
X-450000Y-5120000D03*
X-450000Y-5055000D03*
X+900000Y-5060000D03*
X+900000Y-5125000D03*
X+900000Y-5190000D03*
X+900000Y-5255000D03*
X+900000Y-5320000D03*
X+900000Y-5385000D03*
X+900000Y-5450000D03*
X+900000Y-5515000D03*
X+900000Y-5580000D03*
X+900000Y-5645000D03*
X+900000Y-5710000D03*
X+900000Y-5775000D03*
X+900000Y-5840000D03*
X+900000Y-5905000D03*
X+1480000Y-5905000D03*
X+1480000Y-5840000D03*
X+1480000Y-5775000D03*
X+1480000Y-5710000D03*
X+1480000Y-5645000D03*
X+1480000Y-5580000D03*
X+1480000Y-5515000D03*
X+1480000Y-5450000D03*
X+1480000Y-5385000D03*
X+1480000Y-5320000D03*
X+1480000Y-5255000D03*
X+1480000Y-5190000D03*
X+1480000Y-5125000D03*
X+1480000Y-5060000D03*
X+3030000Y-4970000D03*
X+3030000Y-5035000D03*
X+3030000Y-5100000D03*
X+3030000Y-5165000D03*
X+3030000Y-5230000D03*
X+3030000Y-5295000D03*
X+3030000Y-5360000D03*
X+3030000Y-5425000D03*
X+3030000Y-5490000D03*
X+3030000Y-5555000D03*
X+3030000Y-5620000D03*
X+3030000Y-5685000D03*
X+3030000Y-5750000D03*
X+3030000Y-5815000D03*
X+3610000Y-5815000D03*
X+3610000Y-5750000D03*
X+3610000Y-5685000D03*
X+3610000Y-5620000D03*
X+3610000Y-5555000D03*
X+3610000Y-5490000D03*
X+3610000Y-5425000D03*
X+3610000Y-5360000D03*
X+3610000Y-5295000D03*
X+3610000Y-5230000D03*
X+3610000Y-5165000D03*
X+3610000Y-5100000D03*
X+3610000Y-5035000D03*
X+3610000Y-4970000D03*
X+4980000Y-4910000D03*
X+4980000Y-4975000D03*
X+4980000Y-5040000D03*
X+4980000Y-5105000D03*
X+4980000Y-5170000D03*
X+4980000Y-5235000D03*
X+4980000Y-5300000D03*
X+4980000Y-5365000D03*
X+4980000Y-5430000D03*
X+4980000Y-5495000D03*
X+4980000Y-5560000D03*
X+4980000Y-5625000D03*
X+4980000Y-5690000D03*
X+4980000Y-5755000D03*
X+5560000Y-5755000D03*
X+5560000Y-5690000D03*
X+5560000Y-5625000D03*
X+5560000Y-5560000D03*
X+5560000Y-5495000D03*
X+5560000Y-5430000D03*
X+5560000Y-5365000D03*
X+5560000Y-5300000D03*
X+5560000Y-5235000D03*
X+5560000Y-5170000D03*
X+5560000Y-5105000D03*
X+5560000Y-5040000D03*
X+5560000Y-4975000D03*
X+5560000Y-4910000D03*
X+7090000Y-5140000D03*
X+7090000Y-5205000D03*
X+7090000Y-5270000D03*
X+7090000Y-5335000D03*
X+7090000Y-5400000D03*
X+7090000Y-5465000D03*
X+7090000Y-5530000D03*
X+7090000Y-5595000D03*
X+7090000Y-5660000D03*
X+7090000Y-5725000D03*
X+7090000Y-5790000D03*
X+7090000Y-5855000D03*
X+7090000Y-5920000D03*
X+7090000Y-5985000D03*
X+7670000Y-5985000D03*
X+7670000Y-5920000D03*
X+7670000Y-5855000D03*
X+7670000Y-5790000D03*
X+7670000Y-5725000D03*
X+7670000Y-5660000D03*
X+7670000Y-5595000D03*
X+7670000Y-5530000D03*
X+7670000Y-5465000D03*
X+7670000Y-5400000D03*
X+7670000Y-5335000D03*
X+7670000Y-5270000D03*
X+7670000Y-5205000D03*
X+7670000Y-5140000D03*
D16*
X-9130000Y-4130000D03*
X-8114000Y-4130000D03*
X-7830000Y-5298384D03*
X-7830000Y-6314384D03*
X-1200000Y-4600000D03*
X-184000Y-4600000D03*
X+700000Y-4600000D03*
X+1716000Y-4600000D03*
X+2800000Y-4600000D03*
X+3816000Y-4600000D03*
X+4800000Y-4600000D03*
X+5816000Y-4600000D03*
X+6800000Y-4600000D03*
X+7816000Y-4600000D03*
D20*
X-694000Y-30000D03*
X-440000Y-30000D03*
X-186000Y-30000D03*
X+975346Y-93346D03*
X+1229346Y-93346D03*
X+1483346Y-93346D03*
D16*
X-810654Y-2723346D03*
X-810654Y-1707346D03*
D20*
X+8300000Y-2400000D03*
X+8300000Y-2938265D03*
D21*
X+7240000Y-1400000D03*
X+7240000Y-3420000D03*
X+2680000Y-1400000D03*
X+2680000Y-2420000D03*
D22*
X-1600000Y+200000D03*
X-1850000Y+200000D03*
X-2100000Y+200000D03*
X-2350000Y+200000D03*
X-2100000Y+450000D03*
X-1850000Y+450000D03*
X-1600000Y+450000D03*
X-2350000Y+450000D03*
D23*
X-590000Y+1252000D03*
X-590000Y+1700000D03*
X+422000Y+1476000D03*
D16*
X+3030000Y+40000D03*
X+3538000Y+40000D03*
X-220000Y-670000D03*
X-220000Y-1178000D03*
X+1756000Y-880000D03*
X+740000Y-880000D03*
D24*
X-200000Y-2160000D03*
X-200000Y-1906000D03*
X+844000Y-1560000D03*
X+590000Y-1560000D03*
D23*
X+1400000Y+1252000D03*
X+1400000Y+1700000D03*
X+2412000Y+1476000D03*
D25*
X-10500000Y-7200000D02*
X-10551117Y-7195026D01*
X-10598389Y-7180713D01*
X-10640900Y-7157977D01*
X-10677734Y-7127734D01*
X-10707977Y-7090900D01*
X-10730713Y-7048389D01*
X-10745026Y-7001117D01*
X-10750000Y-6950000D01*
X-10750000Y+3550000D02*
X-10745026Y+3601117D01*
X-10730713Y+3648389D01*
X-10707977Y+3690900D01*
X-10677734Y+3727734D01*
X-10640900Y+3757977D01*
X-10598389Y+3780713D01*
X-10551117Y+3795026D01*
X-10500000Y+3800000D01*
X-5250000Y+800000D02*
X-8200000Y+3800000D01*
X+3800000Y+100000D02*
X+3050000Y+850000D01*
X-1300000Y+800000D02*
X-1248883Y+804974D01*
X-1201611Y+819287D01*
X-1159100Y+842023D01*
X-1122266Y+872266D01*
X-1092023Y+909100D01*
X-1069287Y+951611D01*
X-1054974Y+998883D01*
X-1050000Y+1050000D01*
X-1050000Y+2000000D02*
X-1045026Y+2051117D01*
X-1030713Y+2098389D01*
X-1007977Y+2140900D01*
X-977734Y+2177734D01*
X-940900Y+2207977D01*
X-898389Y+2230713D01*
X-851117Y+2245026D01*
X-800000Y+2250000D01*
X+2800000Y+2250000D02*
X+2851117Y+2245026D01*
X+2898389Y+2230713D01*
X+2940900Y+2207977D01*
X+2977734Y+2177734D01*
X+3007977Y+2140900D01*
X+3030713Y+2098389D01*
X+3045026Y+2051117D01*
X+3050000Y+2000000D01*
X+4050000Y-750000D02*
X+3998883Y-745026D01*
X+3951611Y-730713D01*
X+3909100Y-707977D01*
X+3872266Y-677734D01*
X+3842023Y-640900D01*
X+3819287Y-598389D01*
X+3804974Y-551117D01*
X+3800000Y-500000D01*
X+8600000Y-750000D02*
X+8651117Y-754974D01*
X+8698389Y-769287D01*
X+8740900Y-792023D01*
X+8777734Y-822266D01*
X+8807977Y-859100D01*
X+8830713Y-901611D01*
X+8845026Y-948883D01*
X+8850000Y-1000000D01*
X+8600000Y-7200000D02*
X+8651117Y-7195026D01*
X+8698389Y-7180713D01*
X+8740900Y-7157977D01*
X+8777734Y-7127734D01*
X+8807977Y-7090900D01*
X+8830713Y-7048389D01*
X+8845026Y-7001117D01*
X+8850000Y-6950000D01*
X-800000Y+2250000D02*
X+2800000Y+2250000D01*
X-1050000Y+2000000D02*
X-1050000Y+1050000D01*
X-1300000Y+800000D02*
X-5250000Y+800000D01*
X+3050000Y+850000D02*
X+3050000Y+2000000D01*
X+3800000Y-500000D02*
X+3800000Y+100000D01*
X+4050000Y-750000D02*
X+8600000Y-750000D01*
X+8850000Y-6950000D02*
X+8850000Y-1000000D01*
X+8600000Y-7200000D02*
X-10500000Y-7200000D01*
X-10750000Y-6950000D02*
X-10750000Y+3550000D01*
X-10500000Y+3800000D02*
X-8200000Y+3800000D01*
M02*
