G04 PROTEUS GERBER X2 FILE*
%TF.GenerationSoftware,Labcenter,Proteus,8.6-SP2-Build23525*%
%TF.CreationDate,2023-01-29T17:34:11+00:00*%
%TF.FileFunction,AssemblyDrawing,Top*%
%TF.FilePolarity,Positive*%
%TF.Part,Single*%
%FSLAX45Y45*%
%MOMM*%
G01*
%TA.AperFunction,Material*%
%ADD27C,0.203200*%
%ADD45C,0.510900*%
%ADD46C,0.050000*%
%ADD47C,0.263750*%
%ADD48C,0.351660*%
%ADD49C,0.123790*%
%ADD50C,0.106680*%
%ADD51C,0.097790*%
%ADD52C,0.045720*%
%ADD53C,0.039180*%
%ADD54C,0.234790*%
%ADD55C,0.077380*%
%ADD56C,0.146700*%
%ADD57C,0.164590*%
%ADD58C,0.050800*%
%ADD59C,0.191010*%
%ADD60C,0.082520*%
%TA.AperFunction,Profile*%
%ADD25C,0.203200*%
%TD.AperFunction*%
D27*
X-7089160Y-2531160D02*
X-3512840Y-2531160D01*
X-3512840Y-732840D01*
X-7089160Y-732840D01*
X-7089160Y-2531160D01*
D45*
X-6527163Y-1478730D02*
X-6220623Y-1478730D01*
X-6373893Y-1478730D02*
X-6373893Y-1785271D01*
X-5811902Y-1785271D02*
X-6118442Y-1785271D01*
X-6118442Y-1478730D01*
X-5811902Y-1478730D01*
X-6118442Y-1632000D02*
X-5914082Y-1632000D01*
X-5403181Y-1785271D02*
X-5709721Y-1785271D01*
X-5709721Y-1478730D01*
X-5403181Y-1478730D01*
X-5709721Y-1632000D02*
X-5505361Y-1632000D01*
X-5301000Y-1785271D02*
X-5301000Y-1478730D01*
X-4994460Y-1785271D01*
X-4994460Y-1478730D01*
X-4892279Y-1734181D02*
X-4841189Y-1785271D01*
X-4636829Y-1785271D01*
X-4585739Y-1734181D01*
X-4585739Y-1683091D01*
X-4636829Y-1632000D01*
X-4841189Y-1632000D01*
X-4892279Y-1580910D01*
X-4892279Y-1529820D01*
X-4841189Y-1478730D01*
X-4636829Y-1478730D01*
X-4585739Y-1529820D01*
X-4177018Y-1478730D02*
X-4483558Y-1785271D01*
X-4483558Y-1478730D02*
X-4330288Y-1632000D01*
D46*
X-9372700Y-2837140D02*
X-8322700Y-2837140D01*
X-8322700Y-1787140D01*
X-9372700Y-1787140D01*
X-9372700Y-2837140D01*
X-8847700Y-2262140D02*
X-8847700Y-2362140D01*
X-8797700Y-2312140D02*
X-8897700Y-2312140D01*
D47*
X-9164200Y-2391265D02*
X-9164200Y-2233015D01*
X-9005950Y-2233015D01*
X-9164200Y-2312140D02*
X-9058700Y-2312140D01*
X-8953200Y-2391265D02*
X-8953200Y-2233015D01*
X-8821325Y-2233015D01*
X-8794950Y-2259390D01*
X-8794950Y-2285765D01*
X-8821325Y-2312140D01*
X-8794950Y-2338515D01*
X-8794950Y-2364890D01*
X-8821325Y-2391265D01*
X-8953200Y-2391265D01*
X-8953200Y-2312140D02*
X-8821325Y-2312140D01*
X-8636700Y-2338515D02*
X-8583950Y-2338515D01*
X-8583950Y-2391265D01*
X-8689450Y-2391265D01*
X-8742200Y-2338515D01*
X-8742200Y-2285765D01*
X-8689450Y-2233015D01*
X-8610325Y-2233015D01*
X-8583950Y-2259390D01*
D46*
X-9370000Y+1240000D02*
X-8320000Y+1240000D01*
X-8320000Y+2290000D01*
X-9370000Y+2290000D01*
X-9370000Y+1240000D01*
X-8845000Y+1815000D02*
X-8845000Y+1715000D01*
X-8795000Y+1765000D02*
X-8895000Y+1765000D01*
D48*
X-9126332Y+1659500D02*
X-9126332Y+1870499D01*
X-8915333Y+1870499D01*
X-9126332Y+1765000D02*
X-8985666Y+1765000D01*
X-8845000Y+1659500D02*
X-8845000Y+1870499D01*
X-8669168Y+1870499D01*
X-8634001Y+1835333D01*
X-8634001Y+1800166D01*
X-8669168Y+1765000D01*
X-8845000Y+1765000D01*
X-8669168Y+1765000D02*
X-8634001Y+1729833D01*
X-8634001Y+1659500D01*
D27*
X-9120160Y-6100800D02*
X-8129840Y-6100800D01*
X-8129840Y-5419200D01*
X-9120160Y-5419200D01*
X-9120160Y-6100800D01*
D49*
X-8971612Y-5797137D02*
X-8971612Y-5722863D01*
X-8922096Y-5722863D01*
X-8897338Y-5747621D01*
X-8897338Y-5772379D01*
X-8922096Y-5797137D01*
X-8971612Y-5797137D01*
X-8872580Y-5797137D02*
X-8872580Y-5722863D01*
X-8810685Y-5722863D01*
X-8798306Y-5735242D01*
X-8798306Y-5747621D01*
X-8810685Y-5760000D01*
X-8872580Y-5760000D01*
X-8810685Y-5760000D02*
X-8798306Y-5772379D01*
X-8798306Y-5797137D01*
X-8761169Y-5722863D02*
X-8711653Y-5722863D01*
X-8736411Y-5722863D02*
X-8736411Y-5797137D01*
X-8761169Y-5797137D02*
X-8711653Y-5797137D01*
X-8674516Y-5722863D02*
X-8674516Y-5760000D01*
X-8637379Y-5797137D01*
X-8600242Y-5760000D01*
X-8600242Y-5722863D01*
X-8501210Y-5797137D02*
X-8575484Y-5797137D01*
X-8575484Y-5722863D01*
X-8501210Y-5722863D01*
X-8575484Y-5760000D02*
X-8525968Y-5760000D01*
X-8476452Y-5797137D02*
X-8476452Y-5722863D01*
X-8414557Y-5722863D01*
X-8402178Y-5735242D01*
X-8402178Y-5747621D01*
X-8414557Y-5760000D01*
X-8476452Y-5760000D01*
X-8414557Y-5760000D02*
X-8402178Y-5772379D01*
X-8402178Y-5797137D01*
X-8352662Y-5747621D02*
X-8327904Y-5722863D01*
X-8327904Y-5797137D01*
D27*
X-1080800Y-5975160D02*
X-399200Y-5975160D01*
X-399200Y-4984840D01*
X-1080800Y-4984840D01*
X-1080800Y-5975160D01*
D49*
X-702863Y-5826612D02*
X-777137Y-5826612D01*
X-777137Y-5777096D01*
X-752379Y-5752338D01*
X-727621Y-5752338D01*
X-702863Y-5777096D01*
X-702863Y-5826612D01*
X-702863Y-5727580D02*
X-777137Y-5727580D01*
X-777137Y-5665685D01*
X-764758Y-5653306D01*
X-752379Y-5653306D01*
X-740000Y-5665685D01*
X-740000Y-5727580D01*
X-740000Y-5665685D02*
X-727621Y-5653306D01*
X-702863Y-5653306D01*
X-777137Y-5616169D02*
X-777137Y-5566653D01*
X-777137Y-5591411D02*
X-702863Y-5591411D01*
X-702863Y-5616169D02*
X-702863Y-5566653D01*
X-777137Y-5529516D02*
X-740000Y-5529516D01*
X-702863Y-5492379D01*
X-740000Y-5455242D01*
X-777137Y-5455242D01*
X-702863Y-5356210D02*
X-702863Y-5430484D01*
X-777137Y-5430484D01*
X-777137Y-5356210D01*
X-740000Y-5430484D02*
X-740000Y-5380968D01*
X-702863Y-5331452D02*
X-777137Y-5331452D01*
X-777137Y-5269557D01*
X-764758Y-5257178D01*
X-752379Y-5257178D01*
X-740000Y-5269557D01*
X-740000Y-5331452D01*
X-740000Y-5269557D02*
X-727621Y-5257178D01*
X-702863Y-5257178D01*
X-764758Y-5220041D02*
X-777137Y-5207662D01*
X-777137Y-5170525D01*
X-764758Y-5158146D01*
X-752379Y-5158146D01*
X-740000Y-5170525D01*
X-740000Y-5207662D01*
X-727621Y-5220041D01*
X-702863Y-5220041D01*
X-702863Y-5158146D01*
D27*
X+849200Y-5980160D02*
X+1530800Y-5980160D01*
X+1530800Y-4989840D01*
X+849200Y-4989840D01*
X+849200Y-5980160D01*
D49*
X+1227137Y-5831612D02*
X+1152863Y-5831612D01*
X+1152863Y-5782096D01*
X+1177621Y-5757338D01*
X+1202379Y-5757338D01*
X+1227137Y-5782096D01*
X+1227137Y-5831612D01*
X+1227137Y-5732580D02*
X+1152863Y-5732580D01*
X+1152863Y-5670685D01*
X+1165242Y-5658306D01*
X+1177621Y-5658306D01*
X+1190000Y-5670685D01*
X+1190000Y-5732580D01*
X+1190000Y-5670685D02*
X+1202379Y-5658306D01*
X+1227137Y-5658306D01*
X+1152863Y-5621169D02*
X+1152863Y-5571653D01*
X+1152863Y-5596411D02*
X+1227137Y-5596411D01*
X+1227137Y-5621169D02*
X+1227137Y-5571653D01*
X+1152863Y-5534516D02*
X+1190000Y-5534516D01*
X+1227137Y-5497379D01*
X+1190000Y-5460242D01*
X+1152863Y-5460242D01*
X+1227137Y-5361210D02*
X+1227137Y-5435484D01*
X+1152863Y-5435484D01*
X+1152863Y-5361210D01*
X+1190000Y-5435484D02*
X+1190000Y-5385968D01*
X+1227137Y-5336452D02*
X+1152863Y-5336452D01*
X+1152863Y-5274557D01*
X+1165242Y-5262178D01*
X+1177621Y-5262178D01*
X+1190000Y-5274557D01*
X+1190000Y-5336452D01*
X+1190000Y-5274557D02*
X+1202379Y-5262178D01*
X+1227137Y-5262178D01*
X+1165242Y-5225041D02*
X+1152863Y-5212662D01*
X+1152863Y-5175525D01*
X+1165242Y-5163146D01*
X+1177621Y-5163146D01*
X+1190000Y-5175525D01*
X+1202379Y-5163146D01*
X+1214758Y-5163146D01*
X+1227137Y-5175525D01*
X+1227137Y-5212662D01*
X+1214758Y-5225041D01*
X+1190000Y-5200283D02*
X+1190000Y-5175525D01*
D27*
X+2979200Y-5890160D02*
X+3660800Y-5890160D01*
X+3660800Y-4899840D01*
X+2979200Y-4899840D01*
X+2979200Y-5890160D01*
D49*
X+3357137Y-5741612D02*
X+3282863Y-5741612D01*
X+3282863Y-5692096D01*
X+3307621Y-5667338D01*
X+3332379Y-5667338D01*
X+3357137Y-5692096D01*
X+3357137Y-5741612D01*
X+3357137Y-5642580D02*
X+3282863Y-5642580D01*
X+3282863Y-5580685D01*
X+3295242Y-5568306D01*
X+3307621Y-5568306D01*
X+3320000Y-5580685D01*
X+3320000Y-5642580D01*
X+3320000Y-5580685D02*
X+3332379Y-5568306D01*
X+3357137Y-5568306D01*
X+3282863Y-5531169D02*
X+3282863Y-5481653D01*
X+3282863Y-5506411D02*
X+3357137Y-5506411D01*
X+3357137Y-5531169D02*
X+3357137Y-5481653D01*
X+3282863Y-5444516D02*
X+3320000Y-5444516D01*
X+3357137Y-5407379D01*
X+3320000Y-5370242D01*
X+3282863Y-5370242D01*
X+3357137Y-5271210D02*
X+3357137Y-5345484D01*
X+3282863Y-5345484D01*
X+3282863Y-5271210D01*
X+3320000Y-5345484D02*
X+3320000Y-5295968D01*
X+3357137Y-5246452D02*
X+3282863Y-5246452D01*
X+3282863Y-5184557D01*
X+3295242Y-5172178D01*
X+3307621Y-5172178D01*
X+3320000Y-5184557D01*
X+3320000Y-5246452D01*
X+3320000Y-5184557D02*
X+3332379Y-5172178D01*
X+3357137Y-5172178D01*
X+3332379Y-5073146D02*
X+3332379Y-5147420D01*
X+3282863Y-5097904D01*
X+3357137Y-5097904D01*
D27*
X+4929200Y-5830160D02*
X+5610800Y-5830160D01*
X+5610800Y-4839840D01*
X+4929200Y-4839840D01*
X+4929200Y-5830160D01*
D49*
X+5307137Y-5681612D02*
X+5232863Y-5681612D01*
X+5232863Y-5632096D01*
X+5257621Y-5607338D01*
X+5282379Y-5607338D01*
X+5307137Y-5632096D01*
X+5307137Y-5681612D01*
X+5307137Y-5582580D02*
X+5232863Y-5582580D01*
X+5232863Y-5520685D01*
X+5245242Y-5508306D01*
X+5257621Y-5508306D01*
X+5270000Y-5520685D01*
X+5270000Y-5582580D01*
X+5270000Y-5520685D02*
X+5282379Y-5508306D01*
X+5307137Y-5508306D01*
X+5232863Y-5471169D02*
X+5232863Y-5421653D01*
X+5232863Y-5446411D02*
X+5307137Y-5446411D01*
X+5307137Y-5471169D02*
X+5307137Y-5421653D01*
X+5232863Y-5384516D02*
X+5270000Y-5384516D01*
X+5307137Y-5347379D01*
X+5270000Y-5310242D01*
X+5232863Y-5310242D01*
X+5307137Y-5211210D02*
X+5307137Y-5285484D01*
X+5232863Y-5285484D01*
X+5232863Y-5211210D01*
X+5270000Y-5285484D02*
X+5270000Y-5235968D01*
X+5307137Y-5186452D02*
X+5232863Y-5186452D01*
X+5232863Y-5124557D01*
X+5245242Y-5112178D01*
X+5257621Y-5112178D01*
X+5270000Y-5124557D01*
X+5270000Y-5186452D01*
X+5270000Y-5124557D02*
X+5282379Y-5112178D01*
X+5307137Y-5112178D01*
X+5232863Y-5013146D02*
X+5232863Y-5075041D01*
X+5257621Y-5075041D01*
X+5257621Y-5025525D01*
X+5270000Y-5013146D01*
X+5294758Y-5013146D01*
X+5307137Y-5025525D01*
X+5307137Y-5062662D01*
X+5294758Y-5075041D01*
D27*
X+7039200Y-6060160D02*
X+7720800Y-6060160D01*
X+7720800Y-5069840D01*
X+7039200Y-5069840D01*
X+7039200Y-6060160D01*
D49*
X+7417137Y-5911612D02*
X+7342863Y-5911612D01*
X+7342863Y-5862096D01*
X+7367621Y-5837338D01*
X+7392379Y-5837338D01*
X+7417137Y-5862096D01*
X+7417137Y-5911612D01*
X+7417137Y-5812580D02*
X+7342863Y-5812580D01*
X+7342863Y-5750685D01*
X+7355242Y-5738306D01*
X+7367621Y-5738306D01*
X+7380000Y-5750685D01*
X+7380000Y-5812580D01*
X+7380000Y-5750685D02*
X+7392379Y-5738306D01*
X+7417137Y-5738306D01*
X+7342863Y-5701169D02*
X+7342863Y-5651653D01*
X+7342863Y-5676411D02*
X+7417137Y-5676411D01*
X+7417137Y-5701169D02*
X+7417137Y-5651653D01*
X+7342863Y-5614516D02*
X+7380000Y-5614516D01*
X+7417137Y-5577379D01*
X+7380000Y-5540242D01*
X+7342863Y-5540242D01*
X+7417137Y-5441210D02*
X+7417137Y-5515484D01*
X+7342863Y-5515484D01*
X+7342863Y-5441210D01*
X+7380000Y-5515484D02*
X+7380000Y-5465968D01*
X+7417137Y-5416452D02*
X+7342863Y-5416452D01*
X+7342863Y-5354557D01*
X+7355242Y-5342178D01*
X+7367621Y-5342178D01*
X+7380000Y-5354557D01*
X+7380000Y-5416452D01*
X+7380000Y-5354557D02*
X+7392379Y-5342178D01*
X+7417137Y-5342178D01*
X+7355242Y-5243146D02*
X+7342863Y-5255525D01*
X+7342863Y-5292662D01*
X+7355242Y-5305041D01*
X+7404758Y-5305041D01*
X+7417137Y-5292662D01*
X+7417137Y-5255525D01*
X+7404758Y-5243146D01*
X+7392379Y-5243146D01*
X+7380000Y-5255525D01*
X+7380000Y-5305041D01*
D27*
X-9218900Y-4218900D02*
X-8025100Y-4218900D01*
X-8025100Y-4041100D01*
X-9218900Y-4041100D01*
X-9218900Y-4218900D01*
D50*
X-8707344Y-4162004D02*
X-8707344Y-4097996D01*
X-8654004Y-4097996D01*
X-8643336Y-4108664D01*
X-8643336Y-4119332D01*
X-8654004Y-4130000D01*
X-8707344Y-4130000D01*
X-8654004Y-4130000D02*
X-8643336Y-4140668D01*
X-8643336Y-4162004D01*
X-8600664Y-4119332D02*
X-8579328Y-4097996D01*
X-8579328Y-4162004D01*
D27*
X-7918900Y-6403284D02*
X-7741100Y-6403284D01*
X-7741100Y-5209484D01*
X-7918900Y-5209484D01*
X-7918900Y-6403284D01*
D50*
X-7797996Y-5891728D02*
X-7862004Y-5891728D01*
X-7862004Y-5838388D01*
X-7851336Y-5827720D01*
X-7840668Y-5827720D01*
X-7830000Y-5838388D01*
X-7830000Y-5891728D01*
X-7830000Y-5838388D02*
X-7819332Y-5827720D01*
X-7797996Y-5827720D01*
X-7851336Y-5795716D02*
X-7862004Y-5785048D01*
X-7862004Y-5753044D01*
X-7851336Y-5742376D01*
X-7840668Y-5742376D01*
X-7830000Y-5753044D01*
X-7830000Y-5785048D01*
X-7819332Y-5795716D01*
X-7797996Y-5795716D01*
X-7797996Y-5742376D01*
D27*
X-1288900Y-4688900D02*
X-95100Y-4688900D01*
X-95100Y-4511100D01*
X-1288900Y-4511100D01*
X-1288900Y-4688900D01*
D50*
X-777344Y-4632004D02*
X-777344Y-4567996D01*
X-724004Y-4567996D01*
X-713336Y-4578664D01*
X-713336Y-4589332D01*
X-724004Y-4600000D01*
X-777344Y-4600000D01*
X-724004Y-4600000D02*
X-713336Y-4610668D01*
X-713336Y-4632004D01*
X-681332Y-4578664D02*
X-670664Y-4567996D01*
X-638660Y-4567996D01*
X-627992Y-4578664D01*
X-627992Y-4589332D01*
X-638660Y-4600000D01*
X-627992Y-4610668D01*
X-627992Y-4621336D01*
X-638660Y-4632004D01*
X-670664Y-4632004D01*
X-681332Y-4621336D01*
X-659996Y-4600000D02*
X-638660Y-4600000D01*
D27*
X+611100Y-4688900D02*
X+1804900Y-4688900D01*
X+1804900Y-4511100D01*
X+611100Y-4511100D01*
X+611100Y-4688900D01*
D50*
X+1122656Y-4632004D02*
X+1122656Y-4567996D01*
X+1175996Y-4567996D01*
X+1186664Y-4578664D01*
X+1186664Y-4589332D01*
X+1175996Y-4600000D01*
X+1122656Y-4600000D01*
X+1175996Y-4600000D02*
X+1186664Y-4610668D01*
X+1186664Y-4632004D01*
X+1272008Y-4610668D02*
X+1208000Y-4610668D01*
X+1250672Y-4567996D01*
X+1250672Y-4632004D01*
D27*
X+2711100Y-4688900D02*
X+3904900Y-4688900D01*
X+3904900Y-4511100D01*
X+2711100Y-4511100D01*
X+2711100Y-4688900D01*
D50*
X+3222656Y-4632004D02*
X+3222656Y-4567996D01*
X+3275996Y-4567996D01*
X+3286664Y-4578664D01*
X+3286664Y-4589332D01*
X+3275996Y-4600000D01*
X+3222656Y-4600000D01*
X+3275996Y-4600000D02*
X+3286664Y-4610668D01*
X+3286664Y-4632004D01*
X+3372008Y-4567996D02*
X+3318668Y-4567996D01*
X+3318668Y-4589332D01*
X+3361340Y-4589332D01*
X+3372008Y-4600000D01*
X+3372008Y-4621336D01*
X+3361340Y-4632004D01*
X+3329336Y-4632004D01*
X+3318668Y-4621336D01*
D27*
X+4711100Y-4688900D02*
X+5904900Y-4688900D01*
X+5904900Y-4511100D01*
X+4711100Y-4511100D01*
X+4711100Y-4688900D01*
D50*
X+5222656Y-4632004D02*
X+5222656Y-4567996D01*
X+5275996Y-4567996D01*
X+5286664Y-4578664D01*
X+5286664Y-4589332D01*
X+5275996Y-4600000D01*
X+5222656Y-4600000D01*
X+5275996Y-4600000D02*
X+5286664Y-4610668D01*
X+5286664Y-4632004D01*
X+5372008Y-4578664D02*
X+5361340Y-4567996D01*
X+5329336Y-4567996D01*
X+5318668Y-4578664D01*
X+5318668Y-4621336D01*
X+5329336Y-4632004D01*
X+5361340Y-4632004D01*
X+5372008Y-4621336D01*
X+5372008Y-4610668D01*
X+5361340Y-4600000D01*
X+5318668Y-4600000D01*
D27*
X+6711100Y-4688900D02*
X+7904900Y-4688900D01*
X+7904900Y-4511100D01*
X+6711100Y-4511100D01*
X+6711100Y-4688900D01*
D50*
X+7222656Y-4632004D02*
X+7222656Y-4567996D01*
X+7275996Y-4567996D01*
X+7286664Y-4578664D01*
X+7286664Y-4589332D01*
X+7275996Y-4600000D01*
X+7222656Y-4600000D01*
X+7275996Y-4600000D02*
X+7286664Y-4610668D01*
X+7286664Y-4632004D01*
X+7318668Y-4567996D02*
X+7372008Y-4567996D01*
X+7372008Y-4578664D01*
X+7318668Y-4632004D01*
D27*
X-831160Y-167160D02*
X-48840Y-167160D01*
X-48840Y+234160D01*
X-831160Y+234160D01*
X-831160Y-167160D01*
D51*
X-713812Y+62837D02*
X-713812Y+4163D01*
X-655138Y+4163D01*
X-635580Y+4163D02*
X-635580Y+62837D01*
X-606243Y+33500D01*
X-576906Y+62837D01*
X-576906Y+4163D01*
X-547569Y+53058D02*
X-537790Y+62837D01*
X-508453Y+62837D01*
X-498674Y+53058D01*
X-498674Y+43279D01*
X-508453Y+33500D01*
X-498674Y+23721D01*
X-498674Y+13942D01*
X-508453Y+4163D01*
X-537790Y+4163D01*
X-547569Y+13942D01*
X-528011Y+33500D02*
X-508453Y+33500D01*
X-459558Y+43279D02*
X-440000Y+62837D01*
X-440000Y+4163D01*
X-391105Y+62837D02*
X-342210Y+62837D01*
X-342210Y+53058D01*
X-391105Y+4163D01*
X-322652Y-5616D02*
X-263978Y-5616D01*
X-224862Y+43279D02*
X-205304Y+62837D01*
X-205304Y+4163D01*
D27*
X+838186Y-230506D02*
X+1620506Y-230506D01*
X+1620506Y+170814D01*
X+838186Y+170814D01*
X+838186Y-230506D01*
D51*
X+955534Y-509D02*
X+955534Y-59183D01*
X+1014208Y-59183D01*
X+1033766Y-59183D02*
X+1033766Y-509D01*
X+1063103Y-29846D01*
X+1092440Y-509D01*
X+1092440Y-59183D01*
X+1121777Y-10288D02*
X+1131556Y-509D01*
X+1160893Y-509D01*
X+1170672Y-10288D01*
X+1170672Y-20067D01*
X+1160893Y-29846D01*
X+1170672Y-39625D01*
X+1170672Y-49404D01*
X+1160893Y-59183D01*
X+1131556Y-59183D01*
X+1121777Y-49404D01*
X+1141335Y-29846D02*
X+1160893Y-29846D01*
X+1209788Y-20067D02*
X+1229346Y-509D01*
X+1229346Y-59183D01*
X+1278241Y-509D02*
X+1327136Y-509D01*
X+1327136Y-10288D01*
X+1278241Y-59183D01*
X+1346694Y-68962D02*
X+1405368Y-68962D01*
X+1434705Y-10288D02*
X+1444484Y-509D01*
X+1473821Y-509D01*
X+1483600Y-10288D01*
X+1483600Y-20067D01*
X+1473821Y-29846D01*
X+1444484Y-29846D01*
X+1434705Y-39625D01*
X+1434705Y-59183D01*
X+1483600Y-59183D01*
D27*
X-899554Y-2812246D02*
X-721754Y-2812246D01*
X-721754Y-1618446D01*
X-899554Y-1618446D01*
X-899554Y-2812246D01*
D50*
X-778650Y-2343362D02*
X-842658Y-2343362D01*
X-842658Y-2290022D01*
X-831990Y-2279354D01*
X-821322Y-2279354D01*
X-810654Y-2290022D01*
X-810654Y-2343362D01*
X-810654Y-2290022D02*
X-799986Y-2279354D01*
X-778650Y-2279354D01*
X-821322Y-2236682D02*
X-842658Y-2215346D01*
X-778650Y-2215346D01*
X-831990Y-2162006D02*
X-842658Y-2151338D01*
X-842658Y-2119334D01*
X-831990Y-2108666D01*
X-821322Y-2108666D01*
X-810654Y-2119334D01*
X-810654Y-2151338D01*
X-799986Y-2162006D01*
X-778650Y-2162006D01*
X-778650Y-2108666D01*
D27*
X+8162840Y-2537160D02*
X+8437160Y-2537160D01*
X+8437160Y-2262840D01*
X+8162840Y-2262840D01*
X+8162840Y-2537160D01*
D52*
X+8208560Y-2386284D02*
X+8208560Y-2413716D01*
X+8235992Y-2413716D01*
X+8249708Y-2386284D02*
X+8267996Y-2386284D01*
X+8258852Y-2386284D02*
X+8258852Y-2413716D01*
X+8249708Y-2413716D02*
X+8267996Y-2413716D01*
X+8281712Y-2413716D02*
X+8281712Y-2386284D01*
X+8309144Y-2413716D01*
X+8309144Y-2386284D01*
X+8345720Y-2413716D02*
X+8318288Y-2413716D01*
X+8318288Y-2386284D01*
X+8345720Y-2386284D01*
X+8318288Y-2400000D02*
X+8336576Y-2400000D01*
X+8354864Y-2413716D02*
X+8354864Y-2395428D01*
X+8364008Y-2386284D01*
X+8373152Y-2386284D01*
X+8382296Y-2395428D01*
X+8382296Y-2413716D01*
X+8354864Y-2404572D02*
X+8382296Y-2404572D01*
D27*
X+8162840Y-3075425D02*
X+8437160Y-3075425D01*
X+8437160Y-2801105D01*
X+8162840Y-2801105D01*
X+8162840Y-3075425D01*
D53*
X+8205950Y-2950022D02*
X+8205950Y-2926509D01*
X+8229462Y-2950022D01*
X+8229462Y-2926509D01*
X+8260812Y-2950022D02*
X+8237300Y-2950022D01*
X+8237300Y-2926509D01*
X+8260812Y-2926509D01*
X+8237300Y-2938265D02*
X+8252975Y-2938265D01*
X+8268650Y-2926509D02*
X+8268650Y-2946103D01*
X+8272568Y-2950022D01*
X+8288243Y-2950022D01*
X+8292162Y-2946103D01*
X+8292162Y-2926509D01*
X+8300000Y-2926509D02*
X+8323512Y-2926509D01*
X+8311756Y-2926509D02*
X+8311756Y-2950022D01*
X+8331350Y-2950022D02*
X+8331350Y-2926509D01*
X+8350943Y-2926509D01*
X+8354862Y-2930428D01*
X+8354862Y-2934347D01*
X+8350943Y-2938265D01*
X+8331350Y-2938265D01*
X+8350943Y-2938265D02*
X+8354862Y-2942184D01*
X+8354862Y-2950022D01*
X+8362700Y-2934347D02*
X+8370537Y-2926509D01*
X+8378375Y-2926509D01*
X+8386212Y-2934347D01*
X+8386212Y-2942184D01*
X+8378375Y-2950022D01*
X+8370537Y-2950022D01*
X+8362700Y-2942184D01*
X+8362700Y-2934347D01*
D27*
X+2149840Y-3850160D02*
X+7550160Y-3850160D01*
X+7550160Y-959840D01*
X+2149840Y-959840D01*
X+2149840Y-3850160D01*
D54*
X+2783804Y-2475439D02*
X+2783804Y-2334562D01*
X+2924681Y-2334562D01*
X+2783804Y-2405000D02*
X+2877722Y-2405000D01*
X+2971640Y-2334562D02*
X+2971640Y-2451960D01*
X+2995119Y-2475439D01*
X+3089037Y-2475439D01*
X+3112517Y-2451960D01*
X+3112517Y-2334562D01*
X+3300353Y-2475439D02*
X+3159476Y-2475439D01*
X+3159476Y-2334562D01*
X+3300353Y-2334562D01*
X+3159476Y-2405000D02*
X+3253394Y-2405000D01*
X+3347312Y-2475439D02*
X+3347312Y-2334562D01*
X+3488189Y-2475439D01*
X+3488189Y-2334562D01*
X+3535148Y-2334562D02*
X+3676025Y-2334562D01*
X+3605586Y-2334562D02*
X+3605586Y-2475439D01*
X+3863861Y-2475439D02*
X+3722984Y-2475439D01*
X+3722984Y-2334562D01*
X+3863861Y-2334562D01*
X+3722984Y-2405000D02*
X+3816902Y-2405000D01*
X+4098656Y-2475439D02*
X+4098656Y-2334562D01*
X+4192574Y-2334562D01*
X+4239533Y-2381521D01*
X+4239533Y-2428480D01*
X+4192574Y-2475439D01*
X+4098656Y-2475439D01*
X+4427369Y-2475439D02*
X+4286492Y-2475439D01*
X+4286492Y-2334562D01*
X+4427369Y-2334562D01*
X+4286492Y-2405000D02*
X+4380410Y-2405000D01*
X+4662164Y-2475439D02*
X+4662164Y-2381521D01*
X+4709123Y-2334562D01*
X+4756082Y-2334562D01*
X+4803041Y-2381521D01*
X+4803041Y-2475439D01*
X+4662164Y-2428480D02*
X+4803041Y-2428480D01*
X+4850000Y-2334562D02*
X+4850000Y-2475439D01*
X+4990877Y-2475439D01*
X+5061315Y-2334562D02*
X+5155233Y-2334562D01*
X+5108274Y-2334562D02*
X+5108274Y-2475439D01*
X+5061315Y-2475439D02*
X+5155233Y-2475439D01*
X+5225672Y-2475439D02*
X+5225672Y-2334562D01*
X+5296110Y-2405000D01*
X+5366549Y-2334562D01*
X+5366549Y-2475439D01*
X+5554385Y-2475439D02*
X+5413508Y-2475439D01*
X+5413508Y-2334562D01*
X+5554385Y-2334562D01*
X+5413508Y-2405000D02*
X+5507426Y-2405000D01*
X+5601344Y-2475439D02*
X+5601344Y-2334562D01*
X+5742221Y-2475439D01*
X+5742221Y-2334562D01*
X+5789180Y-2334562D02*
X+5930057Y-2334562D01*
X+5859618Y-2334562D02*
X+5859618Y-2475439D01*
X+5977016Y-2475439D02*
X+5977016Y-2381521D01*
X+6023975Y-2334562D01*
X+6070934Y-2334562D01*
X+6117893Y-2381521D01*
X+6117893Y-2475439D01*
X+5977016Y-2428480D02*
X+6117893Y-2428480D01*
X+6305729Y-2451960D02*
X+6282249Y-2475439D01*
X+6211811Y-2475439D01*
X+6164852Y-2428480D01*
X+6164852Y-2381521D01*
X+6211811Y-2334562D01*
X+6282249Y-2334562D01*
X+6305729Y-2358041D01*
X+6376167Y-2334562D02*
X+6470085Y-2334562D01*
X+6423126Y-2334562D02*
X+6423126Y-2475439D01*
X+6376167Y-2475439D02*
X+6470085Y-2475439D01*
X+6540524Y-2381521D02*
X+6587483Y-2334562D01*
X+6634442Y-2334562D01*
X+6681401Y-2381521D01*
X+6681401Y-2428480D01*
X+6634442Y-2475439D01*
X+6587483Y-2475439D01*
X+6540524Y-2428480D01*
X+6540524Y-2381521D01*
X+6728360Y-2475439D02*
X+6728360Y-2334562D01*
X+6869237Y-2475439D01*
X+6869237Y-2334562D01*
D27*
X-2710160Y-210160D02*
X-1239840Y-210160D01*
X-1239840Y+710160D01*
X-2710160Y+710160D01*
X-2710160Y-210160D01*
D55*
X-2532172Y+226785D02*
X-2532172Y+273216D01*
X-2508957Y+250000D01*
X-2485741Y+273216D01*
X-2485741Y+226785D01*
X-2470264Y+257739D02*
X-2454787Y+273216D01*
X-2439310Y+273216D01*
X-2423833Y+257739D01*
X-2423833Y+242262D01*
X-2439310Y+226785D01*
X-2454787Y+226785D01*
X-2470264Y+242262D01*
X-2470264Y+257739D01*
X-2408356Y+226785D02*
X-2408356Y+273216D01*
X-2377402Y+273216D01*
X-2361925Y+257739D01*
X-2361925Y+242262D01*
X-2377402Y+226785D01*
X-2408356Y+226785D01*
X-2346448Y+273216D02*
X-2346448Y+234523D01*
X-2338710Y+226785D01*
X-2307756Y+226785D01*
X-2300017Y+234523D01*
X-2300017Y+273216D01*
X-2284540Y+273216D02*
X-2284540Y+226785D01*
X-2238109Y+226785D01*
X-2222632Y+257739D02*
X-2207155Y+273216D01*
X-2191678Y+273216D01*
X-2176201Y+257739D01*
X-2176201Y+242262D01*
X-2191678Y+226785D01*
X-2207155Y+226785D01*
X-2222632Y+242262D01*
X-2222632Y+257739D01*
X-2091078Y+273216D02*
X-2060124Y+273216D01*
X-2075601Y+273216D02*
X-2075601Y+226785D01*
X-2091078Y+226785D02*
X-2060124Y+226785D01*
X-2036908Y+226785D02*
X-2036908Y+273216D01*
X-1990477Y+226785D01*
X-1990477Y+273216D01*
X-1975000Y+226785D02*
X-1975000Y+257739D01*
X-1959523Y+273216D01*
X-1944046Y+273216D01*
X-1928569Y+257739D01*
X-1928569Y+226785D01*
X-1975000Y+242262D02*
X-1928569Y+242262D01*
X-1913092Y+273216D02*
X-1913092Y+226785D01*
X-1866661Y+226785D01*
X-1851184Y+226785D02*
X-1851184Y+257739D01*
X-1835707Y+273216D01*
X-1820230Y+273216D01*
X-1804753Y+257739D01*
X-1804753Y+226785D01*
X-1851184Y+242262D02*
X-1804753Y+242262D01*
X-1789276Y+226785D02*
X-1789276Y+273216D01*
X-1766061Y+250000D01*
X-1742845Y+273216D01*
X-1742845Y+226785D01*
X-1727368Y+226785D02*
X-1727368Y+273216D01*
X-1688676Y+273216D01*
X-1680937Y+265477D01*
X-1680937Y+257739D01*
X-1688676Y+250000D01*
X-1680937Y+242262D01*
X-1680937Y+234523D01*
X-1688676Y+226785D01*
X-1727368Y+226785D01*
X-1727368Y+250000D02*
X-1688676Y+250000D01*
X-1665460Y+226785D02*
X-1665460Y+273216D01*
X-1626768Y+273216D01*
X-1619029Y+265477D01*
X-1619029Y+257739D01*
X-1626768Y+250000D01*
X-1665460Y+250000D01*
X-1626768Y+250000D02*
X-1619029Y+242262D01*
X-1619029Y+226785D01*
X-1595814Y+273216D02*
X-1564860Y+273216D01*
X-1580337Y+273216D02*
X-1580337Y+226785D01*
X-1595814Y+226785D02*
X-1564860Y+226785D01*
X-1495213Y+234523D02*
X-1502952Y+226785D01*
X-1526167Y+226785D01*
X-1541644Y+242262D01*
X-1541644Y+257739D01*
X-1526167Y+273216D01*
X-1502952Y+273216D01*
X-1495213Y+265477D01*
X-1479736Y+257739D02*
X-1464259Y+273216D01*
X-1448782Y+273216D01*
X-1433305Y+257739D01*
X-1433305Y+242262D01*
X-1448782Y+226785D01*
X-1464259Y+226785D01*
X-1479736Y+242262D01*
X-1479736Y+257739D01*
D27*
X-750160Y+1089840D02*
X+570160Y+1089840D01*
X+570160Y+1860160D01*
X-750160Y+1860160D01*
X-750160Y+1089840D01*
D56*
X-559444Y+1430989D02*
X-559444Y+1519010D01*
X-486094Y+1519010D01*
X-471424Y+1504340D01*
X-471424Y+1489670D01*
X-486094Y+1475000D01*
X-559444Y+1475000D01*
X-486094Y+1475000D02*
X-471424Y+1460329D01*
X-471424Y+1430989D01*
X-354063Y+1430989D02*
X-442083Y+1430989D01*
X-442083Y+1519010D01*
X-354063Y+1519010D01*
X-442083Y+1475000D02*
X-383403Y+1475000D01*
X-324722Y+1430989D02*
X-324722Y+1519010D01*
X-266042Y+1519010D01*
X-236702Y+1489670D01*
X-236702Y+1460329D01*
X-266042Y+1430989D01*
X-324722Y+1430989D01*
X-90000Y+1519010D02*
X-1980Y+1519010D01*
X-45990Y+1519010D02*
X-45990Y+1430989D01*
X+27361Y+1519010D02*
X+27361Y+1445659D01*
X+42031Y+1430989D01*
X+100711Y+1430989D01*
X+115381Y+1445659D01*
X+115381Y+1519010D01*
X+144722Y+1430989D02*
X+144722Y+1519010D01*
X+232742Y+1430989D01*
X+232742Y+1519010D01*
X+350103Y+1430989D02*
X+262083Y+1430989D01*
X+262083Y+1519010D01*
X+350103Y+1519010D01*
X+262083Y+1475000D02*
X+320763Y+1475000D01*
D27*
X+2892840Y-97160D02*
X+3675160Y-97160D01*
X+3675160Y+177160D01*
X+2892840Y+177160D01*
X+2892840Y-97160D01*
D57*
X+3251081Y+7081D02*
X+3234622Y-9378D01*
X+3185245Y-9378D01*
X+3152327Y+23540D01*
X+3152327Y+56459D01*
X+3185245Y+89377D01*
X+3234622Y+89377D01*
X+3251081Y+72918D01*
X+3316918Y+56459D02*
X+3349836Y+89377D01*
X+3349836Y-9378D01*
D27*
X-357160Y-1315160D02*
X-82840Y-1315160D01*
X-82840Y-532840D01*
X-357160Y-532840D01*
X-357160Y-1315160D01*
D57*
X-187081Y-956919D02*
X-170622Y-973378D01*
X-170622Y-1022755D01*
X-203540Y-1055673D01*
X-236459Y-1055673D01*
X-269377Y-1022755D01*
X-269377Y-973378D01*
X-252918Y-956919D01*
X-252918Y-907541D02*
X-269377Y-891082D01*
X-269377Y-841705D01*
X-252918Y-825246D01*
X-236459Y-825246D01*
X-220000Y-841705D01*
X-203540Y-825246D01*
X-187081Y-825246D01*
X-170622Y-841705D01*
X-170622Y-891082D01*
X-187081Y-907541D01*
X-220000Y-874623D02*
X-220000Y-841705D01*
D27*
X+651100Y-968900D02*
X+1844900Y-968900D01*
X+1844900Y-791100D01*
X+651100Y-791100D01*
X+651100Y-968900D01*
D50*
X+1162656Y-912004D02*
X+1162656Y-847996D01*
X+1215996Y-847996D01*
X+1226664Y-858664D01*
X+1226664Y-869332D01*
X+1215996Y-880000D01*
X+1162656Y-880000D01*
X+1215996Y-880000D02*
X+1226664Y-890668D01*
X+1226664Y-912004D01*
X+1312008Y-869332D02*
X+1301340Y-880000D01*
X+1269336Y-880000D01*
X+1258668Y-869332D01*
X+1258668Y-858664D01*
X+1269336Y-847996D01*
X+1301340Y-847996D01*
X+1312008Y-858664D01*
X+1312008Y-901336D01*
X+1301340Y-912004D01*
X+1269336Y-912004D01*
D58*
X+83980Y-2033920D02*
X+83062Y-2011106D01*
X+75609Y-1965477D01*
X+60062Y-1919848D01*
X+34820Y-1874219D01*
X-3722Y-1828689D01*
X-49351Y-1793193D01*
X-94980Y-1770073D01*
X-140609Y-1756220D01*
X-186238Y-1750274D01*
X-200000Y-1749940D01*
X-483980Y-2033920D02*
X-483062Y-2011106D01*
X-475609Y-1965477D01*
X-460062Y-1919848D01*
X-434820Y-1874219D01*
X-396278Y-1828689D01*
X-350649Y-1793193D01*
X-305020Y-1770073D01*
X-259391Y-1756220D01*
X-213762Y-1750274D01*
X-200000Y-1749940D01*
X-483980Y-2033920D02*
X-483062Y-2056734D01*
X-475609Y-2102363D01*
X-460062Y-2147992D01*
X-434820Y-2193621D01*
X-396278Y-2239151D01*
X-350649Y-2274647D01*
X-305020Y-2297767D01*
X-259391Y-2311620D01*
X-213762Y-2317566D01*
X-200000Y-2317900D01*
X+83980Y-2033920D02*
X+83062Y-2056734D01*
X+75609Y-2102363D01*
X+60062Y-2147992D01*
X+34820Y-2193621D01*
X-3722Y-2239151D01*
X-49351Y-2274647D01*
X-94980Y-2297767D01*
X-140609Y-2311620D01*
X-186238Y-2317566D01*
X-200000Y-2317900D01*
D59*
X-161797Y-2072123D02*
X-142696Y-2091224D01*
X-142696Y-2148528D01*
X-180899Y-2186730D01*
X-219101Y-2186730D01*
X-257304Y-2148528D01*
X-257304Y-2091224D01*
X-238203Y-2072123D01*
X-180899Y-1919313D02*
X-180899Y-2033920D01*
X-257304Y-1957515D01*
X-142696Y-1957515D01*
D58*
X+1001900Y-1560000D02*
X+1000982Y-1537186D01*
X+993529Y-1491557D01*
X+977982Y-1445928D01*
X+952740Y-1400299D01*
X+914198Y-1354769D01*
X+868569Y-1319273D01*
X+822940Y-1296153D01*
X+777311Y-1282300D01*
X+731682Y-1276354D01*
X+717920Y-1276020D01*
X+433940Y-1560000D02*
X+434858Y-1537186D01*
X+442311Y-1491557D01*
X+457858Y-1445928D01*
X+483100Y-1400299D01*
X+521642Y-1354769D01*
X+567271Y-1319273D01*
X+612900Y-1296153D01*
X+658529Y-1282300D01*
X+704158Y-1276354D01*
X+717920Y-1276020D01*
X+433940Y-1560000D02*
X+434858Y-1582814D01*
X+442311Y-1628443D01*
X+457858Y-1674072D01*
X+483100Y-1719701D01*
X+521642Y-1765231D01*
X+567271Y-1800727D01*
X+612900Y-1823847D01*
X+658529Y-1837700D01*
X+704158Y-1843646D01*
X+717920Y-1843980D01*
X+1001900Y-1560000D02*
X+1000982Y-1582814D01*
X+993529Y-1628443D01*
X+977982Y-1674072D01*
X+952740Y-1719701D01*
X+914198Y-1765231D01*
X+868569Y-1800727D01*
X+822940Y-1823847D01*
X+777311Y-1837700D01*
X+731682Y-1843646D01*
X+717920Y-1843980D01*
D59*
X+679717Y-1598203D02*
X+660616Y-1617304D01*
X+603312Y-1617304D01*
X+565110Y-1579101D01*
X+565110Y-1540899D01*
X+603312Y-1502696D01*
X+660616Y-1502696D01*
X+679717Y-1521797D01*
X+737021Y-1521797D02*
X+756122Y-1502696D01*
X+813426Y-1502696D01*
X+832527Y-1521797D01*
X+832527Y-1540899D01*
X+813426Y-1560000D01*
X+756122Y-1560000D01*
X+737021Y-1579101D01*
X+737021Y-1617304D01*
X+832527Y-1617304D01*
D27*
X+1239840Y+1089840D02*
X+2560160Y+1089840D01*
X+2560160Y+1860160D01*
X+1239840Y+1860160D01*
X+1239840Y+1089840D01*
D60*
X+1404880Y+1450244D02*
X+1404880Y+1499756D01*
X+1446140Y+1499756D01*
X+1454392Y+1491504D01*
X+1454392Y+1483252D01*
X+1446140Y+1475000D01*
X+1454392Y+1466748D01*
X+1454392Y+1458496D01*
X+1446140Y+1450244D01*
X+1404880Y+1450244D01*
X+1404880Y+1475000D02*
X+1446140Y+1475000D01*
X+1470896Y+1499756D02*
X+1470896Y+1450244D01*
X+1520408Y+1450244D01*
X+1536912Y+1499756D02*
X+1536912Y+1458496D01*
X+1545164Y+1450244D01*
X+1578172Y+1450244D01*
X+1586424Y+1458496D01*
X+1586424Y+1499756D01*
X+1652440Y+1450244D02*
X+1602928Y+1450244D01*
X+1602928Y+1499756D01*
X+1652440Y+1499756D01*
X+1602928Y+1475000D02*
X+1635936Y+1475000D01*
X+1718456Y+1499756D02*
X+1668944Y+1450244D01*
X+1767968Y+1466748D02*
X+1784472Y+1466748D01*
X+1784472Y+1450244D01*
X+1751464Y+1450244D01*
X+1734960Y+1466748D01*
X+1734960Y+1483252D01*
X+1751464Y+1499756D01*
X+1776220Y+1499756D01*
X+1784472Y+1491504D01*
X+1800976Y+1450244D02*
X+1800976Y+1499756D01*
X+1842236Y+1499756D01*
X+1850488Y+1491504D01*
X+1850488Y+1483252D01*
X+1842236Y+1475000D01*
X+1800976Y+1475000D01*
X+1842236Y+1475000D02*
X+1850488Y+1466748D01*
X+1850488Y+1450244D01*
X+1916504Y+1450244D02*
X+1866992Y+1450244D01*
X+1866992Y+1499756D01*
X+1916504Y+1499756D01*
X+1866992Y+1475000D02*
X+1900000Y+1475000D01*
X+1982520Y+1450244D02*
X+1933008Y+1450244D01*
X+1933008Y+1499756D01*
X+1982520Y+1499756D01*
X+1933008Y+1475000D02*
X+1966016Y+1475000D01*
X+1999024Y+1450244D02*
X+1999024Y+1499756D01*
X+2048536Y+1450244D01*
X+2048536Y+1499756D01*
X+2131056Y+1499756D02*
X+2180568Y+1499756D01*
X+2155812Y+1499756D02*
X+2155812Y+1450244D01*
X+2197072Y+1499756D02*
X+2197072Y+1458496D01*
X+2205324Y+1450244D01*
X+2238332Y+1450244D01*
X+2246584Y+1458496D01*
X+2246584Y+1499756D01*
X+2263088Y+1450244D02*
X+2263088Y+1499756D01*
X+2312600Y+1450244D01*
X+2312600Y+1499756D01*
X+2378616Y+1450244D02*
X+2329104Y+1450244D01*
X+2329104Y+1499756D01*
X+2378616Y+1499756D01*
X+2329104Y+1475000D02*
X+2362112Y+1475000D01*
D25*
X-10500000Y-7200000D02*
X-10551117Y-7195026D01*
X-10598389Y-7180713D01*
X-10640900Y-7157977D01*
X-10677734Y-7127734D01*
X-10707977Y-7090900D01*
X-10730713Y-7048389D01*
X-10745026Y-7001117D01*
X-10750000Y-6950000D01*
X-10750000Y+3550000D02*
X-10745026Y+3601117D01*
X-10730713Y+3648389D01*
X-10707977Y+3690900D01*
X-10677734Y+3727734D01*
X-10640900Y+3757977D01*
X-10598389Y+3780713D01*
X-10551117Y+3795026D01*
X-10500000Y+3800000D01*
X-5250000Y+800000D02*
X-8200000Y+3800000D01*
X+3800000Y+100000D02*
X+3050000Y+850000D01*
X-1300000Y+800000D02*
X-1248883Y+804974D01*
X-1201611Y+819287D01*
X-1159100Y+842023D01*
X-1122266Y+872266D01*
X-1092023Y+909100D01*
X-1069287Y+951611D01*
X-1054974Y+998883D01*
X-1050000Y+1050000D01*
X-1050000Y+2000000D02*
X-1045026Y+2051117D01*
X-1030713Y+2098389D01*
X-1007977Y+2140900D01*
X-977734Y+2177734D01*
X-940900Y+2207977D01*
X-898389Y+2230713D01*
X-851117Y+2245026D01*
X-800000Y+2250000D01*
X+2800000Y+2250000D02*
X+2851117Y+2245026D01*
X+2898389Y+2230713D01*
X+2940900Y+2207977D01*
X+2977734Y+2177734D01*
X+3007977Y+2140900D01*
X+3030713Y+2098389D01*
X+3045026Y+2051117D01*
X+3050000Y+2000000D01*
X+4050000Y-750000D02*
X+3998883Y-745026D01*
X+3951611Y-730713D01*
X+3909100Y-707977D01*
X+3872266Y-677734D01*
X+3842023Y-640900D01*
X+3819287Y-598389D01*
X+3804974Y-551117D01*
X+3800000Y-500000D01*
X+8600000Y-750000D02*
X+8651117Y-754974D01*
X+8698389Y-769287D01*
X+8740900Y-792023D01*
X+8777734Y-822266D01*
X+8807977Y-859100D01*
X+8830713Y-901611D01*
X+8845026Y-948883D01*
X+8850000Y-1000000D01*
X+8600000Y-7200000D02*
X+8651117Y-7195026D01*
X+8698389Y-7180713D01*
X+8740900Y-7157977D01*
X+8777734Y-7127734D01*
X+8807977Y-7090900D01*
X+8830713Y-7048389D01*
X+8845026Y-7001117D01*
X+8850000Y-6950000D01*
X-800000Y+2250000D02*
X+2800000Y+2250000D01*
X-1050000Y+2000000D02*
X-1050000Y+1050000D01*
X-1300000Y+800000D02*
X-5250000Y+800000D01*
X+3050000Y+850000D02*
X+3050000Y+2000000D01*
X+3800000Y-500000D02*
X+3800000Y+100000D01*
X+4050000Y-750000D02*
X+8600000Y-750000D01*
X+8850000Y-6950000D02*
X+8850000Y-1000000D01*
X+8600000Y-7200000D02*
X-10500000Y-7200000D01*
X-10750000Y-6950000D02*
X-10750000Y+3550000D01*
X-10500000Y+3800000D02*
X-8200000Y+3800000D01*
M02*
