G04 PROTEUS GERBER X2 FILE*
%TF.GenerationSoftware,Labcenter,Proteus,8.6-SP2-Build23525*%
%TF.CreationDate,2023-01-29T17:34:11+00:00*%
%TF.FileFunction,AssemblyDrawing,Bot*%
%TF.FilePolarity,Positive*%
%TF.Part,Single*%
%FSLAX45Y45*%
%MOMM*%
G01*
%TA.AperFunction,Material*%
%ADD27C,0.203200*%
%ADD61C,0.316990*%
%ADD62C,0.290860*%
%TA.AperFunction,Profile*%
%ADD25C,0.203200*%
%TD.AperFunction*%
D27*
X-1815412Y-6791660D02*
X+8364908Y-6791660D01*
X+8364908Y-6263340D01*
X-1815412Y-6263340D01*
X-1815412Y-6791660D01*
D61*
X+5176695Y-6622598D02*
X+5176695Y-6432403D01*
X+5049899Y-6432403D01*
X+4986501Y-6495801D01*
X+4986501Y-6559200D01*
X+5049899Y-6622598D01*
X+5176695Y-6622598D01*
X+4923102Y-6622598D02*
X+4923102Y-6432403D01*
X+4764607Y-6432403D01*
X+4732908Y-6464102D01*
X+4732908Y-6495801D01*
X+4764607Y-6527500D01*
X+4923102Y-6527500D01*
X+4764607Y-6527500D02*
X+4732908Y-6559200D01*
X+4732908Y-6622598D01*
X+4637810Y-6432403D02*
X+4511014Y-6432403D01*
X+4574412Y-6432403D02*
X+4574412Y-6622598D01*
X+4637810Y-6622598D02*
X+4511014Y-6622598D01*
X+4415916Y-6432403D02*
X+4415916Y-6527500D01*
X+4320819Y-6622598D01*
X+4225722Y-6527500D01*
X+4225722Y-6432403D01*
X+3972129Y-6622598D02*
X+4162323Y-6622598D01*
X+4162323Y-6432403D01*
X+3972129Y-6432403D01*
X+4162323Y-6527500D02*
X+4035527Y-6527500D01*
X+3908730Y-6622598D02*
X+3908730Y-6432403D01*
X+3750235Y-6432403D01*
X+3718536Y-6464102D01*
X+3718536Y-6495801D01*
X+3750235Y-6527500D01*
X+3908730Y-6527500D01*
X+3750235Y-6527500D02*
X+3718536Y-6559200D01*
X+3718536Y-6622598D01*
X+3274748Y-6432403D02*
X+3338146Y-6495801D01*
X+3338146Y-6559200D01*
X+3274748Y-6622598D01*
X+3147951Y-6622598D02*
X+3147951Y-6432403D01*
X+2989456Y-6432403D01*
X+2957757Y-6464102D01*
X+2957757Y-6495801D01*
X+2989456Y-6527500D01*
X+2957757Y-6559200D01*
X+2957757Y-6590899D01*
X+2989456Y-6622598D01*
X+3147951Y-6622598D01*
X+3147951Y-6527500D02*
X+2989456Y-6527500D01*
X+2704164Y-6464102D02*
X+2735863Y-6432403D01*
X+2830960Y-6432403D01*
X+2862659Y-6464102D01*
X+2862659Y-6590899D01*
X+2830960Y-6622598D01*
X+2735863Y-6622598D01*
X+2704164Y-6590899D01*
X+2704164Y-6559200D01*
X+2735863Y-6527500D01*
X+2862659Y-6527500D01*
X+2609066Y-6527500D02*
X+2450571Y-6527500D01*
X+2260376Y-6559200D02*
X+2196978Y-6559200D01*
X+2196978Y-6622598D01*
X+2323774Y-6622598D01*
X+2387172Y-6559200D01*
X+2387172Y-6495801D01*
X+2323774Y-6432403D01*
X+2228677Y-6432403D01*
X+2196978Y-6464102D01*
X+2101880Y-6464102D02*
X+2070181Y-6432403D01*
X+1975084Y-6432403D01*
X+1943385Y-6464102D01*
X+1943385Y-6495801D01*
X+1975084Y-6527500D01*
X+1943385Y-6559200D01*
X+1943385Y-6590899D01*
X+1975084Y-6622598D01*
X+2070181Y-6622598D01*
X+2101880Y-6590899D01*
X+2038482Y-6527500D02*
X+1975084Y-6527500D01*
X+1848287Y-6464102D02*
X+1816588Y-6432403D01*
X+1721491Y-6432403D01*
X+1689792Y-6464102D01*
X+1689792Y-6495801D01*
X+1721491Y-6527500D01*
X+1816588Y-6527500D01*
X+1848287Y-6559200D01*
X+1848287Y-6622598D01*
X+1689792Y-6622598D01*
X+1531296Y-6432403D02*
X+1467898Y-6495801D01*
X+1467898Y-6559200D01*
X+1531296Y-6622598D01*
D27*
X-10396912Y-6770160D02*
X-9868592Y-6770160D01*
X-9868592Y+3410160D01*
X-10396912Y+3410160D01*
X-10396912Y-6770160D01*
D62*
X-10045492Y+2275764D02*
X-10220011Y+2275764D01*
X-10220011Y+2130332D01*
X-10190925Y+2101245D01*
X-10161838Y+2101245D01*
X-10132752Y+2130332D01*
X-10132752Y+2275764D01*
X-10161838Y+2043072D02*
X-10220011Y+1984899D01*
X-10220011Y+1926726D01*
X-10161838Y+1868553D01*
X-10103665Y+1868553D01*
X-10045492Y+1926726D01*
X-10045492Y+1984899D01*
X-10103665Y+2043072D01*
X-10161838Y+2043072D01*
X-10220011Y+1810380D02*
X-10045492Y+1810380D01*
X-10132752Y+1723121D01*
X-10045492Y+1635861D01*
X-10220011Y+1635861D01*
X-10045492Y+1403169D02*
X-10045492Y+1577688D01*
X-10220011Y+1577688D01*
X-10220011Y+1403169D01*
X-10132752Y+1577688D02*
X-10132752Y+1461342D01*
X-10045492Y+1344996D02*
X-10220011Y+1344996D01*
X-10220011Y+1199564D01*
X-10190925Y+1170477D01*
X-10161838Y+1170477D01*
X-10132752Y+1199564D01*
X-10132752Y+1344996D01*
X-10132752Y+1199564D02*
X-10103665Y+1170477D01*
X-10045492Y+1170477D01*
X-10045492Y+879612D02*
X-10220011Y+879612D01*
X-10132752Y+792353D01*
X-10220011Y+705093D01*
X-10045492Y+705093D01*
X-10220011Y+646920D02*
X-10074578Y+646920D01*
X-10045492Y+617834D01*
X-10045492Y+501488D01*
X-10074578Y+472401D01*
X-10220011Y+472401D01*
X-10220011Y+414228D02*
X-10045492Y+414228D01*
X-10045492Y+239709D01*
X-10220011Y+181536D02*
X-10220011Y+7017D01*
X-10220011Y+94277D02*
X-10045492Y+94277D01*
X-10220011Y-80242D02*
X-10220011Y-196588D01*
X-10220011Y-138415D02*
X-10045492Y-138415D01*
X-10045492Y-80242D02*
X-10045492Y-196588D01*
X-10045492Y-283848D02*
X-10220011Y-283848D01*
X-10220011Y-429280D01*
X-10190925Y-458367D01*
X-10161838Y-458367D01*
X-10132752Y-429280D01*
X-10132752Y-283848D01*
X-10220011Y-516540D02*
X-10045492Y-516540D01*
X-10045492Y-691059D01*
X-10045492Y-923751D02*
X-10045492Y-749232D01*
X-10220011Y-749232D01*
X-10220011Y-923751D01*
X-10132752Y-749232D02*
X-10132752Y-865578D01*
X-10220011Y-981924D02*
X-10045492Y-1156443D01*
X-10045492Y-981924D02*
X-10220011Y-1156443D01*
X-10045492Y-1389135D02*
X-10045492Y-1214616D01*
X-10220011Y-1214616D01*
X-10220011Y-1389135D01*
X-10132752Y-1214616D02*
X-10132752Y-1330962D01*
X-10045492Y-1447308D02*
X-10220011Y-1447308D01*
X-10220011Y-1592740D01*
X-10190925Y-1621827D01*
X-10161838Y-1621827D01*
X-10132752Y-1592740D01*
X-10132752Y-1447308D01*
X-10132752Y-1592740D02*
X-10103665Y-1621827D01*
X-10045492Y-1621827D01*
X-10045492Y-2116297D02*
X-10190925Y-1970865D01*
X-10220011Y-1999951D01*
X-10220011Y-2058124D01*
X-10190925Y-2087211D01*
X-10103665Y-1941778D01*
X-10074578Y-1941778D01*
X-10045492Y-1970865D01*
X-10045492Y-2029038D01*
X-10132752Y-2116297D01*
X-10045492Y-2378076D02*
X-10220011Y-2378076D01*
X-10220011Y-2494422D01*
X-10161838Y-2552595D01*
X-10103665Y-2552595D01*
X-10045492Y-2494422D01*
X-10045492Y-2378076D01*
X-10045492Y-2610768D02*
X-10220011Y-2610768D01*
X-10220011Y-2756200D01*
X-10190925Y-2785287D01*
X-10161838Y-2785287D01*
X-10132752Y-2756200D01*
X-10132752Y-2610768D01*
X-10132752Y-2756200D02*
X-10103665Y-2785287D01*
X-10045492Y-2785287D01*
X-10220011Y-2872546D02*
X-10220011Y-2988892D01*
X-10220011Y-2930719D02*
X-10045492Y-2930719D01*
X-10045492Y-2872546D02*
X-10045492Y-2988892D01*
X-10220011Y-3076152D02*
X-10132752Y-3076152D01*
X-10045492Y-3163411D01*
X-10132752Y-3250671D01*
X-10220011Y-3250671D01*
X-10045492Y-3483363D02*
X-10045492Y-3308844D01*
X-10220011Y-3308844D01*
X-10220011Y-3483363D01*
X-10132752Y-3308844D02*
X-10132752Y-3425190D01*
X-10045492Y-3541536D02*
X-10220011Y-3541536D01*
X-10220011Y-3686968D01*
X-10190925Y-3716055D01*
X-10161838Y-3716055D01*
X-10132752Y-3686968D01*
X-10132752Y-3541536D01*
X-10132752Y-3686968D02*
X-10103665Y-3716055D01*
X-10045492Y-3716055D01*
X-10220011Y-4123266D02*
X-10161838Y-4065093D01*
X-10103665Y-4065093D01*
X-10045492Y-4123266D01*
X-10045492Y-4239612D02*
X-10220011Y-4239612D01*
X-10220011Y-4385044D01*
X-10190925Y-4414131D01*
X-10161838Y-4414131D01*
X-10132752Y-4385044D01*
X-10132752Y-4239612D01*
X-10132752Y-4385044D02*
X-10103665Y-4414131D01*
X-10045492Y-4414131D01*
X-10161838Y-4530477D02*
X-10220011Y-4588650D01*
X-10045492Y-4588650D01*
X-10132752Y-4734082D02*
X-10132752Y-4879515D01*
X-10045492Y-4937688D02*
X-10220011Y-4937688D01*
X-10220011Y-5083120D01*
X-10190925Y-5112207D01*
X-10161838Y-5112207D01*
X-10132752Y-5083120D01*
X-10132752Y-4937688D01*
X-10132752Y-5083120D02*
X-10103665Y-5112207D01*
X-10045492Y-5112207D01*
X-10190925Y-5344899D02*
X-10220011Y-5315812D01*
X-10220011Y-5228553D01*
X-10190925Y-5199466D01*
X-10074578Y-5199466D01*
X-10045492Y-5228553D01*
X-10045492Y-5315812D01*
X-10074578Y-5344899D01*
X-10103665Y-5344899D01*
X-10132752Y-5315812D01*
X-10132752Y-5199466D01*
X-10220011Y-5490331D02*
X-10161838Y-5548504D01*
X-10103665Y-5548504D01*
X-10045492Y-5490331D01*
D25*
X-10500000Y-7200000D02*
X-10551117Y-7195026D01*
X-10598389Y-7180713D01*
X-10640900Y-7157977D01*
X-10677734Y-7127734D01*
X-10707977Y-7090900D01*
X-10730713Y-7048389D01*
X-10745026Y-7001117D01*
X-10750000Y-6950000D01*
X-10750000Y+3550000D02*
X-10745026Y+3601117D01*
X-10730713Y+3648389D01*
X-10707977Y+3690900D01*
X-10677734Y+3727734D01*
X-10640900Y+3757977D01*
X-10598389Y+3780713D01*
X-10551117Y+3795026D01*
X-10500000Y+3800000D01*
X-5250000Y+800000D02*
X-8200000Y+3800000D01*
X+3800000Y+100000D02*
X+3050000Y+850000D01*
X-1300000Y+800000D02*
X-1248883Y+804974D01*
X-1201611Y+819287D01*
X-1159100Y+842023D01*
X-1122266Y+872266D01*
X-1092023Y+909100D01*
X-1069287Y+951611D01*
X-1054974Y+998883D01*
X-1050000Y+1050000D01*
X-1050000Y+2000000D02*
X-1045026Y+2051117D01*
X-1030713Y+2098389D01*
X-1007977Y+2140900D01*
X-977734Y+2177734D01*
X-940900Y+2207977D01*
X-898389Y+2230713D01*
X-851117Y+2245026D01*
X-800000Y+2250000D01*
X+2800000Y+2250000D02*
X+2851117Y+2245026D01*
X+2898389Y+2230713D01*
X+2940900Y+2207977D01*
X+2977734Y+2177734D01*
X+3007977Y+2140900D01*
X+3030713Y+2098389D01*
X+3045026Y+2051117D01*
X+3050000Y+2000000D01*
X+4050000Y-750000D02*
X+3998883Y-745026D01*
X+3951611Y-730713D01*
X+3909100Y-707977D01*
X+3872266Y-677734D01*
X+3842023Y-640900D01*
X+3819287Y-598389D01*
X+3804974Y-551117D01*
X+3800000Y-500000D01*
X+8600000Y-750000D02*
X+8651117Y-754974D01*
X+8698389Y-769287D01*
X+8740900Y-792023D01*
X+8777734Y-822266D01*
X+8807977Y-859100D01*
X+8830713Y-901611D01*
X+8845026Y-948883D01*
X+8850000Y-1000000D01*
X+8600000Y-7200000D02*
X+8651117Y-7195026D01*
X+8698389Y-7180713D01*
X+8740900Y-7157977D01*
X+8777734Y-7127734D01*
X+8807977Y-7090900D01*
X+8830713Y-7048389D01*
X+8845026Y-7001117D01*
X+8850000Y-6950000D01*
X-800000Y+2250000D02*
X+2800000Y+2250000D01*
X-1050000Y+2000000D02*
X-1050000Y+1050000D01*
X-1300000Y+800000D02*
X-5250000Y+800000D01*
X+3050000Y+850000D02*
X+3050000Y+2000000D01*
X+3800000Y-500000D02*
X+3800000Y+100000D01*
X+4050000Y-750000D02*
X+8600000Y-750000D01*
X+8850000Y-6950000D02*
X+8850000Y-1000000D01*
X+8600000Y-7200000D02*
X-10500000Y-7200000D01*
X-10750000Y-6950000D02*
X-10750000Y+3550000D01*
X-10500000Y+3800000D02*
X-8200000Y+3800000D01*
M02*
