G04 PROTEUS GERBER X2 FILE*
%TF.GenerationSoftware,Labcenter,Proteus,8.6-SP2-Build23525*%
%TF.CreationDate,2023-01-29T17:34:11+00:00*%
%TF.FileFunction,Legend,Bot*%
%TF.FilePolarity,Positive*%
%TF.Part,Single*%
%FSLAX45Y45*%
%MOMM*%
G01*
%TA.AperFunction,Material*%
%ADD27C,0.203200*%
%ADD26C,0.063500*%
%TA.AperFunction,Profile*%
%ADD25C,0.203200*%
%TD.AperFunction*%
D27*
X-1805252Y-6781500D02*
X+8354748Y-6781500D01*
X+8354748Y-6273500D01*
X-1805252Y-6273500D01*
X-1805252Y-6781500D01*
X+4227248Y-7013580D02*
X+4227248Y-6922140D01*
X+4163748Y-6922140D01*
X+4131998Y-6952620D01*
X+4131998Y-6983100D01*
X+4163748Y-7013580D01*
X+4227248Y-7013580D01*
X+4100248Y-7013580D02*
X+4100248Y-6922140D01*
X+4020873Y-6922140D01*
X+4004998Y-6937380D01*
X+4004998Y-6952620D01*
X+4020873Y-6967860D01*
X+4100248Y-6967860D01*
X+4020873Y-6967860D02*
X+4004998Y-6983100D01*
X+4004998Y-7013580D01*
X+3957373Y-6922140D02*
X+3893873Y-6922140D01*
X+3925623Y-6922140D02*
X+3925623Y-7013580D01*
X+3957373Y-7013580D02*
X+3893873Y-7013580D01*
X+3846248Y-6922140D02*
X+3846248Y-6967860D01*
X+3798623Y-7013580D01*
X+3750998Y-6967860D01*
X+3750998Y-6922140D01*
X+3623998Y-7013580D02*
X+3719248Y-7013580D01*
X+3719248Y-6922140D01*
X+3623998Y-6922140D01*
X+3719248Y-6967860D02*
X+3655748Y-6967860D01*
X+3592248Y-7013580D02*
X+3592248Y-6922140D01*
X+3512873Y-6922140D01*
X+3496998Y-6937380D01*
X+3496998Y-6952620D01*
X+3512873Y-6967860D01*
X+3592248Y-6967860D01*
X+3512873Y-6967860D02*
X+3496998Y-6983100D01*
X+3496998Y-7013580D01*
X+3274748Y-6922140D02*
X+3306498Y-6952620D01*
X+3306498Y-6983100D01*
X+3274748Y-7013580D01*
X+3211248Y-7013580D02*
X+3211248Y-6922140D01*
X+3131873Y-6922140D01*
X+3115998Y-6937380D01*
X+3115998Y-6952620D01*
X+3131873Y-6967860D01*
X+3115998Y-6983100D01*
X+3115998Y-6998340D01*
X+3131873Y-7013580D01*
X+3211248Y-7013580D01*
X+3211248Y-6967860D02*
X+3131873Y-6967860D01*
X+2988998Y-6937380D02*
X+3004873Y-6922140D01*
X+3052498Y-6922140D01*
X+3068373Y-6937380D01*
X+3068373Y-6998340D01*
X+3052498Y-7013580D01*
X+3004873Y-7013580D01*
X+2988998Y-6998340D01*
X+2988998Y-6983100D01*
X+3004873Y-6967860D01*
X+3068373Y-6967860D01*
X+2941373Y-6967860D02*
X+2861998Y-6967860D01*
X+2766748Y-6983100D02*
X+2734998Y-6983100D01*
X+2734998Y-7013580D01*
X+2798498Y-7013580D01*
X+2830248Y-6983100D01*
X+2830248Y-6952620D01*
X+2798498Y-6922140D01*
X+2750873Y-6922140D01*
X+2734998Y-6937380D01*
X+2687373Y-6937380D02*
X+2671498Y-6922140D01*
X+2623873Y-6922140D01*
X+2607998Y-6937380D01*
X+2607998Y-6952620D01*
X+2623873Y-6967860D01*
X+2607998Y-6983100D01*
X+2607998Y-6998340D01*
X+2623873Y-7013580D01*
X+2671498Y-7013580D01*
X+2687373Y-6998340D01*
X+2655623Y-6967860D02*
X+2623873Y-6967860D01*
X+2560373Y-6937380D02*
X+2544498Y-6922140D01*
X+2496873Y-6922140D01*
X+2480998Y-6937380D01*
X+2480998Y-6952620D01*
X+2496873Y-6967860D01*
X+2544498Y-6967860D01*
X+2560373Y-6983100D01*
X+2560373Y-7013580D01*
X+2480998Y-7013580D01*
X+2401623Y-6922140D02*
X+2369873Y-6952620D01*
X+2369873Y-6983100D01*
X+2401623Y-7013580D01*
X-10386752Y-6760000D02*
X-9878752Y-6760000D01*
X-9878752Y+3400000D01*
X-10386752Y+3400000D01*
X-10386752Y-6760000D01*
X-10427392Y+479000D02*
X-10518832Y+479000D01*
X-10518832Y+399625D01*
X-10503592Y+383750D01*
X-10488352Y+383750D01*
X-10473112Y+399625D01*
X-10473112Y+479000D01*
X-10488352Y+352000D02*
X-10518832Y+320250D01*
X-10518832Y+288500D01*
X-10488352Y+256750D01*
X-10457872Y+256750D01*
X-10427392Y+288500D01*
X-10427392Y+320250D01*
X-10457872Y+352000D01*
X-10488352Y+352000D01*
X-10518832Y+225000D02*
X-10427392Y+225000D01*
X-10473112Y+177375D01*
X-10427392Y+129750D01*
X-10518832Y+129750D01*
X-10427392Y+2750D02*
X-10427392Y+98000D01*
X-10518832Y+98000D01*
X-10518832Y+2750D01*
X-10473112Y+98000D02*
X-10473112Y+34500D01*
X-10427392Y-29000D02*
X-10518832Y-29000D01*
X-10518832Y-108375D01*
X-10503592Y-124250D01*
X-10488352Y-124250D01*
X-10473112Y-108375D01*
X-10473112Y-29000D01*
X-10473112Y-108375D02*
X-10457872Y-124250D01*
X-10427392Y-124250D01*
X-10427392Y-283000D02*
X-10518832Y-283000D01*
X-10473112Y-330625D01*
X-10518832Y-378250D01*
X-10427392Y-378250D01*
X-10518832Y-410000D02*
X-10442632Y-410000D01*
X-10427392Y-425875D01*
X-10427392Y-489375D01*
X-10442632Y-505250D01*
X-10518832Y-505250D01*
X-10518832Y-537000D02*
X-10427392Y-537000D01*
X-10427392Y-632250D01*
X-10518832Y-664000D02*
X-10518832Y-759250D01*
X-10518832Y-711625D02*
X-10427392Y-711625D01*
X-10518832Y-806875D02*
X-10518832Y-870375D01*
X-10518832Y-838625D02*
X-10427392Y-838625D01*
X-10427392Y-806875D02*
X-10427392Y-870375D01*
X-10427392Y-918000D02*
X-10518832Y-918000D01*
X-10518832Y-997375D01*
X-10503592Y-1013250D01*
X-10488352Y-1013250D01*
X-10473112Y-997375D01*
X-10473112Y-918000D01*
X-10518832Y-1045000D02*
X-10427392Y-1045000D01*
X-10427392Y-1140250D01*
X-10427392Y-1267250D02*
X-10427392Y-1172000D01*
X-10518832Y-1172000D01*
X-10518832Y-1267250D01*
X-10473112Y-1172000D02*
X-10473112Y-1235500D01*
X-10518832Y-1299000D02*
X-10427392Y-1394250D01*
X-10427392Y-1299000D02*
X-10518832Y-1394250D01*
X-10427392Y-1521250D02*
X-10427392Y-1426000D01*
X-10518832Y-1426000D01*
X-10518832Y-1521250D01*
X-10473112Y-1426000D02*
X-10473112Y-1489500D01*
X-10427392Y-1553000D02*
X-10518832Y-1553000D01*
X-10518832Y-1632375D01*
X-10503592Y-1648250D01*
X-10488352Y-1648250D01*
X-10473112Y-1632375D01*
X-10473112Y-1553000D01*
X-10473112Y-1632375D02*
X-10457872Y-1648250D01*
X-10427392Y-1648250D01*
X-10427392Y-1918125D02*
X-10503592Y-1838750D01*
X-10518832Y-1854625D01*
X-10518832Y-1886375D01*
X-10503592Y-1902250D01*
X-10457872Y-1822875D01*
X-10442632Y-1822875D01*
X-10427392Y-1838750D01*
X-10427392Y-1870500D01*
X-10473112Y-1918125D01*
X-10427392Y-2061000D02*
X-10518832Y-2061000D01*
X-10518832Y-2124500D01*
X-10488352Y-2156250D01*
X-10457872Y-2156250D01*
X-10427392Y-2124500D01*
X-10427392Y-2061000D01*
X-10427392Y-2188000D02*
X-10518832Y-2188000D01*
X-10518832Y-2267375D01*
X-10503592Y-2283250D01*
X-10488352Y-2283250D01*
X-10473112Y-2267375D01*
X-10473112Y-2188000D01*
X-10473112Y-2267375D02*
X-10457872Y-2283250D01*
X-10427392Y-2283250D01*
X-10518832Y-2330875D02*
X-10518832Y-2394375D01*
X-10518832Y-2362625D02*
X-10427392Y-2362625D01*
X-10427392Y-2330875D02*
X-10427392Y-2394375D01*
X-10518832Y-2442000D02*
X-10473112Y-2442000D01*
X-10427392Y-2489625D01*
X-10473112Y-2537250D01*
X-10518832Y-2537250D01*
X-10427392Y-2664250D02*
X-10427392Y-2569000D01*
X-10518832Y-2569000D01*
X-10518832Y-2664250D01*
X-10473112Y-2569000D02*
X-10473112Y-2632500D01*
X-10427392Y-2696000D02*
X-10518832Y-2696000D01*
X-10518832Y-2775375D01*
X-10503592Y-2791250D01*
X-10488352Y-2791250D01*
X-10473112Y-2775375D01*
X-10473112Y-2696000D01*
X-10473112Y-2775375D02*
X-10457872Y-2791250D01*
X-10427392Y-2791250D01*
X-10518832Y-3013500D02*
X-10488352Y-2981750D01*
X-10457872Y-2981750D01*
X-10427392Y-3013500D01*
X-10427392Y-3077000D02*
X-10518832Y-3077000D01*
X-10518832Y-3156375D01*
X-10503592Y-3172250D01*
X-10488352Y-3172250D01*
X-10473112Y-3156375D01*
X-10473112Y-3077000D01*
X-10473112Y-3156375D02*
X-10457872Y-3172250D01*
X-10427392Y-3172250D01*
X-10488352Y-3235750D02*
X-10518832Y-3267500D01*
X-10427392Y-3267500D01*
X-10473112Y-3346875D02*
X-10473112Y-3426250D01*
X-10427392Y-3458000D02*
X-10518832Y-3458000D01*
X-10518832Y-3537375D01*
X-10503592Y-3553250D01*
X-10488352Y-3553250D01*
X-10473112Y-3537375D01*
X-10473112Y-3458000D01*
X-10473112Y-3537375D02*
X-10457872Y-3553250D01*
X-10427392Y-3553250D01*
X-10503592Y-3680250D02*
X-10518832Y-3664375D01*
X-10518832Y-3616750D01*
X-10503592Y-3600875D01*
X-10442632Y-3600875D01*
X-10427392Y-3616750D01*
X-10427392Y-3664375D01*
X-10442632Y-3680250D01*
X-10457872Y-3680250D01*
X-10473112Y-3664375D01*
X-10473112Y-3600875D01*
X-10518832Y-3759625D02*
X-10488352Y-3791375D01*
X-10457872Y-3791375D01*
X-10427392Y-3759625D01*
D26*
X-5658723Y-6673845D02*
X-5613003Y-6673845D01*
X-5475843Y-6673845D02*
X-5435203Y-6673845D01*
X-4998323Y-6673845D02*
X-4962763Y-6673845D01*
X-4856083Y-6673845D02*
X-4805283Y-6673845D01*
X-4236323Y-6673845D02*
X-4175363Y-6673845D01*
X-3687683Y-6673845D02*
X-3641963Y-6673845D01*
X-3448923Y-6673845D02*
X-3403203Y-6673845D01*
X-3123803Y-6673845D02*
X-3078083Y-6673845D01*
X-2951083Y-6673845D02*
X-2900283Y-6673845D01*
X-2651363Y-6673845D02*
X-2610723Y-6673845D01*
X-2519283Y-6673845D02*
X-2468483Y-6673845D01*
X-2316083Y-6673845D02*
X-2275443Y-6673845D01*
X-6034643Y-6668765D02*
X-5983843Y-6668765D01*
X-5917803Y-6668765D02*
X-5867003Y-6668765D01*
X-5851763Y-6668765D02*
X-5800963Y-6668765D01*
X-5740003Y-6668765D02*
X-5689203Y-6668765D01*
X-5668883Y-6668765D02*
X-5602843Y-6668765D01*
X-5557123Y-6668765D02*
X-5506323Y-6668765D01*
X-5486003Y-6668765D02*
X-5425043Y-6668765D01*
X-5379323Y-6668765D02*
X-5333603Y-6668765D01*
X-5303123Y-6668765D02*
X-5267563Y-6668765D01*
X-5232003Y-6668765D02*
X-5186283Y-6668765D01*
X-5069443Y-6668765D02*
X-5023723Y-6668765D01*
X-5008483Y-6668765D02*
X-4952603Y-6668765D01*
X-4871323Y-6668765D02*
X-4790043Y-6668765D01*
X-4739243Y-6668765D02*
X-4602083Y-6668765D01*
X-4444603Y-6668765D02*
X-4327763Y-6668765D01*
X-4256643Y-6668765D02*
X-4160123Y-6668765D01*
X-4109323Y-6668765D02*
X-4048363Y-6668765D01*
X-3987403Y-6668765D02*
X-3931523Y-6668765D01*
X-3814683Y-6668765D02*
X-3763883Y-6668765D01*
X-3702923Y-6668765D02*
X-3626723Y-6668765D01*
X-3530203Y-6668765D02*
X-3479403Y-6668765D01*
X-3459083Y-6668765D02*
X-3393043Y-6668765D01*
X-3337163Y-6668765D02*
X-3286363Y-6668765D01*
X-3250803Y-6668765D02*
X-3200003Y-6668765D01*
X-3139043Y-6668765D02*
X-3062843Y-6668765D01*
X-2966323Y-6668765D02*
X-2879963Y-6668765D01*
X-2732643Y-6668765D02*
X-2681843Y-6668765D01*
X-2661523Y-6668765D02*
X-2600563Y-6668765D01*
X-2534523Y-6668765D02*
X-2453243Y-6668765D01*
X-2397363Y-6668765D02*
X-2346563Y-6668765D01*
X-2326243Y-6668765D02*
X-2265283Y-6668765D01*
X-2224643Y-6668765D02*
X-2173843Y-6668765D01*
X-2057003Y-6668765D02*
X-2001123Y-6668765D01*
X-6029563Y-6663685D02*
X-5978763Y-6663685D01*
X-5922883Y-6663685D02*
X-5872083Y-6663685D01*
X-5851763Y-6663685D02*
X-5800963Y-6663685D01*
X-5740003Y-6663685D02*
X-5689203Y-6663685D01*
X-5668883Y-6663685D02*
X-5597763Y-6663685D01*
X-5557123Y-6663685D02*
X-5506323Y-6663685D01*
X-5491083Y-6663685D02*
X-5419963Y-6663685D01*
X-5379323Y-6663685D02*
X-5333603Y-6663685D01*
X-5303123Y-6663685D02*
X-5262483Y-6663685D01*
X-5232003Y-6663685D02*
X-5186283Y-6663685D01*
X-5069443Y-6663685D02*
X-5023723Y-6663685D01*
X-5013563Y-6663685D02*
X-4947523Y-6663685D01*
X-4881483Y-6663685D02*
X-4784963Y-6663685D01*
X-4739243Y-6663685D02*
X-4602083Y-6663685D01*
X-4464923Y-6663685D02*
X-4327763Y-6663685D01*
X-4266803Y-6663685D02*
X-4149963Y-6663685D01*
X-4104243Y-6663685D02*
X-4043283Y-6663685D01*
X-3987403Y-6663685D02*
X-3931523Y-6663685D01*
X-3814683Y-6663685D02*
X-3763883Y-6663685D01*
X-3713083Y-6663685D02*
X-3616563Y-6663685D01*
X-3530203Y-6663685D02*
X-3479403Y-6663685D01*
X-3459083Y-6663685D02*
X-3387963Y-6663685D01*
X-3337163Y-6663685D02*
X-3286363Y-6663685D01*
X-3250803Y-6663685D02*
X-3200003Y-6663685D01*
X-3149203Y-6663685D02*
X-3052683Y-6663685D01*
X-2976483Y-6663685D02*
X-2869803Y-6663685D01*
X-2732643Y-6663685D02*
X-2681843Y-6663685D01*
X-2666603Y-6663685D02*
X-2595483Y-6663685D01*
X-2539603Y-6663685D02*
X-2443083Y-6663685D01*
X-2397363Y-6663685D02*
X-2346563Y-6663685D01*
X-2331323Y-6663685D02*
X-2260203Y-6663685D01*
X-2224643Y-6663685D02*
X-2173843Y-6663685D01*
X-2057003Y-6663685D02*
X-2001123Y-6663685D01*
X-6024483Y-6658605D02*
X-5973683Y-6658605D01*
X-5927963Y-6658605D02*
X-5877163Y-6658605D01*
X-5851763Y-6658605D02*
X-5800963Y-6658605D01*
X-5740003Y-6658605D02*
X-5689203Y-6658605D01*
X-5668883Y-6658605D02*
X-5592683Y-6658605D01*
X-5552043Y-6658605D02*
X-5506323Y-6658605D01*
X-5496163Y-6658605D02*
X-5414883Y-6658605D01*
X-5379323Y-6658605D02*
X-5333603Y-6658605D01*
X-5303123Y-6658605D02*
X-5262483Y-6658605D01*
X-5232003Y-6658605D02*
X-5186283Y-6658605D01*
X-5069443Y-6658605D02*
X-5023723Y-6658605D01*
X-5018643Y-6658605D02*
X-4942443Y-6658605D01*
X-4886563Y-6658605D02*
X-4779883Y-6658605D01*
X-4739243Y-6658605D02*
X-4602083Y-6658605D01*
X-4470003Y-6658605D02*
X-4327763Y-6658605D01*
X-4276963Y-6658605D02*
X-4139803Y-6658605D01*
X-4104243Y-6658605D02*
X-4043283Y-6658605D01*
X-3987403Y-6658605D02*
X-3931523Y-6658605D01*
X-3814683Y-6658605D02*
X-3763883Y-6658605D01*
X-3718163Y-6658605D02*
X-3611483Y-6658605D01*
X-3530203Y-6658605D02*
X-3479403Y-6658605D01*
X-3459083Y-6658605D02*
X-3382883Y-6658605D01*
X-3337163Y-6658605D02*
X-3286363Y-6658605D01*
X-3250803Y-6658605D02*
X-3200003Y-6658605D01*
X-3154283Y-6658605D02*
X-3047603Y-6658605D01*
X-2981563Y-6658605D02*
X-2864723Y-6658605D01*
X-2727563Y-6658605D02*
X-2681843Y-6658605D01*
X-2671683Y-6658605D02*
X-2590403Y-6658605D01*
X-2544683Y-6658605D02*
X-2438003Y-6658605D01*
X-2392283Y-6658605D02*
X-2346563Y-6658605D01*
X-2336403Y-6658605D02*
X-2255123Y-6658605D01*
X-2224643Y-6658605D02*
X-2173843Y-6658605D01*
X-2057003Y-6658605D02*
X-2001123Y-6658605D01*
X-6019403Y-6653525D02*
X-5968603Y-6653525D01*
X-5933043Y-6653525D02*
X-5877163Y-6653525D01*
X-5851763Y-6653525D02*
X-5800963Y-6653525D01*
X-5740003Y-6653525D02*
X-5689203Y-6653525D01*
X-5668883Y-6653525D02*
X-5592683Y-6653525D01*
X-5552043Y-6653525D02*
X-5506323Y-6653525D01*
X-5501243Y-6653525D02*
X-5409803Y-6653525D01*
X-5379323Y-6653525D02*
X-5333603Y-6653525D01*
X-5303123Y-6653525D02*
X-5262483Y-6653525D01*
X-5232003Y-6653525D02*
X-5186283Y-6653525D01*
X-5069443Y-6653525D02*
X-4937363Y-6653525D01*
X-4891643Y-6653525D02*
X-4774803Y-6653525D01*
X-4739243Y-6653525D02*
X-4602083Y-6653525D01*
X-4475083Y-6653525D02*
X-4327763Y-6653525D01*
X-4287123Y-6653525D02*
X-4134723Y-6653525D01*
X-4099163Y-6653525D02*
X-4038203Y-6653525D01*
X-3987403Y-6653525D02*
X-3931523Y-6653525D01*
X-3814683Y-6653525D02*
X-3763883Y-6653525D01*
X-3723243Y-6653525D02*
X-3606403Y-6653525D01*
X-3530203Y-6653525D02*
X-3479403Y-6653525D01*
X-3459083Y-6653525D02*
X-3382883Y-6653525D01*
X-3337163Y-6653525D02*
X-3286363Y-6653525D01*
X-3250803Y-6653525D02*
X-3200003Y-6653525D01*
X-3159363Y-6653525D02*
X-3042523Y-6653525D01*
X-2986643Y-6653525D02*
X-2859643Y-6653525D01*
X-2727563Y-6653525D02*
X-2681843Y-6653525D01*
X-2676763Y-6653525D02*
X-2585323Y-6653525D01*
X-2549763Y-6653525D02*
X-2432923Y-6653525D01*
X-2392283Y-6653525D02*
X-2346563Y-6653525D01*
X-2341483Y-6653525D02*
X-2250043Y-6653525D01*
X-2224643Y-6653525D02*
X-2173843Y-6653525D01*
X-2057003Y-6653525D02*
X-2001123Y-6653525D01*
X-6019403Y-6648445D02*
X-5963523Y-6648445D01*
X-5938123Y-6648445D02*
X-5882243Y-6648445D01*
X-5851763Y-6648445D02*
X-5800963Y-6648445D01*
X-5740003Y-6648445D02*
X-5689203Y-6648445D01*
X-5663803Y-6648445D02*
X-5587603Y-6648445D01*
X-5552043Y-6648445D02*
X-5409803Y-6648445D01*
X-5379323Y-6648445D02*
X-5333603Y-6648445D01*
X-5308203Y-6648445D02*
X-5262483Y-6648445D01*
X-5232003Y-6648445D02*
X-5186283Y-6648445D01*
X-5069443Y-6648445D02*
X-4937363Y-6648445D01*
X-4896723Y-6648445D02*
X-4769723Y-6648445D01*
X-4739243Y-6648445D02*
X-4602083Y-6648445D01*
X-4480163Y-6648445D02*
X-4327763Y-6648445D01*
X-4292203Y-6648445D02*
X-4129643Y-6648445D01*
X-4099163Y-6648445D02*
X-4038203Y-6648445D01*
X-3987403Y-6648445D02*
X-3931523Y-6648445D01*
X-3814683Y-6648445D02*
X-3763883Y-6648445D01*
X-3728323Y-6648445D02*
X-3601323Y-6648445D01*
X-3530203Y-6648445D02*
X-3479403Y-6648445D01*
X-3454003Y-6648445D02*
X-3377803Y-6648445D01*
X-3337163Y-6648445D02*
X-3286363Y-6648445D01*
X-3250803Y-6648445D02*
X-3200003Y-6648445D01*
X-3164443Y-6648445D02*
X-3037443Y-6648445D01*
X-2991723Y-6648445D02*
X-2854563Y-6648445D01*
X-2727563Y-6648445D02*
X-2585323Y-6648445D01*
X-2554843Y-6648445D02*
X-2427843Y-6648445D01*
X-2392283Y-6648445D02*
X-2250043Y-6648445D01*
X-2224643Y-6648445D02*
X-2173843Y-6648445D01*
X-2057003Y-6648445D02*
X-2001123Y-6648445D01*
X-6014323Y-6643365D02*
X-5963523Y-6643365D01*
X-5938123Y-6643365D02*
X-5887323Y-6643365D01*
X-5851763Y-6643365D02*
X-5800963Y-6643365D01*
X-5740003Y-6643365D02*
X-5689203Y-6643365D01*
X-5663803Y-6643365D02*
X-5587603Y-6643365D01*
X-5552043Y-6643365D02*
X-5409803Y-6643365D01*
X-5379323Y-6643365D02*
X-5333603Y-6643365D01*
X-5308203Y-6643365D02*
X-5257403Y-6643365D01*
X-5232003Y-6643365D02*
X-5186283Y-6643365D01*
X-5069443Y-6643365D02*
X-4932283Y-6643365D01*
X-4896723Y-6643365D02*
X-4769723Y-6643365D01*
X-4739243Y-6643365D02*
X-4602083Y-6643365D01*
X-4485243Y-6643365D02*
X-4327763Y-6643365D01*
X-4297283Y-6643365D02*
X-4129643Y-6643365D01*
X-4094083Y-6643365D02*
X-4033123Y-6643365D01*
X-3987403Y-6643365D02*
X-3931523Y-6643365D01*
X-3814683Y-6643365D02*
X-3763883Y-6643365D01*
X-3728323Y-6643365D02*
X-3601323Y-6643365D01*
X-3530203Y-6643365D02*
X-3479403Y-6643365D01*
X-3454003Y-6643365D02*
X-3377803Y-6643365D01*
X-3337163Y-6643365D02*
X-3286363Y-6643365D01*
X-3250803Y-6643365D02*
X-3200003Y-6643365D01*
X-3164443Y-6643365D02*
X-3037443Y-6643365D01*
X-2996803Y-6643365D02*
X-2849483Y-6643365D01*
X-2727563Y-6643365D02*
X-2585323Y-6643365D01*
X-2559923Y-6643365D02*
X-2422763Y-6643365D01*
X-2392283Y-6643365D02*
X-2250043Y-6643365D01*
X-2224643Y-6643365D02*
X-2173843Y-6643365D01*
X-2057003Y-6643365D02*
X-2001123Y-6643365D01*
X-6009243Y-6638285D02*
X-5958443Y-6638285D01*
X-5943203Y-6638285D02*
X-5892403Y-6638285D01*
X-5851763Y-6638285D02*
X-5800963Y-6638285D01*
X-5740003Y-6638285D02*
X-5689203Y-6638285D01*
X-5643483Y-6638285D02*
X-5587603Y-6638285D01*
X-5552043Y-6638285D02*
X-5491083Y-6638285D01*
X-5465683Y-6638285D02*
X-5409803Y-6638285D01*
X-5379323Y-6638285D02*
X-5333603Y-6638285D01*
X-5308203Y-6638285D02*
X-5257403Y-6638285D01*
X-5232003Y-6638285D02*
X-5186283Y-6638285D01*
X-5069443Y-6638285D02*
X-5008483Y-6638285D01*
X-4988163Y-6638285D02*
X-4932283Y-6638285D01*
X-4901803Y-6638285D02*
X-4840843Y-6638285D01*
X-4820523Y-6638285D02*
X-4764643Y-6638285D01*
X-4739243Y-6638285D02*
X-4602083Y-6638285D01*
X-4485243Y-6638285D02*
X-4327763Y-6638285D01*
X-4297283Y-6638285D02*
X-4124563Y-6638285D01*
X-4094083Y-6638285D02*
X-4033123Y-6638285D01*
X-3987403Y-6638285D02*
X-3931523Y-6638285D01*
X-3814683Y-6638285D02*
X-3763883Y-6638285D01*
X-3733403Y-6638285D02*
X-3677523Y-6638285D01*
X-3657203Y-6638285D02*
X-3596243Y-6638285D01*
X-3530203Y-6638285D02*
X-3479403Y-6638285D01*
X-3433683Y-6638285D02*
X-3377803Y-6638285D01*
X-3337163Y-6638285D02*
X-3286363Y-6638285D01*
X-3250803Y-6638285D02*
X-3200003Y-6638285D01*
X-3169523Y-6638285D02*
X-3113643Y-6638285D01*
X-3093323Y-6638285D02*
X-3032363Y-6638285D01*
X-2996803Y-6638285D02*
X-2849483Y-6638285D01*
X-2727563Y-6638285D02*
X-2666603Y-6638285D01*
X-2641203Y-6638285D02*
X-2585323Y-6638285D01*
X-2559923Y-6638285D02*
X-2504043Y-6638285D01*
X-2483723Y-6638285D02*
X-2422763Y-6638285D01*
X-2392283Y-6638285D02*
X-2331323Y-6638285D01*
X-2305923Y-6638285D02*
X-2250043Y-6638285D01*
X-2224643Y-6638285D02*
X-2173843Y-6638285D01*
X-2057003Y-6638285D02*
X-2001123Y-6638285D01*
X-6004163Y-6633205D02*
X-5953363Y-6633205D01*
X-5948283Y-6633205D02*
X-5892403Y-6633205D01*
X-5851763Y-6633205D02*
X-5800963Y-6633205D01*
X-5740003Y-6633205D02*
X-5689203Y-6633205D01*
X-5638403Y-6633205D02*
X-5587603Y-6633205D01*
X-5552043Y-6633205D02*
X-5496163Y-6633205D01*
X-5460603Y-6633205D02*
X-5409803Y-6633205D01*
X-5379323Y-6633205D02*
X-5333603Y-6633205D01*
X-5308203Y-6633205D02*
X-5257403Y-6633205D01*
X-5232003Y-6633205D02*
X-5186283Y-6633205D01*
X-5069443Y-6633205D02*
X-5013563Y-6633205D01*
X-4983083Y-6633205D02*
X-4932283Y-6633205D01*
X-4876403Y-6633205D02*
X-4851003Y-6633205D01*
X-4815443Y-6633205D02*
X-4764643Y-6633205D01*
X-4739243Y-6633205D02*
X-4602083Y-6633205D01*
X-4490323Y-6633205D02*
X-4327763Y-6633205D01*
X-4297283Y-6633205D02*
X-4221083Y-6633205D01*
X-4190603Y-6633205D02*
X-4119483Y-6633205D01*
X-4089003Y-6633205D02*
X-4028043Y-6633205D01*
X-3987403Y-6633205D02*
X-3931523Y-6633205D01*
X-3814683Y-6633205D02*
X-3763883Y-6633205D01*
X-3733403Y-6633205D02*
X-3682603Y-6633205D01*
X-3647043Y-6633205D02*
X-3596243Y-6633205D01*
X-3530203Y-6633205D02*
X-3479403Y-6633205D01*
X-3428603Y-6633205D02*
X-3377803Y-6633205D01*
X-3337163Y-6633205D02*
X-3286363Y-6633205D01*
X-3250803Y-6633205D02*
X-3200003Y-6633205D01*
X-3169523Y-6633205D02*
X-3118723Y-6633205D01*
X-3083163Y-6633205D02*
X-3032363Y-6633205D01*
X-3001883Y-6633205D02*
X-2930763Y-6633205D01*
X-2910443Y-6633205D02*
X-2844403Y-6633205D01*
X-2727563Y-6633205D02*
X-2671683Y-6633205D01*
X-2636123Y-6633205D02*
X-2585323Y-6633205D01*
X-2565003Y-6633205D02*
X-2509123Y-6633205D01*
X-2473563Y-6633205D02*
X-2422763Y-6633205D01*
X-2392283Y-6633205D02*
X-2336403Y-6633205D01*
X-2300843Y-6633205D02*
X-2250043Y-6633205D01*
X-2224643Y-6633205D02*
X-2173843Y-6633205D01*
X-2057003Y-6633205D02*
X-2001123Y-6633205D01*
X-6004163Y-6628125D02*
X-5897483Y-6628125D01*
X-5851763Y-6628125D02*
X-5800963Y-6628125D01*
X-5740003Y-6628125D02*
X-5689203Y-6628125D01*
X-5638403Y-6628125D02*
X-5587603Y-6628125D01*
X-5552043Y-6628125D02*
X-5501243Y-6628125D01*
X-5460603Y-6628125D02*
X-5409803Y-6628125D01*
X-5379323Y-6628125D02*
X-5333603Y-6628125D01*
X-5313283Y-6628125D02*
X-5257403Y-6628125D01*
X-5232003Y-6628125D02*
X-5186283Y-6628125D01*
X-5069443Y-6628125D02*
X-5013563Y-6628125D01*
X-4983083Y-6628125D02*
X-4927203Y-6628125D01*
X-4810363Y-6628125D02*
X-4759563Y-6628125D01*
X-4739243Y-6628125D02*
X-4602083Y-6628125D01*
X-4490323Y-6628125D02*
X-4424283Y-6628125D01*
X-4383643Y-6628125D02*
X-4327763Y-6628125D01*
X-4297283Y-6628125D02*
X-4236323Y-6628125D01*
X-4180443Y-6628125D02*
X-4119483Y-6628125D01*
X-4083923Y-6628125D02*
X-4022963Y-6628125D01*
X-3987403Y-6628125D02*
X-3931523Y-6628125D01*
X-3814683Y-6628125D02*
X-3763883Y-6628125D01*
X-3733403Y-6628125D02*
X-3682603Y-6628125D01*
X-3647043Y-6628125D02*
X-3596243Y-6628125D01*
X-3530203Y-6628125D02*
X-3479403Y-6628125D01*
X-3428603Y-6628125D02*
X-3377803Y-6628125D01*
X-3337163Y-6628125D02*
X-3286363Y-6628125D01*
X-3250803Y-6628125D02*
X-3200003Y-6628125D01*
X-3169523Y-6628125D02*
X-3118723Y-6628125D01*
X-3083163Y-6628125D02*
X-3032363Y-6628125D01*
X-3001883Y-6628125D02*
X-2940923Y-6628125D01*
X-2900283Y-6628125D02*
X-2844403Y-6628125D01*
X-2727563Y-6628125D02*
X-2676763Y-6628125D01*
X-2636123Y-6628125D02*
X-2585323Y-6628125D01*
X-2565003Y-6628125D02*
X-2509123Y-6628125D01*
X-2473563Y-6628125D02*
X-2417683Y-6628125D01*
X-2392283Y-6628125D02*
X-2341483Y-6628125D01*
X-2300843Y-6628125D02*
X-2250043Y-6628125D01*
X-2224643Y-6628125D02*
X-2173843Y-6628125D01*
X-2057003Y-6628125D02*
X-2001123Y-6628125D01*
X-5999083Y-6623045D02*
X-5902563Y-6623045D01*
X-5851763Y-6623045D02*
X-5800963Y-6623045D01*
X-5740003Y-6623045D02*
X-5689203Y-6623045D01*
X-5638403Y-6623045D02*
X-5587603Y-6623045D01*
X-5552043Y-6623045D02*
X-5501243Y-6623045D01*
X-5470763Y-6623045D02*
X-5414883Y-6623045D01*
X-5379323Y-6623045D02*
X-5333603Y-6623045D01*
X-5313283Y-6623045D02*
X-5252323Y-6623045D01*
X-5232003Y-6623045D02*
X-5186283Y-6623045D01*
X-5069443Y-6623045D02*
X-5018643Y-6623045D01*
X-4978003Y-6623045D02*
X-4927203Y-6623045D01*
X-4810363Y-6623045D02*
X-4759563Y-6623045D01*
X-4657963Y-6623045D02*
X-4602083Y-6623045D01*
X-4490323Y-6623045D02*
X-4429363Y-6623045D01*
X-4383643Y-6623045D02*
X-4327763Y-6623045D01*
X-4297283Y-6623045D02*
X-4241403Y-6623045D01*
X-4175363Y-6623045D02*
X-4114403Y-6623045D01*
X-4083923Y-6623045D02*
X-4022963Y-6623045D01*
X-3987403Y-6623045D02*
X-3931523Y-6623045D01*
X-3814683Y-6623045D02*
X-3763883Y-6623045D01*
X-3738483Y-6623045D02*
X-3687683Y-6623045D01*
X-3641963Y-6623045D02*
X-3591163Y-6623045D01*
X-3530203Y-6623045D02*
X-3479403Y-6623045D01*
X-3428603Y-6623045D02*
X-3377803Y-6623045D01*
X-3337163Y-6623045D02*
X-3286363Y-6623045D01*
X-3250803Y-6623045D02*
X-3200003Y-6623045D01*
X-3174603Y-6623045D02*
X-3123803Y-6623045D01*
X-3078083Y-6623045D02*
X-3027283Y-6623045D01*
X-3006963Y-6623045D02*
X-2940923Y-6623045D01*
X-2895203Y-6623045D02*
X-2839323Y-6623045D01*
X-2727563Y-6623045D02*
X-2676763Y-6623045D01*
X-2646283Y-6623045D02*
X-2590403Y-6623045D01*
X-2539603Y-6623045D02*
X-2514203Y-6623045D01*
X-2468483Y-6623045D02*
X-2417683Y-6623045D01*
X-2392283Y-6623045D02*
X-2341483Y-6623045D01*
X-2311003Y-6623045D02*
X-2255123Y-6623045D01*
X-2224643Y-6623045D02*
X-2173843Y-6623045D01*
X-2057003Y-6623045D02*
X-2001123Y-6623045D01*
X-5994003Y-6617965D02*
X-5902563Y-6617965D01*
X-5851763Y-6617965D02*
X-5800963Y-6617965D01*
X-5740003Y-6617965D02*
X-5689203Y-6617965D01*
X-5638403Y-6617965D02*
X-5587603Y-6617965D01*
X-5552043Y-6617965D02*
X-5501243Y-6617965D01*
X-5491083Y-6617965D02*
X-5414883Y-6617965D01*
X-5379323Y-6617965D02*
X-5333603Y-6617965D01*
X-5313283Y-6617965D02*
X-5252323Y-6617965D01*
X-5232003Y-6617965D02*
X-5186283Y-6617965D01*
X-5069443Y-6617965D02*
X-5018643Y-6617965D01*
X-4978003Y-6617965D02*
X-4927203Y-6617965D01*
X-4906883Y-6617965D02*
X-4759563Y-6617965D01*
X-4657963Y-6617965D02*
X-4602083Y-6617965D01*
X-4490323Y-6617965D02*
X-4434443Y-6617965D01*
X-4383643Y-6617965D02*
X-4327763Y-6617965D01*
X-4297283Y-6617965D02*
X-4241403Y-6617965D01*
X-4170283Y-6617965D02*
X-4114403Y-6617965D01*
X-4078843Y-6617965D02*
X-4017883Y-6617965D01*
X-3987403Y-6617965D02*
X-3931523Y-6617965D01*
X-3814683Y-6617965D02*
X-3763883Y-6617965D01*
X-3738483Y-6617965D02*
X-3687683Y-6617965D01*
X-3641963Y-6617965D02*
X-3591163Y-6617965D01*
X-3530203Y-6617965D02*
X-3479403Y-6617965D01*
X-3428603Y-6617965D02*
X-3377803Y-6617965D01*
X-3337163Y-6617965D02*
X-3286363Y-6617965D01*
X-3250803Y-6617965D02*
X-3200003Y-6617965D01*
X-3174603Y-6617965D02*
X-3123803Y-6617965D01*
X-3078083Y-6617965D02*
X-3027283Y-6617965D01*
X-3006963Y-6617965D02*
X-2946003Y-6617965D01*
X-2895203Y-6617965D02*
X-2839323Y-6617965D01*
X-2727563Y-6617965D02*
X-2676763Y-6617965D01*
X-2666603Y-6617965D02*
X-2590403Y-6617965D01*
X-2468483Y-6617965D02*
X-2417683Y-6617965D01*
X-2392283Y-6617965D02*
X-2341483Y-6617965D01*
X-2331323Y-6617965D02*
X-2255123Y-6617965D01*
X-2224643Y-6617965D02*
X-2173843Y-6617965D01*
X-2057003Y-6617965D02*
X-2001123Y-6617965D01*
X-5988923Y-6612885D02*
X-5907643Y-6612885D01*
X-5851763Y-6612885D02*
X-5800963Y-6612885D01*
X-5740003Y-6612885D02*
X-5689203Y-6612885D01*
X-5638403Y-6612885D02*
X-5587603Y-6612885D01*
X-5552043Y-6612885D02*
X-5425043Y-6612885D01*
X-5379323Y-6612885D02*
X-5333603Y-6612885D01*
X-5313283Y-6612885D02*
X-5252323Y-6612885D01*
X-5232003Y-6612885D02*
X-5186283Y-6612885D01*
X-5069443Y-6612885D02*
X-5018643Y-6612885D01*
X-4978003Y-6612885D02*
X-4927203Y-6612885D01*
X-4906883Y-6612885D02*
X-4759563Y-6612885D01*
X-4657963Y-6612885D02*
X-4602083Y-6612885D01*
X-4490323Y-6612885D02*
X-4434443Y-6612885D01*
X-4383643Y-6612885D02*
X-4327763Y-6612885D01*
X-4297283Y-6612885D02*
X-4241403Y-6612885D01*
X-4170283Y-6612885D02*
X-4114403Y-6612885D01*
X-4078843Y-6612885D02*
X-4017883Y-6612885D01*
X-3987403Y-6612885D02*
X-3931523Y-6612885D01*
X-3814683Y-6612885D02*
X-3763883Y-6612885D01*
X-3738483Y-6612885D02*
X-3687683Y-6612885D01*
X-3641963Y-6612885D02*
X-3591163Y-6612885D01*
X-3530203Y-6612885D02*
X-3479403Y-6612885D01*
X-3428603Y-6612885D02*
X-3377803Y-6612885D01*
X-3337163Y-6612885D02*
X-3286363Y-6612885D01*
X-3250803Y-6612885D02*
X-3200003Y-6612885D01*
X-3174603Y-6612885D02*
X-3123803Y-6612885D01*
X-3078083Y-6612885D02*
X-3027283Y-6612885D01*
X-2996803Y-6612885D02*
X-2946003Y-6612885D01*
X-2895203Y-6612885D02*
X-2839323Y-6612885D01*
X-2727563Y-6612885D02*
X-2600563Y-6612885D01*
X-2468483Y-6612885D02*
X-2417683Y-6612885D01*
X-2392283Y-6612885D02*
X-2265283Y-6612885D01*
X-2224643Y-6612885D02*
X-2173843Y-6612885D01*
X-2107803Y-6612885D02*
X-2001123Y-6612885D01*
X-5988923Y-6607805D02*
X-5912723Y-6607805D01*
X-5851763Y-6607805D02*
X-5800963Y-6607805D01*
X-5740003Y-6607805D02*
X-5689203Y-6607805D01*
X-5638403Y-6607805D02*
X-5587603Y-6607805D01*
X-5552043Y-6607805D02*
X-5435203Y-6607805D01*
X-5379323Y-6607805D02*
X-5333603Y-6607805D01*
X-5313283Y-6607805D02*
X-5252323Y-6607805D01*
X-5232003Y-6607805D02*
X-5186283Y-6607805D01*
X-5069443Y-6607805D02*
X-5018643Y-6607805D01*
X-4978003Y-6607805D02*
X-4927203Y-6607805D01*
X-4906883Y-6607805D02*
X-4759563Y-6607805D01*
X-4657963Y-6607805D02*
X-4602083Y-6607805D01*
X-4490323Y-6607805D02*
X-4434443Y-6607805D01*
X-4383643Y-6607805D02*
X-4327763Y-6607805D01*
X-4297283Y-6607805D02*
X-4205843Y-6607805D01*
X-4170283Y-6607805D02*
X-4114403Y-6607805D01*
X-4073763Y-6607805D02*
X-4012803Y-6607805D01*
X-3987403Y-6607805D02*
X-3931523Y-6607805D01*
X-3814683Y-6607805D02*
X-3763883Y-6607805D01*
X-3738483Y-6607805D02*
X-3687683Y-6607805D01*
X-3641963Y-6607805D02*
X-3591163Y-6607805D01*
X-3530203Y-6607805D02*
X-3479403Y-6607805D01*
X-3428603Y-6607805D02*
X-3377803Y-6607805D01*
X-3337163Y-6607805D02*
X-3286363Y-6607805D01*
X-3250803Y-6607805D02*
X-3200003Y-6607805D01*
X-3174603Y-6607805D02*
X-3123803Y-6607805D01*
X-3078083Y-6607805D02*
X-3027283Y-6607805D01*
X-2981563Y-6607805D02*
X-2951083Y-6607805D01*
X-2890123Y-6607805D02*
X-2834243Y-6607805D01*
X-2727563Y-6607805D02*
X-2610723Y-6607805D01*
X-2468483Y-6607805D02*
X-2417683Y-6607805D01*
X-2392283Y-6607805D02*
X-2275443Y-6607805D01*
X-2224643Y-6607805D02*
X-2173843Y-6607805D01*
X-2123043Y-6607805D02*
X-2001123Y-6607805D01*
X-5988923Y-6602725D02*
X-5912723Y-6602725D01*
X-5851763Y-6602725D02*
X-5800963Y-6602725D01*
X-5740003Y-6602725D02*
X-5689203Y-6602725D01*
X-5638403Y-6602725D02*
X-5587603Y-6602725D01*
X-5552043Y-6602725D02*
X-5450443Y-6602725D01*
X-5379323Y-6602725D02*
X-5333603Y-6602725D01*
X-5318363Y-6602725D02*
X-5247243Y-6602725D01*
X-5232003Y-6602725D02*
X-5186283Y-6602725D01*
X-5069443Y-6602725D02*
X-5018643Y-6602725D01*
X-4978003Y-6602725D02*
X-4927203Y-6602725D01*
X-4906883Y-6602725D02*
X-4759563Y-6602725D01*
X-4657963Y-6602725D02*
X-4602083Y-6602725D01*
X-4490323Y-6602725D02*
X-4429363Y-6602725D01*
X-4383643Y-6602725D02*
X-4327763Y-6602725D01*
X-4297283Y-6602725D02*
X-4205843Y-6602725D01*
X-4165203Y-6602725D02*
X-4109323Y-6602725D01*
X-4068683Y-6602725D02*
X-4007723Y-6602725D01*
X-3987403Y-6602725D02*
X-3931523Y-6602725D01*
X-3814683Y-6602725D02*
X-3763883Y-6602725D01*
X-3738483Y-6602725D02*
X-3687683Y-6602725D01*
X-3641963Y-6602725D02*
X-3591163Y-6602725D01*
X-3530203Y-6602725D02*
X-3479403Y-6602725D01*
X-3428603Y-6602725D02*
X-3377803Y-6602725D01*
X-3337163Y-6602725D02*
X-3286363Y-6602725D01*
X-3250803Y-6602725D02*
X-3200003Y-6602725D01*
X-3174603Y-6602725D02*
X-3123803Y-6602725D01*
X-3078083Y-6602725D02*
X-3027283Y-6602725D01*
X-2961243Y-6602725D02*
X-2951083Y-6602725D01*
X-2890123Y-6602725D02*
X-2834243Y-6602725D01*
X-2727563Y-6602725D02*
X-2625963Y-6602725D01*
X-2468483Y-6602725D02*
X-2417683Y-6602725D01*
X-2392283Y-6602725D02*
X-2290683Y-6602725D01*
X-2224643Y-6602725D02*
X-2173843Y-6602725D01*
X-2128123Y-6602725D02*
X-2001123Y-6602725D01*
X-5988923Y-6597645D02*
X-5907643Y-6597645D01*
X-5851763Y-6597645D02*
X-5800963Y-6597645D01*
X-5745083Y-6597645D02*
X-5689203Y-6597645D01*
X-5638403Y-6597645D02*
X-5587603Y-6597645D01*
X-5552043Y-6597645D02*
X-5475843Y-6597645D01*
X-5379323Y-6597645D02*
X-5333603Y-6597645D01*
X-5318363Y-6597645D02*
X-5247243Y-6597645D01*
X-5232003Y-6597645D02*
X-5186283Y-6597645D01*
X-5069443Y-6597645D02*
X-5018643Y-6597645D01*
X-4978003Y-6597645D02*
X-4927203Y-6597645D01*
X-4906883Y-6597645D02*
X-4759563Y-6597645D01*
X-4657963Y-6597645D02*
X-4602083Y-6597645D01*
X-4485243Y-6597645D02*
X-4424283Y-6597645D01*
X-4383643Y-6597645D02*
X-4327763Y-6597645D01*
X-4297283Y-6597645D02*
X-4205843Y-6597645D01*
X-4165203Y-6597645D02*
X-4109323Y-6597645D01*
X-4063603Y-6597645D02*
X-3931523Y-6597645D01*
X-3814683Y-6597645D02*
X-3763883Y-6597645D01*
X-3738483Y-6597645D02*
X-3687683Y-6597645D01*
X-3641963Y-6597645D02*
X-3591163Y-6597645D01*
X-3535283Y-6597645D02*
X-3479403Y-6597645D01*
X-3428603Y-6597645D02*
X-3377803Y-6597645D01*
X-3337163Y-6597645D02*
X-3286363Y-6597645D01*
X-3250803Y-6597645D02*
X-3200003Y-6597645D01*
X-3174603Y-6597645D02*
X-3123803Y-6597645D01*
X-3078083Y-6597645D02*
X-3027283Y-6597645D01*
X-2890123Y-6597645D02*
X-2834243Y-6597645D01*
X-2727563Y-6597645D02*
X-2651363Y-6597645D01*
X-2468483Y-6597645D02*
X-2417683Y-6597645D01*
X-2392283Y-6597645D02*
X-2316083Y-6597645D01*
X-2224643Y-6597645D02*
X-2173843Y-6597645D01*
X-2133203Y-6597645D02*
X-2001123Y-6597645D01*
X-5994003Y-6592565D02*
X-5902563Y-6592565D01*
X-5851763Y-6592565D02*
X-5800963Y-6592565D01*
X-5745083Y-6592565D02*
X-5689203Y-6592565D01*
X-5638403Y-6592565D02*
X-5587603Y-6592565D01*
X-5552043Y-6592565D02*
X-5496163Y-6592565D01*
X-5379323Y-6592565D02*
X-5333603Y-6592565D01*
X-5318363Y-6592565D02*
X-5247243Y-6592565D01*
X-5232003Y-6592565D02*
X-5186283Y-6592565D01*
X-5069443Y-6592565D02*
X-5018643Y-6592565D01*
X-4978003Y-6592565D02*
X-4927203Y-6592565D01*
X-4906883Y-6592565D02*
X-4856083Y-6592565D01*
X-4810363Y-6592565D02*
X-4759563Y-6592565D01*
X-4657963Y-6592565D02*
X-4602083Y-6592565D01*
X-4485243Y-6592565D02*
X-4327763Y-6592565D01*
X-4297283Y-6592565D02*
X-4205843Y-6592565D01*
X-4165203Y-6592565D02*
X-4109323Y-6592565D01*
X-4053443Y-6592565D02*
X-3931523Y-6592565D01*
X-3814683Y-6592565D02*
X-3763883Y-6592565D01*
X-3738483Y-6592565D02*
X-3687683Y-6592565D01*
X-3641963Y-6592565D02*
X-3591163Y-6592565D01*
X-3535283Y-6592565D02*
X-3479403Y-6592565D01*
X-3428603Y-6592565D02*
X-3377803Y-6592565D01*
X-3337163Y-6592565D02*
X-3286363Y-6592565D01*
X-3250803Y-6592565D02*
X-3200003Y-6592565D01*
X-3174603Y-6592565D02*
X-3123803Y-6592565D01*
X-3078083Y-6592565D02*
X-3027283Y-6592565D01*
X-2890123Y-6592565D02*
X-2834243Y-6592565D01*
X-2727563Y-6592565D02*
X-2671683Y-6592565D01*
X-2468483Y-6592565D02*
X-2417683Y-6592565D01*
X-2392283Y-6592565D02*
X-2336403Y-6592565D01*
X-2224643Y-6592565D02*
X-2173843Y-6592565D01*
X-2138283Y-6592565D02*
X-2001123Y-6592565D01*
X-5999083Y-6587485D02*
X-5902563Y-6587485D01*
X-5851763Y-6587485D02*
X-5800963Y-6587485D01*
X-5750163Y-6587485D02*
X-5689203Y-6587485D01*
X-5638403Y-6587485D02*
X-5587603Y-6587485D01*
X-5552043Y-6587485D02*
X-5501243Y-6587485D01*
X-5465683Y-6587485D02*
X-5440283Y-6587485D01*
X-5379323Y-6587485D02*
X-5333603Y-6587485D01*
X-5318363Y-6587485D02*
X-5287883Y-6587485D01*
X-5277723Y-6587485D02*
X-5247243Y-6587485D01*
X-5232003Y-6587485D02*
X-5186283Y-6587485D01*
X-5069443Y-6587485D02*
X-5013563Y-6587485D01*
X-4983083Y-6587485D02*
X-4927203Y-6587485D01*
X-4901803Y-6587485D02*
X-4856083Y-6587485D01*
X-4810363Y-6587485D02*
X-4759563Y-6587485D01*
X-4657963Y-6587485D02*
X-4602083Y-6587485D01*
X-4480163Y-6587485D02*
X-4327763Y-6587485D01*
X-4297283Y-6587485D02*
X-4205843Y-6587485D01*
X-4165203Y-6587485D02*
X-4109323Y-6587485D01*
X-4068683Y-6587485D02*
X-3931523Y-6587485D01*
X-3814683Y-6587485D02*
X-3763883Y-6587485D01*
X-3738483Y-6587485D02*
X-3682603Y-6587485D01*
X-3647043Y-6587485D02*
X-3596243Y-6587485D01*
X-3540363Y-6587485D02*
X-3479403Y-6587485D01*
X-3428603Y-6587485D02*
X-3377803Y-6587485D01*
X-3337163Y-6587485D02*
X-3281283Y-6587485D01*
X-3255883Y-6587485D02*
X-3200003Y-6587485D01*
X-3174603Y-6587485D02*
X-3118723Y-6587485D01*
X-3083163Y-6587485D02*
X-3032363Y-6587485D01*
X-2890123Y-6587485D02*
X-2834243Y-6587485D01*
X-2727563Y-6587485D02*
X-2676763Y-6587485D01*
X-2641203Y-6587485D02*
X-2615803Y-6587485D01*
X-2539603Y-6587485D02*
X-2514203Y-6587485D01*
X-2473563Y-6587485D02*
X-2417683Y-6587485D01*
X-2392283Y-6587485D02*
X-2341483Y-6587485D01*
X-2305923Y-6587485D02*
X-2280523Y-6587485D01*
X-2224643Y-6587485D02*
X-2173843Y-6587485D01*
X-2143363Y-6587485D02*
X-2001123Y-6587485D01*
X-6004163Y-6582405D02*
X-5897483Y-6582405D01*
X-5851763Y-6582405D02*
X-5800963Y-6582405D01*
X-5755243Y-6582405D02*
X-5689203Y-6582405D01*
X-5638403Y-6582405D02*
X-5587603Y-6582405D01*
X-5552043Y-6582405D02*
X-5501243Y-6582405D01*
X-5470763Y-6582405D02*
X-5414883Y-6582405D01*
X-5379323Y-6582405D02*
X-5333603Y-6582405D01*
X-5323443Y-6582405D02*
X-5287883Y-6582405D01*
X-5277723Y-6582405D02*
X-5242163Y-6582405D01*
X-5232003Y-6582405D02*
X-5186283Y-6582405D01*
X-5069443Y-6582405D02*
X-5013563Y-6582405D01*
X-4983083Y-6582405D02*
X-4927203Y-6582405D01*
X-4901803Y-6582405D02*
X-4851003Y-6582405D01*
X-4815443Y-6582405D02*
X-4764643Y-6582405D01*
X-4657963Y-6582405D02*
X-4602083Y-6582405D01*
X-4475083Y-6582405D02*
X-4327763Y-6582405D01*
X-4297283Y-6582405D02*
X-4205843Y-6582405D01*
X-4165203Y-6582405D02*
X-4109323Y-6582405D01*
X-4073763Y-6582405D02*
X-3931523Y-6582405D01*
X-3814683Y-6582405D02*
X-3763883Y-6582405D01*
X-3733403Y-6582405D02*
X-3682603Y-6582405D01*
X-3647043Y-6582405D02*
X-3596243Y-6582405D01*
X-3545443Y-6582405D02*
X-3479403Y-6582405D01*
X-3428603Y-6582405D02*
X-3377803Y-6582405D01*
X-3337163Y-6582405D02*
X-3281283Y-6582405D01*
X-3260963Y-6582405D02*
X-3200003Y-6582405D01*
X-3169523Y-6582405D02*
X-3118723Y-6582405D01*
X-3083163Y-6582405D02*
X-3032363Y-6582405D01*
X-2890123Y-6582405D02*
X-2834243Y-6582405D01*
X-2727563Y-6582405D02*
X-2676763Y-6582405D01*
X-2646283Y-6582405D02*
X-2590403Y-6582405D01*
X-2565003Y-6582405D02*
X-2509123Y-6582405D01*
X-2478643Y-6582405D02*
X-2422763Y-6582405D01*
X-2392283Y-6582405D02*
X-2341483Y-6582405D01*
X-2311003Y-6582405D02*
X-2255123Y-6582405D01*
X-2224643Y-6582405D02*
X-2173843Y-6582405D01*
X-2143363Y-6582405D02*
X-2001123Y-6582405D01*
X-6004163Y-6577325D02*
X-5953363Y-6577325D01*
X-5948283Y-6577325D02*
X-5892403Y-6577325D01*
X-5851763Y-6577325D02*
X-5800963Y-6577325D01*
X-5780643Y-6577325D02*
X-5689203Y-6577325D01*
X-5663803Y-6577325D02*
X-5567283Y-6577325D01*
X-5552043Y-6577325D02*
X-5496163Y-6577325D01*
X-5475843Y-6577325D02*
X-5414883Y-6577325D01*
X-5379323Y-6577325D02*
X-5333603Y-6577325D01*
X-5323443Y-6577325D02*
X-5287883Y-6577325D01*
X-5277723Y-6577325D02*
X-5242163Y-6577325D01*
X-5232003Y-6577325D02*
X-5186283Y-6577325D01*
X-5069443Y-6577325D02*
X-5008483Y-6577325D01*
X-4988163Y-6577325D02*
X-4932283Y-6577325D01*
X-4901803Y-6577325D02*
X-4845923Y-6577325D01*
X-4820523Y-6577325D02*
X-4764643Y-6577325D01*
X-4657963Y-6577325D02*
X-4602083Y-6577325D01*
X-4470003Y-6577325D02*
X-4327763Y-6577325D01*
X-4297283Y-6577325D02*
X-4205843Y-6577325D01*
X-4165203Y-6577325D02*
X-4109323Y-6577325D01*
X-4083923Y-6577325D02*
X-3931523Y-6577325D01*
X-3814683Y-6577325D02*
X-3763883Y-6577325D01*
X-3733403Y-6577325D02*
X-3672443Y-6577325D01*
X-3657203Y-6577325D02*
X-3596243Y-6577325D01*
X-3570843Y-6577325D02*
X-3479403Y-6577325D01*
X-3454003Y-6577325D02*
X-3357483Y-6577325D01*
X-3337163Y-6577325D02*
X-3200003Y-6577325D01*
X-3169523Y-6577325D02*
X-3108563Y-6577325D01*
X-3093323Y-6577325D02*
X-3032363Y-6577325D01*
X-2890123Y-6577325D02*
X-2834243Y-6577325D01*
X-2727563Y-6577325D02*
X-2671683Y-6577325D01*
X-2651363Y-6577325D02*
X-2590403Y-6577325D01*
X-2559923Y-6577325D02*
X-2504043Y-6577325D01*
X-2483723Y-6577325D02*
X-2422763Y-6577325D01*
X-2392283Y-6577325D02*
X-2336403Y-6577325D01*
X-2316083Y-6577325D02*
X-2255123Y-6577325D01*
X-2224643Y-6577325D02*
X-2173843Y-6577325D01*
X-2143363Y-6577325D02*
X-2001123Y-6577325D01*
X-6009243Y-6572245D02*
X-5958443Y-6572245D01*
X-5943203Y-6572245D02*
X-5887323Y-6572245D01*
X-5851763Y-6572245D02*
X-5800963Y-6572245D01*
X-5780643Y-6572245D02*
X-5689203Y-6572245D01*
X-5663803Y-6572245D02*
X-5567283Y-6572245D01*
X-5552043Y-6572245D02*
X-5419963Y-6572245D01*
X-5379323Y-6572245D02*
X-5333603Y-6572245D01*
X-5323443Y-6572245D02*
X-5287883Y-6572245D01*
X-5277723Y-6572245D02*
X-5242163Y-6572245D01*
X-5232003Y-6572245D02*
X-5186283Y-6572245D01*
X-5069443Y-6572245D02*
X-4932283Y-6572245D01*
X-4896723Y-6572245D02*
X-4769723Y-6572245D01*
X-4657963Y-6572245D02*
X-4602083Y-6572245D01*
X-4454763Y-6572245D02*
X-4327763Y-6572245D01*
X-4297283Y-6572245D02*
X-4205843Y-6572245D01*
X-4165203Y-6572245D02*
X-4109323Y-6572245D01*
X-4083923Y-6572245D02*
X-3931523Y-6572245D01*
X-3814683Y-6572245D02*
X-3763883Y-6572245D01*
X-3728323Y-6572245D02*
X-3601323Y-6572245D01*
X-3570843Y-6572245D02*
X-3479403Y-6572245D01*
X-3454003Y-6572245D02*
X-3357483Y-6572245D01*
X-3337163Y-6572245D02*
X-3200003Y-6572245D01*
X-3164443Y-6572245D02*
X-3037443Y-6572245D01*
X-2890123Y-6572245D02*
X-2834243Y-6572245D01*
X-2727563Y-6572245D02*
X-2595483Y-6572245D01*
X-2559923Y-6572245D02*
X-2427843Y-6572245D01*
X-2392283Y-6572245D02*
X-2260203Y-6572245D01*
X-2224643Y-6572245D02*
X-2173843Y-6572245D01*
X-2148443Y-6572245D02*
X-2082403Y-6572245D01*
X-2057003Y-6572245D02*
X-2001123Y-6572245D01*
X-6014323Y-6567165D02*
X-5958443Y-6567165D01*
X-5938123Y-6567165D02*
X-5887323Y-6567165D01*
X-5851763Y-6567165D02*
X-5800963Y-6567165D01*
X-5780643Y-6567165D02*
X-5689203Y-6567165D01*
X-5663803Y-6567165D02*
X-5567283Y-6567165D01*
X-5546963Y-6567165D02*
X-5419963Y-6567165D01*
X-5379323Y-6567165D02*
X-5333603Y-6567165D01*
X-5323443Y-6567165D02*
X-5292963Y-6567165D01*
X-5272643Y-6567165D02*
X-5242163Y-6567165D01*
X-5232003Y-6567165D02*
X-5186283Y-6567165D01*
X-5069443Y-6567165D02*
X-4937363Y-6567165D01*
X-4896723Y-6567165D02*
X-4769723Y-6567165D01*
X-4657963Y-6567165D02*
X-4602083Y-6567165D01*
X-4459843Y-6567165D02*
X-4327763Y-6567165D01*
X-4165203Y-6567165D02*
X-4109323Y-6567165D01*
X-4089003Y-6567165D02*
X-3931523Y-6567165D01*
X-3814683Y-6567165D02*
X-3763883Y-6567165D01*
X-3728323Y-6567165D02*
X-3601323Y-6567165D01*
X-3570843Y-6567165D02*
X-3479403Y-6567165D01*
X-3454003Y-6567165D02*
X-3357483Y-6567165D01*
X-3332083Y-6567165D02*
X-3200003Y-6567165D01*
X-3164443Y-6567165D02*
X-3037443Y-6567165D01*
X-2890123Y-6567165D02*
X-2834243Y-6567165D01*
X-2722483Y-6567165D02*
X-2595483Y-6567165D01*
X-2554843Y-6567165D02*
X-2427843Y-6567165D01*
X-2387203Y-6567165D02*
X-2260203Y-6567165D01*
X-2224643Y-6567165D02*
X-2173843Y-6567165D01*
X-2148443Y-6567165D02*
X-2087483Y-6567165D01*
X-2057003Y-6567165D02*
X-2001123Y-6567165D01*
X-6014323Y-6562085D02*
X-5963523Y-6562085D01*
X-5933043Y-6562085D02*
X-5882243Y-6562085D01*
X-5851763Y-6562085D02*
X-5800963Y-6562085D01*
X-5785723Y-6562085D02*
X-5740003Y-6562085D01*
X-5734923Y-6562085D02*
X-5689203Y-6562085D01*
X-5663803Y-6562085D02*
X-5567283Y-6562085D01*
X-5546963Y-6562085D02*
X-5425043Y-6562085D01*
X-5379323Y-6562085D02*
X-5333603Y-6562085D01*
X-5328523Y-6562085D02*
X-5292963Y-6562085D01*
X-5272643Y-6562085D02*
X-5237083Y-6562085D01*
X-5232003Y-6562085D02*
X-5186283Y-6562085D01*
X-5069443Y-6562085D02*
X-4937363Y-6562085D01*
X-4891643Y-6562085D02*
X-4774803Y-6562085D01*
X-4657963Y-6562085D02*
X-4602083Y-6562085D01*
X-4464923Y-6562085D02*
X-4327763Y-6562085D01*
X-4165203Y-6562085D02*
X-4109323Y-6562085D01*
X-4089003Y-6562085D02*
X-3931523Y-6562085D01*
X-3814683Y-6562085D02*
X-3763883Y-6562085D01*
X-3723243Y-6562085D02*
X-3606403Y-6562085D01*
X-3575923Y-6562085D02*
X-3530203Y-6562085D01*
X-3525123Y-6562085D02*
X-3479403Y-6562085D01*
X-3454003Y-6562085D02*
X-3357483Y-6562085D01*
X-3332083Y-6562085D02*
X-3250803Y-6562085D01*
X-3245723Y-6562085D02*
X-3200003Y-6562085D01*
X-3159363Y-6562085D02*
X-3042523Y-6562085D01*
X-2890123Y-6562085D02*
X-2834243Y-6562085D01*
X-2722483Y-6562085D02*
X-2600563Y-6562085D01*
X-2554843Y-6562085D02*
X-2432923Y-6562085D01*
X-2387203Y-6562085D02*
X-2265283Y-6562085D01*
X-2224643Y-6562085D02*
X-2173843Y-6562085D01*
X-2148443Y-6562085D02*
X-2092563Y-6562085D01*
X-2057003Y-6562085D02*
X-2001123Y-6562085D01*
X-6019403Y-6557005D02*
X-5968603Y-6557005D01*
X-5927963Y-6557005D02*
X-5877163Y-6557005D01*
X-5851763Y-6557005D02*
X-5800963Y-6557005D01*
X-5785723Y-6557005D02*
X-5740003Y-6557005D01*
X-5734923Y-6557005D02*
X-5689203Y-6557005D01*
X-5663803Y-6557005D02*
X-5567283Y-6557005D01*
X-5541883Y-6557005D02*
X-5425043Y-6557005D01*
X-5379323Y-6557005D02*
X-5333603Y-6557005D01*
X-5328523Y-6557005D02*
X-5292963Y-6557005D01*
X-5272643Y-6557005D02*
X-5237083Y-6557005D01*
X-5232003Y-6557005D02*
X-5186283Y-6557005D01*
X-5069443Y-6557005D02*
X-4942443Y-6557005D01*
X-4886563Y-6557005D02*
X-4779883Y-6557005D01*
X-4657963Y-6557005D02*
X-4602083Y-6557005D01*
X-4470003Y-6557005D02*
X-4327763Y-6557005D01*
X-4170283Y-6557005D02*
X-4114403Y-6557005D01*
X-4094083Y-6557005D02*
X-4028043Y-6557005D01*
X-3987403Y-6557005D02*
X-3931523Y-6557005D01*
X-3814683Y-6557005D02*
X-3763883Y-6557005D01*
X-3718163Y-6557005D02*
X-3611483Y-6557005D01*
X-3575923Y-6557005D02*
X-3530203Y-6557005D01*
X-3525123Y-6557005D02*
X-3479403Y-6557005D01*
X-3454003Y-6557005D02*
X-3357483Y-6557005D01*
X-3332083Y-6557005D02*
X-3255883Y-6557005D01*
X-3245723Y-6557005D02*
X-3200003Y-6557005D01*
X-3154283Y-6557005D02*
X-3047603Y-6557005D01*
X-2890123Y-6557005D02*
X-2834243Y-6557005D01*
X-2717403Y-6557005D02*
X-2600563Y-6557005D01*
X-2549763Y-6557005D02*
X-2438003Y-6557005D01*
X-2382123Y-6557005D02*
X-2265283Y-6557005D01*
X-2224643Y-6557005D02*
X-2173843Y-6557005D01*
X-2148443Y-6557005D02*
X-2092563Y-6557005D01*
X-2057003Y-6557005D02*
X-2001123Y-6557005D01*
X-6024483Y-6551925D02*
X-5973683Y-6551925D01*
X-5922883Y-6551925D02*
X-5872083Y-6551925D01*
X-5851763Y-6551925D02*
X-5800963Y-6551925D01*
X-5790803Y-6551925D02*
X-5745083Y-6551925D01*
X-5734923Y-6551925D02*
X-5689203Y-6551925D01*
X-5663803Y-6551925D02*
X-5567283Y-6551925D01*
X-5536803Y-6551925D02*
X-5430123Y-6551925D01*
X-5379323Y-6551925D02*
X-5333603Y-6551925D01*
X-5328523Y-6551925D02*
X-5292963Y-6551925D01*
X-5272643Y-6551925D02*
X-5237083Y-6551925D01*
X-5232003Y-6551925D02*
X-5186283Y-6551925D01*
X-5069443Y-6551925D02*
X-4947523Y-6551925D01*
X-4881483Y-6551925D02*
X-4784963Y-6551925D01*
X-4657963Y-6551925D02*
X-4602083Y-6551925D01*
X-4475083Y-6551925D02*
X-4419203Y-6551925D01*
X-4383643Y-6551925D02*
X-4327763Y-6551925D01*
X-4170283Y-6551925D02*
X-4114403Y-6551925D01*
X-4094083Y-6551925D02*
X-4038203Y-6551925D01*
X-3987403Y-6551925D02*
X-3931523Y-6551925D01*
X-3814683Y-6551925D02*
X-3763883Y-6551925D01*
X-3713083Y-6551925D02*
X-3616563Y-6551925D01*
X-3581003Y-6551925D02*
X-3535283Y-6551925D01*
X-3525123Y-6551925D02*
X-3479403Y-6551925D01*
X-3454003Y-6551925D02*
X-3357483Y-6551925D01*
X-3327003Y-6551925D02*
X-3260963Y-6551925D01*
X-3245723Y-6551925D02*
X-3200003Y-6551925D01*
X-3149203Y-6551925D02*
X-3052683Y-6551925D01*
X-2966323Y-6551925D02*
X-2951083Y-6551925D01*
X-2895203Y-6551925D02*
X-2839323Y-6551925D01*
X-2712323Y-6551925D02*
X-2605643Y-6551925D01*
X-2544683Y-6551925D02*
X-2443083Y-6551925D01*
X-2377043Y-6551925D02*
X-2270363Y-6551925D01*
X-2224643Y-6551925D02*
X-2173843Y-6551925D01*
X-2148443Y-6551925D02*
X-2092563Y-6551925D01*
X-2057003Y-6551925D02*
X-2001123Y-6551925D01*
X-6029563Y-6546845D02*
X-5978763Y-6546845D01*
X-5917803Y-6546845D02*
X-5867003Y-6546845D01*
X-5851763Y-6546845D02*
X-5800963Y-6546845D01*
X-5790803Y-6546845D02*
X-5750163Y-6546845D01*
X-5734923Y-6546845D02*
X-5689203Y-6546845D01*
X-5663803Y-6546845D02*
X-5567283Y-6546845D01*
X-5531723Y-6546845D02*
X-5440283Y-6546845D01*
X-5379323Y-6546845D02*
X-5333603Y-6546845D01*
X-5328523Y-6546845D02*
X-5292963Y-6546845D01*
X-5272643Y-6546845D02*
X-5237083Y-6546845D01*
X-5232003Y-6546845D02*
X-5186283Y-6546845D01*
X-5069443Y-6546845D02*
X-5018643Y-6546845D01*
X-5008483Y-6546845D02*
X-4952603Y-6546845D01*
X-4871323Y-6546845D02*
X-4795123Y-6546845D01*
X-4657963Y-6546845D02*
X-4602083Y-6546845D01*
X-4480163Y-6546845D02*
X-4424283Y-6546845D01*
X-4383643Y-6546845D02*
X-4327763Y-6546845D01*
X-4256643Y-6546845D02*
X-4241403Y-6546845D01*
X-4175363Y-6546845D02*
X-4114403Y-6546845D01*
X-4094083Y-6546845D02*
X-4038203Y-6546845D01*
X-3987403Y-6546845D02*
X-3931523Y-6546845D01*
X-3814683Y-6546845D02*
X-3763883Y-6546845D01*
X-3702923Y-6546845D02*
X-3626723Y-6546845D01*
X-3581003Y-6546845D02*
X-3540363Y-6546845D01*
X-3525123Y-6546845D02*
X-3479403Y-6546845D01*
X-3454003Y-6546845D02*
X-3357483Y-6546845D01*
X-3321923Y-6546845D02*
X-3266043Y-6546845D01*
X-3245723Y-6546845D02*
X-3200003Y-6546845D01*
X-3139043Y-6546845D02*
X-3062843Y-6546845D01*
X-2991723Y-6546845D02*
X-2946003Y-6546845D01*
X-2895203Y-6546845D02*
X-2839323Y-6546845D01*
X-2707243Y-6546845D02*
X-2615803Y-6546845D01*
X-2534523Y-6546845D02*
X-2453243Y-6546845D01*
X-2371963Y-6546845D02*
X-2280523Y-6546845D01*
X-2224643Y-6546845D02*
X-2173843Y-6546845D01*
X-2148443Y-6546845D02*
X-2092563Y-6546845D01*
X-2057003Y-6546845D02*
X-2001123Y-6546845D01*
X-5780643Y-6541765D02*
X-5755243Y-6541765D01*
X-5638403Y-6541765D02*
X-5587603Y-6541765D01*
X-5516483Y-6541765D02*
X-5455523Y-6541765D01*
X-5379323Y-6541765D02*
X-5298043Y-6541765D01*
X-5267563Y-6541765D02*
X-5186283Y-6541765D01*
X-5069443Y-6541765D02*
X-5018643Y-6541765D01*
X-4998323Y-6541765D02*
X-4962763Y-6541765D01*
X-4856083Y-6541765D02*
X-4810363Y-6541765D01*
X-4657963Y-6541765D02*
X-4602083Y-6541765D01*
X-4480163Y-6541765D02*
X-4424283Y-6541765D01*
X-4383643Y-6541765D02*
X-4327763Y-6541765D01*
X-4287123Y-6541765D02*
X-4236323Y-6541765D01*
X-4175363Y-6541765D02*
X-4114403Y-6541765D01*
X-4094083Y-6541765D02*
X-4038203Y-6541765D01*
X-3987403Y-6541765D02*
X-3931523Y-6541765D01*
X-3814683Y-6541765D02*
X-3763883Y-6541765D01*
X-3687683Y-6541765D02*
X-3641963Y-6541765D01*
X-3570843Y-6541765D02*
X-3545443Y-6541765D01*
X-3428603Y-6541765D02*
X-3377803Y-6541765D01*
X-3311763Y-6541765D02*
X-3276203Y-6541765D01*
X-3123803Y-6541765D02*
X-3078083Y-6541765D01*
X-3006963Y-6541765D02*
X-2946003Y-6541765D01*
X-2900283Y-6541765D02*
X-2839323Y-6541765D01*
X-2692003Y-6541765D02*
X-2631043Y-6541765D01*
X-2519283Y-6541765D02*
X-2468483Y-6541765D01*
X-2356723Y-6541765D02*
X-2295763Y-6541765D01*
X-2224643Y-6541765D02*
X-2173843Y-6541765D01*
X-2148443Y-6541765D02*
X-2087483Y-6541765D01*
X-2057003Y-6541765D02*
X-2001123Y-6541765D01*
X-5638403Y-6536685D02*
X-5587603Y-6536685D01*
X-5379323Y-6536685D02*
X-5298043Y-6536685D01*
X-5267563Y-6536685D02*
X-5186283Y-6536685D01*
X-5069443Y-6536685D02*
X-5018643Y-6536685D01*
X-4657963Y-6536685D02*
X-4602083Y-6536685D01*
X-4480163Y-6536685D02*
X-4419203Y-6536685D01*
X-4383643Y-6536685D02*
X-4327763Y-6536685D01*
X-4297283Y-6536685D02*
X-4231243Y-6536685D01*
X-4180443Y-6536685D02*
X-4119483Y-6536685D01*
X-4094083Y-6536685D02*
X-4033123Y-6536685D01*
X-3987403Y-6536685D02*
X-3931523Y-6536685D01*
X-3814683Y-6536685D02*
X-3763883Y-6536685D01*
X-3428603Y-6536685D02*
X-3377803Y-6536685D01*
X-3006963Y-6536685D02*
X-2940923Y-6536685D01*
X-2905363Y-6536685D02*
X-2844403Y-6536685D01*
X-2224643Y-6536685D02*
X-2173843Y-6536685D01*
X-2148443Y-6536685D02*
X-2082403Y-6536685D01*
X-2057003Y-6536685D02*
X-2001123Y-6536685D01*
X-5638403Y-6531605D02*
X-5587603Y-6531605D01*
X-5379323Y-6531605D02*
X-5298043Y-6531605D01*
X-5267563Y-6531605D02*
X-5186283Y-6531605D01*
X-5069443Y-6531605D02*
X-5018643Y-6531605D01*
X-4657963Y-6531605D02*
X-4602083Y-6531605D01*
X-4480163Y-6531605D02*
X-4327763Y-6531605D01*
X-4292203Y-6531605D02*
X-4226163Y-6531605D01*
X-4190603Y-6531605D02*
X-4119483Y-6531605D01*
X-4094083Y-6531605D02*
X-3931523Y-6531605D01*
X-3814683Y-6531605D02*
X-3763883Y-6531605D01*
X-3428603Y-6531605D02*
X-3377803Y-6531605D01*
X-3001883Y-6531605D02*
X-2935843Y-6531605D01*
X-2910443Y-6531605D02*
X-2844403Y-6531605D01*
X-2224643Y-6531605D02*
X-2173843Y-6531605D01*
X-2148443Y-6531605D02*
X-2001123Y-6531605D01*
X-5851763Y-6526525D02*
X-5800963Y-6526525D01*
X-5638403Y-6526525D02*
X-5587603Y-6526525D01*
X-5379323Y-6526525D02*
X-5298043Y-6526525D01*
X-5267563Y-6526525D02*
X-5186283Y-6526525D01*
X-5069443Y-6526525D02*
X-5018643Y-6526525D01*
X-4657963Y-6526525D02*
X-4602083Y-6526525D01*
X-4480163Y-6526525D02*
X-4327763Y-6526525D01*
X-4292203Y-6526525D02*
X-4124563Y-6526525D01*
X-4094083Y-6526525D02*
X-3931523Y-6526525D01*
X-3814683Y-6526525D02*
X-3763883Y-6526525D01*
X-3428603Y-6526525D02*
X-3377803Y-6526525D01*
X-3001883Y-6526525D02*
X-2849483Y-6526525D01*
X-2224643Y-6526525D02*
X-2173843Y-6526525D01*
X-2143363Y-6526525D02*
X-2001123Y-6526525D01*
X-5851763Y-6521445D02*
X-5800963Y-6521445D01*
X-5638403Y-6521445D02*
X-5587603Y-6521445D01*
X-5379323Y-6521445D02*
X-5303123Y-6521445D01*
X-5262483Y-6521445D02*
X-5186283Y-6521445D01*
X-5069443Y-6521445D02*
X-5018643Y-6521445D01*
X-4657963Y-6521445D02*
X-4602083Y-6521445D01*
X-4480163Y-6521445D02*
X-4327763Y-6521445D01*
X-4287123Y-6521445D02*
X-4129643Y-6521445D01*
X-4089003Y-6521445D02*
X-3931523Y-6521445D01*
X-3814683Y-6521445D02*
X-3763883Y-6521445D01*
X-3428603Y-6521445D02*
X-3377803Y-6521445D01*
X-2996803Y-6521445D02*
X-2849483Y-6521445D01*
X-2224643Y-6521445D02*
X-2173843Y-6521445D01*
X-2143363Y-6521445D02*
X-2001123Y-6521445D01*
X-5851763Y-6516365D02*
X-5800963Y-6516365D01*
X-5638403Y-6516365D02*
X-5592683Y-6516365D01*
X-5379323Y-6516365D02*
X-5303123Y-6516365D01*
X-5262483Y-6516365D02*
X-5186283Y-6516365D01*
X-5069443Y-6516365D02*
X-5018643Y-6516365D01*
X-4657963Y-6516365D02*
X-4602083Y-6516365D01*
X-4475083Y-6516365D02*
X-4327763Y-6516365D01*
X-4287123Y-6516365D02*
X-4134723Y-6516365D01*
X-4089003Y-6516365D02*
X-3931523Y-6516365D01*
X-3814683Y-6516365D02*
X-3763883Y-6516365D01*
X-3428603Y-6516365D02*
X-3382883Y-6516365D01*
X-2991723Y-6516365D02*
X-2854563Y-6516365D01*
X-2224643Y-6516365D02*
X-2173843Y-6516365D01*
X-2138283Y-6516365D02*
X-2001123Y-6516365D01*
X-5851763Y-6511285D02*
X-5800963Y-6511285D01*
X-5638403Y-6511285D02*
X-5602843Y-6511285D01*
X-5379323Y-6511285D02*
X-5303123Y-6511285D01*
X-5262483Y-6511285D02*
X-5186283Y-6511285D01*
X-5069443Y-6511285D02*
X-5018643Y-6511285D01*
X-4657963Y-6511285D02*
X-4602083Y-6511285D01*
X-4470003Y-6511285D02*
X-4327763Y-6511285D01*
X-4282043Y-6511285D02*
X-4139803Y-6511285D01*
X-4083923Y-6511285D02*
X-3931523Y-6511285D01*
X-3814683Y-6511285D02*
X-3763883Y-6511285D01*
X-3428603Y-6511285D02*
X-3393043Y-6511285D01*
X-2986643Y-6511285D02*
X-2859643Y-6511285D01*
X-2224643Y-6511285D02*
X-2173843Y-6511285D01*
X-2138283Y-6511285D02*
X-2001123Y-6511285D01*
X-5851763Y-6506205D02*
X-5800963Y-6506205D01*
X-5638403Y-6506205D02*
X-5613003Y-6506205D01*
X-5379323Y-6506205D02*
X-5303123Y-6506205D01*
X-5262483Y-6506205D02*
X-5186283Y-6506205D01*
X-5069443Y-6506205D02*
X-5018643Y-6506205D01*
X-4657963Y-6506205D02*
X-4602083Y-6506205D01*
X-4470003Y-6506205D02*
X-4327763Y-6506205D01*
X-4276963Y-6506205D02*
X-4144883Y-6506205D01*
X-4078843Y-6506205D02*
X-3931523Y-6506205D01*
X-3814683Y-6506205D02*
X-3763883Y-6506205D01*
X-3428603Y-6506205D02*
X-3403203Y-6506205D01*
X-2981563Y-6506205D02*
X-2864723Y-6506205D01*
X-2224643Y-6506205D02*
X-2173843Y-6506205D01*
X-2133203Y-6506205D02*
X-2001123Y-6506205D01*
X-5851763Y-6501125D02*
X-5800963Y-6501125D01*
X-5638403Y-6501125D02*
X-5623163Y-6501125D01*
X-5379323Y-6501125D02*
X-5308203Y-6501125D01*
X-5257403Y-6501125D02*
X-5186283Y-6501125D01*
X-5069443Y-6501125D02*
X-5018643Y-6501125D01*
X-4657963Y-6501125D02*
X-4602083Y-6501125D01*
X-4459843Y-6501125D02*
X-4327763Y-6501125D01*
X-4271883Y-6501125D02*
X-4149963Y-6501125D01*
X-4073763Y-6501125D02*
X-3931523Y-6501125D01*
X-3814683Y-6501125D02*
X-3763883Y-6501125D01*
X-3428603Y-6501125D02*
X-3413363Y-6501125D01*
X-2976483Y-6501125D02*
X-2874883Y-6501125D01*
X-2224643Y-6501125D02*
X-2173843Y-6501125D01*
X-2123043Y-6501125D02*
X-2001123Y-6501125D01*
X-5851763Y-6496045D02*
X-5800963Y-6496045D01*
X-5638403Y-6496045D02*
X-5633323Y-6496045D01*
X-5379323Y-6496045D02*
X-5308203Y-6496045D01*
X-5257403Y-6496045D02*
X-5186283Y-6496045D01*
X-5069443Y-6496045D02*
X-5018643Y-6496045D01*
X-4657963Y-6496045D02*
X-4602083Y-6496045D01*
X-4449683Y-6496045D02*
X-4327763Y-6496045D01*
X-4261723Y-6496045D02*
X-4160123Y-6496045D01*
X-4058523Y-6496045D02*
X-3931523Y-6496045D01*
X-3814683Y-6496045D02*
X-3763883Y-6496045D01*
X-3428603Y-6496045D02*
X-3423523Y-6496045D01*
X-2966323Y-6496045D02*
X-2879963Y-6496045D01*
X-2224643Y-6496045D02*
X-2173843Y-6496045D01*
X-2112883Y-6496045D02*
X-2001123Y-6496045D01*
X-4246483Y-6490965D02*
X-4180443Y-6490965D01*
X-2951083Y-6490965D02*
X-2900283Y-6490965D01*
X-6083163Y-6889230D02*
X-6062843Y-6889230D01*
X-6001883Y-6889230D02*
X-5966323Y-6889230D01*
X-5910443Y-6889230D02*
X-5890123Y-6889230D01*
X-5829163Y-6889230D02*
X-5808843Y-6889230D01*
X-5661523Y-6889230D02*
X-5636123Y-6889230D01*
X-5559923Y-6889230D02*
X-5524363Y-6889230D01*
X-5478643Y-6889230D02*
X-5453243Y-6889230D01*
X-5366883Y-6889230D02*
X-5346563Y-6889230D01*
X-5234803Y-6889230D02*
X-5199243Y-6889230D01*
X-5123043Y-6889230D02*
X-5092563Y-6889230D01*
X-5021443Y-6889230D02*
X-4980803Y-6889230D01*
X-4909683Y-6889230D02*
X-4874123Y-6889230D01*
X-4792843Y-6889230D02*
X-4711563Y-6889230D01*
X-4625203Y-6889230D02*
X-4604883Y-6889230D01*
X-4559163Y-6889230D02*
X-4538843Y-6889230D01*
X-4482963Y-6889230D02*
X-4447403Y-6889230D01*
X-4350883Y-6889230D02*
X-4269603Y-6889230D01*
X-4188323Y-6889230D02*
X-4168003Y-6889230D01*
X-4142603Y-6889230D02*
X-4112123Y-6889230D01*
X-4081643Y-6889230D02*
X-4056243Y-6889230D01*
X-4010523Y-6889230D02*
X-3990203Y-6889230D01*
X-3964803Y-6889230D02*
X-3944483Y-6889230D01*
X-3919083Y-6889230D02*
X-3898763Y-6889230D01*
X-3853043Y-6889230D02*
X-3832723Y-6889230D01*
X-3776843Y-6889230D02*
X-3741283Y-6889230D01*
X-3665083Y-6889230D02*
X-3644763Y-6889230D01*
X-3629523Y-6889230D02*
X-3599043Y-6889230D01*
X-3573643Y-6889230D02*
X-3548243Y-6889230D01*
X-3502523Y-6889230D02*
X-3482203Y-6889230D01*
X-3426323Y-6889230D02*
X-3390763Y-6889230D01*
X-3334883Y-6889230D02*
X-3314563Y-6889230D01*
X-3289163Y-6889230D02*
X-3177403Y-6889230D01*
X-6083163Y-6884150D02*
X-6062843Y-6884150D01*
X-6012043Y-6884150D02*
X-5956163Y-6884150D01*
X-5910443Y-6884150D02*
X-5890123Y-6884150D01*
X-5829163Y-6884150D02*
X-5808843Y-6884150D01*
X-5661523Y-6884150D02*
X-5636123Y-6884150D01*
X-5570083Y-6884150D02*
X-5514203Y-6884150D01*
X-5473563Y-6884150D02*
X-5448163Y-6884150D01*
X-5366883Y-6884150D02*
X-5346563Y-6884150D01*
X-5244963Y-6884150D02*
X-5189083Y-6884150D01*
X-5133203Y-6884150D02*
X-5082403Y-6884150D01*
X-5031603Y-6884150D02*
X-4970643Y-6884150D01*
X-4919843Y-6884150D02*
X-4863963Y-6884150D01*
X-4803003Y-6884150D02*
X-4711563Y-6884150D01*
X-4625203Y-6884150D02*
X-4604883Y-6884150D01*
X-4559163Y-6884150D02*
X-4538843Y-6884150D01*
X-4493123Y-6884150D02*
X-4437243Y-6884150D01*
X-4366123Y-6884150D02*
X-4269603Y-6884150D01*
X-4183243Y-6884150D02*
X-4162923Y-6884150D01*
X-4152763Y-6884150D02*
X-4101963Y-6884150D01*
X-4076563Y-6884150D02*
X-4051163Y-6884150D01*
X-4010523Y-6884150D02*
X-3990203Y-6884150D01*
X-3964803Y-6884150D02*
X-3944483Y-6884150D01*
X-3919083Y-6884150D02*
X-3898763Y-6884150D01*
X-3853043Y-6884150D02*
X-3832723Y-6884150D01*
X-3787003Y-6884150D02*
X-3731123Y-6884150D01*
X-3665083Y-6884150D02*
X-3644763Y-6884150D01*
X-3629523Y-6884150D02*
X-3593963Y-6884150D01*
X-3568563Y-6884150D02*
X-3543163Y-6884150D01*
X-3502523Y-6884150D02*
X-3482203Y-6884150D01*
X-3436483Y-6884150D02*
X-3380603Y-6884150D01*
X-3334883Y-6884150D02*
X-3314563Y-6884150D01*
X-3289163Y-6884150D02*
X-3177403Y-6884150D01*
X-6083163Y-6879070D02*
X-6062843Y-6879070D01*
X-6017123Y-6879070D02*
X-5951083Y-6879070D01*
X-5910443Y-6879070D02*
X-5890123Y-6879070D01*
X-5829163Y-6879070D02*
X-5808843Y-6879070D01*
X-5666603Y-6879070D02*
X-5631043Y-6879070D01*
X-5575163Y-6879070D02*
X-5509123Y-6879070D01*
X-5468483Y-6879070D02*
X-5448163Y-6879070D01*
X-5366883Y-6879070D02*
X-5346563Y-6879070D01*
X-5250043Y-6879070D02*
X-5184003Y-6879070D01*
X-5138283Y-6879070D02*
X-5077323Y-6879070D01*
X-5036683Y-6879070D02*
X-4965563Y-6879070D01*
X-4924923Y-6879070D02*
X-4858883Y-6879070D01*
X-4813163Y-6879070D02*
X-4711563Y-6879070D01*
X-4625203Y-6879070D02*
X-4604883Y-6879070D01*
X-4559163Y-6879070D02*
X-4538843Y-6879070D01*
X-4498203Y-6879070D02*
X-4432163Y-6879070D01*
X-4371203Y-6879070D02*
X-4269603Y-6879070D01*
X-4183243Y-6879070D02*
X-4162923Y-6879070D01*
X-4157843Y-6879070D02*
X-4096883Y-6879070D01*
X-4071483Y-6879070D02*
X-4051163Y-6879070D01*
X-4010523Y-6879070D02*
X-3990203Y-6879070D01*
X-3964803Y-6879070D02*
X-3944483Y-6879070D01*
X-3919083Y-6879070D02*
X-3898763Y-6879070D01*
X-3853043Y-6879070D02*
X-3832723Y-6879070D01*
X-3792083Y-6879070D02*
X-3726043Y-6879070D01*
X-3665083Y-6879070D02*
X-3644763Y-6879070D01*
X-3629523Y-6879070D02*
X-3588883Y-6879070D01*
X-3563483Y-6879070D02*
X-3543163Y-6879070D01*
X-3502523Y-6879070D02*
X-3482203Y-6879070D01*
X-3441563Y-6879070D02*
X-3375523Y-6879070D01*
X-3334883Y-6879070D02*
X-3314563Y-6879070D01*
X-3289163Y-6879070D02*
X-3177403Y-6879070D01*
X-6083163Y-6873990D02*
X-6062843Y-6873990D01*
X-6022203Y-6873990D02*
X-5946003Y-6873990D01*
X-5910443Y-6873990D02*
X-5890123Y-6873990D01*
X-5829163Y-6873990D02*
X-5808843Y-6873990D01*
X-5666603Y-6873990D02*
X-5631043Y-6873990D01*
X-5580243Y-6873990D02*
X-5554843Y-6873990D01*
X-5534523Y-6873990D02*
X-5504043Y-6873990D01*
X-5468483Y-6873990D02*
X-5443083Y-6873990D01*
X-5366883Y-6873990D02*
X-5346563Y-6873990D01*
X-5255123Y-6873990D02*
X-5229723Y-6873990D01*
X-5204323Y-6873990D02*
X-5178923Y-6873990D01*
X-5143363Y-6873990D02*
X-5117963Y-6873990D01*
X-5097643Y-6873990D02*
X-5072243Y-6873990D01*
X-5041763Y-6873990D02*
X-5016363Y-6873990D01*
X-4985883Y-6873990D02*
X-4960483Y-6873990D01*
X-4930003Y-6873990D02*
X-4904603Y-6873990D01*
X-4879203Y-6873990D02*
X-4853803Y-6873990D01*
X-4813163Y-6873990D02*
X-4711563Y-6873990D01*
X-4625203Y-6873990D02*
X-4604883Y-6873990D01*
X-4559163Y-6873990D02*
X-4538843Y-6873990D01*
X-4503283Y-6873990D02*
X-4477883Y-6873990D01*
X-4452483Y-6873990D02*
X-4427083Y-6873990D01*
X-4376283Y-6873990D02*
X-4269603Y-6873990D01*
X-4183243Y-6873990D02*
X-4147683Y-6873990D01*
X-4122283Y-6873990D02*
X-4096883Y-6873990D01*
X-4071483Y-6873990D02*
X-4046083Y-6873990D01*
X-4010523Y-6873990D02*
X-3990203Y-6873990D01*
X-3964803Y-6873990D02*
X-3944483Y-6873990D01*
X-3919083Y-6873990D02*
X-3898763Y-6873990D01*
X-3853043Y-6873990D02*
X-3832723Y-6873990D01*
X-3797163Y-6873990D02*
X-3771763Y-6873990D01*
X-3746363Y-6873990D02*
X-3720963Y-6873990D01*
X-3665083Y-6873990D02*
X-3644763Y-6873990D01*
X-3614283Y-6873990D02*
X-3588883Y-6873990D01*
X-3563483Y-6873990D02*
X-3538083Y-6873990D01*
X-3502523Y-6873990D02*
X-3482203Y-6873990D01*
X-3446643Y-6873990D02*
X-3421243Y-6873990D01*
X-3400923Y-6873990D02*
X-3370443Y-6873990D01*
X-3334883Y-6873990D02*
X-3314563Y-6873990D01*
X-3289163Y-6873990D02*
X-3177403Y-6873990D01*
X-6022203Y-6868910D02*
X-5996803Y-6868910D01*
X-5971403Y-6868910D02*
X-5946003Y-6868910D01*
X-5829163Y-6868910D02*
X-5808843Y-6868910D01*
X-5666603Y-6868910D02*
X-5651363Y-6868910D01*
X-5646283Y-6868910D02*
X-5631043Y-6868910D01*
X-5585323Y-6868910D02*
X-5565003Y-6868910D01*
X-5524363Y-6868910D02*
X-5498963Y-6868910D01*
X-5463403Y-6868910D02*
X-5438003Y-6868910D01*
X-5366883Y-6868910D02*
X-5346563Y-6868910D01*
X-5260203Y-6868910D02*
X-5234803Y-6868910D01*
X-5199243Y-6868910D02*
X-5173843Y-6868910D01*
X-5148443Y-6868910D02*
X-5128123Y-6868910D01*
X-5092563Y-6868910D02*
X-5067163Y-6868910D01*
X-5046843Y-6868910D02*
X-5021443Y-6868910D01*
X-4980803Y-6868910D02*
X-4960483Y-6868910D01*
X-4935083Y-6868910D02*
X-4909683Y-6868910D01*
X-4874123Y-6868910D02*
X-4848723Y-6868910D01*
X-4818243Y-6868910D02*
X-4787763Y-6868910D01*
X-4731883Y-6868910D02*
X-4711563Y-6868910D01*
X-4625203Y-6868910D02*
X-4604883Y-6868910D01*
X-4559163Y-6868910D02*
X-4538843Y-6868910D01*
X-4508363Y-6868910D02*
X-4482963Y-6868910D01*
X-4447403Y-6868910D02*
X-4422003Y-6868910D01*
X-4381363Y-6868910D02*
X-4345803Y-6868910D01*
X-4289923Y-6868910D02*
X-4269603Y-6868910D01*
X-4183243Y-6868910D02*
X-4152763Y-6868910D01*
X-4112123Y-6868910D02*
X-4091803Y-6868910D01*
X-4066403Y-6868910D02*
X-4041003Y-6868910D01*
X-4010523Y-6868910D02*
X-3990203Y-6868910D01*
X-3964803Y-6868910D02*
X-3944483Y-6868910D01*
X-3919083Y-6868910D02*
X-3898763Y-6868910D01*
X-3853043Y-6868910D02*
X-3832723Y-6868910D01*
X-3802243Y-6868910D02*
X-3776843Y-6868910D01*
X-3741283Y-6868910D02*
X-3715883Y-6868910D01*
X-3665083Y-6868910D02*
X-3644763Y-6868910D01*
X-3609203Y-6868910D02*
X-3588883Y-6868910D01*
X-3558403Y-6868910D02*
X-3533003Y-6868910D01*
X-3502523Y-6868910D02*
X-3482203Y-6868910D01*
X-3451723Y-6868910D02*
X-3431403Y-6868910D01*
X-3390763Y-6868910D02*
X-3365363Y-6868910D01*
X-3334883Y-6868910D02*
X-3314563Y-6868910D01*
X-3197723Y-6868910D02*
X-3177403Y-6868910D01*
X-6027283Y-6863830D02*
X-6001883Y-6863830D01*
X-5966323Y-6863830D02*
X-5940923Y-6863830D01*
X-5829163Y-6863830D02*
X-5808843Y-6863830D01*
X-5671683Y-6863830D02*
X-5651363Y-6863830D01*
X-5646283Y-6863830D02*
X-5625963Y-6863830D01*
X-5585323Y-6863830D02*
X-5565003Y-6863830D01*
X-5519283Y-6863830D02*
X-5498963Y-6863830D01*
X-5458323Y-6863830D02*
X-5438003Y-6863830D01*
X-5366883Y-6863830D02*
X-5346563Y-6863830D01*
X-5260203Y-6863830D02*
X-5239883Y-6863830D01*
X-5194163Y-6863830D02*
X-5173843Y-6863830D01*
X-5148443Y-6863830D02*
X-5128123Y-6863830D01*
X-5087483Y-6863830D02*
X-5067163Y-6863830D01*
X-5046843Y-6863830D02*
X-5026523Y-6863830D01*
X-4975723Y-6863830D02*
X-4955403Y-6863830D01*
X-4935083Y-6863830D02*
X-4914763Y-6863830D01*
X-4869043Y-6863830D02*
X-4848723Y-6863830D01*
X-4818243Y-6863830D02*
X-4797923Y-6863830D01*
X-4731883Y-6863830D02*
X-4711563Y-6863830D01*
X-4625203Y-6863830D02*
X-4604883Y-6863830D01*
X-4559163Y-6863830D02*
X-4538843Y-6863830D01*
X-4508363Y-6863830D02*
X-4488043Y-6863830D01*
X-4442323Y-6863830D02*
X-4422003Y-6863830D01*
X-4386443Y-6863830D02*
X-4355963Y-6863830D01*
X-4289923Y-6863830D02*
X-4269603Y-6863830D01*
X-4183243Y-6863830D02*
X-4157843Y-6863830D01*
X-4112123Y-6863830D02*
X-4091803Y-6863830D01*
X-4061323Y-6863830D02*
X-4041003Y-6863830D01*
X-4010523Y-6863830D02*
X-3990203Y-6863830D01*
X-3964803Y-6863830D02*
X-3944483Y-6863830D01*
X-3919083Y-6863830D02*
X-3898763Y-6863830D01*
X-3853043Y-6863830D02*
X-3832723Y-6863830D01*
X-3802243Y-6863830D02*
X-3781923Y-6863830D01*
X-3736203Y-6863830D02*
X-3715883Y-6863830D01*
X-3665083Y-6863830D02*
X-3644763Y-6863830D01*
X-3609203Y-6863830D02*
X-3588883Y-6863830D01*
X-3553323Y-6863830D02*
X-3533003Y-6863830D01*
X-3502523Y-6863830D02*
X-3482203Y-6863830D01*
X-3451723Y-6863830D02*
X-3431403Y-6863830D01*
X-3385683Y-6863830D02*
X-3365363Y-6863830D01*
X-3334883Y-6863830D02*
X-3314563Y-6863830D01*
X-3197723Y-6863830D02*
X-3177403Y-6863830D01*
X-6027283Y-6858750D02*
X-6006963Y-6858750D01*
X-5961243Y-6858750D02*
X-5940923Y-6858750D01*
X-5829163Y-6858750D02*
X-5808843Y-6858750D01*
X-5671683Y-6858750D02*
X-5651363Y-6858750D01*
X-5646283Y-6858750D02*
X-5625963Y-6858750D01*
X-5590403Y-6858750D02*
X-5570083Y-6858750D01*
X-5519283Y-6858750D02*
X-5498963Y-6858750D01*
X-5458323Y-6858750D02*
X-5432923Y-6858750D01*
X-5366883Y-6858750D02*
X-5346563Y-6858750D01*
X-5260203Y-6858750D02*
X-5239883Y-6858750D01*
X-5194163Y-6858750D02*
X-5173843Y-6858750D01*
X-5153523Y-6858750D02*
X-5133203Y-6858750D01*
X-5087483Y-6858750D02*
X-5067163Y-6858750D01*
X-5046843Y-6858750D02*
X-5026523Y-6858750D01*
X-4975723Y-6858750D02*
X-4955403Y-6858750D01*
X-4935083Y-6858750D02*
X-4914763Y-6858750D01*
X-4869043Y-6858750D02*
X-4848723Y-6858750D01*
X-4823323Y-6858750D02*
X-4797923Y-6858750D01*
X-4731883Y-6858750D02*
X-4711563Y-6858750D01*
X-4625203Y-6858750D02*
X-4604883Y-6858750D01*
X-4559163Y-6858750D02*
X-4538843Y-6858750D01*
X-4508363Y-6858750D02*
X-4488043Y-6858750D01*
X-4442323Y-6858750D02*
X-4422003Y-6858750D01*
X-4386443Y-6858750D02*
X-4361043Y-6858750D01*
X-4289923Y-6858750D02*
X-4269603Y-6858750D01*
X-4183243Y-6858750D02*
X-4162923Y-6858750D01*
X-4112123Y-6858750D02*
X-4091803Y-6858750D01*
X-4056243Y-6858750D02*
X-4035923Y-6858750D01*
X-4010523Y-6858750D02*
X-3990203Y-6858750D01*
X-3964803Y-6858750D02*
X-3944483Y-6858750D01*
X-3919083Y-6858750D02*
X-3898763Y-6858750D01*
X-3853043Y-6858750D02*
X-3832723Y-6858750D01*
X-3802243Y-6858750D02*
X-3781923Y-6858750D01*
X-3736203Y-6858750D02*
X-3715883Y-6858750D01*
X-3665083Y-6858750D02*
X-3644763Y-6858750D01*
X-3609203Y-6858750D02*
X-3588883Y-6858750D01*
X-3548243Y-6858750D02*
X-3527923Y-6858750D01*
X-3502523Y-6858750D02*
X-3482203Y-6858750D01*
X-3456803Y-6858750D02*
X-3436483Y-6858750D01*
X-3385683Y-6858750D02*
X-3365363Y-6858750D01*
X-3334883Y-6858750D02*
X-3314563Y-6858750D01*
X-3197723Y-6858750D02*
X-3177403Y-6858750D01*
X-6027283Y-6853670D02*
X-6006963Y-6853670D01*
X-5961243Y-6853670D02*
X-5940923Y-6853670D01*
X-5829163Y-6853670D02*
X-5808843Y-6853670D01*
X-5671683Y-6853670D02*
X-5651363Y-6853670D01*
X-5646283Y-6853670D02*
X-5625963Y-6853670D01*
X-5514203Y-6853670D02*
X-5493883Y-6853670D01*
X-5453243Y-6853670D02*
X-5427843Y-6853670D01*
X-5366883Y-6853670D02*
X-5346563Y-6853670D01*
X-5265283Y-6853670D02*
X-5244963Y-6853670D01*
X-5189083Y-6853670D02*
X-5168763Y-6853670D01*
X-5153523Y-6853670D02*
X-5133203Y-6853670D01*
X-5082403Y-6853670D02*
X-5062083Y-6853670D01*
X-5046843Y-6853670D02*
X-5026523Y-6853670D01*
X-4940163Y-6853670D02*
X-4919843Y-6853670D01*
X-4863963Y-6853670D02*
X-4843643Y-6853670D01*
X-4823323Y-6853670D02*
X-4803003Y-6853670D01*
X-4731883Y-6853670D02*
X-4711563Y-6853670D01*
X-4625203Y-6853670D02*
X-4604883Y-6853670D01*
X-4559163Y-6853670D02*
X-4538843Y-6853670D01*
X-4513443Y-6853670D02*
X-4493123Y-6853670D01*
X-4437243Y-6853670D02*
X-4416923Y-6853670D01*
X-4391523Y-6853670D02*
X-4366123Y-6853670D01*
X-4289923Y-6853670D02*
X-4269603Y-6853670D01*
X-4183243Y-6853670D02*
X-4162923Y-6853670D01*
X-4112123Y-6853670D02*
X-4091803Y-6853670D01*
X-4056243Y-6853670D02*
X-4030843Y-6853670D01*
X-4010523Y-6853670D02*
X-3990203Y-6853670D01*
X-3964803Y-6853670D02*
X-3944483Y-6853670D01*
X-3919083Y-6853670D02*
X-3898763Y-6853670D01*
X-3853043Y-6853670D02*
X-3832723Y-6853670D01*
X-3807323Y-6853670D02*
X-3787003Y-6853670D01*
X-3731123Y-6853670D02*
X-3710803Y-6853670D01*
X-3665083Y-6853670D02*
X-3644763Y-6853670D01*
X-3609203Y-6853670D02*
X-3588883Y-6853670D01*
X-3548243Y-6853670D02*
X-3522843Y-6853670D01*
X-3502523Y-6853670D02*
X-3482203Y-6853670D01*
X-3380603Y-6853670D02*
X-3360283Y-6853670D01*
X-3334883Y-6853670D02*
X-3314563Y-6853670D01*
X-3197723Y-6853670D02*
X-3177403Y-6853670D01*
X-6027283Y-6848590D02*
X-6006963Y-6848590D01*
X-5961243Y-6848590D02*
X-5940923Y-6848590D01*
X-5829163Y-6848590D02*
X-5808843Y-6848590D01*
X-5676763Y-6848590D02*
X-5656443Y-6848590D01*
X-5641203Y-6848590D02*
X-5620883Y-6848590D01*
X-5514203Y-6848590D02*
X-5493883Y-6848590D01*
X-5448163Y-6848590D02*
X-5427843Y-6848590D01*
X-5366883Y-6848590D02*
X-5346563Y-6848590D01*
X-5265283Y-6848590D02*
X-5244963Y-6848590D01*
X-5189083Y-6848590D02*
X-5168763Y-6848590D01*
X-5082403Y-6848590D02*
X-5062083Y-6848590D01*
X-5046843Y-6848590D02*
X-5016363Y-6848590D01*
X-4940163Y-6848590D02*
X-4919843Y-6848590D01*
X-4863963Y-6848590D02*
X-4843643Y-6848590D01*
X-4823323Y-6848590D02*
X-4803003Y-6848590D01*
X-4731883Y-6848590D02*
X-4711563Y-6848590D01*
X-4625203Y-6848590D02*
X-4604883Y-6848590D01*
X-4559163Y-6848590D02*
X-4538843Y-6848590D01*
X-4513443Y-6848590D02*
X-4493123Y-6848590D01*
X-4437243Y-6848590D02*
X-4416923Y-6848590D01*
X-4391523Y-6848590D02*
X-4371203Y-6848590D01*
X-4289923Y-6848590D02*
X-4269603Y-6848590D01*
X-4183243Y-6848590D02*
X-4162923Y-6848590D01*
X-4117203Y-6848590D02*
X-4091803Y-6848590D01*
X-4051163Y-6848590D02*
X-4025763Y-6848590D01*
X-4010523Y-6848590D02*
X-3990203Y-6848590D01*
X-3964803Y-6848590D02*
X-3944483Y-6848590D01*
X-3919083Y-6848590D02*
X-3898763Y-6848590D01*
X-3853043Y-6848590D02*
X-3832723Y-6848590D01*
X-3807323Y-6848590D02*
X-3787003Y-6848590D01*
X-3731123Y-6848590D02*
X-3710803Y-6848590D01*
X-3665083Y-6848590D02*
X-3644763Y-6848590D01*
X-3609203Y-6848590D02*
X-3588883Y-6848590D01*
X-3543163Y-6848590D02*
X-3517763Y-6848590D01*
X-3502523Y-6848590D02*
X-3482203Y-6848590D01*
X-3380603Y-6848590D02*
X-3360283Y-6848590D01*
X-3334883Y-6848590D02*
X-3314563Y-6848590D01*
X-3197723Y-6848590D02*
X-3177403Y-6848590D01*
X-6032363Y-6843510D02*
X-6012043Y-6843510D01*
X-5956163Y-6843510D02*
X-5935843Y-6843510D01*
X-5829163Y-6843510D02*
X-5808843Y-6843510D01*
X-5676763Y-6843510D02*
X-5656443Y-6843510D01*
X-5641203Y-6843510D02*
X-5620883Y-6843510D01*
X-5514203Y-6843510D02*
X-5493883Y-6843510D01*
X-5448163Y-6843510D02*
X-5422763Y-6843510D01*
X-5366883Y-6843510D02*
X-5346563Y-6843510D01*
X-5265283Y-6843510D02*
X-5244963Y-6843510D01*
X-5189083Y-6843510D02*
X-5168763Y-6843510D01*
X-5082403Y-6843510D02*
X-5062083Y-6843510D01*
X-5041763Y-6843510D02*
X-4996043Y-6843510D01*
X-4940163Y-6843510D02*
X-4919843Y-6843510D01*
X-4863963Y-6843510D02*
X-4843643Y-6843510D01*
X-4823323Y-6843510D02*
X-4803003Y-6843510D01*
X-4731883Y-6843510D02*
X-4711563Y-6843510D01*
X-4625203Y-6843510D02*
X-4604883Y-6843510D01*
X-4559163Y-6843510D02*
X-4538843Y-6843510D01*
X-4513443Y-6843510D02*
X-4493123Y-6843510D01*
X-4437243Y-6843510D02*
X-4416923Y-6843510D01*
X-4391523Y-6843510D02*
X-4371203Y-6843510D01*
X-4289923Y-6843510D02*
X-4269603Y-6843510D01*
X-4183243Y-6843510D02*
X-4162923Y-6843510D01*
X-4132443Y-6843510D02*
X-4096883Y-6843510D01*
X-4046083Y-6843510D02*
X-4025763Y-6843510D01*
X-4010523Y-6843510D02*
X-3990203Y-6843510D01*
X-3964803Y-6843510D02*
X-3944483Y-6843510D01*
X-3919083Y-6843510D02*
X-3898763Y-6843510D01*
X-3853043Y-6843510D02*
X-3832723Y-6843510D01*
X-3807323Y-6843510D02*
X-3787003Y-6843510D01*
X-3731123Y-6843510D02*
X-3710803Y-6843510D01*
X-3665083Y-6843510D02*
X-3644763Y-6843510D01*
X-3609203Y-6843510D02*
X-3588883Y-6843510D01*
X-3538083Y-6843510D02*
X-3517763Y-6843510D01*
X-3502523Y-6843510D02*
X-3482203Y-6843510D01*
X-3380603Y-6843510D02*
X-3360283Y-6843510D01*
X-3334883Y-6843510D02*
X-3314563Y-6843510D01*
X-3197723Y-6843510D02*
X-3177403Y-6843510D01*
X-6032363Y-6838430D02*
X-6012043Y-6838430D01*
X-5956163Y-6838430D02*
X-5935843Y-6838430D01*
X-5829163Y-6838430D02*
X-5808843Y-6838430D01*
X-5676763Y-6838430D02*
X-5656443Y-6838430D01*
X-5641203Y-6838430D02*
X-5620883Y-6838430D01*
X-5590403Y-6838430D02*
X-5493883Y-6838430D01*
X-5443083Y-6838430D02*
X-5417683Y-6838430D01*
X-5366883Y-6838430D02*
X-5346563Y-6838430D01*
X-5265283Y-6838430D02*
X-5244963Y-6838430D01*
X-5189083Y-6838430D02*
X-5168763Y-6838430D01*
X-5082403Y-6838430D02*
X-5062083Y-6838430D01*
X-5036683Y-6838430D02*
X-4980803Y-6838430D01*
X-4940163Y-6838430D02*
X-4919843Y-6838430D01*
X-4863963Y-6838430D02*
X-4843643Y-6838430D01*
X-4823323Y-6838430D02*
X-4803003Y-6838430D01*
X-4731883Y-6838430D02*
X-4711563Y-6838430D01*
X-4625203Y-6838430D02*
X-4604883Y-6838430D01*
X-4559163Y-6838430D02*
X-4538843Y-6838430D01*
X-4513443Y-6838430D02*
X-4493123Y-6838430D01*
X-4437243Y-6838430D02*
X-4416923Y-6838430D01*
X-4396603Y-6838430D02*
X-4371203Y-6838430D01*
X-4289923Y-6838430D02*
X-4269603Y-6838430D01*
X-4183243Y-6838430D02*
X-4162923Y-6838430D01*
X-4157843Y-6838430D02*
X-4101963Y-6838430D01*
X-4046083Y-6838430D02*
X-4020683Y-6838430D01*
X-4015603Y-6838430D02*
X-3990203Y-6838430D01*
X-3964803Y-6838430D02*
X-3944483Y-6838430D01*
X-3919083Y-6838430D02*
X-3898763Y-6838430D01*
X-3853043Y-6838430D02*
X-3832723Y-6838430D01*
X-3807323Y-6838430D02*
X-3787003Y-6838430D01*
X-3731123Y-6838430D02*
X-3710803Y-6838430D01*
X-3665083Y-6838430D02*
X-3644763Y-6838430D01*
X-3609203Y-6838430D02*
X-3588883Y-6838430D01*
X-3538083Y-6838430D02*
X-3512683Y-6838430D01*
X-3507603Y-6838430D02*
X-3482203Y-6838430D01*
X-3456803Y-6838430D02*
X-3360283Y-6838430D01*
X-3334883Y-6838430D02*
X-3314563Y-6838430D01*
X-3197723Y-6838430D02*
X-3177403Y-6838430D01*
X-6032363Y-6833350D02*
X-6012043Y-6833350D01*
X-5956163Y-6833350D02*
X-5935843Y-6833350D01*
X-5829163Y-6833350D02*
X-5808843Y-6833350D01*
X-5681843Y-6833350D02*
X-5661523Y-6833350D01*
X-5636123Y-6833350D02*
X-5615803Y-6833350D01*
X-5590403Y-6833350D02*
X-5493883Y-6833350D01*
X-5438003Y-6833350D02*
X-5412603Y-6833350D01*
X-5366883Y-6833350D02*
X-5346563Y-6833350D01*
X-5265283Y-6833350D02*
X-5244963Y-6833350D01*
X-5189083Y-6833350D02*
X-5168763Y-6833350D01*
X-5082403Y-6833350D02*
X-5062083Y-6833350D01*
X-5031603Y-6833350D02*
X-4970643Y-6833350D01*
X-4940163Y-6833350D02*
X-4919843Y-6833350D01*
X-4863963Y-6833350D02*
X-4843643Y-6833350D01*
X-4823323Y-6833350D02*
X-4797923Y-6833350D01*
X-4731883Y-6833350D02*
X-4711563Y-6833350D01*
X-4625203Y-6833350D02*
X-4604883Y-6833350D01*
X-4559163Y-6833350D02*
X-4538843Y-6833350D01*
X-4513443Y-6833350D02*
X-4493123Y-6833350D01*
X-4437243Y-6833350D02*
X-4416923Y-6833350D01*
X-4396603Y-6833350D02*
X-4376283Y-6833350D01*
X-4289923Y-6833350D02*
X-4269603Y-6833350D01*
X-4183243Y-6833350D02*
X-4107043Y-6833350D01*
X-4041003Y-6833350D02*
X-3990203Y-6833350D01*
X-3964803Y-6833350D02*
X-3944483Y-6833350D01*
X-3919083Y-6833350D02*
X-3898763Y-6833350D01*
X-3853043Y-6833350D02*
X-3832723Y-6833350D01*
X-3807323Y-6833350D02*
X-3787003Y-6833350D01*
X-3731123Y-6833350D02*
X-3710803Y-6833350D01*
X-3665083Y-6833350D02*
X-3644763Y-6833350D01*
X-3609203Y-6833350D02*
X-3588883Y-6833350D01*
X-3533003Y-6833350D02*
X-3482203Y-6833350D01*
X-3456803Y-6833350D02*
X-3360283Y-6833350D01*
X-3334883Y-6833350D02*
X-3314563Y-6833350D01*
X-3197723Y-6833350D02*
X-3177403Y-6833350D01*
X-6032363Y-6828270D02*
X-6012043Y-6828270D01*
X-5956163Y-6828270D02*
X-5935843Y-6828270D01*
X-5829163Y-6828270D02*
X-5808843Y-6828270D01*
X-5681843Y-6828270D02*
X-5661523Y-6828270D01*
X-5636123Y-6828270D02*
X-5615803Y-6828270D01*
X-5590403Y-6828270D02*
X-5493883Y-6828270D01*
X-5427843Y-6828270D02*
X-5407523Y-6828270D01*
X-5366883Y-6828270D02*
X-5346563Y-6828270D01*
X-5265283Y-6828270D02*
X-5244963Y-6828270D01*
X-5189083Y-6828270D02*
X-5168763Y-6828270D01*
X-5082403Y-6828270D02*
X-5062083Y-6828270D01*
X-5016363Y-6828270D02*
X-4960483Y-6828270D01*
X-4940163Y-6828270D02*
X-4919843Y-6828270D01*
X-4863963Y-6828270D02*
X-4843643Y-6828270D01*
X-4818243Y-6828270D02*
X-4797923Y-6828270D01*
X-4731883Y-6828270D02*
X-4711563Y-6828270D01*
X-4625203Y-6828270D02*
X-4604883Y-6828270D01*
X-4559163Y-6828270D02*
X-4538843Y-6828270D01*
X-4513443Y-6828270D02*
X-4493123Y-6828270D01*
X-4437243Y-6828270D02*
X-4416923Y-6828270D01*
X-4396603Y-6828270D02*
X-4376283Y-6828270D01*
X-4289923Y-6828270D02*
X-4269603Y-6828270D01*
X-4183243Y-6828270D02*
X-4122283Y-6828270D01*
X-4035923Y-6828270D02*
X-3990203Y-6828270D01*
X-3964803Y-6828270D02*
X-3944483Y-6828270D01*
X-3919083Y-6828270D02*
X-3898763Y-6828270D01*
X-3853043Y-6828270D02*
X-3832723Y-6828270D01*
X-3807323Y-6828270D02*
X-3787003Y-6828270D01*
X-3731123Y-6828270D02*
X-3710803Y-6828270D01*
X-3665083Y-6828270D02*
X-3644763Y-6828270D01*
X-3609203Y-6828270D02*
X-3588883Y-6828270D01*
X-3527923Y-6828270D02*
X-3482203Y-6828270D01*
X-3456803Y-6828270D02*
X-3360283Y-6828270D01*
X-3334883Y-6828270D02*
X-3314563Y-6828270D01*
X-3197723Y-6828270D02*
X-3177403Y-6828270D01*
X-6032363Y-6823190D02*
X-6012043Y-6823190D01*
X-5956163Y-6823190D02*
X-5935843Y-6823190D01*
X-5829163Y-6823190D02*
X-5808843Y-6823190D01*
X-5681843Y-6823190D02*
X-5661523Y-6823190D01*
X-5636123Y-6823190D02*
X-5615803Y-6823190D01*
X-5590403Y-6823190D02*
X-5570083Y-6823190D01*
X-5514203Y-6823190D02*
X-5493883Y-6823190D01*
X-5438003Y-6823190D02*
X-5346563Y-6823190D01*
X-5265283Y-6823190D02*
X-5244963Y-6823190D01*
X-5189083Y-6823190D02*
X-5168763Y-6823190D01*
X-5082403Y-6823190D02*
X-5062083Y-6823190D01*
X-4996043Y-6823190D02*
X-4960483Y-6823190D01*
X-4940163Y-6823190D02*
X-4919843Y-6823190D01*
X-4863963Y-6823190D02*
X-4843643Y-6823190D01*
X-4813163Y-6823190D02*
X-4787763Y-6823190D01*
X-4731883Y-6823190D02*
X-4711563Y-6823190D01*
X-4625203Y-6823190D02*
X-4604883Y-6823190D01*
X-4559163Y-6823190D02*
X-4538843Y-6823190D01*
X-4513443Y-6823190D02*
X-4493123Y-6823190D01*
X-4437243Y-6823190D02*
X-4416923Y-6823190D01*
X-4396603Y-6823190D02*
X-4376283Y-6823190D01*
X-4289923Y-6823190D02*
X-4269603Y-6823190D01*
X-4183243Y-6823190D02*
X-4152763Y-6823190D01*
X-4035923Y-6823190D02*
X-3990203Y-6823190D01*
X-3964803Y-6823190D02*
X-3944483Y-6823190D01*
X-3919083Y-6823190D02*
X-3898763Y-6823190D01*
X-3853043Y-6823190D02*
X-3832723Y-6823190D01*
X-3807323Y-6823190D02*
X-3787003Y-6823190D01*
X-3731123Y-6823190D02*
X-3710803Y-6823190D01*
X-3665083Y-6823190D02*
X-3644763Y-6823190D01*
X-3609203Y-6823190D02*
X-3588883Y-6823190D01*
X-3527923Y-6823190D02*
X-3482203Y-6823190D01*
X-3456803Y-6823190D02*
X-3436483Y-6823190D01*
X-3380603Y-6823190D02*
X-3360283Y-6823190D01*
X-3334883Y-6823190D02*
X-3314563Y-6823190D01*
X-3197723Y-6823190D02*
X-3177403Y-6823190D01*
X-6032363Y-6818110D02*
X-6012043Y-6818110D01*
X-5956163Y-6818110D02*
X-5935843Y-6818110D01*
X-5829163Y-6818110D02*
X-5808843Y-6818110D01*
X-5686923Y-6818110D02*
X-5666603Y-6818110D01*
X-5631043Y-6818110D02*
X-5610723Y-6818110D01*
X-5590403Y-6818110D02*
X-5570083Y-6818110D01*
X-5514203Y-6818110D02*
X-5493883Y-6818110D01*
X-5448163Y-6818110D02*
X-5346563Y-6818110D01*
X-5265283Y-6818110D02*
X-5244963Y-6818110D01*
X-5189083Y-6818110D02*
X-5168763Y-6818110D01*
X-5082403Y-6818110D02*
X-5062083Y-6818110D01*
X-4980803Y-6818110D02*
X-4955403Y-6818110D01*
X-4940163Y-6818110D02*
X-4919843Y-6818110D01*
X-4863963Y-6818110D02*
X-4843643Y-6818110D01*
X-4813163Y-6818110D02*
X-4711563Y-6818110D01*
X-4625203Y-6818110D02*
X-4604883Y-6818110D01*
X-4559163Y-6818110D02*
X-4538843Y-6818110D01*
X-4513443Y-6818110D02*
X-4493123Y-6818110D01*
X-4437243Y-6818110D02*
X-4416923Y-6818110D01*
X-4396603Y-6818110D02*
X-4376283Y-6818110D01*
X-4289923Y-6818110D02*
X-4269603Y-6818110D01*
X-4183243Y-6818110D02*
X-4162923Y-6818110D01*
X-4041003Y-6818110D02*
X-3990203Y-6818110D01*
X-3964803Y-6818110D02*
X-3944483Y-6818110D01*
X-3919083Y-6818110D02*
X-3898763Y-6818110D01*
X-3853043Y-6818110D02*
X-3832723Y-6818110D01*
X-3807323Y-6818110D02*
X-3787003Y-6818110D01*
X-3731123Y-6818110D02*
X-3710803Y-6818110D01*
X-3665083Y-6818110D02*
X-3644763Y-6818110D01*
X-3609203Y-6818110D02*
X-3588883Y-6818110D01*
X-3533003Y-6818110D02*
X-3482203Y-6818110D01*
X-3456803Y-6818110D02*
X-3436483Y-6818110D01*
X-3380603Y-6818110D02*
X-3360283Y-6818110D01*
X-3334883Y-6818110D02*
X-3314563Y-6818110D01*
X-3279003Y-6818110D02*
X-3177403Y-6818110D01*
X-6032363Y-6813030D02*
X-6012043Y-6813030D01*
X-5956163Y-6813030D02*
X-5935843Y-6813030D01*
X-5829163Y-6813030D02*
X-5808843Y-6813030D01*
X-5686923Y-6813030D02*
X-5666603Y-6813030D01*
X-5631043Y-6813030D02*
X-5610723Y-6813030D01*
X-5585323Y-6813030D02*
X-5570083Y-6813030D01*
X-5519283Y-6813030D02*
X-5498963Y-6813030D01*
X-5458323Y-6813030D02*
X-5346563Y-6813030D01*
X-5260203Y-6813030D02*
X-5239883Y-6813030D01*
X-5194163Y-6813030D02*
X-5173843Y-6813030D01*
X-5153523Y-6813030D02*
X-5133203Y-6813030D01*
X-5087483Y-6813030D02*
X-5067163Y-6813030D01*
X-4975723Y-6813030D02*
X-4955403Y-6813030D01*
X-4935083Y-6813030D02*
X-4914763Y-6813030D01*
X-4869043Y-6813030D02*
X-4848723Y-6813030D01*
X-4803003Y-6813030D02*
X-4711563Y-6813030D01*
X-4625203Y-6813030D02*
X-4604883Y-6813030D01*
X-4559163Y-6813030D02*
X-4538843Y-6813030D01*
X-4508363Y-6813030D02*
X-4488043Y-6813030D01*
X-4442323Y-6813030D02*
X-4422003Y-6813030D01*
X-4396603Y-6813030D02*
X-4376283Y-6813030D01*
X-4289923Y-6813030D02*
X-4269603Y-6813030D01*
X-4183243Y-6813030D02*
X-4162923Y-6813030D01*
X-4112123Y-6813030D02*
X-4091803Y-6813030D01*
X-4046083Y-6813030D02*
X-4015603Y-6813030D01*
X-4010523Y-6813030D02*
X-3990203Y-6813030D01*
X-3964803Y-6813030D02*
X-3944483Y-6813030D01*
X-3919083Y-6813030D02*
X-3898763Y-6813030D01*
X-3853043Y-6813030D02*
X-3832723Y-6813030D01*
X-3802243Y-6813030D02*
X-3781923Y-6813030D01*
X-3736203Y-6813030D02*
X-3715883Y-6813030D01*
X-3665083Y-6813030D02*
X-3644763Y-6813030D01*
X-3609203Y-6813030D02*
X-3588883Y-6813030D01*
X-3538083Y-6813030D02*
X-3507603Y-6813030D01*
X-3502523Y-6813030D02*
X-3482203Y-6813030D01*
X-3451723Y-6813030D02*
X-3436483Y-6813030D01*
X-3385683Y-6813030D02*
X-3365363Y-6813030D01*
X-3334883Y-6813030D02*
X-3314563Y-6813030D01*
X-3279003Y-6813030D02*
X-3177403Y-6813030D01*
X-6032363Y-6807950D02*
X-6012043Y-6807950D01*
X-5956163Y-6807950D02*
X-5935843Y-6807950D01*
X-5829163Y-6807950D02*
X-5808843Y-6807950D01*
X-5686923Y-6807950D02*
X-5666603Y-6807950D01*
X-5631043Y-6807950D02*
X-5610723Y-6807950D01*
X-5585323Y-6807950D02*
X-5565003Y-6807950D01*
X-5519283Y-6807950D02*
X-5498963Y-6807950D01*
X-5458323Y-6807950D02*
X-5346563Y-6807950D01*
X-5260203Y-6807950D02*
X-5239883Y-6807950D01*
X-5194163Y-6807950D02*
X-5173843Y-6807950D01*
X-5153523Y-6807950D02*
X-5128123Y-6807950D01*
X-5087483Y-6807950D02*
X-5067163Y-6807950D01*
X-5041763Y-6807950D02*
X-5021443Y-6807950D01*
X-4975723Y-6807950D02*
X-4955403Y-6807950D01*
X-4935083Y-6807950D02*
X-4914763Y-6807950D01*
X-4869043Y-6807950D02*
X-4848723Y-6807950D01*
X-4803003Y-6807950D02*
X-4711563Y-6807950D01*
X-4625203Y-6807950D02*
X-4604883Y-6807950D01*
X-4564243Y-6807950D02*
X-4538843Y-6807950D01*
X-4508363Y-6807950D02*
X-4488043Y-6807950D01*
X-4442323Y-6807950D02*
X-4422003Y-6807950D01*
X-4396603Y-6807950D02*
X-4376283Y-6807950D01*
X-4289923Y-6807950D02*
X-4269603Y-6807950D01*
X-4183243Y-6807950D02*
X-4162923Y-6807950D01*
X-4112123Y-6807950D02*
X-4091803Y-6807950D01*
X-4051163Y-6807950D02*
X-4020683Y-6807950D01*
X-4010523Y-6807950D02*
X-3990203Y-6807950D01*
X-3964803Y-6807950D02*
X-3944483Y-6807950D01*
X-3919083Y-6807950D02*
X-3898763Y-6807950D01*
X-3858123Y-6807950D02*
X-3832723Y-6807950D01*
X-3802243Y-6807950D02*
X-3781923Y-6807950D01*
X-3736203Y-6807950D02*
X-3715883Y-6807950D01*
X-3670163Y-6807950D02*
X-3644763Y-6807950D01*
X-3609203Y-6807950D02*
X-3588883Y-6807950D01*
X-3543163Y-6807950D02*
X-3512683Y-6807950D01*
X-3502523Y-6807950D02*
X-3482203Y-6807950D01*
X-3451723Y-6807950D02*
X-3431403Y-6807950D01*
X-3385683Y-6807950D02*
X-3365363Y-6807950D01*
X-3334883Y-6807950D02*
X-3314563Y-6807950D01*
X-3279003Y-6807950D02*
X-3177403Y-6807950D01*
X-6032363Y-6802870D02*
X-6012043Y-6802870D01*
X-5956163Y-6802870D02*
X-5935843Y-6802870D01*
X-5829163Y-6802870D02*
X-5808843Y-6802870D01*
X-5692003Y-6802870D02*
X-5666603Y-6802870D01*
X-5631043Y-6802870D02*
X-5605643Y-6802870D01*
X-5585323Y-6802870D02*
X-5559923Y-6802870D01*
X-5524363Y-6802870D02*
X-5504043Y-6802870D01*
X-5463403Y-6802870D02*
X-5432923Y-6802870D01*
X-5366883Y-6802870D02*
X-5346563Y-6802870D01*
X-5260203Y-6802870D02*
X-5234803Y-6802870D01*
X-5199243Y-6802870D02*
X-5173843Y-6802870D01*
X-5148443Y-6802870D02*
X-5128123Y-6802870D01*
X-5092563Y-6802870D02*
X-5067163Y-6802870D01*
X-5041763Y-6802870D02*
X-5016363Y-6802870D01*
X-4975723Y-6802870D02*
X-4955403Y-6802870D01*
X-4935083Y-6802870D02*
X-4909683Y-6802870D01*
X-4874123Y-6802870D02*
X-4848723Y-6802870D01*
X-4808083Y-6802870D02*
X-4711563Y-6802870D01*
X-4625203Y-6802870D02*
X-4599803Y-6802870D01*
X-4564243Y-6802870D02*
X-4538843Y-6802870D01*
X-4508363Y-6802870D02*
X-4482963Y-6802870D01*
X-4447403Y-6802870D02*
X-4422003Y-6802870D01*
X-4396603Y-6802870D02*
X-4376283Y-6802870D01*
X-4289923Y-6802870D02*
X-4269603Y-6802870D01*
X-4183243Y-6802870D02*
X-4157843Y-6802870D01*
X-4117203Y-6802870D02*
X-4096883Y-6802870D01*
X-4056243Y-6802870D02*
X-4025763Y-6802870D01*
X-4010523Y-6802870D02*
X-3990203Y-6802870D01*
X-3964803Y-6802870D02*
X-3944483Y-6802870D01*
X-3919083Y-6802870D02*
X-3893683Y-6802870D01*
X-3858123Y-6802870D02*
X-3832723Y-6802870D01*
X-3802243Y-6802870D02*
X-3776843Y-6802870D01*
X-3741283Y-6802870D02*
X-3715883Y-6802870D01*
X-3670163Y-6802870D02*
X-3644763Y-6802870D01*
X-3609203Y-6802870D02*
X-3588883Y-6802870D01*
X-3548243Y-6802870D02*
X-3517763Y-6802870D01*
X-3502523Y-6802870D02*
X-3482203Y-6802870D01*
X-3451723Y-6802870D02*
X-3426323Y-6802870D01*
X-3390763Y-6802870D02*
X-3370443Y-6802870D01*
X-3334883Y-6802870D02*
X-3314563Y-6802870D01*
X-3279003Y-6802870D02*
X-3177403Y-6802870D01*
X-6032363Y-6797790D02*
X-6012043Y-6797790D01*
X-5956163Y-6797790D02*
X-5935843Y-6797790D01*
X-5829163Y-6797790D02*
X-5808843Y-6797790D01*
X-5692003Y-6797790D02*
X-5671683Y-6797790D01*
X-5625963Y-6797790D02*
X-5605643Y-6797790D01*
X-5580243Y-6797790D02*
X-5554843Y-6797790D01*
X-5529443Y-6797790D02*
X-5504043Y-6797790D01*
X-5468483Y-6797790D02*
X-5443083Y-6797790D01*
X-5366883Y-6797790D02*
X-5346563Y-6797790D01*
X-5255123Y-6797790D02*
X-5229723Y-6797790D01*
X-5204323Y-6797790D02*
X-5178923Y-6797790D01*
X-5148443Y-6797790D02*
X-5123043Y-6797790D01*
X-5097643Y-6797790D02*
X-5072243Y-6797790D01*
X-5036683Y-6797790D02*
X-5011283Y-6797790D01*
X-4985883Y-6797790D02*
X-4960483Y-6797790D01*
X-4930003Y-6797790D02*
X-4904603Y-6797790D01*
X-4879203Y-6797790D02*
X-4853803Y-6797790D01*
X-4813163Y-6797790D02*
X-4787763Y-6797790D01*
X-4731883Y-6797790D02*
X-4711563Y-6797790D01*
X-4620123Y-6797790D02*
X-4594723Y-6797790D01*
X-4574403Y-6797790D02*
X-4538843Y-6797790D01*
X-4503283Y-6797790D02*
X-4477883Y-6797790D01*
X-4452483Y-6797790D02*
X-4427083Y-6797790D01*
X-4396603Y-6797790D02*
X-4376283Y-6797790D01*
X-4289923Y-6797790D02*
X-4269603Y-6797790D01*
X-4178163Y-6797790D02*
X-4152763Y-6797790D01*
X-4122283Y-6797790D02*
X-4096883Y-6797790D01*
X-4061323Y-6797790D02*
X-4035923Y-6797790D01*
X-4010523Y-6797790D02*
X-3990203Y-6797790D01*
X-3964803Y-6797790D02*
X-3944483Y-6797790D01*
X-3914003Y-6797790D02*
X-3888603Y-6797790D01*
X-3868283Y-6797790D02*
X-3832723Y-6797790D01*
X-3797163Y-6797790D02*
X-3771763Y-6797790D01*
X-3746363Y-6797790D02*
X-3720963Y-6797790D01*
X-3695563Y-6797790D02*
X-3690483Y-6797790D01*
X-3675243Y-6797790D02*
X-3644763Y-6797790D01*
X-3609203Y-6797790D02*
X-3588883Y-6797790D01*
X-3553323Y-6797790D02*
X-3527923Y-6797790D01*
X-3502523Y-6797790D02*
X-3482203Y-6797790D01*
X-3446643Y-6797790D02*
X-3421243Y-6797790D01*
X-3395843Y-6797790D02*
X-3370443Y-6797790D01*
X-3334883Y-6797790D02*
X-3314563Y-6797790D01*
X-3197723Y-6797790D02*
X-3177403Y-6797790D01*
X-6032363Y-6792710D02*
X-6012043Y-6792710D01*
X-5956163Y-6792710D02*
X-5935843Y-6792710D01*
X-5829163Y-6792710D02*
X-5808843Y-6792710D01*
X-5778363Y-6792710D02*
X-5773283Y-6792710D01*
X-5692003Y-6792710D02*
X-5671683Y-6792710D01*
X-5625963Y-6792710D02*
X-5605643Y-6792710D01*
X-5575163Y-6792710D02*
X-5509123Y-6792710D01*
X-5468483Y-6792710D02*
X-5443083Y-6792710D01*
X-5366883Y-6792710D02*
X-5346563Y-6792710D01*
X-5250043Y-6792710D02*
X-5184003Y-6792710D01*
X-5143363Y-6792710D02*
X-5077323Y-6792710D01*
X-5036683Y-6792710D02*
X-4960483Y-6792710D01*
X-4924923Y-6792710D02*
X-4858883Y-6792710D01*
X-4813163Y-6792710D02*
X-4792843Y-6792710D01*
X-4731883Y-6792710D02*
X-4711563Y-6792710D01*
X-4620123Y-6792710D02*
X-4538843Y-6792710D01*
X-4498203Y-6792710D02*
X-4432163Y-6792710D01*
X-4396603Y-6792710D02*
X-4376283Y-6792710D01*
X-4289923Y-6792710D02*
X-4269603Y-6792710D01*
X-4178163Y-6792710D02*
X-4101963Y-6792710D01*
X-4066403Y-6792710D02*
X-4041003Y-6792710D01*
X-4010523Y-6792710D02*
X-3990203Y-6792710D01*
X-3964803Y-6792710D02*
X-3944483Y-6792710D01*
X-3914003Y-6792710D02*
X-3832723Y-6792710D01*
X-3792083Y-6792710D02*
X-3726043Y-6792710D01*
X-3695563Y-6792710D02*
X-3644763Y-6792710D01*
X-3629523Y-6792710D02*
X-3573643Y-6792710D01*
X-3558403Y-6792710D02*
X-3533003Y-6792710D01*
X-3502523Y-6792710D02*
X-3482203Y-6792710D01*
X-3441563Y-6792710D02*
X-3375523Y-6792710D01*
X-3334883Y-6792710D02*
X-3314563Y-6792710D01*
X-3197723Y-6792710D02*
X-3177403Y-6792710D01*
X-6032363Y-6787630D02*
X-6012043Y-6787630D01*
X-5956163Y-6787630D02*
X-5935843Y-6787630D01*
X-5829163Y-6787630D02*
X-5808843Y-6787630D01*
X-5788523Y-6787630D02*
X-5773283Y-6787630D01*
X-5697083Y-6787630D02*
X-5671683Y-6787630D01*
X-5625963Y-6787630D02*
X-5600563Y-6787630D01*
X-5570083Y-6787630D02*
X-5514203Y-6787630D01*
X-5468483Y-6787630D02*
X-5448163Y-6787630D01*
X-5366883Y-6787630D02*
X-5346563Y-6787630D01*
X-5244963Y-6787630D02*
X-5189083Y-6787630D01*
X-5138283Y-6787630D02*
X-5082403Y-6787630D01*
X-5026523Y-6787630D02*
X-4965563Y-6787630D01*
X-4919843Y-6787630D02*
X-4863963Y-6787630D01*
X-4818243Y-6787630D02*
X-4797923Y-6787630D01*
X-4731883Y-6787630D02*
X-4711563Y-6787630D01*
X-4615043Y-6787630D02*
X-4564243Y-6787630D01*
X-4559163Y-6787630D02*
X-4538843Y-6787630D01*
X-4493123Y-6787630D02*
X-4437243Y-6787630D01*
X-4391523Y-6787630D02*
X-4371203Y-6787630D01*
X-4289923Y-6787630D02*
X-4269603Y-6787630D01*
X-4173083Y-6787630D02*
X-4107043Y-6787630D01*
X-4071483Y-6787630D02*
X-4046083Y-6787630D01*
X-4010523Y-6787630D02*
X-3990203Y-6787630D01*
X-3964803Y-6787630D02*
X-3944483Y-6787630D01*
X-3908923Y-6787630D02*
X-3858123Y-6787630D01*
X-3853043Y-6787630D02*
X-3832723Y-6787630D01*
X-3787003Y-6787630D02*
X-3731123Y-6787630D01*
X-3700643Y-6787630D02*
X-3670163Y-6787630D01*
X-3665083Y-6787630D02*
X-3644763Y-6787630D01*
X-3629523Y-6787630D02*
X-3573643Y-6787630D01*
X-3563483Y-6787630D02*
X-3538083Y-6787630D01*
X-3502523Y-6787630D02*
X-3482203Y-6787630D01*
X-3436483Y-6787630D02*
X-3380603Y-6787630D01*
X-3334883Y-6787630D02*
X-3314563Y-6787630D01*
X-3197723Y-6787630D02*
X-3177403Y-6787630D01*
X-6027283Y-6782550D02*
X-6006963Y-6782550D01*
X-5961243Y-6782550D02*
X-5940923Y-6782550D01*
X-5829163Y-6782550D02*
X-5808843Y-6782550D01*
X-5798683Y-6782550D02*
X-5773283Y-6782550D01*
X-5697083Y-6782550D02*
X-5676763Y-6782550D01*
X-5620883Y-6782550D02*
X-5600563Y-6782550D01*
X-5559923Y-6782550D02*
X-5524363Y-6782550D01*
X-5468483Y-6782550D02*
X-5448163Y-6782550D01*
X-5366883Y-6782550D02*
X-5346563Y-6782550D01*
X-5234803Y-6782550D02*
X-5199243Y-6782550D01*
X-5128123Y-6782550D02*
X-5092563Y-6782550D01*
X-5016363Y-6782550D02*
X-4980803Y-6782550D01*
X-4909683Y-6782550D02*
X-4874123Y-6782550D01*
X-4818243Y-6782550D02*
X-4797923Y-6782550D01*
X-4731883Y-6782550D02*
X-4711563Y-6782550D01*
X-4604883Y-6782550D02*
X-4574403Y-6782550D01*
X-4559163Y-6782550D02*
X-4538843Y-6782550D01*
X-4482963Y-6782550D02*
X-4447403Y-6782550D01*
X-4391523Y-6782550D02*
X-4371203Y-6782550D01*
X-4289923Y-6782550D02*
X-4269603Y-6782550D01*
X-4162923Y-6782550D02*
X-4122283Y-6782550D01*
X-4076563Y-6782550D02*
X-4051163Y-6782550D01*
X-4010523Y-6782550D02*
X-3990203Y-6782550D01*
X-3964803Y-6782550D02*
X-3944483Y-6782550D01*
X-3898763Y-6782550D02*
X-3868283Y-6782550D01*
X-3853043Y-6782550D02*
X-3832723Y-6782550D01*
X-3776843Y-6782550D02*
X-3741283Y-6782550D01*
X-3700643Y-6782550D02*
X-3675243Y-6782550D01*
X-3665083Y-6782550D02*
X-3644763Y-6782550D01*
X-3629523Y-6782550D02*
X-3573643Y-6782550D01*
X-3568563Y-6782550D02*
X-3543163Y-6782550D01*
X-3502523Y-6782550D02*
X-3482203Y-6782550D01*
X-3426323Y-6782550D02*
X-3390763Y-6782550D01*
X-3334883Y-6782550D02*
X-3314563Y-6782550D01*
X-3197723Y-6782550D02*
X-3177403Y-6782550D01*
X-6027283Y-6777470D02*
X-6006963Y-6777470D01*
X-5961243Y-6777470D02*
X-5940923Y-6777470D01*
X-5829163Y-6777470D02*
X-5808843Y-6777470D01*
X-5803763Y-6777470D02*
X-5773283Y-6777470D01*
X-5468483Y-6777470D02*
X-5448163Y-6777470D01*
X-5366883Y-6777470D02*
X-5346563Y-6777470D01*
X-4818243Y-6777470D02*
X-4797923Y-6777470D01*
X-4731883Y-6777470D02*
X-4711563Y-6777470D01*
X-4391523Y-6777470D02*
X-4366123Y-6777470D01*
X-4289923Y-6777470D02*
X-4269603Y-6777470D01*
X-4010523Y-6777470D02*
X-3990203Y-6777470D01*
X-3609203Y-6777470D02*
X-3588883Y-6777470D01*
X-3502523Y-6777470D02*
X-3482203Y-6777470D01*
X-3334883Y-6777470D02*
X-3314563Y-6777470D01*
X-3197723Y-6777470D02*
X-3177403Y-6777470D01*
X-6027283Y-6772390D02*
X-6006963Y-6772390D01*
X-5961243Y-6772390D02*
X-5940923Y-6772390D01*
X-5829163Y-6772390D02*
X-5783443Y-6772390D01*
X-5468483Y-6772390D02*
X-5448163Y-6772390D01*
X-5366883Y-6772390D02*
X-5346563Y-6772390D01*
X-4818243Y-6772390D02*
X-4797923Y-6772390D01*
X-4731883Y-6772390D02*
X-4711563Y-6772390D01*
X-4386443Y-6772390D02*
X-4361043Y-6772390D01*
X-4289923Y-6772390D02*
X-4269603Y-6772390D01*
X-4010523Y-6772390D02*
X-3990203Y-6772390D01*
X-3609203Y-6772390D02*
X-3588883Y-6772390D01*
X-3502523Y-6772390D02*
X-3482203Y-6772390D01*
X-3334883Y-6772390D02*
X-3314563Y-6772390D01*
X-3197723Y-6772390D02*
X-3177403Y-6772390D01*
X-6027283Y-6767310D02*
X-6001883Y-6767310D01*
X-5966323Y-6767310D02*
X-5940923Y-6767310D01*
X-5829163Y-6767310D02*
X-5788523Y-6767310D01*
X-5468483Y-6767310D02*
X-5443083Y-6767310D01*
X-5366883Y-6767310D02*
X-5346563Y-6767310D01*
X-4818243Y-6767310D02*
X-4792843Y-6767310D01*
X-4731883Y-6767310D02*
X-4711563Y-6767310D01*
X-4386443Y-6767310D02*
X-4355963Y-6767310D01*
X-4289923Y-6767310D02*
X-4269603Y-6767310D01*
X-4010523Y-6767310D02*
X-3990203Y-6767310D01*
X-3609203Y-6767310D02*
X-3588883Y-6767310D01*
X-3502523Y-6767310D02*
X-3482203Y-6767310D01*
X-3334883Y-6767310D02*
X-3314563Y-6767310D01*
X-3197723Y-6767310D02*
X-3177403Y-6767310D01*
X-6022203Y-6762230D02*
X-5996803Y-6762230D01*
X-5971403Y-6762230D02*
X-5946003Y-6762230D01*
X-5829163Y-6762230D02*
X-5798683Y-6762230D01*
X-5463403Y-6762230D02*
X-5432923Y-6762230D01*
X-5366883Y-6762230D02*
X-5346563Y-6762230D01*
X-4813163Y-6762230D02*
X-4787763Y-6762230D01*
X-4731883Y-6762230D02*
X-4711563Y-6762230D01*
X-4381363Y-6762230D02*
X-4345803Y-6762230D01*
X-4289923Y-6762230D02*
X-4269603Y-6762230D01*
X-4010523Y-6762230D02*
X-3990203Y-6762230D01*
X-3609203Y-6762230D02*
X-3588883Y-6762230D01*
X-3502523Y-6762230D02*
X-3482203Y-6762230D01*
X-3334883Y-6762230D02*
X-3314563Y-6762230D01*
X-3197723Y-6762230D02*
X-3177403Y-6762230D01*
X-6022203Y-6757150D02*
X-5946003Y-6757150D01*
X-5829163Y-6757150D02*
X-5803763Y-6757150D01*
X-5463403Y-6757150D02*
X-5346563Y-6757150D01*
X-4813163Y-6757150D02*
X-4711563Y-6757150D01*
X-4376283Y-6757150D02*
X-4269603Y-6757150D01*
X-4010523Y-6757150D02*
X-3990203Y-6757150D01*
X-3964803Y-6757150D02*
X-3944483Y-6757150D01*
X-3609203Y-6757150D02*
X-3588883Y-6757150D01*
X-3502523Y-6757150D02*
X-3482203Y-6757150D01*
X-3334883Y-6757150D02*
X-3314563Y-6757150D01*
X-3284083Y-6757150D02*
X-3177403Y-6757150D01*
X-6017123Y-6752070D02*
X-5951083Y-6752070D01*
X-5829163Y-6752070D02*
X-5808843Y-6752070D01*
X-5458323Y-6752070D02*
X-5346563Y-6752070D01*
X-4808083Y-6752070D02*
X-4711563Y-6752070D01*
X-4371203Y-6752070D02*
X-4269603Y-6752070D01*
X-4010523Y-6752070D02*
X-3990203Y-6752070D01*
X-3964803Y-6752070D02*
X-3944483Y-6752070D01*
X-3609203Y-6752070D02*
X-3588883Y-6752070D01*
X-3502523Y-6752070D02*
X-3482203Y-6752070D01*
X-3334883Y-6752070D02*
X-3314563Y-6752070D01*
X-3284083Y-6752070D02*
X-3177403Y-6752070D01*
X-6012043Y-6746990D02*
X-5956163Y-6746990D01*
X-5829163Y-6746990D02*
X-5813923Y-6746990D01*
X-5453243Y-6746990D02*
X-5346563Y-6746990D01*
X-4803003Y-6746990D02*
X-4711563Y-6746990D01*
X-4366123Y-6746990D02*
X-4269603Y-6746990D01*
X-4010523Y-6746990D02*
X-3990203Y-6746990D01*
X-3964803Y-6746990D02*
X-3944483Y-6746990D01*
X-3609203Y-6746990D02*
X-3599043Y-6746990D01*
X-3502523Y-6746990D02*
X-3482203Y-6746990D01*
X-3334883Y-6746990D02*
X-3314563Y-6746990D01*
X-3284083Y-6746990D02*
X-3177403Y-6746990D01*
X-6001883Y-6741910D02*
X-5966323Y-6741910D01*
X-5829163Y-6741910D02*
X-5813923Y-6741910D01*
X-5438003Y-6741910D02*
X-5346563Y-6741910D01*
X-4787763Y-6741910D02*
X-4711563Y-6741910D01*
X-4350883Y-6741910D02*
X-4269603Y-6741910D01*
X-4010523Y-6741910D02*
X-3990203Y-6741910D01*
X-3964803Y-6741910D02*
X-3944483Y-6741910D01*
X-3502523Y-6741910D02*
X-3482203Y-6741910D01*
X-3334883Y-6741910D02*
X-3314563Y-6741910D01*
X-3284083Y-6741910D02*
X-3177403Y-6741910D01*
D25*
X-10500000Y-7200000D02*
X-10551117Y-7195026D01*
X-10598389Y-7180713D01*
X-10640900Y-7157977D01*
X-10677734Y-7127734D01*
X-10707977Y-7090900D01*
X-10730713Y-7048389D01*
X-10745026Y-7001117D01*
X-10750000Y-6950000D01*
X-10750000Y+3550000D02*
X-10745026Y+3601117D01*
X-10730713Y+3648389D01*
X-10707977Y+3690900D01*
X-10677734Y+3727734D01*
X-10640900Y+3757977D01*
X-10598389Y+3780713D01*
X-10551117Y+3795026D01*
X-10500000Y+3800000D01*
X-5250000Y+800000D02*
X-8200000Y+3800000D01*
X+3800000Y+100000D02*
X+3050000Y+850000D01*
X-1300000Y+800000D02*
X-1248883Y+804974D01*
X-1201611Y+819287D01*
X-1159100Y+842023D01*
X-1122266Y+872266D01*
X-1092023Y+909100D01*
X-1069287Y+951611D01*
X-1054974Y+998883D01*
X-1050000Y+1050000D01*
X-1050000Y+2000000D02*
X-1045026Y+2051117D01*
X-1030713Y+2098389D01*
X-1007977Y+2140900D01*
X-977734Y+2177734D01*
X-940900Y+2207977D01*
X-898389Y+2230713D01*
X-851117Y+2245026D01*
X-800000Y+2250000D01*
X+2800000Y+2250000D02*
X+2851117Y+2245026D01*
X+2898389Y+2230713D01*
X+2940900Y+2207977D01*
X+2977734Y+2177734D01*
X+3007977Y+2140900D01*
X+3030713Y+2098389D01*
X+3045026Y+2051117D01*
X+3050000Y+2000000D01*
X+4050000Y-750000D02*
X+3998883Y-745026D01*
X+3951611Y-730713D01*
X+3909100Y-707977D01*
X+3872266Y-677734D01*
X+3842023Y-640900D01*
X+3819287Y-598389D01*
X+3804974Y-551117D01*
X+3800000Y-500000D01*
X+8600000Y-750000D02*
X+8651117Y-754974D01*
X+8698389Y-769287D01*
X+8740900Y-792023D01*
X+8777734Y-822266D01*
X+8807977Y-859100D01*
X+8830713Y-901611D01*
X+8845026Y-948883D01*
X+8850000Y-1000000D01*
X+8600000Y-7200000D02*
X+8651117Y-7195026D01*
X+8698389Y-7180713D01*
X+8740900Y-7157977D01*
X+8777734Y-7127734D01*
X+8807977Y-7090900D01*
X+8830713Y-7048389D01*
X+8845026Y-7001117D01*
X+8850000Y-6950000D01*
X-800000Y+2250000D02*
X+2800000Y+2250000D01*
X-1050000Y+2000000D02*
X-1050000Y+1050000D01*
X-1300000Y+800000D02*
X-5250000Y+800000D01*
X+3050000Y+850000D02*
X+3050000Y+2000000D01*
X+3800000Y-500000D02*
X+3800000Y+100000D01*
X+4050000Y-750000D02*
X+8600000Y-750000D01*
X+8850000Y-6950000D02*
X+8850000Y-1000000D01*
X+8600000Y-7200000D02*
X-10500000Y-7200000D01*
X-10750000Y-6950000D02*
X-10750000Y+3550000D01*
X-10500000Y+3800000D02*
X-8200000Y+3800000D01*
M02*
