G04 PROTEUS GERBER X2 FILE*
%TF.GenerationSoftware,Labcenter,Proteus,8.6-SP2-Build23525*%
%TF.CreationDate,2023-01-29T17:34:11+00:00*%
%TF.FileFunction,Plated,1,2,PTH*%
%TF.FilePolarity,Positive*%
%TF.Part,Single*%
%FSLAX45Y45*%
%MOMM*%
G01*
%TA.AperFunction,ViaDrill*%
%ADD63C,0.381000*%
%TA.AperFunction,ComponentDrill*%
%ADD64C,1.016000*%
%TA.AperFunction,ComponentDrill*%
%ADD65C,0.762000*%
%TA.AperFunction,ComponentDrill*%
%ADD66C,1.524000*%
%TD.AperFunction*%
D63*
X-8000000Y-5600000D03*
X-9200000Y-5600000D03*
X+334051Y-5374918D03*
X+2350000Y-5300000D03*
X+4502224Y-5232752D03*
X+7090000Y-3970000D03*
X+8010000Y-4220000D03*
X+6289287Y-5165746D03*
X+6586585Y-5164222D03*
X+6000000Y-4210000D03*
X+4468614Y-3964455D03*
X+4336349Y-3825198D03*
X+3933258Y-4210711D03*
X+2411447Y-3962708D03*
X+2274468Y-3826024D03*
X-2201233Y-5504834D03*
X+1845451Y-4209125D03*
X-1606369Y-5187061D03*
X-1610000Y-5030000D03*
X-1762096Y-5246236D03*
X-1767421Y-5041227D03*
X-1766719Y-3825321D03*
X+697161Y-3038265D03*
X+0Y-4210000D03*
X-1608035Y-3963997D03*
X-3201490Y-3042567D03*
X-7932415Y-3960705D03*
X-2998651Y-3964088D03*
X-2901481Y-4210373D03*
X-2799066Y-3827069D03*
X-8400000Y+100000D03*
X-8300158Y-3984869D03*
X+7750000Y-3830000D03*
X+6436682Y-5464077D03*
X+6483839Y-4083882D03*
X+4608378Y-4078798D03*
X+2540000Y-4080000D03*
X-3131825Y-4086829D03*
X+2400000Y-3700000D03*
X+5679679Y-3702008D03*
X+1479095Y-3701045D03*
X-4890903Y+285445D03*
X-5959645Y+283375D03*
X-3650000Y-3420000D03*
X-453291Y-3688191D03*
X-6400000Y-3700000D03*
X-7500000Y-6000000D03*
X-8000000Y-6000000D03*
X+7850695Y-3698774D03*
X+3700000Y-3700000D03*
X-7291831Y-1353165D03*
X-4408167Y-1352577D03*
X-4704503Y-625636D03*
X-2105843Y-613904D03*
X-2239292Y-1086541D03*
X-6445023Y-1083311D03*
X-1850000Y-1740000D03*
X-6953789Y-1738863D03*
X-1956907Y-1485201D03*
X-6698474Y-1485396D03*
X-6952416Y-1588546D03*
X-1600000Y-1590000D03*
X+1503296Y-1991979D03*
X+2570000Y-1990000D03*
X+1227405Y+610000D03*
X-6103790Y+610000D03*
X-3645663Y-3688291D03*
X-6995972Y-3417083D03*
X-9121140Y-3417083D03*
X-7223176Y-1263100D03*
X-4664763Y-1267950D03*
X-7145887Y-1156873D03*
X-4920339Y-1155785D03*
X-7650000Y-4210000D03*
X-8430872Y-3036405D03*
X-7460468Y+106759D03*
X+978935Y+414852D03*
X+1733390Y+423235D03*
X-1515637Y-4089760D03*
X+237864Y-3826128D03*
X+414834Y-3967701D03*
X+507307Y-4084578D03*
D64*
X-1661252Y-6400000D03*
X-1407252Y-6400000D03*
X-1153252Y-6400000D03*
X-899252Y-6400000D03*
X-645252Y-6400000D03*
X-391252Y-6400000D03*
X-137252Y-6400000D03*
X+116748Y-6400000D03*
X+370748Y-6400000D03*
X+624748Y-6400000D03*
X+878748Y-6400000D03*
X+1132748Y-6400000D03*
X+1386748Y-6400000D03*
X+1640748Y-6400000D03*
X+1894748Y-6400000D03*
X+2148748Y-6400000D03*
X+2402748Y-6400000D03*
X+2656748Y-6400000D03*
X+2910748Y-6400000D03*
X+3164748Y-6400000D03*
X+3418748Y-6400000D03*
X+3672748Y-6400000D03*
X+3926748Y-6400000D03*
X+4180748Y-6400000D03*
X+4434748Y-6400000D03*
X+4688748Y-6400000D03*
X+4942748Y-6400000D03*
X+5196748Y-6400000D03*
X+5450748Y-6400000D03*
X+5704748Y-6400000D03*
X+5958748Y-6400000D03*
X+6212748Y-6400000D03*
X+6466748Y-6400000D03*
X+6720748Y-6400000D03*
X+6974748Y-6400000D03*
X+7228748Y-6400000D03*
X+7482748Y-6400000D03*
X+7736748Y-6400000D03*
X+7990748Y-6400000D03*
X+8244748Y-6400000D03*
X+8244748Y-6650000D03*
X+7990748Y-6650000D03*
X+7736748Y-6650000D03*
X+7482748Y-6650000D03*
X+7228748Y-6650000D03*
X+6974748Y-6650000D03*
X+6720748Y-6650000D03*
X+6466748Y-6650000D03*
X+6212748Y-6650000D03*
X+5958748Y-6650000D03*
X+5704748Y-6650000D03*
X+5450748Y-6650000D03*
X+5196748Y-6650000D03*
X+4942748Y-6650000D03*
X+4688748Y-6650000D03*
X+4434748Y-6650000D03*
X+4180748Y-6650000D03*
X+3926748Y-6650000D03*
X+3672748Y-6650000D03*
X+3418748Y-6650000D03*
X+3164748Y-6650000D03*
X+2910748Y-6650000D03*
X+2656748Y-6650000D03*
X+2402748Y-6650000D03*
X+2148748Y-6650000D03*
X+1894748Y-6650000D03*
X+1640748Y-6650000D03*
X+1386748Y-6650000D03*
X+1132748Y-6650000D03*
X+878748Y-6650000D03*
X+624748Y-6650000D03*
X+370748Y-6650000D03*
X+116748Y-6650000D03*
X-137252Y-6650000D03*
X-391252Y-6650000D03*
X-645252Y-6650000D03*
X-899252Y-6650000D03*
X-1153252Y-6650000D03*
X-1407252Y-6650000D03*
X-1661252Y-6650000D03*
X-10005252Y+3256000D03*
X-10005252Y+3002000D03*
X-10005252Y+2748000D03*
X-10005252Y+2494000D03*
X-10005252Y+2240000D03*
X-10005252Y+1986000D03*
X-10005252Y+1732000D03*
X-10005252Y+1478000D03*
X-10005252Y+1224000D03*
X-10005252Y+970000D03*
X-10005252Y+716000D03*
X-10005252Y+462000D03*
X-10005252Y+208000D03*
X-10005252Y-46000D03*
X-10005252Y-300000D03*
X-10005252Y-554000D03*
X-10005252Y-808000D03*
X-10005252Y-1062000D03*
X-10005252Y-1316000D03*
X-10005252Y-1570000D03*
X-10005252Y-1824000D03*
X-10005252Y-2078000D03*
X-10005252Y-2332000D03*
X-10005252Y-2586000D03*
X-10005252Y-2840000D03*
X-10005252Y-3094000D03*
X-10005252Y-3348000D03*
X-10005252Y-3602000D03*
X-10005252Y-3856000D03*
X-10005252Y-4110000D03*
X-10005252Y-4364000D03*
X-10005252Y-4618000D03*
X-10005252Y-4872000D03*
X-10005252Y-5126000D03*
X-10005252Y-5380000D03*
X-10005252Y-5634000D03*
X-10005252Y-5888000D03*
X-10005252Y-6142000D03*
X-10005252Y-6396000D03*
X-10005252Y-6650000D03*
X-10255252Y-6650000D03*
X-10255252Y-6396000D03*
X-10255252Y-6142000D03*
X-10255252Y-5888000D03*
X-10255252Y-5634000D03*
X-10255252Y-5380000D03*
X-10255252Y-5126000D03*
X-10255252Y-4872000D03*
X-10255252Y-4618000D03*
X-10255252Y-4364000D03*
X-10255252Y-4110000D03*
X-10255252Y-3856000D03*
X-10255252Y-3602000D03*
X-10255252Y-3348000D03*
X-10255252Y-3094000D03*
X-10255252Y-2840000D03*
X-10255252Y-2586000D03*
X-10255252Y-2332000D03*
X-10255252Y-2078000D03*
X-10255252Y-1824000D03*
X-10255252Y-1570000D03*
X-10255252Y-1316000D03*
X-10255252Y-1062000D03*
X-10255252Y-808000D03*
X-10255252Y-554000D03*
X-10255252Y-300000D03*
X-10255252Y-46000D03*
X-10255252Y+208000D03*
X-10255252Y+462000D03*
X-10255252Y+716000D03*
X-10255252Y+970000D03*
X-10255252Y+1224000D03*
X-10255252Y+1478000D03*
X-10255252Y+1732000D03*
X-10255252Y+1986000D03*
X-10255252Y+2240000D03*
X-10255252Y+2494000D03*
X-10255252Y+2748000D03*
X-10255252Y+3002000D03*
X-10255252Y+3256000D03*
X-3650000Y-870000D03*
X-3904000Y-870000D03*
X-4158000Y-870000D03*
X-4412000Y-870000D03*
X-4666000Y-870000D03*
X-4920000Y-870000D03*
X-5174000Y-870000D03*
X-5428000Y-870000D03*
X-5682000Y-870000D03*
X-5936000Y-870000D03*
X-6190000Y-870000D03*
X-6444000Y-870000D03*
X-6698000Y-870000D03*
X-6952000Y-870000D03*
X-6952000Y-2394000D03*
X-6698000Y-2394000D03*
X-6444000Y-2394000D03*
X-6190000Y-2394000D03*
X-5936000Y-2394000D03*
X-5682000Y-2394000D03*
X-5428000Y-2394000D03*
X-5174000Y-2394000D03*
X-4920000Y-2394000D03*
X-4666000Y-2394000D03*
X-4412000Y-2394000D03*
X-4158000Y-2394000D03*
X-3904000Y-2394000D03*
X-3650000Y-2394000D03*
D65*
X-9130000Y-4130000D03*
X-8114000Y-4130000D03*
X-7830000Y-5298384D03*
X-7830000Y-6314384D03*
X-1200000Y-4600000D03*
X-184000Y-4600000D03*
X+700000Y-4600000D03*
X+1716000Y-4600000D03*
X+2800000Y-4600000D03*
X+3816000Y-4600000D03*
X+4800000Y-4600000D03*
X+5816000Y-4600000D03*
X+6800000Y-4600000D03*
X+7816000Y-4600000D03*
D64*
X-694000Y-30000D03*
X-440000Y-30000D03*
X-186000Y-30000D03*
X+975346Y-93346D03*
X+1229346Y-93346D03*
X+1483346Y-93346D03*
D65*
X-810654Y-2723346D03*
X-810654Y-1707346D03*
D64*
X+8300000Y-2400000D03*
X+8300000Y-2938265D03*
X+7240000Y-1400000D03*
X+7240000Y-3420000D03*
X+2680000Y-1400000D03*
X+2680000Y-2420000D03*
D65*
X-1600000Y+200000D03*
X-1850000Y+200000D03*
X-2100000Y+200000D03*
X-2350000Y+200000D03*
X-2100000Y+450000D03*
X-1850000Y+450000D03*
X-1600000Y+450000D03*
X-2350000Y+450000D03*
D66*
X-590000Y+1252000D03*
X-590000Y+1700000D03*
X+422000Y+1476000D03*
D65*
X+3030000Y+40000D03*
X+3538000Y+40000D03*
X-220000Y-670000D03*
X-220000Y-1178000D03*
X+1756000Y-880000D03*
X+740000Y-880000D03*
X-200000Y-2160000D03*
X-200000Y-1906000D03*
X+844000Y-1560000D03*
X+590000Y-1560000D03*
D66*
X+1400000Y+1252000D03*
X+1400000Y+1700000D03*
X+2412000Y+1476000D03*
M02*
